<svg xmlns="http://www.w3.org/2000/svg" xmlns:xlink="http://www.w3.org/1999/xlink" viewBox="0 0 175.69 175.69"><defs><style>.cls-1{fill:#fff;}.cls-2{fill:url(#Degradado_sin_nombre_23);}.cls-3{fill:url(#Degradado_sin_nombre_23-2);}</style><linearGradient id="Degradado_sin_nombre_23" x1="22.52" y1="88.14" x2="125.9" y2="88.14" gradientUnits="userSpaceOnUse"><stop offset="0" stop-color="#524aa0"/><stop offset="1" stop-color="#7177bf"/></linearGradient><linearGradient id="Degradado_sin_nombre_23-2" x1="70.52" y1="78.88" x2="153.17" y2="78.88" xlink:href="#Degradado_sin_nombre_23"/></defs><title>Recurso 5</title><g id="Capa_2" data-name="Capa 2"><g id="Capa_2-2" data-name="Capa 2"><rect class="cls-1" width="175.69" height="175.69" rx="29.13" ry="29.13"/><path class="cls-2" d="M22.53,95.63,23,77.77A13.28,13.28,0,0,1,36.13,64.85l12.08-.16,5.71-8.62a11.57,11.57,0,0,1,9.21-5.2l16-.66L66.23,71.37A15.88,15.88,0,0,0,63.92,78c-.4,4,.6,9.37,7.24,13.43,6.26,3.83,11.37,2.68,14.79.77a15.94,15.94,0,0,0,5.73-5.63l5.81-9.5,26.28,16.08a4.45,4.45,0,0,1,1.47,6.13l-4.58,7.49a6,6,0,0,1-8.31,2h0l-6.42,10.5a7,7,0,0,1-9.6,2.31L93.69,120h0a12.68,12.68,0,0,1-17.42,4.19L52.82,109.86l-17.64-.69A13.18,13.18,0,0,1,22.53,95.63Z"/><path class="cls-3" d="M71.5,75.72s-3.6,5.9,3,10c3.31,2,6.06,1.68,8,.83a8.4,8.4,0,0,0,3.69-3.34l9.15-15,31.93,19.53A11.09,11.09,0,0,1,130.94,103l-3.08,5,12,.14a12.64,12.64,0,0,0,12.78-12.29l.51-19a13.78,13.78,0,0,0-13.82-14.15l-13.62,0a7.92,7.92,0,0,1-4.2-1.21L103.81,50.45a5.38,5.38,0,0,0-2.89-.82l-9.33,0a7.46,7.46,0,0,0-6.34,3.57Z"/></g></g></svg>