<svg xmlns="http://www.w3.org/2000/svg" viewBox="0 0 587 1086"><defs><style>.cls-1{fill:#524aa0;}.cls-2{fill:#7177bf;opacity:0.2;}.cls-3{fill:#fff;}.cls-4{fill:none;}</style></defs><title>fondo mobile</title><g id="Capa_2" data-name="Capa 2"><g id="Capa_1-2" data-name="Capa 1"><rect class="cls-1" width="585" height="1086"/><path class="cls-2" d="M519.37,110.5C494,92.5,468.65,41,477.83,3H80.38C56,72,69,159.49,138.57,297.5c52.14,103.48,8.37,247-138.57,269V956.52C182.82,971,210.14,759,325.23,839.5c45.56,31.87,57.43,139.7-8.68,246.5H558.32q13.6-2.62,26.68-5.5V109.86C559.43,122.05,537.34,123.26,519.37,110.5Z"/><circle class="cls-3" cx="33.49" cy="291.06" r="5.13"/><circle class="cls-3" cx="61.82" cy="638.89" r="5.92"/><circle class="cls-3" cx="222.72" cy="46.55" r="3.55"/><circle class="cls-3" cx="220.35" cy="257.93" r="3.55"/><circle class="cls-3" cx="223.51" cy="747.73" r="3.55"/><circle class="cls-3" cx="123.99" cy="953.59" r="3.55"/><circle class="cls-3" cx="513.31" cy="1061.65" r="3.55"/><circle class="cls-3" cx="532.01" cy="931.44" r="3.55"/><circle class="cls-3" cx="513.31" cy="63.9" r="5.13"/><circle class="cls-3" cx="499.03" cy="449.59" r="2.76"/><circle class="cls-3" cx="563" cy="678.32" r="2.76"/><rect class="cls-4" width="587" height="1086"/></g></g></svg>