<svg xmlns="http://www.w3.org/2000/svg" viewBox="0 0 820 619"><defs><style>.cls-1{fill:#f4f4f4;}.cls-2{fill:#fff;}.cls-3,.cls-4,.cls-6{fill:#7177bf;}.cls-4{font-size:29.98px;}.cls-4,.cls-6{font-family:GothamRounded-Bold, Gotham Rounded;font-weight:700;}.cls-5{letter-spacing:0.01em;}.cls-6{font-size:21.07px;}.cls-7{letter-spacing:-0.04em;}.cls-8{letter-spacing:-0.02em;}.cls-9{letter-spacing:-0.02em;}.cls-10{fill:#f5f6f7;}.cls-11{fill:#dbdbf1;}.cls-12{fill:#ededf7;}</style></defs><title>Recurso 23</title><g id="Capa_2" data-name="Capa 2"><g id="Capa_1-2" data-name="Capa 1"><path class="cls-1" d="M280.72,610.8C148.89,573.19,22.83,481.34,7.9,348.56S64.9,71.37,256.29,28.22s382.76-49.8,484.56,74.69S681.12,531.13,563,567.65,362.16,634,280.72,610.8Z"/><rect class="cls-2" x="38.49" y="160.44" width="267.87" height="65.32" rx="13.67" ry="13.67"/><path class="cls-3" d="M288.54,160.44a17.87,17.87,0,0,1,17.82,17.81v29.69a17.87,17.87,0,0,1-17.82,17.82H56.31a17.87,17.87,0,0,1-17.82-17.82V178.25a17.87,17.87,0,0,1,17.82-17.81H288.54m0-3.91H56.31a21.75,21.75,0,0,0-21.73,21.72v29.69a21.76,21.76,0,0,0,21.73,21.73H288.54a21.76,21.76,0,0,0,21.73-21.73V178.25a21.75,21.75,0,0,0-21.73-21.72Z"/><text class="cls-4" transform="translate(117.76 203.67)">8<tspan class="cls-5" x="18.89" y="0">/</tspan><tspan x="35.08" y="0">10 = 80%</tspan></text><path class="cls-3" d="M70.27,190.42a8.87,8.87,0,1,0-8.87-8.86A8.86,8.86,0,0,0,70.27,190.42Zm6.2,2.22H75.32a12,12,0,0,1-10.1,0H64.06A9.31,9.31,0,0,0,54.75,202v2.88a3.33,3.33,0,0,0,3.33,3.32H82.46a3.32,3.32,0,0,0,3.32-3.32V202A9.31,9.31,0,0,0,76.47,192.64Zm22.37-8.89-1.92-1.95a.82.82,0,0,0-1.17,0L88.5,189l-3.16-3.17a.82.82,0,0,0-1.16,0l-2,1.93a.82.82,0,0,0,0,1.16l5.66,5.7a.81.81,0,0,0,1.16,0l9.79-9.71A.83.83,0,0,0,98.84,183.75Z"/><rect class="cls-2" x="475.22" y="157.44" width="267.87" height="65.32" rx="13.67" ry="13.67"/><path class="cls-3" d="M725.27,157.44a17.86,17.86,0,0,1,17.81,17.81v29.69a17.87,17.87,0,0,1-17.81,17.82H493a17.87,17.87,0,0,1-17.81-17.82V175.25A17.86,17.86,0,0,1,493,157.44H725.27m0-3.91H493a21.74,21.74,0,0,0-21.72,21.72v29.69A21.75,21.75,0,0,0,493,226.67H725.27A21.76,21.76,0,0,0,747,204.94V175.25a21.75,21.75,0,0,0-21.73-21.72Z"/><text class="cls-4" transform="translate(554.49 200.67)">2<tspan class="cls-5" x="18.68" y="0">/</tspan><tspan x="34.87" y="0">10 = 20%</tspan></text><path class="cls-3" d="M507,187.42a8.87,8.87,0,1,0-8.86-8.86A8.87,8.87,0,0,0,507,187.42Zm6.21,2.22H512a12,12,0,0,1-10.1,0h-1.15a9.31,9.31,0,0,0-9.31,9.31v2.88a3.32,3.32,0,0,0,3.32,3.32h24.38a3.33,3.33,0,0,0,3.33-3.32V199A9.31,9.31,0,0,0,513.2,189.64Zm22.37-8.89-1.93-1.95a.81.81,0,0,0-1.16,0l-7.26,7.2-3.15-3.17a.82.82,0,0,0-1.16,0L519,184.75a.81.81,0,0,0,0,1.16l5.66,5.7a.81.81,0,0,0,1.16,0l9.79-9.71A.82.82,0,0,0,535.57,180.75Z"/><text></text><text></text><circle class="cls-2" cx="213.15" cy="77.87" r="39.76"/><path class="cls-3" d="M213.15,120.89a43,43,0,1,1,43-43A43.07,43.07,0,0,1,213.15,120.89Zm0-79.52a36.5,36.5,0,1,0,36.5,36.5A36.54,36.54,0,0,0,213.15,41.37Z"/><text class="cls-6" transform="translate(182.06 86.6)"><tspan class="cls-7">L</tspan><tspan x="12.2" y="0">OGO</tspan></text><rect class="cls-2" x="117.33" y="277.41" width="249" height="65.32" rx="13.67" ry="13.67"/><path class="cls-3" d="M348.51,277.41a17.87,17.87,0,0,1,17.82,17.81v29.69a17.87,17.87,0,0,1-17.82,17.82H135.15a17.87,17.87,0,0,1-17.82-17.82V295.22a17.87,17.87,0,0,1,17.82-17.81H348.51m0-3.91H135.15a21.74,21.74,0,0,0-21.73,21.72v29.69a21.75,21.75,0,0,0,21.73,21.73H348.51a21.76,21.76,0,0,0,21.73-21.73V295.22a21.75,21.75,0,0,0-21.73-21.72Z"/><rect class="cls-3" x="138.69" y="290.92" width="37.46" height="37.46" rx="9.17" ry="9.17"/><path class="cls-2" d="M153.85,311.57l5.87,1.68a1,1,0,0,1-.27,1.94H155.6a3.13,3.13,0,0,1-1.21-.26,1.45,1.45,0,0,0-1.65.23l-2.06,2.06a1.41,1.41,0,0,0,.18,2.16,8.61,8.61,0,0,0,3.73,1.35v2.08a1.89,1.89,0,0,0,1.88,1.88h1.88a1.89,1.89,0,0,0,1.88-1.88v-2.07a6.6,6.6,0,0,0,5.79-7.4,6.88,6.88,0,0,0-5-5.6l-5.87-1.68a1,1,0,0,1,.27-1.93h3.85a3.12,3.12,0,0,1,1.21.25,1.47,1.47,0,0,0,1.66-.23l2.05-2.06a1.41,1.41,0,0,0-.18-2.16,8.61,8.61,0,0,0-3.73-1.35v-2.07a1.88,1.88,0,0,0-1.88-1.88h-1.88a1.88,1.88,0,0,0-1.88,1.88v2.06a6.61,6.61,0,0,0-5.78,7.4A6.89,6.89,0,0,0,153.85,311.57Z"/><path class="cls-3" d="M158.36,294.63a1.88,1.88,0,0,1,1.88,1.88v2.07a8.61,8.61,0,0,1,3.73,1.35,1.41,1.41,0,0,1,.18,2.16l-2.05,2.06a1.38,1.38,0,0,1-1,.39,1.55,1.55,0,0,1-.69-.16,3.12,3.12,0,0,0-1.21-.25h-3.85a1,1,0,0,0-.27,1.93l5.87,1.68a6.88,6.88,0,0,1,5,5.6,6.6,6.6,0,0,1-5.79,7.4v2.07a1.89,1.89,0,0,1-1.88,1.88h-1.88a1.89,1.89,0,0,1-1.88-1.88v-2.08a8.61,8.61,0,0,1-3.73-1.35,1.41,1.41,0,0,1-.18-2.16l2.06-2.06a1.36,1.36,0,0,1,1-.39,1.65,1.65,0,0,1,.68.16,3.13,3.13,0,0,0,1.21.26h3.85a1,1,0,0,0,.27-1.94l-5.87-1.68a6.89,6.89,0,0,1-5-5.6,6.61,6.61,0,0,1,5.78-7.4v-2.06a1.88,1.88,0,0,1,1.88-1.88h1.88m0-3.91h-1.88a5.8,5.8,0,0,0-5.73,5A10.45,10.45,0,0,0,149,313.4l-1.05,1.05a5.33,5.33,0,0,0-1.54,4.33,5.26,5.26,0,0,0,2.32,3.86,12.34,12.34,0,0,0,2.06,1.1,5.8,5.8,0,0,0,5.71,4.86h1.88a5.79,5.79,0,0,0,5.73-5,10.6,10.6,0,0,0,3.68-3,10.42,10.42,0,0,0-1.89-14.74l1-1.05a5.34,5.34,0,0,0,1.54-4.32,5.26,5.26,0,0,0-2.33-3.87,12.2,12.2,0,0,0-2-1.09,5.81,5.81,0,0,0-5.72-4.86Z"/><text class="cls-4" transform="translate(208.63 321.91)">88<tspan class="cls-8" x="37.78" y="0">.</tspan><tspan x="45.75" y="0">000</tspan></text><rect class="cls-2" x="3.91" y="394.38" width="255.52" height="65.32" rx="13.67" ry="13.67"/><path class="cls-3" d="M241.61,394.38a17.87,17.87,0,0,1,17.82,17.81v29.69a17.87,17.87,0,0,1-17.82,17.82H21.73A17.87,17.87,0,0,1,3.91,441.88V412.19a17.87,17.87,0,0,1,17.82-17.81H241.61m0-3.92H21.73A21.76,21.76,0,0,0,0,412.19v29.69a21.76,21.76,0,0,0,21.73,21.73H241.61a21.76,21.76,0,0,0,21.73-21.73V412.19a21.76,21.76,0,0,0-21.73-21.73Z"/><path class="cls-3" d="M57.16,429.68H55.89v-7a.64.64,0,0,0-.64-.64H54.17a1.94,1.94,0,0,0-1.06.32l-1.22.81a.64.64,0,0,0-.17.89h0l.7,1.06a.64.64,0,0,0,.89.17h0l0,0v4.41H52.07a.64.64,0,0,0-.64.63v1.28a.64.64,0,0,0,.64.63h5.09a.64.64,0,0,0,.64-.63v-1.28a.64.64,0,0,0-.64-.63Zm20.37-17.82H31.71a2.55,2.55,0,0,0-2.55,2.54v25.46a2.55,2.55,0,0,0,2.55,2.55H77.53a2.55,2.55,0,0,0,2.54-2.55V414.4A2.54,2.54,0,0,0,77.53,411.86ZM33,438.59V433.5a5.09,5.09,0,0,1,5.09,5.09Zm0-17.82v-5.09h5.09A5.09,5.09,0,0,1,33,420.77ZM54.62,436c-4.22,0-7.64-4-7.64-8.91s3.42-8.91,7.64-8.91,7.63,4,7.63,8.91S58.83,436,54.62,436Zm21.63,2.55H71.16a5.09,5.09,0,0,1,5.09-5.09Zm0-17.82a5.09,5.09,0,0,1-5.09-5.09h5.09Z"/><text class="cls-4" transform="translate(108.25 438.88)">1<tspan class="cls-8" x="12.65" y="0">0.</tspan><tspan x="41.92" y="0">000</tspan></text><rect class="cls-2" x="70.4" y="511.35" width="257.23" height="65.32" rx="13.67" ry="13.67"/><path class="cls-3" d="M309.81,511.35a17.87,17.87,0,0,1,17.82,17.81v29.69a17.87,17.87,0,0,1-17.82,17.82H88.21A17.87,17.87,0,0,1,70.4,558.85V529.16a17.86,17.86,0,0,1,17.81-17.81h221.6m0-3.92H88.21a21.75,21.75,0,0,0-21.72,21.73v29.69a21.75,21.75,0,0,0,21.72,21.73h221.6a21.76,21.76,0,0,0,21.73-21.73V529.16a21.76,21.76,0,0,0-21.73-21.73Z"/><path class="cls-3" d="M112.25,528.64A15.37,15.37,0,1,0,127.62,544,15.37,15.37,0,0,0,112.25,528.64Zm3.54,21.69-5.47-4a.75.75,0,0,1-.3-.6V535.33a.74.74,0,0,1,.74-.74h3a.74.74,0,0,1,.74.74v8.53l3.94,2.87a.75.75,0,0,1,.16,1l-1.75,2.4a.75.75,0,0,1-1,.16Z"/><text class="cls-4" transform="translate(156.69 554.89)">1 <tspan class="cls-9" x="21.65" y="0">y</tspan><tspan x="38.68" y="0">ear</tspan></text><rect class="cls-2" x="561.88" y="272.36" width="254.21" height="65.32" rx="13.67" ry="13.67"/><path class="cls-3" d="M798.27,272.36a17.87,17.87,0,0,1,17.82,17.82v29.69a17.87,17.87,0,0,1-17.82,17.81H579.69a17.86,17.86,0,0,1-17.81-17.81V290.18a17.87,17.87,0,0,1,17.81-17.82H798.27m0-3.91H579.69A21.75,21.75,0,0,0,558,290.18v29.69a21.75,21.75,0,0,0,21.72,21.73H798.27A21.76,21.76,0,0,0,820,319.87V290.18a21.76,21.76,0,0,0-21.73-21.73Z"/><rect class="cls-3" x="584.54" y="285.88" width="37.46" height="37.46" rx="9.17" ry="9.17"/><path class="cls-2" d="M599.7,306.53l5.87,1.68a1,1,0,0,1,.72,1,1,1,0,0,1-1,1h-3.85a3.12,3.12,0,0,1-1.21-.25,1.45,1.45,0,0,0-1.65.23l-2.06,2.06a1.41,1.41,0,0,0,.18,2.16,8.65,8.65,0,0,0,3.73,1.35v2.07a1.88,1.88,0,0,0,1.88,1.88h1.88a1.88,1.88,0,0,0,1.88-1.88V315.7a6.6,6.6,0,0,0,5.79-7.4,6.88,6.88,0,0,0-5-5.6L601,301a1,1,0,0,1,.27-1.94h3.85a3.09,3.09,0,0,1,1.21.26,1.47,1.47,0,0,0,1.66-.23l2-2.06a1.41,1.41,0,0,0-.17-2.16,8.69,8.69,0,0,0-3.74-1.35v-2.08a1.88,1.88,0,0,0-1.88-1.87h-1.88a1.87,1.87,0,0,0-1.87,1.87v2.07a6.6,6.6,0,0,0-5.79,7.4A6.89,6.89,0,0,0,599.7,306.53Z"/><path class="cls-3" d="M604.21,289.59a1.88,1.88,0,0,1,1.88,1.87v2.08a8.61,8.61,0,0,1,3.73,1.35,1.41,1.41,0,0,1,.18,2.16l-2,2.06a1.38,1.38,0,0,1-1,.39,1.7,1.7,0,0,1-.69-.16,3.09,3.09,0,0,0-1.21-.26h-3.85A1,1,0,0,0,601,301l5.87,1.68a6.88,6.88,0,0,1,5,5.6,6.6,6.6,0,0,1-5.79,7.4v2.06a1.88,1.88,0,0,1-1.88,1.88h-1.88a1.88,1.88,0,0,1-1.88-1.88v-2.07a8.65,8.65,0,0,1-3.73-1.35,1.41,1.41,0,0,1-.18-2.16l2.06-2.06a1.36,1.36,0,0,1,1-.39,1.51,1.51,0,0,1,.68.16,3.12,3.12,0,0,0,1.21.25h3.85a1,1,0,0,0,1-1,1,1,0,0,0-.72-1l-5.87-1.68a6.89,6.89,0,0,1-5-5.6,6.6,6.6,0,0,1,5.79-7.4v-2.07a1.87,1.87,0,0,1,1.87-1.87h1.88m0-3.92h-1.88a5.81,5.81,0,0,0-5.73,5,10.45,10.45,0,0,0-1.78,17.72l-1.05,1.05a5.32,5.32,0,0,0-1.54,4.33,5.26,5.26,0,0,0,2.32,3.86,12.29,12.29,0,0,0,2.06,1.09,5.79,5.79,0,0,0,5.71,4.86h1.88a5.78,5.78,0,0,0,5.73-5,10.72,10.72,0,0,0,3.68-3,10.42,10.42,0,0,0-1.89-14.74l1-1.05a5.34,5.34,0,0,0,1.54-4.32,5.24,5.24,0,0,0-2.33-3.87,11.51,11.51,0,0,0-2.05-1.09,5.81,5.81,0,0,0-5.72-4.87Z"/><text class="cls-4" transform="translate(658.39 315.57)">22<tspan class="cls-8" x="37.36" y="0">.</tspan><tspan x="45.33" y="0">000</tspan></text><rect class="cls-2" x="469.32" y="387.29" width="259.43" height="65.32" rx="13.67" ry="13.67"/><path class="cls-3" d="M710.93,387.29a17.87,17.87,0,0,1,17.81,17.82V434.8a17.86,17.86,0,0,1-17.81,17.81H487.13a17.86,17.86,0,0,1-17.81-17.81V405.11a17.87,17.87,0,0,1,17.81-17.82h223.8m0-3.91H487.13a21.75,21.75,0,0,0-21.72,21.73V434.8a21.74,21.74,0,0,0,21.72,21.72h223.8a21.75,21.75,0,0,0,21.73-21.72V405.11a21.76,21.76,0,0,0-21.73-21.73Z"/><path class="cls-3" d="M522.57,422.59h-1.28v-7a.63.63,0,0,0-.63-.63h-1.08a1.89,1.89,0,0,0-1.06.32l-1.22.81a.64.64,0,0,0-.18.88h0l.71,1.06a.64.64,0,0,0,.88.18h0l0,0v4.41h-1.27a.64.64,0,0,0-.64.64v1.27a.64.64,0,0,0,.64.64h5.09a.64.64,0,0,0,.63-.64v-1.27a.64.64,0,0,0-.63-.64Zm20.36-17.82H497.11a2.55,2.55,0,0,0-2.54,2.55v25.46a2.54,2.54,0,0,0,2.54,2.54h45.82a2.55,2.55,0,0,0,2.55-2.54V407.32A2.55,2.55,0,0,0,542.93,404.77ZM498.38,431.5v-5.09a5.09,5.09,0,0,1,5.1,5.09Zm0-17.82v-5.09h5.1A5.09,5.09,0,0,1,498.38,413.68ZM520,429c-4.22,0-7.63-4-7.63-8.91s3.41-8.91,7.63-8.91,7.64,4,7.64,8.91S524.24,429,520,429Zm21.64,2.54h-5.09a5.09,5.09,0,0,1,5.09-5.09Zm0-17.82a5.09,5.09,0,0,1-5.09-5.09h5.09Z"/><text class="cls-4" transform="translate(576.26 431.8)">15<tspan class="cls-8" x="31.54" y="0">.</tspan><tspan x="39.52" y="0">000</tspan></text><rect class="cls-2" x="520.16" y="502.22" width="253.32" height="65.32" rx="13.67" ry="13.67"/><path class="cls-3" d="M755.66,502.22A17.87,17.87,0,0,1,773.48,520v29.68a17.87,17.87,0,0,1-17.82,17.82H538a17.87,17.87,0,0,1-17.82-17.82V520A17.87,17.87,0,0,1,538,502.22H755.66m0-3.91H538A21.75,21.75,0,0,0,516.25,520v29.68A21.75,21.75,0,0,0,538,571.45H755.66a21.76,21.76,0,0,0,21.73-21.73V520a21.76,21.76,0,0,0-21.73-21.73Z"/><path class="cls-3" d="M560.71,519.51a15.37,15.37,0,1,0,15.37,15.37A15.37,15.37,0,0,0,560.71,519.51Zm3.54,21.7-5.47-4a.74.74,0,0,1-.3-.6V526.2a.74.74,0,0,1,.74-.74h3a.74.74,0,0,1,.74.74v8.54l3.94,2.86a.75.75,0,0,1,.16,1l-1.75,2.41a.76.76,0,0,1-1,.16Z"/><text class="cls-4" transform="translate(609.06 545.77)">1 <tspan class="cls-9" x="21.65" y="0">y</tspan><tspan x="38.68" y="0">ear</tspan></text><circle class="cls-2" cx="604.9" cy="77.22" r="43.02"/><path class="cls-3" d="M604.9,123.5a46.28,46.28,0,1,1,46.28-46.28A46.33,46.33,0,0,1,604.9,123.5Zm0-86a39.76,39.76,0,1,0,39.76,39.76A39.8,39.8,0,0,0,604.9,37.46Z"/><path class="cls-2" d="M585.49,57.82s-4.16,20.79-3.33,34.92,13.52,20.31,26.72,20.55,19-16.39,17.35-29.69-4.16-32.43-4.16-32.43Z"/><path class="cls-3" d="M622.07,51.17s2.49,19.12,4.16,32.43-4.08,29.69-17.08,29.69h-.27c-13.2-.24-25.89-6.42-26.72-20.55s3.33-34.92,3.33-34.92l36.58-6.65m2.23-3.06-2.7.49L585,55.26l-1.74.31-.35,1.74c-.17.86-4.21,21.28-3.37,35.58.8,13.67,12.29,22.7,29.27,23h.32a16.74,16.74,0,0,0,12.81-6c5.42-6.14,8.11-16.61,6.85-26.67-1.64-13.16-4.13-32.25-4.15-32.44l-.36-2.72Z"/><path class="cls-10" d="M626.23,83.6C625,73.86,623.35,61,622.55,54.82c-2.92,1.86-4.51,4.77-3.39,9.24,4.16,16.63,4.16,35.75-4.16,42.4-4.57,3.66-12.4,4.55-18.53,4.61a37.86,37.86,0,0,0,12.41,2.22C622.07,113.53,627.89,96.9,626.23,83.6Z"/><path class="cls-2" d="M584,92.62s-6-19-4.29-28.15l-5-10.81,7.48.84,1.67-8.32,4.15,5s28.27-6.65,43.24-3.33L623.32,52l15.38,0-12.47,6.65,7.48,1.67s-11.64,5-22.45,5.82A230.66,230.66,0,0,0,588,69.46Z"/><path class="cls-3" d="M583.83,46.18l4.15,5s18.09-4.26,33-4.26a48.84,48.84,0,0,1,10.25.93L623.32,52l15.38,0-12.47,6.65,7.48,1.67s-11.64,5-22.45,5.82A230.66,230.66,0,0,0,588,69.46l-4,23.16s-6-19-4.29-28.15l-5-10.81,7.48.84,1.67-8.32m-1.49-5.86-1.07,5.35-1.2,6-5.1-.57-4.59-.51,1.93,4.2L577,64.85c-1.3,9.88,4.26,27.77,4.51,28.55l3.21,10.26,1.84-10.59,3.71-21.39c3.79-.7,13-2.32,21.22-2.94,11.11-.86,22.79-5.82,23.28-6l7.43-3.18-7.89-1.76-.61-.13,6.26-3.34,9.22-4.92H633.86l4.85-2.56-6.93-1.54a50.73,50.73,0,0,0-10.81-1c-12.63,0-27.22,2.93-32,4l-3.14-3.77-3.49-4.19Z"/><path class="cls-2" d="M588.81,92.74s-8.47-.23-7.56-10.51,9.23-2.79,9.23-2.79"/><path class="cls-3" d="M588.78,94A9.71,9.71,0,0,1,582.3,91c-1.89-2.13-2.68-5.11-2.35-8.86.3-3.43,1.45-5.55,3.4-6.32,3.41-1.34,7.54,2.26,8,2.67l-1.74,1.94c-.86-.77-3.69-2.82-5.3-2.18-.93.37-1.56,1.83-1.76,4.12-.27,3,.3,5.33,1.7,6.9a7.14,7.14,0,0,0,4.6,2.19Z"/><ellipse class="cls-3" cx="600.87" cy="84.43" rx="2.08" ry="2.49"/><ellipse class="cls-3" cx="619.58" cy="83.18" rx="2.08" ry="2.49"/><path class="cls-3" d="M593.66,79a1.3,1.3,0,0,1-.4-2.54c.71-.23,7.06-2.28,9.81-2.33a1.27,1.27,0,0,1,1.32,1.28,1.31,1.31,0,0,1-1.28,1.33c-2,0-7.2,1.6-9,2.2A1.45,1.45,0,0,1,593.66,79Z"/><path class="cls-3" d="M623.38,77.45a1.49,1.49,0,0,1-.36,0,23.52,23.52,0,0,0-7.12-.86,1.3,1.3,0,1,1-.26-2.59,25.62,25.62,0,0,1,8.1.94,1.31,1.31,0,0,1,.89,1.62A1.29,1.29,0,0,1,623.38,77.45Z"/><path class="cls-3" d="M603.71,106.11a6,6,0,0,1-2.79-.62,4.73,4.73,0,0,1-2.41-3.71,1.3,1.3,0,1,1,2.57-.39,2.17,2.17,0,0,0,1.07,1.8c1.63.87,4.82-.28,5.81-.74a1.3,1.3,0,1,1,1.11,2.35A13.87,13.87,0,0,1,603.71,106.11Z"/><path class="cls-10" d="M588,51.17l-4.15-5-1.67,8.32-7.48-.84,5,10.81a22.66,22.66,0,0,0-.28,4.65c1-3.47,2-6.33,2.77-7.14l-.83-3.33,2.5.83V53.66l3.32,2.5s22.58-2.51,38.08-5.16l6-3.16C616.25,44.52,588,51.17,588,51.17Z"/><path class="cls-11" d="M387,549.79s-1.5,15-13.47,18-44.89,12-4.49,13.46,44.89-1.49,44.89-1.49,0-25.44-4.49-28.43S387,549.79,387,549.79Z"/><path class="cls-3" d="M396.55,549.41c5.05,0,10.66.38,12.9,1.88,4.49,3,4.49,28.43,4.49,28.43s-2.87,1.91-24.71,1.91c-5.45,0-12.1-.12-20.18-.42-40.4-1.49-7.48-10.47,4.49-13.46s13.47-18,13.47-18,4.49-.38,9.54-.38m0-4.48c-5.18,0-9.72.37-9.92.38l-3.72.32-.37,3.71c0,.1-1.38,11.87-10.09,14C366.23,565,361,566.45,357,567.85c-6.34,2.21-12.49,4.82-11.95,10.07s6.34,7.13,23.82,7.78c7.57.28,14.41.42,20.35.42,15.4,0,24.55-.9,27.2-2.67l2-1.33v-2.4c0-.27,0-6.63-.57-13.47-1.15-13.73-3.52-17.1-5.92-18.7-1.83-1.22-5.24-2.62-15.39-2.62Z"/><path class="cls-11" d="M467.74,549.79s1.5,15,13.47,18,44.89,12,4.49,13.46-44.89-1.49-44.89-1.49,0-25.44,4.48-28.43S467.74,549.79,467.74,549.79Z"/><path class="cls-3" d="M458.2,549.41c5.05,0,9.54.38,9.54.38s1.5,15,13.47,18,44.89,12,4.49,13.46c-8.08.3-14.73.42-20.19.42-21.83,0-24.7-1.91-24.7-1.91s0-25.44,4.48-28.43c2.25-1.5,7.86-1.88,12.91-1.88m0-4.48c-10.16,0-13.56,1.4-15.4,2.62-2.39,1.6-4.76,5-5.91,18.7-.57,6.84-.57,13.2-.57,13.47v2.4l2,1.33c2.66,1.77,11.81,2.67,27.2,2.67,5.95,0,12.79-.14,20.35-.42,17.49-.65,23.28-2.54,23.82-7.78s-5.6-7.86-11.94-10.07c-4-1.4-9.22-2.9-15.44-4.46-8.71-2.18-10.08-13.95-10.09-14.07l-.4-3.68-3.7-.33c-.19,0-4.73-.38-9.91-.38Z"/><path class="cls-2" d="M355.58,395.66S376.53,543.8,384,557.27h28.44l-6-106.24h16.46l18,106.24h29.93s-6-95.77-6-107.74,7.48-50.88,3-61.35S355.58,395.66,355.58,395.66Z"/><path class="cls-3" d="M451.41,384.9c9.11,0,15.39.91,16.4,3.28,4.49,10.47-3,49.38-3,61.35s6,107.74,6,107.74H440.88L422.92,451H406.46l6,106.24H384c-7.48-13.47-28.43-161.61-28.43-161.61s64.58-10.76,95.83-10.76m0-4.49c-31.26,0-93.91,10.38-96.57,10.82l-4.32.72.62,4.34c2.15,15.24,21.29,149.36,28.95,163.16l1.28,2.31H417.2l-.27-4.74-5.72-101.51h7.92L436.45,558l.63,3.74h38.5l-.29-4.77c-.06-1-6-95.77-6-107.46,0-3.72.84-10.81,1.74-18.31,2.47-20.8,4.1-37.31.89-44.81-1.85-4.32-7.61-6-20.53-6Z"/><path class="cls-10" d="M464.82,449.53c0-12,7.48-50.88,3-61.35s-112.23,7.48-112.23,7.48,1.19,8.43,3.11,21.43a126.88,126.88,0,0,0,74.39,15.48,8.4,8.4,0,0,1,9.08,7.05l18.78,117.65h9.87S464.82,461.5,464.82,449.53Z"/><path class="cls-11" d="M406.46,258.84c-24,.78-42.42,5.12-46.39,36.55-6,47.4-50.82,116.15,38.91,120.26,83.8,3.84,81.66-17.29,83.8-35,3-24.84-16.46-61-22.45-82.84C452.35,268.73,448.36,257.49,406.46,258.84Z"/><path class="cls-3" d="M412.83,258.74c36,0,39.95,11.53,47.5,39.07,6,21.82,25.44,58,22.45,82.84-2,16.28-.31,35.46-65.18,35.46q-8.52,0-18.62-.46c-89.73-4.11-44.89-72.86-38.91-120.26,4-31.43,22.42-35.77,46.39-36.55q3.35-.1,6.37-.1m0-4.49c-2.05,0-4.24,0-6.51.11-23.17.75-46.16,4.49-50.7,40.46-1.28,10.11-4.36,21.16-7.62,32.85-7.35,26.33-14.95,53.57-1.48,72.18,9,12.45,26.1,19.09,52.25,20.28,6.68.31,13,.46,18.83.46,28.82,0,47.09-3.63,57.51-11.42,9.9-7.42,11-17.37,11.83-25.38.1-.87.19-1.74.29-2.6,2.22-18.37-6.66-41.42-14.49-61.74-3.25-8.43-6.31-16.39-8.08-22.83-4.17-15.2-7.21-24.93-14.28-31.87-7.48-7.36-18.72-10.5-37.55-10.5Z"/><path class="cls-12" d="M482.72,381.11,479,378.45s-41.9,22.45-73.33,23.94c-19.54.93-43.71-6.24-59.2-11.8,5.67,14,20.55,23.6,52.47,25.06C482.05,419.45,480.68,398.73,482.72,381.11Z"/><path class="cls-2" d="M466.32,380.69s-16.46,6-18,10.48,4.49,6,4.49,6-15.21,10.32-6.11,21.62,36-24.23,36-24.23Z"/><path class="cls-3" d="M451.38,423.24a8,8,0,0,1-6.39-3.06,13.7,13.7,0,0,1-3.25-10.89c.76-5.07,4.34-9.22,7-11.64a7.21,7.21,0,0,1-2.11-2.33,5.93,5.93,0,0,1-.36-4.86c1.71-5.12,15.22-10.38,19.32-11.88l1.22-.44,19.09,16.05-1.29,1.7c-2.11,2.78-20.94,27.17-33.05,27.35Zm14.49-40c-7.76,3-14.8,6.88-15.38,8.63a1.5,1.5,0,0,0,0,1.28A5.31,5.31,0,0,0,453.4,395l4.8,1.25L454.11,399c-.07.05-7,4.87-7.93,11a9.26,9.26,0,0,0,2.31,7.39,3.39,3.39,0,0,0,3,1.39c7.82-.12,22-16,28.22-23.89Z"/><path class="cls-11" d="M436.39,273c4.22-5.19,15-10.47,29.93,1.5S507,305.8,511.21,325.33c4.49,20.95-12,53.87-23.94,68.83-4.68,5.84-7.53,9-7.53,9L454.35,379.2s27.81-31.22,16.46-49.38C463.32,317.84,416.94,296.89,436.39,273Z"/><path class="cls-3" d="M449,267.19c4.8,0,10.65,1.9,17.35,7.26,15,12,40.71,31.36,44.89,50.88,4.49,20.95-12,53.87-23.94,68.83-4.68,5.84-7.53,9-7.53,9L454.35,379.2s27.81-31.22,16.46-49.38c-7.49-12-53.87-32.93-34.42-56.87A16.12,16.12,0,0,1,449,267.19m0-4.49h0a20.51,20.51,0,0,0-16.06,7.42c-4.38,5.4-6.27,11.17-5.6,17.16,1.52,13.56,15.88,24.83,27.42,33.89,5.44,4.27,10.58,8.31,12.28,11,7.85,12.57-8.89,36-16,44l-2.9,3.26,3.18,3,25.39,24,3.33,3.13,3.07-3.38c.12-.13,3-3.31,7.71-9.19,12.85-16.06,29.62-50.23,24.83-72.58-4.26-19.87-27.9-38.67-43.55-51.11l-2.93-2.34c-6.84-5.47-13.62-8.24-20.15-8.24Z"/><path class="cls-2" d="M391.5,243v22.45S402,275.94,419.93,267V243Z"/><path class="cls-3" d="M405.82,272.88a23.31,23.31,0,0,1-15.91-5.82l-.66-.66V240.78h32.92v27.57l-1.24.62A33.62,33.62,0,0,1,405.82,272.88Zm-12.08-8.43c2.33,1.85,10.7,7.16,23.94,1.1V245.27H393.74Z"/><path class="cls-2" d="M394.78,249c-18.84-1-34.83-2.9-33.38-29s-4.35-55.15-2.9-62.4-2.9-29,49.35-29,45,55.15,43.54,62.41S449.94,251.92,394.78,249Z"/><path class="cls-3" d="M407.85,128.55c52.25,0,45,55.15,43.54,62.41C450,198,449.93,249.13,399,249.13c-1.38,0-2.78,0-4.23-.12-18.85-1-34.84-2.9-33.39-29s-4.35-55.15-2.9-62.4-2.9-29,49.35-29m0-4.49c-21.51,0-36.09,3.55-44.58,10.84-7.7,6.62-8.45,14.64-8.89,19.43-.09.93-.17,1.81-.28,2.36-.71,3.57-.19,9.44.89,20.37,1.22,12.45,2.75,27.95,1.93,42.68-.59,10.68,1.5,18.53,6.39,24,7.08,7.89,18.34,9.1,31.24,9.78,1.51.08,3,.12,4.47.12,21.24,0,36.87-8.28,46.46-24.6,7.56-12.86,9.16-27.29,9.94-34.23.14-1.25.27-2.44.37-2.95.26-1.31,6.22-32.24-10.14-52.2-8.48-10.34-21.2-15.58-37.8-15.58Z"/><path class="cls-10" d="M361.4,220c-1.45,26.13,14.54,28,33.39,29,16.46.87,28-3.33,36.12-9.8-18.81,3.94-42.54,3.47-52.88-8.16-12-13.47-6-91.28-6-91.28l4-6.93c-18.42,6.72-16.45,19.5-17.5,24.74C357.05,164.83,362.85,193.86,361.4,220Z"/><path class="cls-11" d="M359.05,152.79s-25.91-25-25.91-35.47,91.28-10.47,110.73-6,35.91-3,28.43,34.42-14.92,64.46-24.67,66.65l-2.26-32.24s-18-17.95-22.45-29.92C422.92,150.25,377.48,144.86,359.05,152.79Z"/><path class="cls-3" d="M397.15,108.49c20.09,0,39,1.07,46.72,2.85,19.45,4.49,35.91-3,28.43,34.42s-14.92,64.46-24.67,66.65l-2.26-32.24s-18-17.95-22.45-29.92a301.56,301.56,0,0,0-31.39-1.79c-12,0-24.67,1-32.48,4.33,0,0-25.91-25-25.91-35.47,0-6.33,33.34-8.83,64-8.83m0-4.49a405.88,405.88,0,0,0-44,2.07c-17.61,2.06-24.47,5.21-24.47,11.25,0,11.79,22.72,34.31,27.28,38.7l2.15,2.07,2.74-1.18c6-2.59,16.65-4,30.71-4,12,0,23.37,1,28.31,1.48,5.1,10.64,17.28,23.69,21.17,27.71l2.15,30.58.36,5.21,5.1-1.14c10.86-2.44,18.21-20.8,28.09-70.15,3-15.12,2.49-24.44-1.73-30.21-4.47-6.14-11.85-7-19.65-7.86A89.67,89.67,0,0,1,444.88,107c-7.8-1.8-26.54-3-47.73-3Z"/><path class="cls-2" d="M434.89,181.67s6-20.2,15.71-7.86,2.25,33.3-8.23,30.31"/><path class="cls-3" d="M444.42,206.66a9.88,9.88,0,0,1-2.66-.38L443,202c3.33.95,5.72-1.74,6.86-3.42,3.84-5.73,4.55-16.28-1-23.34-1.26-1.59-3.11-3.42-4.86-3.09-3.12.59-6,7.13-6.94,10.2l-4.3-1.28c.37-1.23,3.76-12.06,10.39-13.33,3.18-.61,6.29,1,9.24,4.73,6.89,8.75,6,21.42,1.2,28.61C451.12,204.7,447.88,206.66,444.42,206.66Z"/><path class="cls-2" d="M343.61,270s1.5-20.95,9-28.43,6,6,6,6,20.95-20.95,31.42-9-6,25.44-23.94,29.93l-6,15Z"/><path class="cls-3" d="M361,287.1,341.29,271l.08-1.16c.07-.89,1.65-21.88,9.63-29.86,1-1,4-4,7-2.55,1.78.86,2.55,2.94,2.85,5.11,4.88-4,13.62-10.15,21.49-9.9a12.61,12.61,0,0,1,9.38,4.46c3.56,4.06,4.66,8.68,3.2,13.35-3,9.55-15.61,16.8-27.17,19.94ZM346,269l13.17,10.78,5.28-13.19,1.11-.28c12.39-3.09,22.94-10.33,25.1-17.21,1-3.19.24-6.15-2.3-9.06a8.15,8.15,0,0,0-6.14-2.92c-9.6-.33-21.88,11.89-22,12l-4.51,4.5.69-6.33a15.14,15.14,0,0,0-.3-5.65,8.27,8.27,0,0,0-1.86,1.49C348.88,248.41,346.55,262.61,346,269Z"/><path class="cls-11" d="M339.12,371.72c-25.44-4.49-16.46-46.39,1.5-106.25l29.93,6S370.62,377.27,339.12,371.72Z"/><path class="cls-3" d="M340.62,265.47l29.93,6s.07,100.47-29.07,100.47a13.79,13.79,0,0,1-2.36-.21c-25.44-4.49-16.46-46.39,1.5-106.25m-3.13-5.2-1.17,3.91c-15.71,52.37-22.84,85.88-12.8,102.19a20.92,20.92,0,0,0,14.82,9.77,18.69,18.69,0,0,0,3.14.28c8.6,0,15.65-6.19,20.95-18.4,3.78-8.7,6.79-20.71,8.95-35.69A400.61,400.61,0,0,0,375,271.45v-3.68l-3.6-.72-29.93-6-4-.8Z"/><ellipse class="cls-3" cx="369.05" cy="187.66" rx="2.99" ry="4.49"/><ellipse class="cls-3" cx="402.72" cy="188.4" rx="2.99" ry="4.49"/><path class="cls-11" d="M369.05,214.59s-9,13.47-7.48,16.46c.53,1.06,28.38.93,39.86,1.33a1.59,1.59,0,0,0,1-2.86L388.5,219.08Z"/><path class="cls-3" d="M369.05,214.59l19.45,4.49,13.93,10.44a1.59,1.59,0,0,1-.94,2.86h-.06c-11.48-.4-39.33-.27-39.86-1.33-1.5-3,7.48-16.46,7.48-16.46m-2-5.07-1.73,2.58c-10.42,15.64-8.55,19.37-7.76,21,1.44,2.87,3.91,2.95,12.1,3.21,4.79.15,11,.24,16.92.32,5.68.07,11,.15,14.7.27h.22a6.08,6.08,0,0,0,3.63-10.94L391.2,215.49l-.76-.57-.93-.21-19.45-4.49-3-.7Z"/><path class="cls-2" d="M382.52,190.65c-9,6-29.93,18-29.93,23.94s44.89,6,44.89,6"/><path class="cls-3" d="M397.48,222.82c-47.14,0-47.14-6.19-47.14-8.23,0-5.69,10.9-13.05,25.14-22.08,2.19-1.39,4.18-2.66,5.79-3.73l2.49,3.74c-1.63,1.08-3.65,2.37-5.88,3.78-6.69,4.24-22.08,14-23,17.94,3.17,2.53,24.28,4.09,42.6,4.09Z"/><path class="cls-3" d="M406.64,241.6c-1.05,0-1.75-.07-1.84-.08a1.5,1.5,0,0,1,.33-3c.06,0,6.29.65,9.09-2.24,1.14-1.19,1.55-2.84,1.23-5a1.5,1.5,0,0,1,3-.42c.44,3.14-.25,5.67-2.06,7.54C413.66,241.17,409.15,241.6,406.64,241.6Z"/><path class="cls-3" d="M419.18,174.94a1.52,1.52,0,0,1-1.31-.77,12,12,0,0,0-7.41-6.24c-6.24-1.67-12.89,2.26-13,2.3a1.49,1.49,0,0,1-1.54-2.56c.32-.19,7.84-4.63,15.27-2.64a15,15,0,0,1,9.26,7.68,1.5,1.5,0,0,1-.58,2A1.47,1.47,0,0,1,419.18,174.94Z"/><path class="cls-3" d="M360.07,172.69a1.41,1.41,0,0,1-.72-.19,1.49,1.49,0,0,1-.59-2c.15-.27,3.69-6.53,9.21-6.75,3.53-.15,6.77,2.09,9.81,6.65a1.5,1.5,0,0,1-2.49,1.66c-2.42-3.63-4.81-5.41-7.2-5.32-3.8.15-6.68,5.16-6.71,5.21A1.49,1.49,0,0,1,360.07,172.69Z"/><path class="cls-12" d="M511.21,325.33c-4.18-19.53-29.93-38.91-44.89-50.88-4.82-3.85-9.19-5.91-13.06-6.77,16.08,12.88,39.65,35.5,44.48,60.64,5.29,27.48-15.55,52.7-28.25,65.16l10.25,9.66s2.85-3.14,7.53-9C499.24,379.2,515.7,346.28,511.21,325.33Z"/><path class="cls-12" d="M363.25,270c-1.85,23-5.56,61.92-10.66,79.27-4,13.56-13.08,18.19-20.7,19.56a18,18,0,0,0,7.23,2.89c31.5,5.55,31.43-100.26,31.43-100.26Z"/><path class="cls-10" d="M406.51,452a3.26,3.26,0,0,0-.8-.21c-9.11-1-6.58,63-4,105.5h10.73Z"/><path class="cls-12" d="M472.3,145.76c7.48-37.41-9-29.93-28.43-34.42s-110.73-4.49-110.73,6a13,13,0,0,0,1.35,5.07l106.79,2a18.52,18.52,0,0,1,18.15,19.4l-2.8,58.76C462.3,191.19,467.29,170.8,472.3,145.76Z"/></g></g></svg>