<svg xmlns="http://www.w3.org/2000/svg" viewBox="0 0 269.52 246.46"><defs><style>.cls-1{fill:#f4f4f4;}.cls-2,.cls-9{fill:#fff;}.cls-3,.cls-6,.cls-7{fill:#7177bf;}.cls-4{fill:#f5f6f7;}.cls-5{fill:#dbdbf1;}.cls-6,.cls-7,.cls-9{font-size:10.14px;font-family:GothamRounded-Bold, Gotham Rounded;font-weight:700;}.cls-7{letter-spacing:-0.01em;}.cls-8{letter-spacing:0em;}.cls-10{letter-spacing:0em;}.cls-11{fill:#ededf7;}</style></defs><title>Recurso 13</title><g id="Capa_2" data-name="Capa 2"><g id="Capa_1-2" data-name="Capa 1"><path class="cls-1" d="M132.75,246.45c-66.38.91-69.6-38.42-109.44-82.63C-14.37,122-4.5,59.29,39.46,39.38S181.19-24.34,219.77,17.47s69.07,76.66,35,146.35C227.19,220.17,205.41,245.45,132.75,246.45Z"/><rect class="cls-2" x="49.14" y="19.32" width="138.15" height="204.05" rx="20.33" ry="20.33"/><path class="cls-3" d="M174.4,19.32A12.88,12.88,0,0,1,187.28,32.2V210.48a12.88,12.88,0,0,1-12.88,12.89H62a12.89,12.89,0,0,1-12.88-12.89V32.2A12.88,12.88,0,0,1,62,19.32H174.4m0-1.9H62A14.8,14.8,0,0,0,47.24,32.2V210.48A14.8,14.8,0,0,0,62,225.27H174.4a14.81,14.81,0,0,0,14.79-14.79V32.2A14.8,14.8,0,0,0,174.4,17.42Z"/><path class="cls-4" d="M174.4,19.32h-5.49V196.75a12.68,12.68,0,0,1-12.68,12.68H49.14v1A12.89,12.89,0,0,0,62,223.37H174.4a12.88,12.88,0,0,0,12.88-12.89V32.2A12.88,12.88,0,0,0,174.4,19.32Z"/><rect class="cls-2" x="66.88" y="47.2" width="107.09" height="23.45" rx="7.85" ry="7.85"/><path class="cls-3" d="M162.25,47.2a11.73,11.73,0,1,1,0,23.45H78.61a11.73,11.73,0,1,1,0-23.45h83.64m0-1.9H78.61a13.63,13.63,0,1,0,0,27.25h83.64a13.63,13.63,0,1,0,0-27.25Z"/><rect class="cls-2" x="66.88" y="89.66" width="107.09" height="23.45" rx="7.85" ry="7.85"/><path class="cls-3" d="M162.25,89.66a11.73,11.73,0,1,1,0,23.45H78.61a11.73,11.73,0,1,1,0-23.45h83.64m0-1.9H78.61a13.63,13.63,0,1,0,0,27.25h83.64a13.63,13.63,0,1,0,0-27.25Z"/><rect class="cls-2" x="66.88" y="136.55" width="107.09" height="23.45" rx="7.85" ry="7.85"/><path class="cls-3" d="M162.25,136.55a11.73,11.73,0,1,1,0,23.45H78.61a11.73,11.73,0,1,1,0-23.45h83.64m0-1.9H78.61a13.63,13.63,0,1,0,0,27.25h83.64a13.63,13.63,0,1,0,0-27.25Z"/><rect class="cls-5" x="89.7" y="179.64" width="61.47" height="16.48" rx="5.52" ry="5.52"/><path class="cls-3" d="M142.93,179.64a8.24,8.24,0,0,1,0,16.48h-45a8.24,8.24,0,0,1,0-16.48h45m0-1.9h-45a10.14,10.14,0,0,0,0,20.28h45a10.14,10.14,0,0,0,0-20.28Z"/><text class="cls-6" transform="translate(77.66 62.62)">Name</text><text class="cls-6" transform="translate(77.66 105.08)">Email</text><text class="cls-7" transform="translate(77.66 151.34)">C<tspan class="cls-8" x="7.38" y="0">ountry</tspan></text><text class="cls-9" transform="translate(106.8 191.26)"><tspan class="cls-10">S</tspan><tspan x="6.44" y="0">tart</tspan></text><path class="cls-5" d="M147.66,143s5-9.2,10.19-11.8c0,0,6,12.63,11.64,10.8s3.15-20.12,10.08-24.25,11.68.35,10.57,9.88-5.62,24.72-14.55,29S147.66,143,147.66,143Z"/><path class="cls-3" d="M172.47,158.24c-9.91,0-24.75-13.86-25.46-14.52l-.53-.5.35-.65c.2-.38,5.15-9.5,10.6-12.2l.86-.43.42.88c1.56,3.3,6.48,11.58,10.49,10.3,2.2-.71,3-5.41,3.83-10,1-5.83,2.08-11.85,6.05-14.21,3.26-1.94,6.31-2.2,8.59-.72,2.81,1.81,4.05,6,3.41,11.52-1,8.86-5.37,25.09-15.08,29.74A8.13,8.13,0,0,1,172.47,158.24Zm-23.61-15.4c5.59,5.12,19.71,16.11,26.32,12.95,7.8-3.74,12.73-17.26,14-28.25.55-4.69-.41-8.32-2.55-9.71-1.64-1.06-4-.79-6.59.76-3.21,1.92-4.24,7.76-5.15,12.91-1,5.57-1.83,10.37-5.12,11.43a4.64,4.64,0,0,1-1.46.23c-5,0-9.41-7.75-10.88-10.61C153.61,135,150,140.89,148.86,142.84Z"/><path class="cls-5" d="M188.87,226.85s.63,5.07-3.17,6.34-13.94,2.53-8.87,5.07h20.91s1.9-7.6-1.27-10.77S188.87,226.85,188.87,226.85Z"/><path class="cls-3" d="M198.48,239.21H176.6l-.2-.1c-.51-.25-2.06-1-1.9-2.36.2-1.73,3-2.49,7.51-3.57,1.3-.31,2.53-.61,3.39-.89,3-1,2.55-5.15,2.52-5.32l-.07-.63.55-.31c1.75-1,5.83-2.13,8.74.78,3.51,3.51,1.61,11.35,1.52,11.68Zm-21.42-1.9H197c.46-2.38.87-7.11-1.18-9.15s-4.8-1.21-5.94-.73c.07,2.16-.64,5.59-3.86,6.66-.94.31-2.2.62-3.55.94-1.84.44-5.18,1.24-6,1.9A3,3,0,0,0,177.06,237.31Z"/><path class="cls-5" d="M214.22,226.85s.63,5.07-3.17,6.34-13.94,2.53-8.87,5.07h20.91s1.9-7.6-1.27-10.77S214.22,226.85,214.22,226.85Z"/><path class="cls-3" d="M223.83,239.21H202l-.2-.1c-.51-.25-2.06-1-1.91-2.36.2-1.73,3-2.49,7.52-3.57,1.3-.31,2.53-.61,3.39-.89,3-1,2.54-5.15,2.52-5.32l-.07-.63.54-.31c1.76-1,5.84-2.13,8.75.78,3.51,3.51,1.6,11.35,1.52,11.68Zm-21.42-1.9h19.91c.46-2.38.87-7.11-1.17-9.15s-4.8-1.21-5.94-.73c.07,2.16-.64,5.59-3.86,6.66-.94.31-2.21.62-3.55.94-1.85.44-5.18,1.24-6,1.9A3,3,0,0,0,202.41,237.31Z"/><path class="cls-2" d="M180,173s5.7,51.33,7.6,57H199l.63-34.85h5.07l7,34.22H225L221.82,173Z"/><path class="cls-3" d="M221.82,173l3.17,56.4H211.68l-7-34.22h-5.07L199,230H187.6c-1.9-5.7-7.6-57-7.6-57h41.82m1.8-1.9H177.87l.24,2.11c.23,2.1,5.75,51.6,7.69,57.42l.43,1.3h14.64l0-1.86.6-33h1.65l6.66,32.7.31,1.52H227l-.11-2-3.17-56.4-.1-1.79Z"/><path class="cls-4" d="M180,173s.38,3.46,1,8.67c5.86,3.13,16.87,6.11,36.09,2.42l7.55,45.31H225L221.82,173Z"/><path class="cls-5" d="M178.73,175.52c-8.24-7.6-1.9-39.92-1.9-45s2.34-10.76,9.5-13.94a31.52,31.52,0,0,1,11.41-2.53l15.84,1.9s11.41,3.17,10.14,9.5,10.14,41.19-1.27,50.06C214.17,182,187,183.13,178.73,175.52Z"/><path class="cls-3" d="M197.74,114.06l15.84,1.9s11.41,3.17,10.14,9.5,10.14,41.19-1.27,50.06c-4.31,3.36-13.75,5.28-23,5.28-8.49,0-16.8-1.63-20.75-5.28-8.24-7.6-1.9-39.92-1.9-45s2.34-10.76,9.5-13.94a31.52,31.52,0,0,1,11.41-2.53m.11-1.91h-.11a33.38,33.38,0,0,0-12.18,2.7c-6.76,3-10.63,8.72-10.63,15.68,0,.93-.29,3.25-.61,5.93-2,16.34-3.57,34.28,3.12,40.46,5.65,5.22,17.3,5.78,22,5.78,10.23,0,19.71-2.23,24.14-5.68,8.9-6.92,5.65-26.05,3.29-40-.84-4.94-1.63-9.62-1.32-11.16,1.27-6.37-6.63-10.36-11.5-11.71l-.14,0-.14,0L198,112.17l-.12,0Z"/><path class="cls-2" d="M194.57,107.09v8.23s.64,3.17,5.07,3.81,7.61-3.17,7.61-3.17v-8.87Z"/><path class="cls-3" d="M200.65,120.15a9,9,0,0,1-1.14-.08c-5-.72-5.84-4.4-5.87-4.56l0-.19v-9.19H208.2V116.3l-.22.27C207.84,116.72,204.94,120.15,200.65,120.15Zm-5.13-4.94c.12.41.9,2.49,4.26,3s5.78-1.83,6.51-2.59V108H195.52Z"/><path class="cls-2" d="M184.16,64.61S176.33,103.85,192,108s30.64-10.32,23.51-44.75Z"/><path class="cls-3" d="M215.51,63.23c6.34,30.62-4.79,45.44-18.36,45.44A20.11,20.11,0,0,1,192,108c-15.67-4.13-7.84-43.37-7.84-43.37l31.35-1.38m1.54-2-1.62.07-31.35,1.38-1.49.06-.29,1.47a117.39,117.39,0,0,0-2,20.51c0,14.67,3.78,23.11,11.22,25.07a22,22,0,0,0,5.63.75,19.41,19.41,0,0,0,15.24-7.39c6.85-8.42,8.63-22.74,5-40.33l-.32-1.59Z"/><path class="cls-4" d="M206,102.65c-4.18,5.57-11.21,5.4-16.71,4.12A9.24,9.24,0,0,0,192,108c15.17,4,29.67-9.41,24.13-41.47l-6.35,6.36S213.58,92.51,206,102.65Z"/><path class="cls-5" d="M216.58,85s-9.26-2.85-7.12-17.81c0,0-14.25,6.41-27.08.71s-5.7-20.66-5.7-20.66,0,10.69,15.68,7.13,29.92-3.57,27.07,6.41c0,0,19.59,9.92-3.74,32.74Z"/><path class="cls-3" d="M176.68,47.2s0,7.85,9.87,7.85a26.86,26.86,0,0,0,5.81-.72,76,76,0,0,1,16.17-2.17c7.77,0,12.69,2.33,10.9,8.58,0,0,19.59,9.92-3.74,32.74l.89-8.52s-9.26-2.85-7.12-17.81a41.36,41.36,0,0,1-15.29,3.07,28.83,28.83,0,0,1-11.79-2.36c-12.82-5.7-5.7-20.66-5.7-20.66m1.9-8.43L175,46.38c-.16.33-3.83,8.19-1.23,15.23a14,14,0,0,0,7.87,8,30.83,30.83,0,0,0,12.56,2.52A43.45,43.45,0,0,0,207.27,70c-.54,10.5,4.64,14.69,7.28,16.13l-.75,7.17-.55,5.24L217,94.84C226,86.08,230,78,228.85,70.8a16.63,16.63,0,0,0-7.27-11,7.17,7.17,0,0,0-1.23-5.66c-1.95-2.59-5.93-3.9-11.82-3.9a78.17,78.17,0,0,0-16.59,2.21,24.8,24.8,0,0,1-5.39.68c-7.64,0-8-5.35-8-6V38.77Z"/><path class="cls-11" d="M219.43,60.74c2.85-10-11.4-10-27.07-6.41-9.77,2.22-13.45-1.1-14.84-3.92-.32,2.56.55,5.82,6.28,7.25,10.14,2.53,26-5.71,31.68-1.9s2.54,5.7,2.54,5.7,6.44,5.64,9,13.25C228.05,65.11,219.43,60.74,219.43,60.74Z"/><ellipse class="cls-3" cx="187.28" cy="84.27" rx="1.58" ry="1.9"/><ellipse class="cls-3" cx="199.64" cy="85.86" rx="1.58" ry="1.9"/><path class="cls-3" d="M198.45,103.44a6.87,6.87,0,0,1-2.54-.53.63.63,0,1,1,.49-1.16,4.39,4.39,0,0,0,3.24.16,2,2,0,0,0,1-1.58.63.63,0,1,1,1.25.21,3.28,3.28,0,0,1-1.6,2.49A3.8,3.8,0,0,1,198.45,103.44Z"/><path class="cls-3" d="M205,81.42a.65.65,0,0,1-.49-.23,5.2,5.2,0,0,0-6.2-1.74.63.63,0,0,1-.57-1.13,6.47,6.47,0,0,1,7.74,2.06.64.64,0,0,1-.48,1Z"/><path class="cls-3" d="M184.75,80.79l-.16,0a.64.64,0,0,1-.45-.78,4.07,4.07,0,0,1,2-2.68A5.57,5.57,0,0,1,190,77a.64.64,0,0,1,.41.8.62.62,0,0,1-.79.41,4.33,4.33,0,0,0-2.93.2,2.9,2.9,0,0,0-1.34,1.9A.63.63,0,0,1,184.75,80.79Z"/><path class="cls-2" d="M174.93,140.67s-2.54-3.8-9.51-5.07-15.84-9.5-12-13.31,16.48,3.81,21.55,10.14S174.93,140.67,174.93,140.67Z"/><path class="cls-3" d="M174.55,141.83l-.41-.63c-.06-.08-2.49-3.5-8.89-4.66-5.57-1-12.11-6.08-13.47-10.43a4.23,4.23,0,0,1,.93-4.49,5.1,5.1,0,0,1,4.08-1.28c5.79.32,14.75,6.33,18.88,11.5,2.05,2.57,2.83,4.84,2.3,6.75a4.7,4.7,0,0,1-2.71,3Zm-18.24-19.61a3.07,3.07,0,0,0-2.26.75,2.38,2.38,0,0,0-.45,2.58c1.13,3.64,7.19,8.24,12,9.12,5.54,1,8.44,3.55,9.57,4.78a2.47,2.47,0,0,0,1-1.39c.34-1.27-.34-3-2-5-3.72-4.66-12.36-10.51-17.5-10.79Z"/><path class="cls-2" d="M147.05,99.65l11.81,7.26a2.79,2.79,0,0,1,1.29,1.88l5.54,30.76a2.79,2.79,0,0,1-4.07,2.95L149.51,136a2.79,2.79,0,0,1-1.43-2l-5.24-31.51A2.78,2.78,0,0,1,147.05,99.65Z"/><path class="cls-3" d="M145.59,99.23a2.76,2.76,0,0,1,1.46.42l11.81,7.26a2.79,2.79,0,0,1,1.29,1.88l5.54,30.76a2.79,2.79,0,0,1-2.75,3.29,2.68,2.68,0,0,1-1.32-.34L149.51,136a2.79,2.79,0,0,1-1.43-2l-5.24-31.51a2.79,2.79,0,0,1,2.75-3.25m0-1.91h0A4.72,4.72,0,0,0,142,99a4.65,4.65,0,0,0-1,3.79l5.25,31.51a4.71,4.71,0,0,0,2.4,3.37l12.11,6.51a4.68,4.68,0,0,0,5.83-1.14,4.64,4.64,0,0,0,1-3.83L162,108.46a4.69,4.69,0,0,0-2.16-3.17L148.05,98a4.71,4.71,0,0,0-2.46-.71Z"/><path class="cls-4" d="M156.06,134l-8.62-3.85.64,3.83a2.79,2.79,0,0,0,1.43,2l12.11,6.51a2.79,2.79,0,0,0,4.07-2.95l-5.54-30.76a2.79,2.79,0,0,0-1.29-1.88l-3.16-2,4,26.32A2.57,2.57,0,0,1,156.06,134Z"/><path class="cls-2" d="M151.05,142.57c-4.61-2.47-8.89-8.79-8.41-13.24s3.88-10.13,8.31-4.43,5.28,7.55,3.61,11.54A24.48,24.48,0,0,1,151.05,142.57Z"/><path class="cls-3" d="M151.27,143.77l-.67-.36c-4.65-2.5-9.45-9.1-8.91-14.18.35-3.19,2-6.81,4.61-7.54,1.26-.36,3.21-.19,5.4,2.63,4.32,5.54,5.66,7.89,3.74,12.49a25.62,25.62,0,0,1-3.67,6.39Zm-4-20.32a1.82,1.82,0,0,0-.46.06c-1.66.48-3,3.44-3.24,5.92-.39,3.71,3,9.28,7.22,11.9a26.26,26.26,0,0,0,2.89-5.26c1.44-3.46,1-4.84-3.49-10.59C149.45,124.52,148.37,123.45,147.28,123.45Z"/><path class="cls-5" d="M221.53,118.55c7.73,4.18-3.27,29.42-20.93,33.34s-31.38-11.77-31.38-11.77l5.89-12.42s11.77,11.11,21.57,9.15S205.84,110.05,221.53,118.55Z"/><path class="cls-3" d="M215.64,116.78a12.49,12.49,0,0,1,5.89,1.77c7.73,4.18-3.27,29.42-20.93,33.34a26.64,26.64,0,0,1-5.72.63c-14.81,0-25.66-12.4-25.66-12.4l5.89-12.42s9.94,9.38,19.16,9.38a12.15,12.15,0,0,0,2.41-.23c8.38-1.68,9.13-20.07,19-20.07m0-1.9h0c-6.41,0-9.49,6.06-12.21,11.41-2.11,4.16-4.11,8.1-7.12,8.7a10.46,10.46,0,0,1-2,.19c-8.35,0-17.76-8.78-17.86-8.86l-1.9-1.8-1.12,2.36-5.88,12.43-.54,1.12.82.94c.47.53,11.6,13,27.09,13a28.25,28.25,0,0,0,6.14-.68c6.15-1.36,12.19-5.35,17-11.22,4.14-5.07,7-11.13,7.75-16.23.64-4.56-.55-7.9-3.34-9.42a14.32,14.32,0,0,0-6.79-2Z"/><path class="cls-11" d="M224,123.05c-10.41,15.28-17.41,24-30.69,24.59-10.14.42-18-6.76-22.15-11.59l-1.93,4.07S183,155.81,200.6,151.89C214.84,148.73,224.74,131.72,224,123.05Z"/><path class="cls-11" d="M212.32,173.62c-10.69,5.15-25.32,2.88-34.8.45a7.51,7.51,0,0,0,1.21,1.45c8.24,7.61,35.44,6.44,43.72,0,6.32-4.91,5.64-17.78,4-29.37C225.26,156.45,221.82,169.05,212.32,173.62Z"/></g></g></svg>