<svg xmlns="http://www.w3.org/2000/svg" xmlns:xlink="http://www.w3.org/1999/xlink" viewBox="0 0 1116.59 782.61"><defs><style>.cls-1{fill:none;}.cls-2{fill:#f4f4f4;}.cls-3{clip-path:url(#clip-path);}.cls-4{fill:#dbdbf1;}.cls-5{fill:#7177bf;}.cls-6{fill:#fff;}.cls-7{fill:#f5f6f7;}.cls-8{fill:#ededf7;}</style><clipPath id="clip-path"><path class="cls-1" d="M474.74,621.25C332.51,637.86,296.25,498.84,174.27,432.07S46.35,196.79,126.67,134.79,442-36.91,534.24,12.38,723.66,52.12,821.83,126.84s111.56,262.31,11.9,327.49S651.75,600.58,474.74,621.25Z"/></clipPath></defs><title>Recurso 5</title><g id="Capa_2" data-name="Capa 2"><g id="Capa_1-2" data-name="Capa 1"><path class="cls-2" d="M474.74,621.25C332.51,637.86,296.25,498.84,174.27,432.07S46.35,196.79,126.67,134.79,442-36.91,534.24,12.38,723.66,52.12,821.83,126.84s111.56,262.31,11.9,327.49S651.75,600.58,474.74,621.25Z"/><g class="cls-3"><polygon class="cls-4" points="1112.13 777.84 32.22 777.84 0 420.15 1079.91 420.15 1112.13 777.84"/><path class="cls-5" d="M1112.13,420.15V777.84H32.22L0,420.15H1079.91m36.68-4.77H27.76V782.61H1116.59V415.38Z"/></g><path class="cls-6" d="M266.34,264.64c-1.35-1.45-57-15.33-53.06-27.88s41.4-14.11,53.53-1,16.45,24.76,16.45,24.76Z"/><path class="cls-5" d="M238.67,226.61c10.89,0,22.37,2.92,28.14,9.15,12.14,13.1,16.45,24.76,16.45,24.76l-16.92,4.12c-1.35-1.45-57-15.33-53.06-27.88,2.06-6.59,13.36-10.15,25.39-10.15m0-4.77v0h0c-12.44,0-26.83,3.55-29.94,13.49-4.16,13.29,21.89,22.77,48.93,31.35,2.31.73,4.69,1.48,5.81,1.89l1.27,1.37,2.73-.66,16.92-4.13,5.2-1.27-1.85-5c-.19-.51-4.8-12.71-17.43-26.35-6.19-6.68-18-10.67-31.64-10.67Z"/><path class="cls-6" d="M610,264.64c1.35-1.45,57-15.33,53.06-27.88s-41.4-14.11-53.53-1S593,260.52,593,260.52Z"/><path class="cls-5" d="M637.63,226.61c12,0,23.32,3.56,25.39,10.15,3.93,12.55-51.71,26.43-53.06,27.88L593,260.52s4.32-11.66,16.46-24.76c5.76-6.23,17.25-9.15,28.14-9.15m0-4.77c-13.62,0-25.45,4-31.64,10.67-12.64,13.64-17.24,25.84-17.43,26.35l-1.86,5,5.2,1.27,16.93,4.13,2.72.66,1.27-1.37c1.13-.41,3.5-1.16,5.81-1.89,27-8.58,53.1-18.06,48.94-31.35-3.12-9.94-17.51-13.49-29.94-13.49Z"/><path class="cls-4" d="M408.81,532.23s1.59,12.71-7.95,15.89-35,6.36-22.26,12.72h52.46s4.77-19.08-3.17-27S408.81,532.23,408.81,532.23Z"/><path class="cls-5" d="M432.93,563.23H378l-.5-.26c-1.28-.63-5.17-2.58-4.79-5.92.5-4.35,7.49-6.24,18.85-8.95,3.27-.78,6.35-1.52,8.51-2.24,7.54-2.51,6.38-12.9,6.33-13.34l-.19-1.57,1.38-.79c4.39-2.52,14.63-5.34,21.94,2,8.8,8.8,4,28.46,3.81,29.29Zm-53.74-4.77h50c1.15-6,2.18-17.83-2.95-23s-12-3-14.89-1.83c.17,5.41-1.62,14-9.7,16.71-2.35.79-5.53,1.55-8.9,2.36-4.63,1.1-13,3.1-15,4.76A7.79,7.79,0,0,0,379.19,558.46Z"/><path class="cls-4" d="M491,532.23s-1.59,12.71,7.94,15.89,35,6.36,22.26,12.72H468.74s-4.77-19.08,3.18-27S491,532.23,491,532.23Z"/><path class="cls-5" d="M521.76,563.23H466.88l-.45-1.81c-.21-.83-5-20.49,3.8-29.29,7.31-7.31,17.55-4.49,21.95-2l1.38.78-.2,1.58c-.05.48-1.19,10.83,6.34,13.34,2.15.72,5.24,1.46,8.5,2.24,11.36,2.71,18.35,4.6,18.85,8.95.38,3.34-3.5,5.29-4.78,5.92Zm-51.1-4.77h50a7.79,7.79,0,0,0,1.45-1c-2-1.66-10.35-3.66-15-4.76-3.37-.81-6.55-1.57-8.9-2.36-8.08-2.69-9.87-11.31-9.69-16.72-2.86-1.22-9.73-3.32-14.9,1.84S469.5,552.49,470.66,558.46Z"/><path class="cls-6" d="M386.55,397.1s14.31,128.77,19.08,143.07h28.61l1.59-87.43h12.72L466,538.58h33.38L491.48,397.1Z"/><path class="cls-5" d="M491.48,397.1l7.94,141.48H466l-17.49-85.84H435.83l-1.59,87.43H405.63c-4.77-14.3-19.08-143.07-19.08-143.07H491.48m4.5-4.77H381.22l.59,5.29c.59,5.28,14.42,129.44,19.29,144.06l1.09,3.26h36.74l.08-4.68,1.51-82.75h4.14l16.71,82,.77,3.81h42.33l-.28-5-7.95-141.49-.26-4.5Z"/><path class="cls-7" d="M386.55,397.1s1,8.67,2.47,21.75c14.69,7.85,42.33,15.34,90.53,6.07L498.5,538.58h.92L491.48,397.1Z"/><path class="cls-4" d="M604.81,236.48s-21.72,31.57-49.42,38.93c-19.95,5.3-60.93-27.84-82.14-20.61-1.5-.52-2.44-.78-2.44-.78l-39.75-4.77a79.41,79.41,0,0,0-27.29,5.81c-21-8.28-62.69,25.71-82.88,20.35-27.69-7.36-49.42-38.93-49.42-38.93l-21,24.11s32,46,64.21,55.67c20.41,6.14,45-2,62.34-10.23-3.43,28.07-10.06,82.28,6.34,97.43,20.67,19.07,88.92,16.15,109.7,0,20.39-15.87,11.71-64.84,6.2-97.42,17.31,8.19,41.92,16.35,62.32,10.22,32.18-9.66,64.22-55.67,64.22-55.67Z"/><path class="cls-5" d="M604.81,236.48l21,24.11s-32,46-64.22,55.67a53.75,53.75,0,0,1-15.53,2.15c-16.45,0-33.71-6.18-46.79-12.37,5.51,32.58,14.19,81.55-6.2,97.42-10.82,8.41-34.5,13.23-57.64,13.23-21.31,0-42.15-4.09-52.06-13.23C367,388.31,373.6,334.1,377,306c-13.08,6.2-30.34,12.38-46.81,12.38a53.8,53.8,0,0,1-15.53-2.15c-32.18-9.66-64.21-55.67-64.21-55.67l21-24.11s21.73,31.57,49.42,38.93a19,19,0,0,0,4.8.58c18.89,0,50.07-22.24,70.5-22.24a20.5,20.5,0,0,1,7.58,1.31,79.41,79.41,0,0,1,27.29-5.81L470.81,254s.94.26,2.44.78a21.11,21.11,0,0,1,6.85-1c20.43,0,51.6,22.23,70.49,22.23a19,19,0,0,0,4.8-.58c27.7-7.36,49.42-38.93,49.42-38.93m-.44-7.77-3.49,5.07c-.3.43-21.14,30.23-46.72,37a13.83,13.83,0,0,1-3.57.42c-8.26,0-20.34-5.28-32-10.39C505.27,255,491.51,249,480.1,249a27.07,27.07,0,0,0-6.77.81l-1.24-.38-.35-.09-.36-.05-39.75-4.77-.28,0h-.29A84,84,0,0,0,403.62,250a27,27,0,0,0-7.43-1c-11.42,0-25.18,6-38.49,11.85-11.67,5.1-23.74,10.39-32,10.39a13.83,13.83,0,0,1-3.57-.42c-25.63-6.81-46.51-36.72-46.72-37l-3.49-5.06-4,4.63-21,24.11-2.44,2.81,2.12,3.05c1.35,1.93,33.37,47.49,66.76,57.51a58.55,58.55,0,0,0,16.9,2.35c14.52,0,29.39-4.56,41.09-9.4-4.46,38.6-6.83,78.73,8.83,93.18,14.17,13.09,43.39,14.5,55.29,14.5,25.67,0,49.44-5.59,60.56-14.24,20.84-16.21,15.14-59.1,9.45-93.24,11.63,4.76,26.3,9.2,40.62,9.2A58.67,58.67,0,0,0,563,320.83c33.38-10,65.4-55.58,66.75-57.51l2.13-3.05-2.45-2.81-21-24.11-4-4.64Z"/><path class="cls-4" d="M385.93,119.68s-19.26,57.23,8.36,73.13l5.77-63.59Z"/><path class="cls-5" d="M385.93,119.68l14.13,9.54-5.77,63.59c-27.62-15.9-8.36-73.13-8.36-73.13m-2.52-7.45-2,5.93c-.84,2.49-20.15,61.14,10.5,78.79l6.45,3.71.68-7.42,5.77-63.59.26-2.8-2.34-1.58-14.13-9.54-5.19-3.5Z"/><path class="cls-6" d="M423.12,231.76v20.67s1.59,7.95,12.71,9.54,19.08-8,19.08-8V231.76Z"/><path class="cls-5" d="M438.37,264.53a20.28,20.28,0,0,1-2.87-.2c-12.66-1.81-14.64-11-14.72-11.43l0-.47V229.38H457.3v25.5l-.56.66C456.41,255.94,449.12,264.53,438.37,264.53Zm-12.87-12.4c.31,1.05,2.24,6.27,10.67,7.48,8.16,1.16,14.5-4.6,16.36-6.52V234.15h-27Z"/><path class="cls-6" d="M397,125.2S377.35,223.65,416.67,234s76.86-25.9,59-112.27Z"/><path class="cls-5" d="M475.65,121.75c15.9,76.8-12,114-46.07,114A50.52,50.52,0,0,1,416.67,234C377.35,223.65,397,125.2,397,125.2l78.64-3.45m3.85-5-4.06.18-78.64,3.45-3.74.17-.73,3.67a295.28,295.28,0,0,0-5,51.45c0,36.82,9.47,58,28.13,62.91a55.92,55.92,0,0,0,14.13,1.88c14.92,0,28.5-6.59,38.24-18.55,17.19-21.12,21.63-57.05,12.5-101.18l-.82-4Z"/><path class="cls-7" d="M451.73,220.63c-10.47,14-28.13,13.55-41.93,10.34a23.31,23.31,0,0,0,6.87,3c38.05,10,74.42-23.61,60.54-104l-15.94,15.94S470.81,195.2,451.73,220.63Z"/><path class="cls-4" d="M478.33,176.26s-23.23-7.15-17.87-44.68c0,0-35.75,16.08-67.92,1.78s-14.3-51.83-14.3-51.83,0,26.81,39.32,17.87,75.07-8.93,67.92,16.09c0,0,49.13,24.89-9.39,82.15Z"/><path class="cls-5" d="M378.24,81.53s0,19.7,24.76,19.7a66,66,0,0,0,14.56-1.83C432.27,96.06,446.48,94,458.13,94c19.5,0,31.83,5.86,27.35,21.52,0,0,49.13,24.89-9.39,82.15l2.24-21.38s-23.23-7.15-17.87-44.68a103.69,103.69,0,0,1-38.35,7.71,72.53,72.53,0,0,1-29.57-5.93c-32.17-14.3-14.3-51.83-14.3-51.83M383,60.38l-9.08,19.1c-.39.83-9.61,20.54-3.08,38.21,3.31,8.93,9.95,15.67,19.75,20a77.14,77.14,0,0,0,31.51,6.33A109.27,109.27,0,0,0,455,138.7c-1.34,26.33,11.64,36.85,18.26,40.47l-1.88,18L470,210.31l9.46-9.26c22.47-22,32.46-42.28,29.68-60.31-2.31-15-12.8-23.88-18.23-27.54.88-5.56-.15-10.33-3.08-14.22-4.9-6.49-14.88-9.78-29.66-9.78-11.24,0-25.64,1.92-41.62,5.55A62,62,0,0,1,403,96.46c-19.17,0-20-13.44-20-15V60.38Z"/><path class="cls-8" d="M485.48,115.49c7.15-25-28.6-25-67.92-16.09-24.51,5.58-33.74-2.75-37.22-9.81-.81,6.42,1.38,14.58,15.75,18.17,25.44,6.36,65.18-14.31,79.49-4.77s6.36,14.31,6.36,14.31,16.16,14.16,22.62,33.25C507.1,126.45,485.48,115.49,485.48,115.49Z"/><ellipse class="cls-5" cx="406.42" cy="176.12" rx="3.97" ry="4.77"/><ellipse class="cls-5" cx="443.78" cy="175.33" rx="3.97" ry="4.77"/><path class="cls-5" d="M436,222.61a18.09,18.09,0,0,1-6.39-1.31,1.6,1.6,0,0,1-.83-2.09,1.58,1.58,0,0,1,2.08-.83c1.4.59,5.57,1.81,8.13.4a5.09,5.09,0,0,0,2.4-4,1.59,1.59,0,0,1,3.14.52,8.21,8.21,0,0,1-4,6.25A9.35,9.35,0,0,1,436,222.61Z"/><path class="cls-5" d="M454.12,161a1.59,1.59,0,0,1-1.22-.57c-7.07-8.48-15.48-4.41-15.56-4.37a1.59,1.59,0,1,1-1.42-2.84c.11-.06,10.76-5.22,19.42,5.17a1.59,1.59,0,0,1-.21,2.24A1.54,1.54,0,0,1,454.12,161Z"/><path class="cls-5" d="M401.66,165.79a1.52,1.52,0,0,1-.42-.06,1.58,1.58,0,0,1-1.12-1.94,10.23,10.23,0,0,1,4.91-6.72c4.36-2.41,9.6-.82,9.82-.75a1.59,1.59,0,0,1-1,3c-.08,0-4.21-1.25-7.35.5a7.24,7.24,0,0,0-3.36,4.75A1.59,1.59,0,0,1,401.66,165.79Z"/><path class="cls-8" d="M561.59,316.26c32.18-9.66,64.22-55.67,64.22-55.67l-6.75-7.74c-53.83,91-127.58,37.73-127.58,37.73a346.61,346.61,0,0,1,1.59,69.95c-3.18,36.57,4.76,31.8-50.88,42.93-22.43,4.48-45.38-1.11-64.78-9.38a25,25,0,0,0,6,9.38c20.67,19.07,88.92,16.15,109.7,0,20.39-15.87,11.71-64.84,6.2-97.42C516.58,314.23,541.19,322.39,561.59,316.26Z"/><path class="cls-8" d="M314.69,316.26c19.91,6,43.81-1.64,61-9.63l10.82-12.87s-22.25,17.49-66.77,7.95c-30.48-6.53-55-29.47-67.43-43.27l-1.87,2.15S282.51,306.6,314.69,316.26Z"/><path class="cls-4" d="M168.62,523.54s1.67,13.4-8.38,16.75-36.84,6.7-23.45,13.4h55.27s5-20.1-3.35-28.48S168.62,523.54,168.62,523.54Z"/><path class="cls-5" d="M193.93,556.07h-57.7l-.5-.25c-1.33-.66-5.36-2.68-5-6.11.52-4.5,7.85-6.47,19.76-9.32,3.44-.83,6.7-1.61,9-2.36,8-2.69,6.82-13.73,6.76-14.2l-.19-1.57,1.37-.79c4.6-2.63,15.33-5.58,23,2.06,9.22,9.22,4.2,29.86,4,30.74Zm-56.55-4.77h52.77c1.23-6.27,2.35-18.92-3.12-24.4s-12.93-3.22-15.91-1.93c.2,5.66-1.64,14.75-10.12,17.58-2.47.82-5.82,1.62-9.37,2.47-5,1.2-14,3.36-15.94,5.15A8.19,8.19,0,0,0,137.38,551.3Z"/><path class="cls-4" d="M243.48,523.54s-1.68,13.4,8.37,16.75,36.85,6.7,23.45,13.4H220s-5-20.1,3.35-28.48S243.48,523.54,243.48,523.54Z"/><path class="cls-5" d="M275.86,556.07H218.17l-.45-1.8c-.22-.88-5.25-21.52,4-30.74,7.64-7.64,18.36-4.69,23-2.06l1.38.79-.19,1.57c-.06.5-1.28,11.52,6.76,14.2,2.27.75,5.52,1.53,9,2.36,11.92,2.85,19.25,4.82,19.77,9.32.39,3.43-3.65,5.45-5,6.11ZM222,551.3h52.77a8.51,8.51,0,0,0,1.69-1.13c-1.9-1.79-11-3.95-16-5.15-3.54-.85-6.89-1.65-9.36-2.47-8.48-2.83-10.33-11.92-10.12-17.58-3-1.29-10.37-3.61-15.91,1.93S220.71,545,222,551.3Z"/><path class="cls-4" d="M140.14,381.18s20.1,135.66,25.13,150.73h30.14l-3.35-92.11h23.45l1.68,90.44h28.47l15.07-149.06Z"/><path class="cls-5" d="M260.73,381.18,245.66,530.24H217.19l-1.68-90.44H192.06l3.35,92.11H165.27c-5-15.07-25.13-150.73-25.13-150.73H260.73m5.28-4.77H134.62l.81,5.47c.82,5.55,20.21,136.25,25.31,151.54l1.09,3.26h38.53l-.18-4.94L197,444.57h13.82l1.59,85.76.09,4.68H250l.43-4.29,15.08-149.06.53-5.25Z"/><path class="cls-6" d="M277.93,376.27C274.7,347.66,258.05,295.09,257,285s2.56-31.62-49.76-33.67h-.46c-52.33-1.79-50.5,19.59-52.09,29.93-1.55,10-22.26,61.2-27.58,89.49S148.89,400,148.89,400L201.24,402h.46l52.35,1.92S281.17,404.88,277.93,376.27Z"/><path class="cls-5" d="M200.77,251.21q2.86,0,6,.1h.46c52.32,2,48.7,23.6,49.76,33.67s17.71,62.66,20.94,91.27c3,26.75-20.48,27.62-23.55,27.62h-.33L201.7,402h-.46L148.89,400s-27.12-1-21.79-29.29,26-79.45,27.58-89.49-.11-30,46.09-30m1.39-4.83v.06h-1.39c-46.74,0-49.18,20.61-50.5,31.68-.1.85-.19,1.65-.31,2.4-.54,3.55-4.41,14.7-8.51,26.5-7,20.23-15.76,45.41-19,62.83-1.89,10.06-.34,18.32,4.63,24.54,7.82,9.78,21.11,10.38,21.67,10.4l52.36,1.92.45,0,52.36,1.92h.5c2.34,0,14.42-.44,22.16-9.11,5.2-5.82,7.26-13.84,6.13-23.82-2.05-18.12-9.38-45.68-14.73-65.81-3.14-11.79-5.85-22-6.21-25.42-.08-.76-.13-1.66-.19-2.61-.34-5.77-.86-14.49-8.52-21.91-7.81-7.56-21.19-11.88-40.83-13.17v-.08l-4.8-.17h-.45l-4.78-.16Z"/><path class="cls-6" d="M198.61,229.93l.77,21.76s1.9,9.45,13.74,9.57c20.17.19,19.79-9.08,19.79-9.08l-.82-23.44Z"/><path class="cls-5" d="M213.73,263.64h-.63c-10.9-.1-15.27-7.56-16.06-11.48l0-.39-.85-24.14,38.25-1.35.91,25.81a8.74,8.74,0,0,1-2.71,6.07C229.06,261.8,222.72,263.64,213.73,263.64Zm-12-12.28c.29,1.09,2.38,7.42,11.4,7.51,13.6.15,17.33-4.3,17.38-6.67l-.74-21-28.71,1Z"/><path class="cls-6" d="M176,124.71S134,240,221.16,238c88.81-2.08,28.59-115.56,28.59-115.56Z"/><path class="cls-5" d="M249.75,122.39S310,235.87,221.16,238l-2.27,0C134.77,238,176,124.71,176,124.71l73.74-2.32m2.82-4.86-3,.09-73.74,2.32-3.22.11-1.11,3c-1,2.64-23.24,65,.46,98.82,9.68,13.84,25.46,20.85,46.9,20.85l2.38,0c22.53-.53,38.17-8,46.49-22.21,20.46-34.95-12.39-97.7-13.8-100.35l-1.39-2.63Z"/><path class="cls-7" d="M255.54,134.76l-9.88,8.59S269.11,178.52,254,212c-9.23,20.51-41.05,21.55-64.74,19.28,8,4.46,18.35,7,31.87,6.65C291.77,236.3,268.17,164.23,255.54,134.76Z"/><path class="cls-4" d="M172,175.17s30.14-15.07,30.14-43.55c0,0,16.75,35.18,67,38.53,0,0,15.07-40.2-21.78-62s-50.24,6.7-50.24,6.7-45.22-11.73-45.22,38.52,17.75,57.84,17.75,57.84S166.94,190.24,172,175.17Z"/><path class="cls-5" d="M221.93,100c6.81,0,15.21,2.18,25.4,8.2,36.85,21.77,21.78,62,21.78,62-50.25-3.35-67-38.53-67-38.53,0,28.48-30.14,43.55-30.14,43.55-5,15.07-2.35,36.07-2.35,36.07s-17.75-7.6-17.75-57.84c0-34.26,21-39.71,34.4-39.71a47.51,47.51,0,0,1,10.82,1.19s7-14.91,24.84-14.9m0-4.77h0a32.35,32.35,0,0,0-27.21,14.36,55.77,55.77,0,0,0-8.45-.65c-10,0-18.74,2.79-25.23,8.08-9.25,7.54-13.94,19.78-13.94,36.4,0,51.89,18.53,61.32,20.64,62.23l7.67,3.27-1.06-8.26c0-.19-2.27-18.51,1.6-32.21,5.81-3.33,23.3-14.72,29.07-34,9.43,11.44,29,28.16,63.77,30.48l3.54.23,1.24-3.32A65.06,65.06,0,0,0,276.8,147c-.84-12.79-6.21-30.63-27-42.94-9.95-5.88-19.32-8.86-27.83-8.86Z"/><path class="cls-6" d="M174.93,196.56s-12.86,6.28-14.77-13.73,15.4-14.93,19.69-5.24"/><path class="cls-5" d="M170.55,199.88a10.64,10.64,0,0,1-5.27-1.34c-4.22-2.36-6.74-7.57-7.49-15.48-1.19-12.43,4.76-15.37,7.37-16.05,6-1.58,13.91,2.91,16.87,9.61l-4.36,1.93c-2-4.47-7.57-7.89-11.3-6.93-4.14,1.09-4.18,7.35-3.83,11,.58,6.15,2.33,10.22,5,11.76,2.88,1.64,6.29.07,6.32,0l2.08,4.3A13.5,13.5,0,0,1,170.55,199.88Z"/><path class="cls-7" d="M239.76,257.14c10,26.34,23.57,88.46,22.66,110.46-1.11,27-49.79,27.68-95.41,24.76-20-1.28-32.69-7.08-40.55-13.18,1,20,22.43,20.84,22.43,20.84L201.24,402h.46l52.35,1.92s27.12,1,23.88-27.61S258.05,295.09,257,285C256.23,277.81,257.85,264.75,239.76,257.14Z"/><path class="cls-6" d="M218.46,259.89s13.8,92.82,4.44,137.47"/><path class="cls-5" d="M222.9,399.75a2.81,2.81,0,0,1-.49-.05,2.38,2.38,0,0,1-1.84-2.82c9.16-43.74-4.33-135.71-4.47-136.64a2.39,2.39,0,1,1,4.72-.7c.57,3.81,13.75,93.75,4.42,138.31A2.39,2.39,0,0,1,222.9,399.75Z"/><path class="cls-8" d="M265.3,125.39a50.6,50.6,0,0,0-18-17.21c-36.84-21.78-50.24,6.7-50.24,6.7s-45.22-11.73-45.22,38.52c0,.62,0,1.21,0,1.83,4.13-16.8,15.73-35.33,46.87-35.33C198.76,119.9,213,99.1,265.3,125.39Z"/><ellipse class="cls-5" cx="209.65" cy="180.2" rx="4.19" ry="5.02"/><ellipse class="cls-5" cx="249.01" cy="179.36" rx="4.19" ry="5.02"/><path class="cls-5" d="M225.83,222.57c-10.9,0-15.59-6.8-15.83-7.16a1.59,1.59,0,0,1,2.64-1.77c.26.38,6.37,9,21.68,4.39a1.59,1.59,0,1,1,.91,3.05A32.8,32.8,0,0,1,225.83,222.57Z"/><path class="cls-5" d="M196.25,169.22a1.31,1.31,0,0,1-.39-.05,1.58,1.58,0,0,1-1.15-1.92c.07-.27,1.69-6.54,7.08-9.37,3.33-1.75,7.29-1.79,11.77-.11a1.59,1.59,0,0,1-1.12,3c-3.58-1.34-6.66-1.37-9.15-.07-4.13,2.16-5.48,7.29-5.5,7.34A1.59,1.59,0,0,1,196.25,169.22Z"/><path class="cls-8" d="M146,420c6.35,41.33,16,102.12,19.26,111.92h7.85c-4.26-18-11.87-51.59-15.39-76.2C155.4,439.4,150.55,427.77,146,420Z"/><path class="cls-8" d="M223.05,459.06c0-10.93-4.12-14.78-7.48-16.11l1.62,87.29h9.16C224.89,504.76,223.05,470.22,223.05,459.06Z"/><path class="cls-6" d="M234.77,316.7c-2.6-18.24,13.4-36.85,30.15-26.8s48.57,26.8,40.2,48.57S236.45,328.42,234.77,316.7Z"/><path class="cls-5" d="M255.36,287.07a18.44,18.44,0,0,1,9.56,2.83c16.75,10.05,48.57,26.8,40.2,48.57-2.05,5.31-7.18,7.43-13.81,7.43-20.51,0-55.27-20.34-56.54-29.2-2.1-14.69,7.88-29.63,20.59-29.63m0-4.77h0c-6.57,0-12.85,3.08-17.68,8.65a33.54,33.54,0,0,0-7.64,26.42c1.22,8.5,16.84,17.83,23.5,21.45,13.68,7.42,27.8,11.85,37.76,11.85,12.38,0,16.75-6.57,18.26-10.49,9.23-24-20.61-41.61-38.44-52.14l-3.76-2.23a23.09,23.09,0,0,0-12-3.51Z"/><path class="cls-7" d="M292.9,308.43c-1.22,29.19-35.73,19.06-57.73,9.55,5.39,12.57,61.86,41.51,70,20.49C309.54,327,302.75,316.88,292.9,308.43Z"/><path class="cls-6" d="M218.08,313.34l32.62-60a9.22,9.22,0,0,1,10.14-4.6l47.72,10.74a9.24,9.24,0,0,1,5.9,13.76L279.19,332a9.23,9.23,0,0,1-9.82,4.29l-45.08-9.49A9.24,9.24,0,0,1,218.08,313.34Z"/><path class="cls-5" d="M258.81,248.5a9.41,9.41,0,0,1,2,.22l47.72,10.74a9.24,9.24,0,0,1,5.9,13.76L279.19,332a9.24,9.24,0,0,1-7.92,4.49,9.51,9.51,0,0,1-1.9-.2l-45.08-9.49a9.24,9.24,0,0,1-6.21-13.45l32.62-60a9.22,9.22,0,0,1,8.11-4.82m0-4.77h0a14,14,0,0,0-12.3,7.31l-32.62,60a14,14,0,0,0,9.42,20.39l45.08,9.49a14,14,0,0,0,14.89-6.49l35.27-58.78a14,14,0,0,0-8.94-20.86l-47.72-10.74a13.91,13.91,0,0,0-3.08-.34Z"/><path class="cls-7" d="M279.19,332l35.27-58.77a9.24,9.24,0,0,0-5.9-13.76l-6.91-1.56L270,307.39a18.37,18.37,0,0,1-15.47,8.47H217.17a9.23,9.23,0,0,0,7.12,10.93l45.08,9.49A9.23,9.23,0,0,0,279.19,332Z"/><path class="cls-6" d="M188.71,315.86s15.08-23.45,30.15-20.1,3.35,11.72,3.35,13.4,10,3.35,26.8,0,16.75,30.15-38.52,33.5S188.71,315.86,188.71,315.86Z"/><path class="cls-5" d="M202.49,345.3c-14.6,0-23-2.95-25.47-8.94-3.74-8.92,7.64-20,9.86-22.06,1.87-2.82,16.74-24.38,32.5-20.87,5.23,1.17,8.25,3.1,9.24,5.92,1.21,3.48-1.19,6.79-2.92,8.93,3.34.61,11.07.89,22.84-1.46,4.34-.87,8.16.3,10.49,3.21,2.57,3.2,2.85,8,.74,12.69s-11.72,20-49.14,22.32Q206.28,345.29,202.49,345.3Zm13.42-47.47c-10.39,0-21.53,13.63-25.19,19.32a2.09,2.09,0,0,1-.41.48c-3,2.71-11.1,11.64-8.89,16.89,1.14,2.73,6.42,7.12,28.92,5.76,27.6-1.68,41.38-11.17,45.07-19.5,1.37-3.08,1.33-6-.1-7.77-1.19-1.49-3.26-2-5.83-1.51-15,3-25.71,2.28-28.48,0a3,3,0,0,1-1.17-2.34c0-1.21.71-2.09,1.79-3.42s2.92-3.59,2.49-4.82c-.14-.39-1-1.76-5.77-2.83A11,11,0,0,0,215.91,297.83Z"/><path class="cls-6" d="M173.12,253.79c-29.63,1.44-76.52,55.37-61.45,87.19,11,23.16,78.72,15.07,102.17,3.35l-16.75-35.17s-36.85,18.42-41.87,6.7c-4.81-11.21,29-16.53,38.52-31.82C202.11,270.64,205.46,252.21,173.12,253.79Z"/><path class="cls-5" d="M176.86,253.69c28.32,0,24.92,17.49,16.88,30.35-9.56,15.29-43.33,20.61-38.52,31.82,1.21,2.83,4.28,3.9,8.23,3.9,12.43,0,33.64-10.6,33.64-10.6l16.75,35.17c-12.5,6.25-37.59,11.46-60,11.46-19.59,0-37.1-4-42.22-14.81-15.07-31.82,31.82-85.75,61.45-87.19,1.3-.07,2.55-.1,3.74-.1m0-4.77c-1.28,0-2.61,0-4,.1-18.48.9-43.43,20-58,44.35C103.67,312,101,329.63,107.36,343c6.87,14.5,29.09,17.54,46.53,17.54,22.1,0,48.21-5,62.08-12l4.18-2.1-2-4.22L201.4,307.11l-2.09-4.39L195,304.89c-5.63,2.81-22.25,10.1-31.51,10.1-2.07,0-3.58-.39-3.85-1-.81-1.89,8.87-6.83,13.52-9.2,9.14-4.67,19.51-10,24.66-18.22,6.65-10.63,8.18-20.31,4.33-27.25s-12.31-10.39-25.25-10.39Z"/><path class="cls-7" d="M213.84,344.33l-8.43-17.7c-18,7.2-50.11,18.33-72,16-15.69-1.66-20.38-17.56-21.1-33.27-4.17,11.18-5.06,22.32-.67,31.59C122.64,364.14,190.39,356.05,213.84,344.33Z"/><path class="cls-4" d="M826.91,486.12v-229A25.42,25.42,0,0,1,828.6,248l18.14-47.16a9.91,9.91,0,0,0-6.84-13.17h0a9.91,9.91,0,0,0-11.52,5.74l-22.11,52a20,20,0,0,0-1.6,7.85V495.66Z"/><path class="cls-5" d="M837.49,187.41a10.07,10.07,0,0,1,2.41.3,9.91,9.91,0,0,1,6.84,13.17L828.6,248a25.42,25.42,0,0,0-1.69,9.08v229l-22.25,9.54V253.34a20,20,0,0,1,1.6-7.85l22.11-52a9.92,9.92,0,0,1,9.12-6m0-4.77A14.66,14.66,0,0,0,824,191.58l-22.11,52a24.6,24.6,0,0,0-2,9.72V502.89l6.65-2.85,22.25-9.53,2.89-1.24V257.12a20.39,20.39,0,0,1,1.37-7.36l18.14-47.17a14.68,14.68,0,0,0-13.7-20Z"/><path class="cls-4" d="M719.61,486.12v-229a25.41,25.41,0,0,1,1.68-9.08l18.14-47.16a9.91,9.91,0,0,0-6.84-13.17h0a9.92,9.92,0,0,0-11.53,5.74l-22.11,52a20,20,0,0,0-1.6,7.85V495.66Z"/><path class="cls-5" d="M730.18,187.41a9.92,9.92,0,0,1,9.25,13.47L721.29,248a25.41,25.41,0,0,0-1.68,9.08v229l-22.26,9.54V253.34a20,20,0,0,1,1.6-7.85l22.11-52a9.92,9.92,0,0,1,9.12-6m0-4.77a14.66,14.66,0,0,0-13.51,8.94l-22.11,52a24.77,24.77,0,0,0-2,9.72V502.89l6.65-2.85,22.25-9.53,2.89-1.24V257.12a20.61,20.61,0,0,1,1.37-7.36l18.14-47.17a14.68,14.68,0,0,0-13.7-20Z"/><path class="cls-6" d="M600.13,363.71s17.49,6.36,19.08,11.13-4.77,6.36-4.77,6.36,16.15,11,6.48,23-38.28-25.74-38.28-25.74Z"/><path class="cls-5" d="M616,408.91h-.15c-12.87-.19-32.87-26.1-35.11-29.05l-1.37-1.81L599.65,361l1.29.47c4.36,1.58,18.72,7.18,20.53,12.62a6.28,6.28,0,0,1-.38,5.16,7.57,7.57,0,0,1-2.25,2.47c2.79,2.58,6.59,7,7.4,12.37a14.54,14.54,0,0,1-3.46,11.57A8.42,8.42,0,0,1,616,408.91Zm-30.07-30.14c6.67,8.42,21.69,25.25,30,25.37a3.71,3.71,0,0,0,3.15-1.47,9.83,9.83,0,0,0,2.45-7.87c-.81-5.4-6.35-10.22-8.42-11.63l-4.41-3,5.17-1.29c.75-.2,2.51-.94,3-1.94a1.56,1.56,0,0,0,0-1.36c-.68-2-8.89-6.31-16.34-9.16Z"/><path class="cls-4" d="M631.92,249.25c-4.48-5.52-15.89-11.13-31.79,1.59s-43.25,33.31-47.69,54c-4.77,22.26,12.71,57.23,25.43,73.13,5,6.21,8,9.54,8,9.54l27-25.44S583.3,329,595.36,309.66C603.31,296.94,652.59,274.68,631.92,249.25Z"/><path class="cls-5" d="M618.56,243.12a17.11,17.11,0,0,1,13.36,6.13c20.67,25.43-28.61,47.69-36.56,60.41-12.06,19.3,17.49,52.46,17.49,52.46l-27,25.44s-3-3.33-8-9.54c-12.72-15.9-30.2-50.87-25.43-73.13,4.44-20.74,31.79-41.33,47.69-54,7.12-5.7,13.33-7.72,18.43-7.72m0-4.76c-6.94,0-14.15,2.94-21.41,8.75L594,249.59c-16.62,13.22-41.74,33.19-46.27,54.3-5.09,23.75,12.73,60.05,26.38,77.11,5,6.25,8.06,9.62,8.19,9.77l3.26,3.59,3.54-3.33,27-25.44,3.37-3.18L616.41,359c-7.55-8.49-25.33-33.45-17-46.76,1.81-2.89,7.27-7.18,13.05-11.71,12.26-9.63,27.51-21.6,29.13-36,.71-6.36-1.29-12.49-6-18.23a21.79,21.79,0,0,0-17.07-7.88Z"/><path class="cls-8" d="M552.44,304.89c4.44-20.74,31.79-41.33,47.69-54,5.11-4.09,9.76-6.28,13.87-7.19-17.08,13.68-42.12,37.71-47.26,64.42-5.61,29.19,16.52,56,30,69.22l-10.88,10.27s-3-3.33-8-9.54C565.15,362.12,547.67,327.15,552.44,304.89Z"/><path class="cls-4" d="M645.68,516.33s-1.59,15.9-14.31,19.07-47.69,12.72-4.77,14.31,47.7-1.59,47.7-1.59,0-27-4.77-30.2S645.68,516.33,645.68,516.33Z"/><path class="cls-5" d="M655.82,515.93c5.36,0,11.32.4,13.71,2,4.77,3.18,4.77,30.2,4.77,30.2s-3,2-26.25,2c-5.8,0-12.86-.13-21.45-.45-42.92-1.59-7.94-11.13,4.77-14.31s14.31-19.07,14.31-19.07,4.77-.4,10.14-.4m0-4.77c-5.5,0-10.33.4-10.53.41l-4,.33-.39,4c0,.11-1.47,12.61-10.72,14.93-6.61,1.65-12.13,3.24-16.4,4.74-6.75,2.35-13.28,5.11-12.7,10.69s6.73,7.58,25.31,8.27c8,.3,15.31.45,21.62.45,16.35,0,26.07-1,28.9-2.84l2.12-1.42v-2.55c0-.28,0-7-.62-14.3-1.21-14.59-3.73-18.18-6.28-19.87-1.94-1.3-5.56-2.79-16.35-2.79Z"/><path class="cls-4" d="M731.45,516.33s1.59,15.9,14.31,19.07,47.69,12.72,4.77,14.31-47.69-1.59-47.69-1.59,0-27,4.77-30.2S731.45,516.33,731.45,516.33Z"/><path class="cls-5" d="M721.32,515.93c5.36,0,10.13.4,10.13.4s1.59,15.9,14.31,19.07,47.69,12.72,4.77,14.31c-8.58.32-15.65.45-21.44.45-23.21,0-26.25-2-26.25-2s0-27,4.77-30.2c2.38-1.59,8.34-2,13.71-2m0-4.77c-10.79,0-14.41,1.49-16.36,2.79-2.54,1.69-5.06,5.28-6.28,19.87-.61,7.26-.61,14-.61,14.3v2.55l2.12,1.42c2.82,1.88,12.54,2.84,28.9,2.84,6.31,0,13.58-.15,21.62-.45,18.57-.69,24.72-2.7,25.3-8.27s-6-8.34-12.69-10.69c-4.28-1.5-9.8-3.09-16.4-4.74-9.26-2.32-10.71-14.82-10.72-14.95l-.43-3.91-3.92-.35c-.21,0-5-.41-10.53-.41Z"/><path class="cls-6" d="M612.3,373.25s22.25,136.72,30.2,151h30.21l-6.36-92.21h17.49l19.07,92.21h31.8s-6.36-81.08-6.36-93.8,7.95-54.05,3.18-65.18S612.3,373.25,612.3,373.25Z"/><path class="cls-5" d="M714.1,361.82c9.68,0,16.35,1,17.43,3.48,4.77,11.13-3.18,52.46-3.18,65.18s6.36,93.8,6.36,93.8h-31.8l-19.07-92.21H666.35l6.36,92.21H642.5c-8-14.31-30.2-151-30.2-151s68.6-11.43,101.8-11.43m0-4.77c-33.21,0-99.77,11-102.59,11.5l-4.68.78.76,4.69c2.29,14.07,22.62,138,30.74,152.57l1.37,2.46h38.12l-.35-5.1-6-87.11H680l18.29,88.4.79,3.81h40.84l-.41-5.15c-.06-.81-6.34-81-6.34-93.42,0-4,.89-11.48,1.84-19.45,2.63-22.1,4.37-39.64.95-47.61-2-4.59-8.08-6.37-21.81-6.37Z"/><path class="cls-7" d="M728.35,430.48c0-12.72,7.95-54.05,3.18-65.18s-119.23,7.95-119.23,7.95,1.26,8.95,3.3,22.77a134.77,134.77,0,0,0,79,16.44,8.94,8.94,0,0,1,9.66,7.5l19.94,104.32h10.49S728.35,443.2,728.35,430.48Z"/><path class="cls-4" d="M666.35,234.26c-25.47.82-45.07,5.43-49.28,38.82-6.36,50.36-54,123.4,41.33,127.77,89,4.07,86.76-18.37,89-37.19,3.18-26.38-17.49-64.82-23.85-88C715.1,244.76,710.86,232.82,666.35,234.26Z"/><path class="cls-5" d="M673.11,234.15c38.21,0,42.44,12.25,50.47,41.51,6.36,23.18,27,61.62,23.85,88-2.09,17.3-.33,37.67-69.25,37.67-6,0-12.61-.15-19.78-.48-95.33-4.37-47.69-77.41-41.33-127.77,4.21-33.39,23.81-38,49.28-38.82,2.37-.08,4.62-.11,6.76-.11m0-4.77c-2.17,0-4.5,0-6.92.11-24.6.8-49,4.77-53.86,43-1.35,10.74-4.63,22.48-8.09,34.9-7.81,28-15.88,56.91-1.57,76.68,9.57,13.23,27.73,20.28,55.51,21.55,7.1.33,13.82.49,20,.49,30.62,0,50-3.86,61.1-12.14,10.52-7.87,11.66-18.45,12.57-27,.1-.92.2-1.85.31-2.77,2.35-19.51-7.08-44-15.4-65.59-3.45-8.95-6.7-17.4-8.58-24.24-4.43-16.15-7.66-26.49-15.17-33.87-8-7.82-19.89-11.15-39.9-11.15Z"/><path class="cls-8" d="M747.37,364.16l-3.92-2.83s-44.51,23.84-77.9,25.43c-20.76,1-46.44-6.63-62.89-12.53,6,14.82,21.83,25.06,55.74,26.62C746.65,404.89,745.19,382.87,747.37,364.16Z"/><path class="cls-6" d="M650.45,217.45V241.3s11.13,11.13,30.21,1.59V217.45Z"/><path class="cls-5" d="M665.67,249.17c-10.55,0-16.55-5.83-16.9-6.18l-.7-.7V215.07h35v29.29l-1.32.66A35.69,35.69,0,0,1,665.67,249.17Zm-12.83-8.95c2.47,2,11.36,7.6,25.43,1.17V219.84H652.84Z"/><path class="cls-6" d="M653.94,223.82c-20-1.06-37-3.09-35.46-30.84s-4.62-58.59-3.08-66.3-3.09-30.84,52.42-30.84,47.8,58.59,46.26,66.3S712.54,226.9,653.94,223.82Z"/><path class="cls-5" d="M667.82,95.84c55.51,0,47.8,58.59,46.26,66.3-1.5,7.51-1.55,61.8-55.64,61.8-1.46,0-3,0-4.5-.12-20-1.06-37-3.09-35.46-30.84s-4.62-58.59-3.08-66.3-3.09-30.84,52.42-30.84m0-4.77c-22.85,0-38.34,3.77-47.36,11.52-8.18,7-9,15.54-9.44,20.63-.09,1-.18,1.93-.3,2.52-.76,3.78-.2,10,.95,21.63,1.3,13.23,2.92,29.7,2.05,45.34-.63,11.36,1.59,19.69,6.78,25.48,7.53,8.39,19.49,9.67,33.19,10.39,1.61.08,3.2.13,4.75.13,22.57,0,39.18-8.8,49.37-26.13,8-13.66,9.73-29,10.55-36.37.15-1.33.29-2.59.4-3.13.27-1.39,6.6-34.26-10.78-55.46-9-11-22.52-16.55-40.16-16.55Z"/><path class="cls-7" d="M618.48,193c-1.54,27.75,15.45,29.78,35.47,30.84,17.48.92,29.72-3.54,38.37-10.42-20,4.19-45.19,3.69-56.18-8.66-12.71-14.31-6.36-97-6.36-97L634,100.4c-19.57,7.14-17.48,20.72-18.59,26.28C613.86,134.39,620,165.22,618.48,193Z"/><path class="cls-4" d="M616,121.59S588.45,95,588.45,83.91s97-11.12,117.64-6.35,38.16-3.18,30.21,36.56-15.85,68.48-26.21,70.81l-2.41-34.25s-19.07-19.07-23.84-31.79C683.84,118.89,635.56,113.16,616,121.59Z"/><path class="cls-5" d="M656.46,74.53c21.34,0,41.45,1.14,49.63,3,20.67,4.76,38.16-3.18,30.21,36.56s-15.85,68.48-26.21,70.81l-2.41-34.25s-19.07-19.07-23.84-31.79a320.89,320.89,0,0,0-33.35-1.9c-12.75,0-26.21,1-34.51,4.6,0,0-27.53-26.55-27.53-37.68,0-6.72,35.42-9.38,68-9.38m0-4.77A429.44,429.44,0,0,0,609.68,72c-18.71,2.18-26,5.53-26,12,0,12.52,24.15,36.44,29,41.11l2.28,2.2,2.91-1.25c6.41-2.76,17.69-4.21,32.63-4.21,12.72,0,24.83,1,30.07,1.58,5.42,11.3,18.36,25.16,22.49,29.43l2.28,32.49.39,5.53,5.41-1.21c11.55-2.59,19.36-22.09,29.84-74.53,3.22-16,2.65-25.95-1.82-32.09-4.76-6.52-12.59-7.41-20.88-8.35a98.74,98.74,0,0,1-11.1-1.7c-8.3-1.92-28.2-3.15-50.71-3.15Z"/><path class="cls-6" d="M696.55,152.27s6.36-21.46,16.7-8.34,2.38,35.37-8.75,32.19"/><path class="cls-5" d="M706.68,178.82a10.36,10.36,0,0,1-2.83-.41l1.31-4.58c3.54,1,6.08-1.85,7.28-3.64,4.08-6.09,4.84-17.29-1.07-24.79-1.33-1.69-3.32-3.64-5.17-3.29-3.31.63-6.39,7.58-7.36,10.84l-4.57-1.35c.39-1.31,4-12.82,11-14.17,3.38-.65,6.68,1,9.82,5,7.33,9.3,6.41,22.76,1.28,30.4C713.79,176.74,710.35,178.82,706.68,178.82Z"/><ellipse class="cls-5" cx="626.6" cy="158.63" rx="3.18" ry="4.77"/><ellipse class="cls-5" cx="662.37" cy="159.43" rx="3.18" ry="4.77"/><path class="cls-4" d="M626.6,187.25s-9.53,14.31-7.94,17.49c.56,1.12,30.15,1,42.34,1.4a1.68,1.68,0,0,0,1.06-3L647.27,192Z"/><path class="cls-5" d="M626.6,187.25,647.27,192l14.79,11.09a1.68,1.68,0,0,1-1,3H661c-12.19-.42-41.78-.28-42.34-1.4-1.59-3.18,7.94-17.49,7.94-17.49m-2.13-5.39-1.83,2.74c-11.08,16.61-9.1,20.58-8.25,22.27,1.52,3,4.15,3.13,12.85,3.41,5.09.16,11.64.25,18,.34,6,.08,11.72.15,15.62.29h.23a6.45,6.45,0,0,0,3.86-11.61l-14.8-11.1-.8-.6-1-.23-20.66-4.77-3.21-.74Z"/><path class="cls-6" d="M640.91,161.81c-9.54,6.36-31.79,19.08-31.79,25.44s47.69,6.36,47.69,6.36"/><path class="cls-5" d="M656.81,196c-50.08,0-50.08-6.58-50.08-8.74,0-6,11.58-13.87,26.7-23.46,2.33-1.48,4.45-2.82,6.16-4l2.65,4c-1.74,1.15-3.89,2.52-6.25,4-7.11,4.51-23.46,14.89-24.44,19.07,3.37,2.69,25.8,4.34,45.26,4.34Z"/><path class="cls-5" d="M666.54,215.94a19.41,19.41,0,0,1-2-.09,1.58,1.58,0,0,1-1.4-1.75,1.6,1.6,0,0,1,1.75-1.41c.07,0,6.69.69,9.66-2.38,1.22-1.26,1.65-3,1.31-5.35a1.59,1.59,0,0,1,3.15-.45c.48,3.33-.26,6-2.18,8C674,215.49,669.21,215.94,666.54,215.94Z"/><path class="cls-5" d="M679.86,145.12a1.59,1.59,0,0,1-1.39-.82c-2-3.52-4.61-5.75-7.87-6.63-6.62-1.77-13.7,2.41-13.77,2.45a1.59,1.59,0,1,1-1.63-2.72c.33-.2,8.31-4.92,16.22-2.8,4.13,1.11,7.44,3.85,9.83,8.16a1.58,1.58,0,0,1-.62,2.16A1.53,1.53,0,0,1,679.86,145.12Z"/><path class="cls-5" d="M617.06,142.74a1.57,1.57,0,0,1-.77-.21,1.59,1.59,0,0,1-.61-2.16c.15-.28,3.91-6.93,9.78-7.17,3.7-.13,7.19,2.23,10.42,7.06a1.59,1.59,0,0,1-2.65,1.77c-2.56-3.85-5.13-5.75-7.64-5.65-4,.16-7.1,5.48-7.13,5.54A1.61,1.61,0,0,1,617.06,142.74Z"/><path class="cls-7" d="M666.41,433.08a3.73,3.73,0,0,0-.86-.21c-9.68-1.08-7,46.29-4.23,91.41h11.39Z"/><path class="cls-8" d="M736.3,114.12c8-39.74-9.54-31.8-30.21-36.56s-117.64-4.77-117.64,6.35a13.85,13.85,0,0,0,1.44,5.38l113.45,2.18a19.69,19.69,0,0,1,19.28,20.61l-3,62.43C725.67,162.39,731,140.73,736.3,114.12Z"/><rect class="cls-7" x="692.31" y="459.28" width="104.64" height="90.43" rx="7.5" ry="7.5"/><path class="cls-5" d="M785,459.28A11.92,11.92,0,0,1,797,471.2v66.59A11.92,11.92,0,0,1,785,549.71h-80.8a11.92,11.92,0,0,1-11.92-11.92V471.2a11.92,11.92,0,0,1,11.92-11.92H785m0-4.77h-80.8a16.71,16.71,0,0,0-16.69,16.69v66.59a16.71,16.71,0,0,0,16.69,16.69H785a16.71,16.71,0,0,0,16.69-16.69V471.2A16.71,16.71,0,0,0,785,454.51Z"/><rect class="cls-6" x="644.51" y="459.28" width="104.64" height="90.43" rx="6.63" ry="6.63"/><path class="cls-5" d="M738.62,459.28a10.52,10.52,0,0,1,10.53,10.53v69.37a10.52,10.52,0,0,1-10.53,10.53H655a10.52,10.52,0,0,1-10.53-10.53V469.81A10.52,10.52,0,0,1,655,459.28h83.58m0-4.77H655a15.31,15.31,0,0,0-15.3,15.3v69.37a15.31,15.31,0,0,0,15.3,15.3h83.58a15.31,15.31,0,0,0,15.3-15.3V469.81a15.31,15.31,0,0,0-15.3-15.3Z"/><path class="cls-5" d="M647.74,549.43l-3.51-3.23L676.6,511a9.39,9.39,0,0,0-.14-12.85l-32.19-33.49,3.44-3.3,32.19,33.49a14.16,14.16,0,0,1,.21,19.38Z"/><path class="cls-5" d="M748.18,549.43l-32.37-35.18a14.17,14.17,0,0,1,.21-19.38l32.2-33.49,3.44,3.3-32.2,33.49a9.39,9.39,0,0,0-.14,12.85l32.37,35.18Z"/><rect class="cls-7" x="692.96" y="273.89" width="104.64" height="90.43" rx="7.5" ry="7.5"/><path class="cls-5" d="M785.68,273.89a11.92,11.92,0,0,1,11.92,11.92V352.4a11.92,11.92,0,0,1-11.92,11.92h-80.8A11.91,11.91,0,0,1,693,352.4V285.81a11.92,11.92,0,0,1,11.92-11.92h80.8m0-4.77h-80.8a16.71,16.71,0,0,0-16.69,16.69V352.4a16.71,16.71,0,0,0,16.69,16.69h80.8a16.71,16.71,0,0,0,16.69-16.69V285.81a16.71,16.71,0,0,0-16.69-16.69Z"/><rect class="cls-6" x="645.16" y="273.89" width="104.64" height="90.43" rx="6.63" ry="6.63"/><path class="cls-5" d="M739.27,273.89a10.54,10.54,0,0,1,10.53,10.53v69.37a10.53,10.53,0,0,1-10.53,10.53H655.69a10.52,10.52,0,0,1-10.53-10.53V284.42a10.53,10.53,0,0,1,10.53-10.53h83.58m0-4.77H655.69a15.31,15.31,0,0,0-15.3,15.3v69.37a15.31,15.31,0,0,0,15.3,15.3h83.58a15.32,15.32,0,0,0,15.3-15.3V284.42a15.32,15.32,0,0,0-15.3-15.3Z"/><path class="cls-5" d="M648.39,364l-3.51-3.23,32.37-35.17a9.4,9.4,0,0,0-.14-12.86l-32.2-33.49,3.44-3.3,32.2,33.49a14.17,14.17,0,0,1,.21,19.38Z"/><path class="cls-5" d="M748.83,364l-32.37-35.18a14.16,14.16,0,0,1,.21-19.38L748.86,276l3.44,3.3-32.19,33.49a9.4,9.4,0,0,0-.14,12.86l32.37,35.17Z"/><rect class="cls-7" x="659.37" y="365.62" width="104.64" height="90.43" rx="7.5" ry="7.5" transform="translate(1423.38 821.66) rotate(-180)"/><path class="cls-5" d="M752.09,365.62A11.92,11.92,0,0,1,764,377.54v66.59a11.92,11.92,0,0,1-11.92,11.92h-80.8a11.92,11.92,0,0,1-11.92-11.92V377.54a11.91,11.91,0,0,1,11.92-11.92h80.8m0-4.77h-80.8a16.71,16.71,0,0,0-16.69,16.69v66.59a16.71,16.71,0,0,0,16.69,16.69h80.8a16.71,16.71,0,0,0,16.69-16.69V377.54a16.71,16.71,0,0,0-16.69-16.69Z"/><rect class="cls-6" x="707.17" y="365.62" width="104.64" height="90.43" rx="6.62" ry="6.62" transform="translate(1518.98 821.66) rotate(-180)"/><path class="cls-5" d="M801.28,365.62a10.52,10.52,0,0,1,10.53,10.53v69.37a10.53,10.53,0,0,1-10.53,10.53H717.7a10.53,10.53,0,0,1-10.53-10.53V376.15a10.52,10.52,0,0,1,10.53-10.53h83.58m0-4.77H717.7a15.31,15.31,0,0,0-15.3,15.3v69.37a15.32,15.32,0,0,0,15.3,15.3h83.58a15.32,15.32,0,0,0,15.3-15.3V376.15a15.31,15.31,0,0,0-15.3-15.3Z"/><path class="cls-5" d="M808.58,455.77l-32.37-35.18a14.18,14.18,0,0,1,.21-19.39l32.19-33.49,3.44,3.31-32.19,33.49a9.39,9.39,0,0,0-.14,12.85l32.37,35.18Z"/><path class="cls-5" d="M708.14,455.77l-3.51-3.23L737,417.36a9.39,9.39,0,0,0-.14-12.85L704.67,371l3.43-3.31,32.2,33.49a14.18,14.18,0,0,1,.21,19.39Z"/><path class="cls-6" d="M701.08,241.5s-22.14-2.79-31.49,3.45,5,7.48,5,7.48S648.41,269.9,658.7,283.3s27.75-.95,36.16-18.73l16.83-3.12Z"/><path class="cls-5" d="M668.46,291c-4.52,0-8.52-2.12-11.65-6.19a13.37,13.37,0,0,1-2.69-10.69c1.36-8.28,9.55-16.1,14.77-20.35-2.19-.75-4.2-2-4.72-4-.88-3.41,2.87-5.91,4.1-6.73,10-6.66,32.17-3.95,33.11-3.84l1.22.16,12.72,23.91-18.84,3.5c-5.68,11.39-15.85,23-26.42,24.17C669.52,290.92,669,291,668.46,291Zm.52-42.39a15.85,15.85,0,0,0,5.81,1.49l6.74.6-5.62,3.76c-.16.1-15.44,10.43-17.09,20.44a8.68,8.68,0,0,0,1.77,7c2.5,3.26,5.44,4.66,9,4.28,7.61-.82,17.35-10.31,23.15-22.57l.52-1.11,14.84-2.75-8.5-16c-6.75-.7-22-1.22-28.65,3.2A8.58,8.58,0,0,0,669,248.56Z"/><path class="cls-4" d="M808,249.23c.6,27.44-44.92,26.79-111,20.51l0-32.42S807.28,215.26,808,249.23Z"/><path class="cls-5" d="M763,230.28c23.68,0,44.73,4.17,45.06,18.95.4,18.26-19.63,24.08-52.54,24.08-16.55,0-36.35-1.47-58.47-3.57l0-32.42s35.18-7,65.93-7m0-4.77v0c-30.86,0-65.41,6.84-66.86,7.13l-3.83.77v3.9l0,32.43v4.34l4.32.41c26.16,2.48,44.33,3.59,58.92,3.59,27,0,42.71-3.79,51-12.28a22.25,22.25,0,0,0,6.29-16.67c-.35-15.68-17.11-23.62-49.82-23.62Z"/><path class="cls-8" d="M817.38,490.21l9.53-4.09v-229A25.42,25.42,0,0,1,828.6,248l18.14-47.16a9.9,9.9,0,0,0-3.39-11.54l-26,63.09Z"/><path class="cls-8" d="M697,245.22c24.35-2.85,65.67-7.07,84.8-5.36,15,1.34,21.67,9.85,24.68,17.51a19.17,19.17,0,0,0,1.51-8.14c-.75-34-111-11.91-111-11.91Z"/><rect class="cls-4" x="774.45" y="467.05" width="62" height="92.21" rx="19.5" ry="19.5"/><path class="cls-5" d="M805.45,467.05a31.09,31.09,0,0,1,31,31v30.2a31,31,0,0,1-62,0v-30.2a31.09,31.09,0,0,1,31-31m0-4.77a35.81,35.81,0,0,0-35.77,35.77v30.2a35.77,35.77,0,1,0,71.54,0v-30.2a35.8,35.8,0,0,0-35.77-35.77Z"/><ellipse class="cls-6" cx="820.56" cy="511.56" rx="6.36" ry="22.26"/><path class="cls-5" d="M820.56,536.2c-6.91,0-8.75-15.49-8.75-24.64s1.84-24.64,8.75-24.64,8.74,15.49,8.74,24.64S827.46,536.2,820.56,536.2Zm0-44.44c-1.3,1-4,7.54-4,19.8s2.68,18.77,4,19.8c1.29-1,4-7.54,4-19.8S821.85,492.78,820.56,491.76Z"/><path class="cls-8" d="M774.45,498.05v30.2a31.09,31.09,0,0,0,31,31q1.54,0,3.06-.15c-21.52-13.83-16.57-40.22-16.57-66.62,0-18.29,16.7-20.82,31.8-19.38a30.71,30.71,0,0,0-18.29-6.05A31.09,31.09,0,0,0,774.45,498.05Z"/></g></g></svg>