<svg xmlns="http://www.w3.org/2000/svg" viewBox="0 0 296 246.46"><defs><style>.cls-1{fill:#f4f4f4;}.cls-2{fill:#fff;}.cls-3,.cls-5{fill:#7177bf;}.cls-4{fill:#dbdbf1;}.cls-5{font-size:16.02px;font-family:GothamRounded-Bold, Gotham Rounded;font-weight:700;}.cls-6{fill:#ededf7;}.cls-7{fill:#f5f6f7;}</style></defs><title>Recurso 15</title><g id="Capa_2" data-name="Capa 2"><g id="Capa_1-2" data-name="Capa 1"><path class="cls-1" d="M141.23,246.45c-66.38.91-69.6-38.42-109.44-82.63C-5.89,122,4,59.29,47.94,39.38S189.67-24.34,228.25,17.47s69.07,76.66,35,146.35C235.67,220.17,213.89,245.45,141.23,246.45Z"/><rect class="cls-2" x="52.59" y="92.64" width="40.81" height="85.63" rx="16.17" ry="16.17"/><path class="cls-3" d="M83.44,92.64a10,10,0,0,1,10,10v65.71a10,10,0,0,1-10,10H62.54a10,10,0,0,1-9.95-10V102.6a10,10,0,0,1,9.95-10h20.9m0-1.85H62.54a11.82,11.82,0,0,0-11.8,11.81v65.71a11.82,11.82,0,0,0,11.8,11.81h20.9a11.82,11.82,0,0,0,11.8-11.81V102.6a11.82,11.82,0,0,0-11.8-11.81Z"/><rect class="cls-4" x="104.11" y="63.07" width="40.81" height="115.19" rx="16.17" ry="16.17"/><path class="cls-3" d="M135,63.07a10,10,0,0,1,9.95,10v95.28a10,10,0,0,1-9.95,10H114.07a10,10,0,0,1-10-10V73a10,10,0,0,1,10-10H135m0-1.84H114.07A11.81,11.81,0,0,0,102.26,73v95.28a11.82,11.82,0,0,0,11.81,11.81H135a11.82,11.82,0,0,0,11.8-11.81V73A11.81,11.81,0,0,0,135,61.23Z"/><rect class="cls-4" x="1.85" y="135.15" width="40.81" height="43.12" rx="16.17" ry="16.17"/><path class="cls-3" d="M32.7,135.15a10,10,0,0,1,10,10v23.2a10,10,0,0,1-10,10H11.81a10,10,0,0,1-10-10v-23.2a10,10,0,0,1,10-10H32.7m0-1.85H11.81A11.83,11.83,0,0,0,0,145.11v23.2a11.83,11.83,0,0,0,11.81,11.81H32.7a11.82,11.82,0,0,0,11.8-11.81v-23.2A11.82,11.82,0,0,0,32.7,133.3Z"/><rect class="cls-2" x="155.63" y="32.89" width="40.81" height="145.38" rx="16.17" ry="16.17"/><path class="cls-3" d="M186.48,32.89a10,10,0,0,1,10,10V168.31a10,10,0,0,1-10,10H165.59a10,10,0,0,1-10-10V42.85a10,10,0,0,1,10-10h20.89m0-1.85H165.59a11.83,11.83,0,0,0-11.81,11.81V168.31a11.83,11.83,0,0,0,11.81,11.81h20.89a11.82,11.82,0,0,0,11.8-11.81V42.85A11.82,11.82,0,0,0,186.48,31Z"/><text class="cls-5" transform="translate(15.85 153.63)">$</text><text class="cls-5" transform="translate(66.98 111.74)">$</text><text class="cls-5" transform="translate(118.11 82.17)">$</text><text class="cls-5" transform="translate(169.24 52.6)">$</text><path class="cls-2" d="M196,72.86s1.83-4-.71-10.44-.31-18,4.78-16.78,5.34,15.54,2.72,23S196,72.86,196,72.86Z"/><path class="cls-3" d="M198.15,74.47a4.77,4.77,0,0,1-2.68-.87l-.58-.45.3-.66c0-.08,1.6-3.86-.73-9.73-2-5.11-1.22-13.12,1.66-16.48a4.11,4.11,0,0,1,4.19-1.54,5,5,0,0,1,3.16,2.7c2.71,5,2.36,15.43.23,21.49-1.07,3-2.54,4.82-4.38,5.37A4.14,4.14,0,0,1,198.15,74.47Zm-1-2a2.58,2.58,0,0,0,1.66.1c1.22-.38,2.3-1.83,3.14-4.21,1.93-5.47,2.31-15.6-.1-20a3.23,3.23,0,0,0-2-1.79,2.3,2.3,0,0,0-2.36,1c-2.42,2.81-3.1,10.17-1.35,14.58C198.2,67.16,197.59,70.87,197.15,72.43Z"/><path class="cls-4" d="M219.93,118.15c-4.57,6.79-23.16-3.52-28.28-20.33a63.52,63.52,0,0,1-.84-32.21L207,68s-4.22,15.76-1.58,25.11S229.61,103.75,219.93,118.15Z"/><path class="cls-3" d="M190.81,65.61,207,68s-4.22,15.76-1.58,25.11,24.24,10.61,14.56,25a5.17,5.17,0,0,1-4.55,2.11c-7.31,0-19.7-9.2-23.73-22.44a63.52,63.52,0,0,1-.84-32.21m-1.35-2.07L189,65.12a65,65,0,0,0,.86,33.24,37.72,37.72,0,0,0,11.19,17c4.79,4.2,10.14,6.71,14.31,6.71a6.92,6.92,0,0,0,6.08-2.93c2.35-3.5,3.21-6.6,2.61-9.46-.93-4.5-5.17-7.21-9.27-9.83-3.52-2.25-6.85-4.38-7.66-7.25-2.46-8.75,1.56-24,1.6-24.13l.53-2-2-.3-16.15-2.42-1.62-.25Z"/><path class="cls-6" d="M219,119.17c-8.16-4.27-21.58-12.93-23.4-24.48-1.58-10,.52-20.91,2.45-28l-7.21-1.08a63.52,63.52,0,0,0,.84,32.21C196.47,113.64,213.2,123.69,219,119.17Z"/><path class="cls-4" d="M210.41,216.09s.61,4.93-3.08,6.16-13.55,2.47-8.63,4.93H219s1.85-7.39-1.23-10.47S210.41,216.09,210.41,216.09Z"/><path class="cls-3" d="M219.75,228.11H198.48l-.19-.1c-.5-.25-2-1-1.85-2.3.19-1.68,2.9-2.41,7.3-3.47,1.27-.3,2.46-.58,3.3-.86,2.92-1,2.47-5,2.45-5.17l-.07-.61.53-.31c1.7-1,5.67-2.06,8.5.77,3.41,3.41,1.56,11,1.48,11.35Zm-20.82-1.85h19.36c.45-2.31.84-6.91-1.14-8.9s-4.67-1.17-5.77-.71c.06,2.1-.63,5.44-3.76,6.48-.91.3-2.14.6-3.45.91-1.79.43-5,1.21-5.8,1.85A3.27,3.27,0,0,0,198.93,226.26Z"/><path class="cls-4" d="M235.05,216.09s.61,4.93-3.08,6.16-13.55,2.47-8.63,4.93h20.33s1.85-7.39-1.23-10.47S235.05,216.09,235.05,216.09Z"/><path class="cls-3" d="M244.39,228.11H223.13l-.2-.1c-.49-.25-2-1-1.85-2.3.19-1.68,2.9-2.41,7.3-3.47,1.27-.3,2.46-.58,3.3-.86,2.92-1,2.47-5,2.45-5.17l-.07-.61.53-.31c1.7-1,5.67-2.06,8.5.77,3.41,3.41,1.56,11,1.48,11.35Zm-20.82-1.85h19.36c.45-2.31.85-6.91-1.14-8.9s-4.67-1.17-5.77-.71c.06,2.1-.63,5.44-3.76,6.48-.91.3-2.14.6-3.45.91-1.79.43-5,1.21-5.8,1.85A3.27,3.27,0,0,0,223.57,226.26Z"/><path class="cls-2" d="M201.78,163.73s5.55,49.9,7.4,55.44h11.08l.62-33.88h4.93l6.77,33.27h12.94l-3.08-54.83Z"/><path class="cls-3" d="M242.44,163.73l3.08,54.83H232.58l-6.77-33.27h-4.93l-.62,33.88H209.18c-1.85-5.54-7.4-55.44-7.4-55.44h40.66m1.75-1.85H199.72l.23,2.06c.22,2,5.58,50.15,7.47,55.82l.42,1.26h14.24l0-1.81.58-32.07h1.61l6.47,31.79.3,1.48h16.41l-.11-2-3.08-54.82-.1-1.75Z"/><path class="cls-7" d="M201.78,163.73s.38,3.36,1,8.43c5.69,3,16.4,6,35.08,2.35l7.34,44.05h.36l-3.08-54.83Z"/><path class="cls-4" d="M200.69,162.06c-6.6-8.67,4.91-38.54,5.77-43.39s4-9.91,11.45-11.75a30.6,30.6,0,0,1,11.34-.5l14.85,4.49s10.39,5,8.11,10.81,2.76,41.14-9.66,47.71C233.54,174.2,207.3,170.73,200.69,162.06Z"/><path class="cls-3" d="M224.9,106.11a27.53,27.53,0,0,1,4.35.31l14.85,4.49s10.39,5,8.11,10.81,2.76,41.14-9.66,47.71c-2.76,1.47-7.15,2.16-12.09,2.16-11.17,0-25.19-3.52-29.77-9.53-6.6-8.67,4.91-38.54,5.77-43.39s4-9.91,11.45-11.75a29.38,29.38,0,0,1,7-.81m0-1.85h0a30.65,30.65,0,0,0-7.44.87c-7,1.74-11.65,6.55-12.82,13.22-.16.89-.82,3.06-1.59,5.58-4.67,15.3-9.19,32.21-3.83,39.25,5.07,6.66,19.88,10.25,31.24,10.25,3.87,0,9.26-.41,13-2.36,9.68-5.13,9.8-24,9.89-37.76,0-4.88.06-9.49.62-10.92,2.29-5.88-4.6-11-9-13.15l-.13-.06-.13,0-14.85-4.49-.11,0-.11,0a29.54,29.54,0,0,0-4.67-.34Z"/><path class="cls-2" d="M227.4,99.21,226,107.1s.07,3.14,4.21,4.49,7.81-1.75,7.81-1.75l1.5-8.49Z"/><path class="cls-3" d="M232.39,112.86a7.78,7.78,0,0,1-2.46-.39c-4.7-1.54-4.84-5.19-4.85-5.35V107l1.57-8.89,13.95,2.46-1.71,9.73-.26.22A10.64,10.64,0,0,1,232.39,112.86Zm-5.45-5.71c0,.42.43,2.54,3.57,3.57s5.84-.79,6.68-1.39l1.27-7.23-10.31-1.82Z"/><path class="cls-2" d="M233.34,55.37s-20.89,32.82-8.13,42.07,31.39,1.4,37-32.3Z"/><path class="cls-3" d="M233.34,55.37l28.9,9.77C258,90.28,246.59,101,235.76,101a17.91,17.91,0,0,1-10.55-3.59c-12.76-9.25,8.13-42.07,8.13-42.07m-.78-2.21-.78,1.22a114.6,114.6,0,0,0-9,17.89c-5.16,13.3-4.7,22.27,1.35,26.66a19.78,19.78,0,0,0,11.64,3.95c6.33,0,12.26-3.18,17.16-9.2,5.36-6.6,9.11-16.1,11.14-28.24l.26-1.55-1.49-.5-28.89-9.77-1.38-.46Z"/><path class="cls-7" d="M239.75,97.51c-5.74,3.58-12.06,1-16.6-2.13a9.36,9.36,0,0,0,2.06,2.06c12.34,9,30.19,1.89,36.44-29.11l-8,3.53S250.2,91,239.75,97.51Z"/><path class="cls-4" d="M255.57,85.21s-7.39-5.84-.2-18.65c0,0-15.16.81-24.78-8.87S232.68,37,232.68,37s-3.76,9.69,11.7,12,28.38,7.29,22.29,15.32c0,0,14.26,15.88-14.9,28.37Z"/><path class="cls-3" d="M232.68,37s-3.76,9.69,11.7,12,28.38,7.29,22.29,15.32c0,0,14.26,15.88-14.9,28.37l3.8-7.41s-7.39-5.84-.2-18.65c0,0-.3,0-.86,0-3.35,0-15.68-.59-23.92-8.89C221,48,232.68,37,232.68,37M237.36,30l-6,5.61c-.26.25-6.35,6.08-6.46,13.37a13.55,13.55,0,0,0,4.33,10c7.45,7.5,17.93,9.07,23.12,9.36-4.18,9.33-1,15,.92,17.19l-3.2,6.22-2.34,4.57,4.72-2c11.19-4.8,17.64-10.73,19.16-17.63a16.14,16.14,0,0,0-2.72-12.51,6.89,6.89,0,0,0,.63-6.27c-2.57-6.27-15-9.34-24.92-10.81-5-.74-8.38-2.39-9.77-4.78a6,6,0,0,1-.48-4.69l3-7.62Z"/><path class="cls-6" d="M266.67,64.25c6.09-8-6.83-13-22.29-15.32-9.64-1.42-11.8-5.72-12.07-8.76-1.19,2.21-1.54,5.46,3.14,8.77,8.3,5.86,25.56,4,29.39,9.41s.29,6.06.29,6.06,3.86,7.38,3.52,15.18C272.94,71.24,266.67,64.25,266.67,64.25Z"/><ellipse class="cls-3" cx="229.15" cy="74.9" rx="1.85" ry="1.54" transform="translate(76.49 261.48) rotate(-68.81)"/><ellipse class="cls-3" cx="239.8" cy="80.67" rx="1.85" ry="1.54" transform="translate(77.9 275.1) rotate(-68.81)"/><path class="cls-3" d="M233.61,96.26a12.25,12.25,0,0,1-5.93-1.73.61.61,0,0,1-.21-.84.62.62,0,0,1,.85-.22c.28.17,6.87,4,10-1a.62.62,0,0,1,1.05.65A6.42,6.42,0,0,1,233.61,96.26Z"/><path class="cls-3" d="M246.57,78a.62.62,0,0,1-.59-.42,5,5,0,0,0-5-3.75.62.62,0,0,1-.11-1.23,6.27,6.27,0,0,1,6.29,4.59.61.61,0,0,1-.39.78A.63.63,0,0,1,246.57,78Z"/><path class="cls-3" d="M228.41,70.28a.62.62,0,0,1-.36-.12.61.61,0,0,1-.14-.86,4,4,0,0,1,2.72-1.74,5.34,5.34,0,0,1,3.65,1.11.61.61,0,0,1,.1.86.62.62,0,0,1-.87.1h0a4.14,4.14,0,0,0-2.72-.85A2.81,2.81,0,0,0,228.91,70,.63.63,0,0,1,228.41,70.28Z"/><path class="cls-6" d="M233.17,165.91c-11.1,3.12-24.72-1.52-33.4-5.44a7.69,7.69,0,0,0,.92,1.59c6.61,8.67,32.85,12.14,41.86,7.37,6.88-3.63,8.4-16.07,8.77-27.44C248.46,151.64,243,163.13,233.17,165.91Z"/><path class="cls-2" d="M282.14,94.58s.55-4.41,6.05-8.55,9.62-15.16,4.66-16.81-12.66,10.49-14.3,18.2S282.14,94.58,282.14,94.58Z"/><path class="cls-3" d="M281.93,95.51a4.49,4.49,0,0,1-3.34-1.41c-1.29-1.43-1.61-3.74-.94-6.87C279,80.94,284.14,71.81,289,69a5,5,0,0,1,4.1-.66,4.09,4.09,0,0,1,2.77,3.5c.71,4.36-2.77,11.62-7.16,14.92-5.14,3.86-5.69,7.89-5.69,7.93l-.09.72-.73.08Zm10-25.51a4,4,0,0,0-1.93.61c-4.34,2.49-9.3,11.34-10.51,17-.52,2.46-.35,4.27.5,5.23a2.55,2.55,0,0,0,1.46.78c.44-1.57,1.85-5,6.23-8.33,3.79-2.86,7-9.49,6.44-13.16a2.28,2.28,0,0,0-1.52-2A2.09,2.09,0,0,0,291.89,70Z"/><path class="cls-4" d="M238.15,120.78c.36,8.18,21.59,9.07,34.73-2.61a63.52,63.52,0,0,0,17.5-27l-15.05-6.35s-4.6,15.65-11.72,22.26S237.39,103.45,238.15,120.78Z"/><path class="cls-3" d="M275.33,84.77l15.05,6.35a63.52,63.52,0,0,1-17.5,27.05,36,36,0,0,1-23.07,8.76c-6.55,0-11.49-2.24-11.66-6.15-.76-17.33,18.33-7.14,25.46-13.75s11.72-22.26,11.72-22.26m-1.19-2.51-.58,2c-.05.15-4.54,15.24-11.21,21.42-2.19,2-6.13,2.11-10.31,2.2-4.87.1-9.9.21-13,3.56-2,2.13-2.88,5.22-2.7,9.43.21,4.81,5.52,7.92,13.51,7.92a37.58,37.58,0,0,0,24.3-9.23,65,65,0,0,0,18.05-27.93l.44-1.57-1.5-.64-15.05-6.34-1.91-.81Z"/><path class="cls-6" d="M238.43,122.16c9.19.6,25.16.2,32.73-8.71,6.58-7.75,10.46-18.11,12.5-25.17l6.72,2.84a63.52,63.52,0,0,1-17.5,27.05C260.52,129.15,241,129,238.43,122.16Z"/></g></g></svg>