<svg xmlns="http://www.w3.org/2000/svg" xmlns:xlink="http://www.w3.org/1999/xlink" viewBox="0 0 805.43 653.93"><defs><style>.cls-1{fill:none;}.cls-2{fill:#f4f4f4;}.cls-3{fill:#fff;}.cls-4{fill:#7177bf;}.cls-5{fill:#f5f6f7;}.cls-6{fill:#dbdbf1;}.cls-7{fill:#ededf7;}.cls-8{clip-path:url(#clip-path);}</style><clipPath id="clip-path"><path class="cls-1" d="M412.61,653.93c-135.12,0-189.49-61.63-306.49-115.35S-12.52,375.83,13.85,279.44,140.73,89.82,298.92,56.64,607.05,1.34,729,89.82C821.57,157,826.21,281,763.59,415.33S625.34,653.93,412.61,653.93Z"/></clipPath></defs><title>Recurso 2</title><g id="Capa_2" data-name="Capa 2"><g id="Capa_1-2" data-name="Capa 1"><path class="cls-2" d="M412.61,653.93c-135.12,0-189.49-61.63-306.49-115.35S-12.52,375.83,13.85,279.44,140.73,89.82,298.92,56.64,607.05,1.34,729,89.82C821.57,157,826.21,281,763.59,415.33S625.34,653.93,412.61,653.93Z"/><path class="cls-3" d="M532.59,425s32.71-13.76,39.39-8.94,6.83,13.07,6.83,13.07l2,18.09-46.19-2.48Z"/><path class="cls-4" d="M580.77,449.71h-.13l-46.19-2.48a2.47,2.47,0,0,1-2.32-2.22l-2-19.74a2.48,2.48,0,0,1,1.5-2.53c8-3.35,34.56-13.89,41.8-8.66s7.79,13.69,7.84,14.89l2,18a2.47,2.47,0,0,1-2.46,2.74Zm-43.94-7.3L578,444.62l-1.65-15.21c0-.07,0-.14,0-.22s-.24-7.09-5.8-11.1c-3.3-2.39-20.53,2.47-35.3,8.51Z"/><path class="cls-3" d="M410.94,349.72c5.21-6.38,15.51-7,24.25-3s29.41,54.76,46,62.7,61.14,8.81,61.14,8.81l2.2,31.27S478.69,452.35,457,437.9,393.2,371.46,410.94,349.72Z"/><path class="cls-4" d="M424,344.21a26.9,26.9,0,0,1,11.16,2.54c8.73,4,29.41,54.76,46,62.7s61.14,8.81,61.14,8.81l2.2,31.27s-5.19.22-13.12.22c-20.36,0-58.84-1.45-74.44-11.85-21.68-14.45-63.8-66.44-46.06-88.18,3.06-3.75,7.87-5.51,13.09-5.51m0-4.94h0c-7,0-13.06,2.6-16.92,7.32-4.6,5.65-6.26,13-4.92,22,3.9,25.9,33.92,61.37,52.07,73.46C470,452.5,504.91,454.7,531.44,454.7c7.95,0,13.11-.22,13.33-.23l5.08-.22-.36-5.07-2.2-31.27L547,413.4l-4.52-.09c-.43,0-43.63-.93-59.1-8.32-8.23-3.93-19.46-23.28-27.66-37.4-8.76-15.1-13.55-23.08-18.43-25.33a31.82,31.82,0,0,0-13.23-3Z"/><path class="cls-5" d="M457,437.9c21.69,14.45,87.56,11.63,87.56,11.63l-.86-12.2c-15.59-.17-43.89-1.5-64.35-8.32-29.66-9.89-40.79-75.56-40.79-75.56l-27.28-4.1c-.11.13-.23.24-.34.37C393.2,371.46,435.32,423.45,457,437.9Z"/><path class="cls-3" d="M215.07,334.05S196.13,324.8,195.76,310s9.34-.32,9.34-.32-5.59-36.07,2.23-34.68,12.75,11.11,13,22.63,5.38,27.84,5.38,27.84Z"/><path class="cls-4" d="M215.07,336.52a2.48,2.48,0,0,1-1.09-.25c-.82-.4-20.28-10.09-20.69-26.23-.06-2.14-.2-7.82,3.55-9a5.43,5.43,0,0,1,4.76,1.13c-1.12-10-1.94-24.41,2.07-28.34a4.57,4.57,0,0,1,4.1-1.28c8.68,1.54,14.74,11.59,15.08,25,.28,11.06,5.22,27,5.27,27.17a2.48,2.48,0,0,1-.81,2.66L216.62,336A2.48,2.48,0,0,1,215.07,336.52ZM198.52,306a13.83,13.83,0,0,0-.29,3.89c.28,11,12.44,18.84,16.57,21.19l8.11-6.53c-1.3-4.47-4.76-17.18-5-26.89-.28-10.76-4.74-19.06-10.88-20.25-2,2.12-1.82,16.81.51,31.86a2.47,2.47,0,0,1-4.49,1.75A21.26,21.26,0,0,0,198.52,306Z"/><path class="cls-6" d="M629.3,598.73s1.65,13.18-8.24,16.48S584.81,621.8,598,628.39h54.38s4.94-19.77-3.3-28S629.3,598.73,629.3,598.73Z"/><path class="cls-4" d="M654.3,630.86H597.41l-.52-.26c-1.33-.66-5.36-2.68-5-6.14.52-4.51,7.76-6.46,19.54-9.28,3.38-.81,6.58-1.57,8.81-2.32,7.82-2.61,6.62-13.37,6.57-13.83l-.2-1.63,1.42-.82c4.56-2.6,15.18-5.52,22.75,2,9.12,9.12,4.16,29.5,3.95,30.36Zm-55.71-4.94h51.79c1.2-6.18,2.26-18.48-3-23.8s-12.48-3.14-15.44-1.89c.18,5.6-1.68,14.53-10,17.32-2.43.81-5.73,1.6-9.22,2.44-4.81,1.15-13.47,3.22-15.53,4.94A8.57,8.57,0,0,0,598.59,625.92Z"/><path class="cls-6" d="M347.53,598.73s1.64,13.18-8.24,16.48S303,621.8,316.22,628.39h54.37s5-19.77-3.29-28S347.53,598.73,347.53,598.73Z"/><path class="cls-4" d="M372.53,630.86h-56.9l-.52-.26c-1.32-.66-5.35-2.68-4.95-6.14.51-4.51,7.76-6.46,19.53-9.28,3.39-.81,6.58-1.57,8.82-2.32,7.82-2.61,6.62-13.37,6.56-13.83l-.19-1.63,1.42-.82c4.56-2.6,15.17-5.52,22.75,2,9.12,9.12,4.16,29.5,3.94,30.36Zm-55.71-4.94h51.79c1.19-6.18,2.26-18.48-3.06-23.8s-12.48-3.14-15.44-1.89c.18,5.6-1.67,14.53-10,17.32-2.44.81-5.74,1.6-9.23,2.44-4.8,1.15-13.46,3.22-15.52,4.94A8.57,8.57,0,0,0,316.82,625.92Z"/><path class="cls-6" d="M421.18,598.73s-1.65,13.18,8.24,16.48,36.25,6.59,23.07,13.18H398.11s-4.94-19.77,3.3-28S421.18,598.73,421.18,598.73Z"/><path class="cls-4" d="M453.07,630.86H396.18l-.47-1.87c-.21-.86-5.18-21.24,4-30.36,7.57-7.58,18.19-4.65,22.75-2l1.43.82-.21,1.63c-.06.5-1.24,11.23,6.57,13.83,2.23.75,5.43,1.51,8.81,2.32,11.78,2.82,19,4.77,19.54,9.28.4,3.46-3.63,5.48-5,6.14Zm-53-4.94h51.78a7.82,7.82,0,0,0,1.5-1c-2.05-1.72-10.72-3.79-15.52-4.94-3.49-.84-6.79-1.63-9.22-2.44-8.38-2.79-10.23-11.72-10.05-17.33-3-1.27-10.08-3.45-15.44,1.9S398.9,619.74,400.1,625.92Z"/><path class="cls-6" d="M695.21,598.73s1.65,13.18-8.24,16.48-36.25,6.59-23.07,13.18h54.38s4.94-19.77-3.3-28S695.21,598.73,695.21,598.73Z"/><path class="cls-4" d="M720.21,630.86H663.32l-.52-.26c-1.33-.66-5.36-2.68-5-6.14.52-4.51,7.76-6.46,19.54-9.28,3.38-.81,6.58-1.57,8.81-2.32,7.82-2.61,6.62-13.37,6.57-13.83l-.2-1.63,1.43-.82c4.55-2.6,15.17-5.52,22.74,2,9.13,9.12,4.16,29.5,3.95,30.36Zm-55.7-4.94h51.78c1.2-6.18,2.27-18.48-3-23.8s-12.48-3.14-15.44-1.89c.18,5.6-1.68,14.53-10,17.32-2.43.81-5.73,1.6-9.22,2.44-4.8,1.15-13.47,3.22-15.52,4.94A7.82,7.82,0,0,0,664.51,625.92Z"/><path class="cls-3" d="M530.43,331.78s-1.65-18.12,0-23.06-1.65-18.13-6.59-16.48c-6.63,2.21-6.59,8.24-6.59,13.18s-13.18,9.89-13.18-4.94,4.94-18.13-1.65-18.13-11.54,4.94-13.18,18.13c-1.05,8.33,8.24,31.3,24.71,37.9S530.43,331.78,530.43,331.78Z"/><path class="cls-4" d="M522,342.69a24.5,24.5,0,0,1-9-2c-17.23-6.89-27.48-30.72-26.26-40.5,1.69-13.46,7-20.29,15.64-20.29,1.86,0,3.75.2,5,1.66,1.37,1.67,1,3.78.42,6.7a59.3,59.3,0,0,0-1.26,12.24c0,2.77.53,7.41,4.12,7.41,2.21,0,4.12-1.66,4.12-2.47,0-5.14,0-12.77,8.28-15.53a5.4,5.4,0,0,1,5.67,1.56c3.81,3.82,5.54,13.56,4,18.05-1.08,3.24-.51,15.25.11,22.06v.22c0,.25,0,6.06-4.6,9.14A11,11,0,0,1,522,342.69Zm-19.59-57.87c-2.16,0-8.74,0-10.73,16-.92,7.4,8,29.23,23.18,35.3,4.84,1.94,8.52,2.2,10.66.75s2.4-4.44,2.43-5c-.23-2.48-1.6-18.76.13-23.93,1-2.88-.48-10.6-2.86-13-.13-.13-.44-.43-.61-.37-4.57,1.53-4.9,5.08-4.9,10.75,0,4-4.32,7.51-9.06,7.51a8.1,8.1,0,0,1-6.46-3.1c-1.73-2.15-2.61-5.27-2.61-9.26a64.78,64.78,0,0,1,1.35-13.16c.17-.88.35-1.84.41-2.46C503.13,284.84,502.83,284.82,502.42,284.82Z"/><path class="cls-6" d="M532.15,318.76l-27.72,15.73s16.09,57.24,45.66,75.64,81.46-34.92,88.54-42c17.72-17.75,21.29-56.17,2.2-59.49-37.61-6.54-52.22,63.63-73.45,62.33C546.91,369.68,532.15,318.76,532.15,318.76Z"/><path class="cls-4" d="M635.94,308.19a28.72,28.72,0,0,1,4.89.43c19.09,3.32,15.52,41.74-2.2,59.49-6,6.06-44.8,45.86-74.4,45.86a26.24,26.24,0,0,1-14.14-3.84c-29.57-18.4-45.66-75.64-45.66-75.64l27.72-15.73s14.76,50.92,35.23,52.19H568c20,0,34.27-62.78,68-62.77m0-4.95c-21.74,0-35.87,22.05-47.22,39.75C581.46,354.32,574,366,568,366h-.28c-12.37-.76-25.45-30.23-30.79-48.63l-1.75-6-5.44,3.09L502,330.19l-3.36,1.91,1,3.73c.68,2.41,17,59.31,47.81,78.5a31.18,31.18,0,0,0,16.75,4.59c25.5,0,56.13-25.43,77.34-46.75l.56-.56c13-13.06,19.78-37.51,14.75-53.39-2.56-8.07-8-13.21-15.21-14.47a32.81,32.81,0,0,0-5.73-.51v0Z"/><path class="cls-3" d="M606.23,458.67S621.06,592.14,626,607h29.66l1.65-90.63h13.18l18.13,89h34.6L715,458.67Z"/><path class="cls-4" d="M715,458.67l8.24,146.65h-34.6l-18.13-89H657.31L655.66,607H626c-4.94-14.83-19.77-148.3-19.77-148.3H715m4.68-4.95H600.71l.61,5.49c.6,5.47,14.94,134.17,20,149.32l1.13,3.38h38.08l.09-4.85,1.56-85.78h4.29l17.32,85,.8,4h43.87l-.29-5.22-8.24-146.65-.26-4.67Z"/><path class="cls-6" d="M319.51,458.67S339.29,592.14,344.23,607h29.66l-3.3-90.63h23.07l1.65,89h28l14.83-146.65Z"/><path class="cls-4" d="M438.15,458.67,423.32,605.32h-28l-1.65-89H370.59l3.3,90.63H344.23c-4.94-14.83-24.72-148.3-24.72-148.3H438.15m5.47-4.95H313.78l.84,5.67c.81,5.47,19.9,134.07,24.92,149.14l1.13,3.38H379l-.19-5.12-3.11-85.51h13.09l1.56,84.13.09,4.85h37.33l.45-4.44,14.83-146.66.55-5.44Z"/><path class="cls-3" d="M439.58,367.35c-.22-10,5.1-30.79-46-37.08h0l-.22,0-.23,0h0a114.77,114.77,0,0,0-25.41-.61l.19-.36s-4.69-4.88-27.76-6.53c-9.56-.68-26.36,4.95-62.05,1-34.13-3.79-51.65-15.81-51.65-15.81l-16.48,28L254.58,354c10.56,2.92,21.38,6.41,32.31,7.16l49.43,3c-7.46,17.88-24.94,54.33-31.1,76.65-7.53,27.31,19,30.5,19,30.5l51.18,6.16.44.06L427,483.67s26.5,3.19,25.67-25.12S439.79,377.33,439.58,367.35Z"/><path class="cls-4" d="M226.41,307.89s17.52,12,51.65,15.81a222,222,0,0,0,24.6,1.43c17.93,0,28.63-2.47,35.7-2.47.61,0,1.19,0,1.75.06,23.07,1.65,27.76,6.53,27.76,6.53l-.19.36a85.28,85.28,0,0,1,9-.45,140.26,140.26,0,0,1,16.38,1.06h0l.23,0,.22,0h0c51.14,6.29,45.82,27.12,46,37.08s12.24,62.88,13.08,91.2c.68,23.1-16.85,25.23-23.32,25.23a21.2,21.2,0,0,1-2.35-.11l-51.18-6.16-.44-.06-51.18-6.16s-26.5-3.19-19-30.5c6.16-22.32,23.64-58.77,31.1-76.65l-49.43-3c-10.93-.75-21.75-4.24-32.31-7.16L209.93,335.9l16.48-28m-1.58-7-2.68,4.54-16.48,28-2.9,4.94,5.31,2.15,44.64,18.07.27.11.27.08c1.62.44,3.23.9,4.86,1.36,9.18,2.6,18.67,5.29,28.43,6L329,368.65c-1.41,3.24-3,6.84-4.74,10.75-8.54,19.27-19.17,43.24-23.82,60.08-2.7,9.78-1.83,18.07,2.58,24.64,6.92,10.33,20,12,20.57,12.08l51.17,6.16.45.06,51.17,6.16a28,28,0,0,0,2.95.14c4.92,0,14.18-1,20.91-8,5.16-5.32,7.63-12.84,7.35-22.36-.53-17.95-5.47-45.59-9.08-65.77-2.11-11.8-3.93-22-4-25.39,0-.74,0-1.62,0-2.56.13-5.73.34-14.38-6.63-22.35S418.1,328.91,399,326V326l-4.84-.59-.18,0h-.11l-.16,0-5-.61v.09c-4.27-.38-8.29-.57-12-.57-2.43,0-4.78.08-7,.25-3.23-2.08-11.08-5.38-29.25-6.68-.65-.05-1.36-.07-2.1-.07a97.6,97.6,0,0,0-10.56.85,209.29,209.29,0,0,1-25.14,1.61,216.31,216.31,0,0,1-24.06-1.39c-32.28-3.59-49.24-14.87-49.4-15l-4.37-3Z"/><path class="cls-5" d="M606.23,458.67s1,9,2.56,22.54c15.23,8.14,43.87,15.9,93.84,6.29l19.63,117.82h1L715,458.67Z"/><path class="cls-6" d="M602.93,465.26c-21.42-19.78-4.94-103.81-4.94-117s6.09-28,24.72-36.25a81.74,81.74,0,0,1,29.66-6.59l41.19,4.94s29.66,8.24,26.37,24.72,26.36,107.11-3.3,130.18C695.1,482,624.36,485,602.93,465.26Z"/><path class="cls-4" d="M657.07,481.32c-22.81,0-45.17-4.43-55.81-14.25-17.93-16.55-11-72.84-7.35-103.08.9-7.35,1.61-13.16,1.61-15.73,0-10,3.4-28.38,26.18-38.51a83.66,83.66,0,0,1,30.67-6.8l.29,0,41.56,5c1.31.36,31.84,9.07,28.13,27.59-.89,4.47,1.11,16.27,3.42,29.93,6.06,35.71,14.35,84.62-7.62,101.71C706.57,476.22,681.56,481.32,657.07,481.32Zm-4.84-173.43a80.26,80.26,0,0,0-28.52,6.38c-20.23,9-23.25,25.16-23.25,34,0,2.87-.69,8.52-1.64,16.33-3.34,27.27-10.28,84,5.79,98.85,20.29,18.73,89.82,15.95,110.51-.13,19.63-15.28,11.29-64.45,5.78-97-2.59-15.31-4.47-26.36-3.4-31.73,2.66-13.28-22.17-21.12-24.44-21.81Z"/><path class="cls-3" d="M644.13,287.29v21.43s1.65,8.23,13.18,9.88,19.78-8.24,19.78-8.24V287.29Z"/><path class="cls-4" d="M659.94,321.26a21.87,21.87,0,0,1-3-.21c-13.11-1.87-15.17-11.44-15.25-11.85l-.05-.48v-23.9h37.9v26.44L679,312C678.64,312.36,671.08,321.26,659.94,321.26ZM646.6,308.41c.32,1.08,2.33,6.5,11.06,7.75,8.46,1.2,15-4.77,17-6.76V289.77h-28Z"/><path class="cls-3" d="M617.07,176.84s-20.38,102,20.38,112.79,79.66-26.86,61.13-116.37Z"/><path class="cls-4" d="M698.58,173.26c16.48,79.61-12.47,118.15-47.75,118.15a52.39,52.39,0,0,1-13.38-1.78c-40.76-10.74-20.38-112.79-20.38-112.79l81.51-3.58m4-5.12-4.2.18-81.52,3.58-3.87.17-.76,3.8A306.34,306.34,0,0,0,607,229.21c0,38.16,9.81,60.1,29.16,65.2a57.62,57.62,0,0,0,14.64,1.95c15.47,0,29.54-6.83,39.63-19.23,17.83-21.89,22.43-59.13,13-104.87l-.85-4.12Z"/><path class="cls-5" d="M673.79,275.76c-10.86,14.48-29.15,14-43.46,10.71a24.13,24.13,0,0,0,7.12,3.16c39.43,10.39,77.13-24.48,62.75-107.84l-16.52,16.52S693.56,249.39,673.79,275.76Z"/><path class="cls-6" d="M701.36,229.77s-24.08-7.41-18.52-46.32c0,0-37.06,16.67-70.4,1.85s-14.82-53.72-14.82-53.72,0,27.79,40.75,18.52,77.81-9.26,70.4,16.68c0,0,50.93,25.79-9.73,85.15Z"/><path class="cls-4" d="M597.62,131.58s0,20.41,25.66,20.41a68.06,68.06,0,0,0,15.09-1.89c15.25-3.46,30-5.63,42-5.63,20.21,0,33,6.07,28.35,22.31,0,0,50.93,25.79-9.73,85.15l2.32-22.16s-24.08-7.41-18.52-46.32a107.54,107.54,0,0,1-39.76,8,75.14,75.14,0,0,1-30.64-6.14c-33.35-14.82-14.82-53.72-14.82-53.72m4.94-21.92-9.41,19.79c-.41.86-10,21.3-3.19,39.61,3.42,9.26,10.31,16.25,20.47,20.76a79.82,79.82,0,0,0,32.65,6.57,112.83,112.83,0,0,0,34.07-5.56c-1.39,27.3,12.06,38.2,18.92,41.95l-2,18.63-1.43,13.65,9.8-9.6c23.29-22.79,33.64-43.82,30.76-62.51-2.39-15.53-13.27-24.75-18.89-28.55.91-5.76-.16-10.7-3.2-14.73-5.07-6.73-15.42-10.14-30.74-10.14-11.65,0-26.57,2-43.14,5.75a63.68,63.68,0,0,1-14,1.77c-19.87,0-20.69-13.93-20.72-15.52V109.66Z"/><path class="cls-3" d="M608.21,425.44s-23.8-8.32-29.15-5.74,2.12,8.61-8.35,12.14-15.83,6.11-12.53,18.21,54.27-7.38,54.27-7.38Z"/><path class="cls-4" d="M567.25,456.44a17.62,17.62,0,0,1-7.76-1.39,6.87,6.87,0,0,1-3.7-4.35c-3.82-14,3.12-17.49,14.13-21.2,4.43-1.49,4.43-2.89,4.43-5.21,0-2,0-5.07,3.64-6.82,5.82-2.8,25.23,3.6,31,5.63l1.27.45,5.09,20.65-2,.78C609.76,446.35,582.82,456.44,567.25,456.44Zm14.84-34.81a4.69,4.69,0,0,0-2,.3c-.74.35-.83.47-.83,2.37,0,2.71,0,7.26-7.8,9.88-10.27,3.46-13.68,5.17-10.94,15.23a1.94,1.94,0,0,0,1.17,1.23c6.87,3.49,32.09-3.71,47.8-9.51l-3.4-13.79C597.1,424.26,586.71,421.63,582.09,421.63Z"/><path class="cls-6" d="M599.47,416.49l8.79,31.95s58.09-1.3,84.88-23.55S722,351,721.85,341s-2.93-32.26-22.26-30.94c-29.1,2-20,70-38.18,86.11C639.19,415.82,599.47,416.49,599.47,416.49Z"/><path class="cls-4" d="M701.21,310c17.86,0,20.45,21.25,20.64,31,.19,10-1.92,61.69-28.71,83.94s-84.88,23.55-84.88,23.55l-8.79-31.95s39.72-.67,61.94-20.37C679.59,380,670.49,312,699.59,310c.55,0,1.09-.05,1.62-.05m0-4.95c-.64,0-1.3,0-2,.07C678.58,306.5,674,332.78,669.91,356c-2.65,15.14-5.39,30.79-11.78,36.45-20.56,18.23-58.37,19.12-58.75,19.13l-6.36.11,1.68,6.14,8.79,31.95,1,3.72,3.85-.08c2.44-.06,60.14-1.61,87.93-24.7,31.29-26,30.5-87.22,30.49-87.84-.43-22.44-10-35.84-25.58-35.84Z"/><path class="cls-3" d="M525.18,226.93s-24.58-3.1-28.66,17.93,18,37.07,18,37.07,26.46-6.61,30.55-27.64S525.18,226.93,525.18,226.93Z"/><path class="cls-4" d="M521.9,226.77a29,29,0,0,1,3.28.16s24,6.33,19.87,27.36-30.55,27.64-30.55,27.64-22.07-16-18-37.07c3.15-16.24,18.54-18.09,25.38-18.09m0-4.94c-16.25,0-27.55,8.26-30.23,22.09-4.64,23.84,18.92,41.28,19.92,42a4.95,4.95,0,0,0,4.11.79c1.2-.3,29.57-7.64,34.2-31.49,3.93-20.22-13.63-30.48-23.46-33.08a4.52,4.52,0,0,0-.64-.12,33.63,33.63,0,0,0-3.9-.2Z"/><path class="cls-5" d="M530.82,229.14c2.62,4.39,4.13,10.91,1.26,20.25-4.3,14-17,21.64-25.33,25.28a54.08,54.08,0,0,0,7.75,7.26s26.46-6.61,30.55-27.64C547.83,240,537.62,232.48,530.82,229.14Z"/><rect class="cls-3" x="504.3" y="276.95" width="16.48" height="16.48" transform="translate(63.79 -92.5) rotate(10.99)"/><path class="cls-4" d="M519.06,297.32a2.59,2.59,0,0,1-.48,0l-16.17-3.14a2.45,2.45,0,0,1-1.58-1.05,2.47,2.47,0,0,1-.38-1.85l3.14-16.18a2.47,2.47,0,0,1,2.9-1.95l16.18,3.14a2.47,2.47,0,0,1,2,2.9l-3.14,16.17A2.47,2.47,0,0,1,519.06,297.32Zm-13.29-7.57L517.1,292l2.2-11.32L508,278.43Z"/><path class="cls-3" d="M382.87,307.41l-2.56,21.27s.41,9.48,11.9,11.39c19.58,3.25,20.62-5.82,20.62-5.82l2.76-22.9Z"/><path class="cls-4" d="M399.94,343.24a50.15,50.15,0,0,1-8.13-.73c-10.66-1.77-13.8-9.75-14-13.73v-.2l2.88-23.92,37.63,4.53-3.06,25.36a8.72,8.72,0,0,1-3.6,5.57C408.91,342.2,405,343.24,399.94,343.24Zm-17.15-14.51c.12,1.28,1.18,7.46,9.83,8.9,13.1,2.18,17.35-1.49,17.76-3.74l2.46-20.38L385,310.16Z"/><path class="cls-3" d="M354.8,206.34s-41.31,113.43,44.42,111.41c87.37-2.05,28.13-113.69,28.13-113.69Z"/><path class="cls-4" d="M427.35,204.06s59.24,111.64-28.13,113.69l-2.23,0c-82.76,0-42.19-111.44-42.19-111.44l72.55-2.28m2.92-5-3.08.1-72.54,2.28-3.35.11-1.14,3.14c-1,2.6-22.91,64,.48,97.46,9.58,13.68,25.17,20.61,46.35,20.61.77,0,1.55,0,2.34,0,22.26-.53,37.72-7.92,46-22,20.2-34.5-12.19-96.36-13.57-99L430.27,199Z"/><path class="cls-5" d="M433,216.23l-9.72,8.45s23.07,34.6,8.24,67.56c-9.08,20.18-40.39,21.2-63.69,19,7.81,4.39,18.05,6.86,31.35,6.54C468.69,316.12,445.48,245.22,433,216.23Z"/><path class="cls-6" d="M350.82,256s29.66-14.83,29.66-42.85c0,0,16.48,34.61,65.91,37.9,0,0,14.83-39.54-21.42-61s-49.43,6.6-49.43,6.6-44.49-11.54-44.49,37.89,17.46,56.91,17.46,56.91S345.88,270.82,350.82,256Z"/><path class="cls-4" d="M400,182c6.7,0,15,2.14,25,8.06,36.25,21.43,21.42,61,21.42,61-49.43-3.29-65.91-37.9-65.91-37.9,0,28-29.66,42.85-29.66,42.85-4.94,14.83-2.31,35.48-2.31,35.48s-17.46-7.47-17.46-56.91c0-33.7,20.68-39.06,33.84-39.06a46.83,46.83,0,0,1,10.65,1.17S382.43,182,400,182m0-4.95h0a32.09,32.09,0,0,0-26.88,14.11,56.19,56.19,0,0,0-8.2-.62c-9.91,0-18.55,2.77-25,8-9.16,7.46-13.81,19.58-13.81,36,0,51.22,18.37,60.56,20.47,61.46l7.94,3.4-1.09-8.57c0-.19-2.22-18.07,1.54-31.49,5.78-3.33,22.68-14.41,28.48-33.1,9.43,11.28,28.67,27.45,62.62,29.72l3.67.24,1.29-3.44a64.27,64.27,0,0,0,3.19-24.51c-.83-12.65-6.14-30.29-26.72-42.45-9.83-5.81-19.09-8.76-27.51-8.76Z"/><path class="cls-3" d="M353.74,277s-12.65,6.18-14.53-13.51,15.15-14.69,19.37-5.16"/><path class="cls-4" d="M349.42,280.42a10.65,10.65,0,0,1-5.24-1.33c-4.18-2.35-6.69-7.51-7.43-15.33-1.18-12.33,4.74-15.24,7.34-15.92,6-1.57,13.81,2.88,16.75,9.52l-4.52,2c-1.93-4.35-7.36-7.69-11-6.74-4,1-4,7.13-3.68,10.67.58,6,2.28,10,4.93,11.48s6,.06,6.06,0l2.16,4.44A13.1,13.1,0,0,1,349.42,280.42Z"/><path class="cls-5" d="M425,338.62c7.62,26.64,15.88,88.66,13.19,110.16-3.29,26.36-51.08,23.07-95.57,16.48-19.55-2.9-31.46-9.62-38.67-16.23-.63,19.72,20.28,22.26,20.28,22.26l51.18,6.16.44.06L427,483.67s26.5,3.19,25.67-25.12-12.87-81.22-13.08-91.2C439.43,360.23,442.08,347.57,425,338.62Z"/><path class="cls-3" d="M408.78,340s26.08,112.07-6.88,135.14"/><path class="cls-4" d="M401.91,477.62a2.47,2.47,0,0,1-1.42-4.5c31.22-21.86,6.14-131.46,5.88-132.56a2.47,2.47,0,0,1,4.82-1.12c1.08,4.64,26.07,114-7.87,137.73A2.48,2.48,0,0,1,401.91,477.62Z"/><path class="cls-7" d="M708.77,166.78c7.41-25.94-29.64-25.94-70.4-16.68-25.41,5.78-35-2.85-38.58-10.17-.84,6.66,1.43,15.11,16.33,18.84,26.36,6.59,67.56-14.83,82.39-5s6.59,14.83,6.59,14.83,16.76,14.68,23.45,34.47C731.18,178.14,708.77,166.78,708.77,166.78Z"/><ellipse class="cls-4" cx="625.18" cy="227.97" rx="4.12" ry="4.94"/><ellipse class="cls-4" cx="657.31" cy="232.09" rx="4.12" ry="4.94"/><path class="cls-4" d="M654.22,277.81a18.73,18.73,0,0,1-6.62-1.36,1.65,1.65,0,1,1,1.3-3c1.44.61,5.76,1.88,8.42.42a5.31,5.31,0,0,0,2.49-4.12,1.65,1.65,0,0,1,3.25.54c-.51,3.07-1.92,5.25-4.17,6.48A9.66,9.66,0,0,1,654.22,277.81Z"/><path class="cls-4" d="M671.32,220.56a1.66,1.66,0,0,1-1.27-.59c-7.32-8.79-16-4.57-16.12-4.53a1.65,1.65,0,0,1-1.47-2.95c.11-.05,11.15-5.4,20.12,5.37a1.64,1.64,0,0,1-.21,2.32A1.67,1.67,0,0,1,671.32,220.56Z"/><path class="cls-4" d="M618.59,218.91a2.18,2.18,0,0,1-.43,0,1.64,1.64,0,0,1-1.16-2,10.65,10.65,0,0,1,5.09-7c4.52-2.49,9.94-.84,10.17-.77a1.63,1.63,0,0,1,1.08,2.06,1.66,1.66,0,0,1-2.06,1.09c-.09,0-4.36-1.29-7.62.52a7.48,7.48,0,0,0-3.48,4.92A1.65,1.65,0,0,1,618.59,218.91Z"/><path class="cls-7" d="M442.64,207A49.8,49.8,0,0,0,425,190.07c-36.25-21.42-49.43,6.6-49.43,6.6s-44.49-11.54-44.49,37.89c0,.62,0,1.2,0,1.8,4.06-16.52,15.48-34.75,46.12-34.75C377.19,201.61,391.16,181.14,442.64,207Z"/><ellipse class="cls-4" cx="387.9" cy="260.93" rx="4.12" ry="4.94"/><ellipse class="cls-4" cx="426.62" cy="260.11" rx="4.12" ry="4.94"/><path class="cls-4" d="M403.82,302.7c-10.78,0-15.41-6.72-15.65-7.08a1.65,1.65,0,0,1,2.74-1.83c.26.38,6.23,8.78,21.23,4.28a1.65,1.65,0,0,1,.95,3.16A32.24,32.24,0,0,1,403.82,302.7Z"/><path class="cls-4" d="M374.72,250.22a1.92,1.92,0,0,1-.41-.05,1.65,1.65,0,0,1-1.19-2c.06-.26,1.67-6.47,7-9.27,3.3-1.73,7.22-1.77,11.65-.11a1.65,1.65,0,1,1-1.16,3.08c-3.51-1.31-6.52-1.33-9-.05-4,2.12-5.32,7.1-5.34,7.15A1.64,1.64,0,0,1,374.72,250.22Z"/><path class="cls-7" d="M706.45,310.66a69.55,69.55,0,0,1,5.24,39.25c-4.73,29.93-1.94,85.45-105.3,91.72l1.87,6.81s58.09-1.3,84.88-23.55S722,351,721.85,341C721.68,332.26,719.59,314.4,706.45,310.66Z"/><path class="cls-7" d="M512.19,330.08l-7.76,4.41s16.09,57.24,45.66,75.64c7.73,4.81,17,4.71,26.58,1.82C539.83,401.63,520,354.09,512.19,330.08Z"/><path class="cls-7" d="M325.29,496.85C331.53,537.51,341,597.32,344.23,607H352c-4.19-17.69-11.68-50.76-15.13-75C334.52,515.94,329.75,504.51,325.29,496.85Z"/><path class="cls-7" d="M401.08,535.29c0-10.75-4.06-14.55-7.36-15.85l1.59,85.88h9C402.89,580.25,401.08,546.27,401.08,535.29Z"/><path class="cls-6" d="M100.36,598.73s1.64,13.18-8.24,16.48-36.25,6.59-23.07,13.18h54.38s4.94-19.77-3.3-28S100.36,598.73,100.36,598.73Z"/><path class="cls-4" d="M125.36,630.86H68.46l-.52-.26c-1.32-.66-5.35-2.68-4.95-6.14.51-4.51,7.76-6.46,19.53-9.28,3.39-.81,6.58-1.57,8.82-2.32C99.16,610.25,98,599.49,97.9,599l-.19-1.63,1.42-.82c4.56-2.6,15.17-5.52,22.75,2,9.12,9.12,4.16,29.5,3.94,30.36Zm-55.71-4.94h51.79c1.19-6.18,2.26-18.48-3.06-23.8S105.9,599,103,600.23c.17,5.6-1.68,14.53-10,17.32-2.44.81-5.74,1.6-9.23,2.44-4.8,1.15-13.46,3.22-15.52,4.94A8.57,8.57,0,0,0,69.65,625.92Z"/><path class="cls-6" d="M155.88,598.73s-1.64,13.18,8.24,16.48,36.25,6.59,23.07,13.18H132.81s-4.94-19.77,3.3-28S155.88,598.73,155.88,598.73Z"/><path class="cls-4" d="M187.78,630.86h-56.9l-.46-1.87c-.22-.86-5.18-21.24,3.94-30.36,7.58-7.58,18.19-4.65,22.75-2l1.43.82-.2,1.63c-.06.5-1.24,11.23,6.56,13.83,2.24.75,5.43,1.51,8.82,2.32,11.77,2.82,19,4.77,19.53,9.28.4,3.46-3.63,5.48-4.95,6.14Zm-53-4.94h51.79a8.57,8.57,0,0,0,1.5-1c-2.06-1.72-10.72-3.79-15.52-4.94-3.49-.84-6.79-1.63-9.23-2.44-8.37-2.79-10.22-11.72-10.05-17.33-3-1.27-10.08-3.45-15.43,1.9S133.61,619.74,134.8,625.92Z"/><polygon class="cls-6" points="60.81 458.67 98.71 606.97 123.42 606.97 116.83 504.8 134.96 504.8 134.96 606.97 156.38 606.97 177.8 445.48 60.81 458.67"/><path class="cls-4" d="M177.8,445.48,156.38,607H135V504.8H116.83L123.43,607H98.71l-37.9-148.3,117-13.19m5.73-5.62-6.28.71-117,13.18-5.65.64,1.41,5.5,37.9,148.3,1,3.72H128.7l-.34-5.26-6.25-96.9H130V611.91h30.69l.57-4.29L182.7,446.13l.83-6.27Z"/><path class="cls-6" d="M178.47,462c15.81-11.53-1.35-101-4.95-113.7-5.6-19.77-6.09-28-24.71-36.25-14.83-6.59-24.72-6.59-24.72-6.59l-37.9,4.94s-23,8-24.72,24.72c-2.31,23.07-28,108.76,1.65,131.82C84.65,483.65,154.91,479.14,178.47,462Z"/><path class="cls-4" d="M124.09,305.42s9.89,0,24.72,6.59c18.62,8.28,19.11,16.48,24.71,36.25,3.6,12.69,20.76,102.17,4.95,113.7-13.39,9.77-41.88,15.44-67.92,15.44-19.77,0-38.14-3.27-47.43-10.5-29.66-23.06-4-108.75-1.65-131.82,1.68-16.72,24.72-24.72,24.72-24.72l37.9-4.94m0-4.94h-.32l-.32,0-37.9,4.94-.5.07-.48.16c-1.06.37-26,9.26-28,28.9-.44,4.47-1.9,11.85-3.59,20.4-3.41,17.22-8.07,40.81-8.85,62.33-1,26.87,4.25,44.36,16,53.49,12.9,10,37.15,11.53,50.46,11.53,24.07,0,55.31-5.06,70.83-16.38,5.34-3.9,11.87-14.46,6.81-60.95-2.68-24.66-7.88-50.93-9.91-58.1q-.81-2.85-1.5-5.41c-4.52-16.49-7-25.58-26-34-15.61-6.93-26.27-7-26.72-7Z"/><path class="cls-3" d="M83.88,311.29s8.24,51.8,57.67,65c0,0,13.18-46.14-3.29-70.86C138.26,305.42,98.72,300.67,83.88,311.29Z"/><path class="cls-4" d="M118.58,304.36a184.07,184.07,0,0,1,19.68,1.06c16.47,24.72,3.29,70.86,3.29,70.86-49.43-13.19-57.67-65-57.67-65,7.83-5.61,22.55-6.93,34.7-6.93m0-4.94c-17.66,0-30.3,2.64-37.57,7.85L78.52,309l.48,3a96.23,96.23,0,0,0,10.87,29.21c11.45,20.28,28.88,34,50.41,39.78L145,382.3l1.33-4.67c.57-2,13.61-48.64-3.93-74.95l-1.26-1.9-2.27-.27a189.48,189.48,0,0,0-20.26-1.09Z"/><path class="cls-3" d="M95.18,298.41l.86,21.4s2,8.17,13.57,9.35,19.42-9,19.42-9l-.92-23.05Z"/><path class="cls-4" d="M111.5,331.73c-.7,0-1.41,0-2.14-.11-13.18-1.35-15.63-10.82-15.72-11.23l-.07-.48-1-23.87,37.87-1.53,1.06,26.41-.55.71C130.66,322.07,123.11,331.73,111.5,331.73Zm-13-12.32c.36,1.06,2.58,6.39,11.36,7.29,8.44.86,14.81-5.38,16.67-7.44l-.79-19.61-28,1.13Z"/><polygon class="cls-3" points="110.24 308.19 101.18 335.9 81.41 307.89 84.7 301.3 139.9 294.71 144.59 320.8 124.25 307.89 110.24 308.19"/><path class="cls-4" d="M139.9,294.71l4.69,26.09-20.34-12.91-14,.3-9.06,27.71-19.77-28,3.29-6.59,55.2-6.59m2.7-3.64-3.09.37L84.31,298l-1.76.21-.8,1.59-3.29,6.59-.88,1.76,1.13,1.61,19.78,28,3.78,5.37,2-6.24,8.34-25.5,10.67-.22,19.51,12.37,6.34,4-1.33-7.39-4.69-26.08-.55-3.06Z"/><path class="cls-3" d="M72.34,195s-8.24,41.19-6.59,69.21,26.8,40.25,53,40.72,37.68-32.49,34.39-58.85-8.24-64.26-8.24-64.26Z"/><path class="cls-4" d="M144.85,181.84s4.94,37.89,8.24,64.26C156.36,272.28,145,305,119.25,305h-.55c-26.15-.47-51.3-12.71-52.95-40.72S72.34,195,72.34,195l72.51-13.18m4.23-5.8L144,177l-72.5,13.18-3.31.6-.65,3.3c-.35,1.71-8.35,42.14-6.68,70.47C61.67,279,68.39,291,80.26,299c10,6.75,23.58,10.62,38.35,10.88h.64c9.72,0,18.44-4.06,25.21-11.73,10.71-12.13,16-32.81,13.53-52.68-3.26-26.08-8.19-63.92-8.24-64.29l-.67-5.16Z"/><path class="cls-5" d="M153.09,246.1c-2.42-19.3-5.71-44.76-7.3-57-5.78,3.69-8.92,9.45-6.71,18.31,8.24,33,8.24,70.85-8.24,84-9.06,7.25-24.58,9-36.73,9.14A74.63,74.63,0,0,0,118.7,305C144.85,305.42,156.38,272.46,153.09,246.1Z"/><path class="cls-3" d="M69.32,264s-11.81-37.66-8.51-55.79l-9.89-21.42,14.83,1.65L69.05,172l8.24,9.89s56-13.19,85.68-6.6l-15.65,8.27,30.48,0-24.71,13.19L167.92,200s-23.07,9.89-44.49,11.54-46.14,6.59-46.14,6.59Z"/><path class="cls-4" d="M69.05,172l8.24,9.89s35.85-8.44,65.38-8.44a96.51,96.51,0,0,1,20.3,1.84l-15.65,8.27,30.48,0-24.71,13.19L167.92,200s-23.07,9.89-44.49,11.54-46.14,6.59-46.14,6.59l-8,45.9s-11.81-37.66-8.51-55.79l-9.89-21.42,14.83,1.65L69.05,172m-2.82-11.11L64.2,171l-2.41,12-10.32-1.14-8.71-1,3.67,7.95,9.26,20.07c-2.59,19.51,8.43,55,8.92,56.54l6.1,19.46,3.48-20.09,7.38-42.53c7.41-1.38,25.91-4.62,42.23-5.88,22-1.69,45.09-11.5,46.06-11.92l14.1-6-15-3.32-1.79-.4,12.93-6.9,17.48-9.32-19.81,0H167.3l9.87-5.21L164,170.42a100.6,100.6,0,0,0-21.37-2c-25.13,0-54.2,5.87-63.52,7.9l-6.3-7.57-6.62-7.94Z"/><path class="cls-3" d="M78.93,264.23s-16.8-.47-15-20.83,18.29-5.54,18.29-5.54"/><path class="cls-4" d="M78.87,266.7a19.17,19.17,0,0,1-12.76-6c-3.73-4.2-5.29-10.08-4.63-17.48.6-6.74,2.84-10.92,6.68-12.42,6.68-2.63,14.82,4.45,15.72,5.26l-3.3,3.68c-1.72-1.54-7.35-5.63-10.62-4.34-2.42.95-3.27,5-3.56,8.26-.53,6,.6,10.57,3.37,13.71A14.25,14.25,0,0,0,79,261.75Z"/><path class="cls-7" d="M173.52,348.26c-1.42-5-2.52-9.31-3.67-13,.42,4.81.87,10.22,1.36,16.34,3.3,41.19,21.42,100.51-39.55,113.7-34.11,7.37-58.93,1.85-74.18-4.44a27.25,27.25,0,0,0,5.64,6.08c21.53,16.75,91.79,12.24,115.35-4.94C194.28,450.43,177.12,361,173.52,348.26Z"/><ellipse class="cls-4" cx="102.83" cy="247.75" rx="4.12" ry="4.94"/><ellipse class="cls-4" cx="139.9" cy="245.28" rx="4.12" ry="4.94"/><path class="cls-4" d="M89.65,240.33a1.65,1.65,0,0,1-.53-3.21c4.66-1.55,15.93-9.58,16-9.66a1.65,1.65,0,0,1,1.91,2.68c-.48.34-11.79,8.4-16.91,10.11A1.61,1.61,0,0,1,89.65,240.33Z"/><path class="cls-4" d="M145.67,235.39c-6.83,0-15.09-3.28-15.44-3.41a1.65,1.65,0,0,1,1.22-3.07c.08,0,8,3.18,14.22,3.18a1.65,1.65,0,1,1,0,3.3Z"/><path class="cls-4" d="M117.66,289.77a1.65,1.65,0,0,1-1.65-1.65,5.3,5.3,0,0,0-1.93-4.59c-3.26-2.43-10.08-1.13-12.43-.42a1.65,1.65,0,1,1-.94-3.16c.41-.12,10.09-3,15.34.94,2.16,1.6,3.26,4,3.26,7.23A1.65,1.65,0,0,1,117.66,289.77Z"/><path class="cls-7" d="M69.33,492,98.71,607h6.19c-3.49-20.76-13.77-79.2-21.85-98.05C79.35,500.28,74.25,495.1,69.33,492Z"/><path class="cls-7" d="M140.73,527.05c0-14.15-4-19.24-5.77-20.81V607h6.91C141.38,578.78,140.73,538.49,140.73,527.05Z"/><path class="cls-5" d="M77.29,181.84,69.05,172l-3.3,16.48-14.83-1.65,9.89,21.42a45.9,45.9,0,0,0-.55,9.22c1.91-6.89,3.88-12.55,5.49-14.16l-1.65-6.59,5,1.64V186.78l6.59,4.94s44.75-5,75.48-10.21L163,175.24C133.31,168.65,77.29,181.84,77.29,181.84Z"/><path class="cls-6" d="M145.14,358.44,130,343.32s3.29-16.48,0-23.07-19.78-1.65-19.78,8.24,13.19,19.77,13.19,19.77.49,10.88.67,21a75.57,75.57,0,0,0,17.45,7A147.38,147.38,0,0,0,145.14,358.44Z"/><path class="cls-4" d="M123.93,317.25c2.72,0,5,.93,6.09,3,3.29,6.59,0,23.07,0,23.07l15.12,15.12a147.38,147.38,0,0,1-3.59,17.84,75.57,75.57,0,0,1-17.45-7c-.18-10.1-.67-21-.67-21s-13.19-9.88-13.19-19.77c0-6.78,7.76-11.24,13.69-11.24m0-3.3c-8,0-17,6-17,14.54,0,9.63,9.6,18.42,13.25,21.42.14,3.33.46,11.63.6,19.39l0,1.9,1.66.92a79.73,79.73,0,0,0,18.21,7.34l3.13.83.89-3.11a148.14,148.14,0,0,0,3.68-18.28l.23-1.63-1.16-1.16-13.9-13.9c.82-4.76,2.52-17.18-.61-23.43-1.53-3.07-4.82-4.83-9-4.83Z"/><path class="cls-4" d="M156.22,475.19l-4.62-1.74c14.29-38.13-11.22-96.41-11.48-97l4.51-2C145.73,376.91,171.24,435.15,156.22,475.19Z"/><path class="cls-6" d="M156.38,313.66S176.15,317,186,333.43s37.9,51.08,28,65.91-33,1.65-33,1.65-13.18-19.77,1.65-29.66"/><path class="cls-4" d="M200,408.91c-9.85,0-19.5-5.41-20.14-5.77l-.51-.29-.32-.49A40.51,40.51,0,0,1,174,390.43c-2.14-9.17.43-16.49,7.42-21.15l2.75,4.11c-11.55,7.69-3.12,22.74-1.28,25.73,3.29,1.72,21.42,10.46,29.16-1.15,7-10.56-9.58-35.34-20.57-51.73-2.85-4.25-5.55-8.27-7.51-11.54-9.19-15.32-27.76-18.57-27.95-18.6l.82-4.88c.85.14,21,3.68,31.37,20.94,1.9,3.16,4.56,7.13,7.37,11.32C208,362,225,387.4,216.11,400.72,212,406.94,205.94,408.91,200,408.91Z"/><path class="cls-3" d="M149.79,386.16c9.28-7.42,15-10.7,27.29-9.47s23.79,7.82,20.5,14.42-4.46,11.64-20.36,7.47S141.55,392.75,149.79,386.16Z"/><path class="cls-4" d="M186.68,402.54A40.83,40.83,0,0,1,176.6,401c-3.68-1-7.57-1.8-11.33-2.6-12.31-2.62-18.78-4.18-19.77-8.39-.47-2,.45-3.91,2.75-5.75,10.12-8.09,16.4-11.27,29.08-10,10.2,1,19.34,5.41,22.24,10.66a7.6,7.6,0,0,1,.22,7.32l-.63,1.29C196.59,398.77,194.05,402.54,186.68,402.54Zm-36.22-13.61c1.7,1.6,10.16,3.4,15.84,4.61,3.82.81,7.76,1.65,11.55,2.64,12.87,3.38,14.2.63,16.86-4.84.21-.44.43-.89.66-1.34a2.69,2.69,0,0,0-.13-2.72c-2.09-3.79-10-7.28-18.41-8.13-11.52-1.16-16.61,1.84-25.5,8.94l-1.54-1.93,1.54,1.93A5.9,5.9,0,0,0,150.46,388.93Z"/><path class="cls-3" d="M102,384.51s21.43-11.53,34.61-6.59S176.15,397.7,161.32,401c-12.86,2.86-23.06-6.59-54.37,3.3C92.72,408.78,102,384.51,102,384.51Z"/><path class="cls-4" d="M103.83,407.31a6.63,6.63,0,0,1-5.06-2c-5-5.28-.1-19,.93-21.65l.32-.86.81-.43c.92-.49,22.57-12,36.65-6.73,6.23,2.34,31.31,13.67,30.7,22.35-.13,1.88-1.33,4.34-6.32,5.45s-9.68.51-15-.21c-8.81-1.19-19.79-2.68-39.19,3.45A13.1,13.1,0,0,1,103.83,407.31Zm.16-21c-1.91,5.38-3.62,13.5-1.62,15.63.79.83,2.74.38,3.83,0,20.46-6.46,32-4.89,41.34-3.63,5,.68,9,1.22,13.25.28,2.08-.46,2.48-1,2.48-1,.14-2.79-14.06-12.26-27.53-17.31C125.12,376.25,107.92,384.31,104,386.27Z"/><path class="cls-6" d="M85.53,333.43c-3.71-16.05-16.48-18.12-28-9.88s-32.95,62.61-32.95,84,93.92,1.65,93.92,1.65l-13.18-33s-33,9.88-37.9,6.59S90.47,354.85,85.53,333.43Z"/><path class="cls-4" d="M70.45,318.82c6.89,0,12.76,4.57,15.08,14.61,4.94,21.42-23.07,46.14-18.13,49.44a7.15,7.15,0,0,0,3.66.67c10,0,34.24-7.26,34.24-7.26l13.18,33S79,417.55,51.19,417.55c-15,0-26.63-2.44-26.63-10,0-21.42,21.42-75.8,33-84,4.32-3.09,8.82-4.73,12.94-4.73m0-4.94c-5.17,0-10.64,1.95-15.81,5.64-8.9,6.36-18.72,29.6-22.53,39.29-6,15.38-12.5,36.27-12.5,48.77,0,14.91,23.77,14.91,31.58,14.91,28,0,66.68-8.08,68.31-8.42l5.76-1.21-2.19-5.46-13.18-33-1.68-4.2-4.33,1.3c-5.9,1.77-21.65,6.09-30.28,6.92.89-1.43,2-3,2.92-4.5,6.92-10.46,17.37-26.27,13.82-41.64-2.66-11.55-10.1-18.44-19.89-18.44Z"/><path class="cls-3" d="M196.53,364.29c1.05-21-13.42-18.33-13.42-18.33l-26.54,4.91H110.26c-5.75,1.92-5.48,13.42-5.48,13.42s-.27,11.5,5.48,13.42h46.31l26.54,4.91S195.52,384.5,196.53,364.29Z"/><path class="cls-4" d="M183.89,385.13c-.67,0-1.09-.06-1.15-.06l-26.39-4.89H109.86l-.38-.12c-7.27-2.43-7.2-14.46-7.17-15.83s-.1-13.28,7.17-15.7l.38-.13h46.49l26.31-4.87a13.83,13.83,0,0,1,10.9,3.09c4,3.53,5.85,9.51,5.44,17.79h0c-.42,8.37-2.75,14.35-6.95,17.78A12.93,12.93,0,0,1,183.89,385.13Zm-.33-4.94A7.8,7.8,0,0,0,189,378.3c3-2.49,4.73-7.38,5.06-14.13h0c.33-6.57-1-11.34-3.72-13.8a8.75,8.75,0,0,0-6.8-2l-27,4.94H110.74c-2.77,1.36-3.55,7.85-3.49,10.9s.72,9.64,3.49,11l46.28,0,26.54,4.91Z"/><ellipse class="cls-3" cx="184.55" cy="364.29" rx="6.23" ry="11.91"/><path class="cls-4" d="M184.55,377c-4,0-7.05-5.59-7.05-12.73s3.09-12.73,7.05-12.73,7,5.59,7,12.73S188.51,377,184.55,377Zm0-23.81c-2.93,0-5.41,5.07-5.41,11.08s2.48,11.09,5.41,11.09S190,370.3,190,364.29,187.48,353.21,184.55,353.21Z"/><path class="cls-4" d="M157.43,379.31c-.14-.15-3.52-3.86-3.52-14.57s3.38-14.42,3.52-14.57l1.2,1.13-.6-.57.6.56s-3.07,3.5-3.07,13.45,3,13.41,3.07,13.45Z"/><path class="cls-4" d="M177.27,382.91c-.28-.21-6.88-5.3-6.88-19.61s8.41-18.12,8.77-18.27l.63,1.52-.31-.76.32.76c-.32.14-7.76,3.47-7.76,16.75s6.16,18.25,6.22,18.29Z"/><path class="cls-7" d="M118.48,409.23l-2.06-5.14c-23.85,2.68-75.66,7.39-82-1.45s17-59.64,27.8-81.85a28.86,28.86,0,0,0-4.73,2.76c-11.53,8.23-32.95,62.61-32.95,84S118.48,409.23,118.48,409.23Z"/><path class="cls-5" d="M286.89,361.14l48.7,3L341.76,354c-34.85,4.36-93.43-11.43-129.16-22.65l-2.67,4.52L254.58,354C265.14,356.9,276,360.39,286.89,361.14Z"/><g class="cls-8"><path class="cls-5" d="M473,174.51c-2.86-3.1-5.17-8.11-4.42-16.13,1.13-12,10.1-20.31,16.21-24.64a45.06,45.06,0,0,0-7.47-4.56s-20.25,9.77-20,27.42C457.45,168.62,467,173,473,174.51Z"/><rect class="cls-3" x="471.56" y="119.42" width="13.58" height="13.58" transform="translate(958.3 246.23) rotate(179.26)"/><path class="cls-4" d="M471.65,135.13a2,2,0,0,1-2-2l-.17-13.58a2,2,0,0,1,2-2.07L485,117.3a2,2,0,0,1,2.06,2l.18,13.58a2,2,0,0,1-.58,1.45,2.06,2.06,0,0,1-1.43.61l-13.58.18Zm1.89-13.61.12,9.51,9.51-.13-.12-9.5Z"/><path class="cls-3" d="M477.32,129.18s-20.25,9.77-20,27.42a19.68,19.68,0,0,0,.48,4.14l2.9-3.87v5.44l8.15-4.08-1.36,9.51L477,165l-1.21,4.08,6.64-2.72-3.81,8.89c3.52-.47,19.64-3.47,19.44-19.2C497.81,138.42,477.32,129.18,477.32,129.18Z"/><path class="cls-4" d="M477.32,129.18s20.49,9.24,20.72,26.89c.2,15.73-15.92,18.73-19.44,19.2l3.81-8.89-6.64,2.72L477,165l-9.51,2.72,1.36-9.51-8.15,4.08v-5.44l-2.9,3.87a19.68,19.68,0,0,1-.48-4.14c-.23-17.65,20-27.42,20-27.42m0-3-1.14.55c-.89.43-21.81,10.74-21.56,29.91a22.88,22.88,0,0,0,.55,4.7l1.29,5.74L458,165v1.68l3.93-2,3.52-1.76-.63,4.37-.59,4.15,4-1.15L473,169l-1.41,4.76,5.24-2.14.5-.2-1.2,2.79-1.88,4.39L479,178c3.68-.48,22-3.84,21.8-21.92-.25-19.17-21.42-28.93-22.32-29.34l-1.16-.52Z"/><path class="cls-5" d="M479.81,130.48c3.41,6.51,7.35,15.87,7.35,24.36,0,4.78-2.37,8.73-5.59,11.88l.84-.34-3.81,8.89c3.52-.47,19.64-3.47,19.44-19.2C497.86,142.26,485.28,133.6,479.81,130.48Z"/><rect class="cls-3" x="470.19" y="2.04" width="12.22" height="58.4"/><path class="cls-4" d="M482.41,62.48H470.19a2,2,0,0,1-2-2V2a2,2,0,0,1,2-2h12.22a2,2,0,0,1,2,2v58.4A2,2,0,0,1,482.41,62.48ZM472.22,58.4h8.15V4.07h-8.15Z"/><rect class="cls-3" x="462.04" y="57.72" width="29.88" height="20.37" rx="6.25" ry="6.25"/><path class="cls-4" d="M483.43,80.13h-12.9A10.54,10.54,0,0,1,460,69.61v-3.4a10.54,10.54,0,0,1,10.53-10.52h12.9A10.54,10.54,0,0,1,494,66.21v3.4A10.54,10.54,0,0,1,483.43,80.13Zm-12.9-20.37a6.47,6.47,0,0,0-6.46,6.45v3.4a6.46,6.46,0,0,0,6.46,6.45h12.9a6.45,6.45,0,0,0,6.45-6.45v-3.4a6.46,6.46,0,0,0-6.45-6.45Z"/><path class="cls-3" d="M493.58,87.48a6.28,6.28,0,0,0-5.31-2.59H465.69a6.28,6.28,0,0,0-5.31,2.59L433.87,128.9c-2,3.17.85,6.92,5.3,6.92h75.61c4.45,0,7.33-3.75,5.31-6.92Z"/><path class="cls-4" d="M488.27,84.89a6.28,6.28,0,0,1,5.31,2.59l26.51,41.42c2,3.17-.86,6.92-5.31,6.92H439.17c-4.45,0-7.33-3.75-5.3-6.92l26.51-41.42a6.28,6.28,0,0,1,5.31-2.59h22.58m0-4.08H465.69A10.34,10.34,0,0,0,457,85.28l-26.52,41.43a8,8,0,0,0-.3,8.21,10.15,10.15,0,0,0,9,5h75.61a10.14,10.14,0,0,0,9-5,8,8,0,0,0-.3-8.21L497,85.28a10.36,10.36,0,0,0-8.74-4.47Z"/><rect class="cls-6" x="448.46" y="74.02" width="57.04" height="20.37" rx="6.25" ry="6.25"/><path class="cls-4" d="M497,74a8.51,8.51,0,0,1,8.49,8.49v3.4A8.51,8.51,0,0,1,497,94.4H456.94a8.51,8.51,0,0,1-8.48-8.49v-3.4A8.51,8.51,0,0,1,456.94,74H497M497,70H456.94a12.58,12.58,0,0,0-12.56,12.56v3.4a12.58,12.58,0,0,0,12.56,12.56H497a12.58,12.58,0,0,0,12.56-12.56v-3.4A12.57,12.57,0,0,0,497,70Z"/><path class="cls-7" d="M497,74H456.94a8.51,8.51,0,0,0-8.48,8.49v.75c4.73-2.5,12.63-4.29,25.8-3.8,12.34.45,22.68.75,31,1A8.51,8.51,0,0,0,497,74Z"/><path class="cls-5" d="M507.42,109.12,506,123a6.08,6.08,0,0,1-6,5.47l-66.56,1.09c-1.3,3,1.48,6.29,5.64,6.29h75.61c4.45,0,7.33-3.75,5.31-6.92Z"/></g></g></g></svg>