<svg xmlns="http://www.w3.org/2000/svg" viewBox="0 0 274.25 265.66"><defs><style>.cls-1{fill:#f4f4f4;}.cls-2{fill:#fff;}.cls-3,.cls-4{fill:#7177bf;}.cls-4{font-size:10.11px;font-family:GothamRounded-Bold, Gotham Rounded;font-weight:700;}.cls-5{letter-spacing:-0.01em;}.cls-6{letter-spacing:0em;}.cls-7{letter-spacing:-0.02em;}.cls-8{letter-spacing:-0.02em;}.cls-9{letter-spacing:-0.01em;}.cls-10{fill:#dbdbf1;}.cls-11{fill:#ededf7;}.cls-12{fill:#f5f6f7;}</style></defs><title>Recurso 14</title><g id="Capa_2" data-name="Capa 2"><g id="Capa_1-2" data-name="Capa 1"><path class="cls-1" d="M19.81,177.5C-3.43,115.32,32.51,99,60.7,46.61,87.37-3,149.74-14.81,183.31,19.86s107.76,112,81.4,162.37-48.88,90.87-126,82.27C76.38,257.55,45.24,245.57,19.81,177.5Z"/><rect class="cls-2" x="47.93" y="37.34" width="106.79" height="44.23" rx="18.5" ry="18.5"/><path class="cls-3" d="M143,37.34A11.72,11.72,0,0,1,154.73,49V69.89A11.73,11.73,0,0,1,143,81.58H59.62A11.74,11.74,0,0,1,47.93,69.89V49A11.73,11.73,0,0,1,59.62,37.34H143m0-1.89H59.62A13.59,13.59,0,0,0,46,49V69.89A13.59,13.59,0,0,0,59.62,83.47H143a13.59,13.59,0,0,0,13.58-13.58V49A13.59,13.59,0,0,0,143,35.45Z"/><text class="cls-4" transform="translate(90.9 54.61)">En<tspan class="cls-5" x="13.07" y="0">t</tspan><tspan class="cls-6" x="17.12" y="0">erpri</tspan><tspan class="cls-7" x="41.65" y="0">c</tspan><tspan x="47.27" y="0">e</tspan></text><circle class="cls-2" cx="70.05" cy="60.09" r="15.17"/><path class="cls-3" d="M70.05,44.92A15.17,15.17,0,1,1,54.89,60.09,15.17,15.17,0,0,1,70.05,44.92m0-1.89A17.06,17.06,0,1,0,87.11,60.09,17.08,17.08,0,0,0,70.05,43Z"/><polygon class="cls-2" points="94.38 61.68 95.65 64.25 98.49 64.66 96.43 66.67 96.92 69.49 94.38 68.16 91.84 69.49 92.33 66.67 90.27 64.66 93.11 64.25 94.38 61.68"/><path class="cls-3" d="M94.38,61.68l1.27,2.57,2.84.41-2.06,2,.49,2.82-2.54-1.33-2.54,1.33.49-2.82-2.06-2,2.84-.41,1.27-2.57m0-1.26a1.26,1.26,0,0,0-1.13.7l-1,2-2.18.31a1.27,1.27,0,0,0-.7,2.16L91,67.11l-.37,2.17a1.24,1.24,0,0,0,.5,1.23,1.23,1.23,0,0,0,1.33.1l1.95-1,2,1a1.23,1.23,0,0,0,.59.15,1.27,1.27,0,0,0,.74-.25,1.24,1.24,0,0,0,.5-1.23l-.37-2.17,1.58-1.54a1.27,1.27,0,0,0-.7-2.16l-2.18-.31-1-2a1.26,1.26,0,0,0-1.13-.7Z"/><polygon class="cls-2" points="106.39 61.68 107.66 64.25 110.49 64.66 108.44 66.67 108.92 69.49 106.39 68.16 103.85 69.49 104.33 66.67 102.28 64.66 105.12 64.25 106.39 61.68"/><path class="cls-3" d="M106.39,61.68l1.27,2.57,2.83.41-2,2,.48,2.82-2.53-1.33-2.54,1.33.48-2.82-2-2,2.84-.41,1.27-2.57m0-1.26a1.27,1.27,0,0,0-1.14.7l-1,2-2.18.31a1.27,1.27,0,0,0-1,.86,1.26,1.26,0,0,0,.32,1.3L103,67.11l-.37,2.17a1.27,1.27,0,0,0,.5,1.23,1.3,1.3,0,0,0,.75.25,1.26,1.26,0,0,0,.59-.15l2-1,2,1a1.19,1.19,0,0,0,.58.15,1.27,1.27,0,0,0,.75-.25,1.25,1.25,0,0,0,.5-1.23l-.37-2.17,1.58-1.54a1.27,1.27,0,0,0-.7-2.16l-2.19-.31-1-2a1.26,1.26,0,0,0-1.13-.7Z"/><polygon class="cls-2" points="118.39 61.68 119.66 64.25 122.5 64.66 120.45 66.67 120.93 69.49 118.39 68.16 115.85 69.49 116.34 66.67 114.28 64.66 117.12 64.25 118.39 61.68"/><path class="cls-3" d="M118.39,61.68l1.27,2.57,2.84.41-2,2,.48,2.82-2.54-1.33-2.54,1.33.49-2.82-2.06-2,2.84-.41,1.27-2.57m0-1.26a1.26,1.26,0,0,0-1.13.7l-1,2-2.18.31a1.27,1.27,0,0,0-.7,2.16L115,67.11l-.37,2.17a1.25,1.25,0,0,0,.5,1.23,1.27,1.27,0,0,0,.74.25,1.23,1.23,0,0,0,.59-.15l2-1,2,1a1.27,1.27,0,0,0,1.84-1.33l-.38-2.17,1.58-1.54a1.26,1.26,0,0,0,.32-1.3,1.27,1.27,0,0,0-1-.86l-2.18-.31-1-2a1.28,1.28,0,0,0-1.14-.7Z"/><polygon class="cls-2" points="130.4 61.68 131.67 64.25 134.51 64.66 132.45 66.67 132.94 69.49 130.4 68.16 127.86 69.49 128.34 66.67 126.29 64.66 129.13 64.25 130.4 61.68"/><path class="cls-3" d="M130.4,61.68l1.27,2.57,2.84.41-2.06,2,.49,2.82-2.54-1.33-2.54,1.33.48-2.82-2-2,2.84-.41,1.27-2.57m0-1.26a1.26,1.26,0,0,0-1.13.7l-1,2-2.18.31a1.27,1.27,0,0,0-1,.86,1.26,1.26,0,0,0,.32,1.3L127,67.11l-.38,2.17a1.26,1.26,0,0,0,1.84,1.33l2-1,1.95,1a1.23,1.23,0,0,0,.59.15,1.27,1.27,0,0,0,.74-.25,1.25,1.25,0,0,0,.5-1.23l-.37-2.17,1.58-1.54a1.27,1.27,0,0,0-.7-2.16l-2.18-.31-1-2a1.26,1.26,0,0,0-1.13-.7Z"/><polygon class="cls-2" points="142.41 61.68 143.67 64.25 146.51 64.66 144.46 66.67 144.94 69.49 142.41 68.16 139.87 69.49 140.35 66.67 138.3 64.66 141.13 64.25 142.41 61.68"/><path class="cls-3" d="M142.4,61.68l1.27,2.57,2.84.41-2,2,.48,2.82-2.54-1.33-2.53,1.33.48-2.82-2-2,2.84-.41,1.26-2.57m0-1.26a1.26,1.26,0,0,0-1.13.7l-1,2-2.18.31a1.27,1.27,0,0,0-.7,2.16L139,67.11l-.37,2.17a1.25,1.25,0,0,0,.5,1.23,1.27,1.27,0,0,0,.75.25,1.19,1.19,0,0,0,.58-.15l2-1,1.95,1a1.26,1.26,0,0,0,.59.15,1.3,1.3,0,0,0,.75-.25,1.25,1.25,0,0,0,.5-1.23l-.37-2.17,1.57-1.54a1.27,1.27,0,0,0-.7-2.16l-2.18-.31-1-2a1.27,1.27,0,0,0-1.14-.7Z"/><rect class="cls-2" x="1.9" y="99.75" width="106.79" height="44.23" rx="18.5" ry="18.5"/><path class="cls-3" d="M97,99.75a11.72,11.72,0,0,1,11.69,11.69v20.85A11.72,11.72,0,0,1,97,144H13.59A11.72,11.72,0,0,1,1.9,132.29V111.44A11.72,11.72,0,0,1,13.59,99.75H97m0-1.9H13.59A13.6,13.6,0,0,0,0,111.44v20.85a13.6,13.6,0,0,0,13.59,13.59H97a13.6,13.6,0,0,0,13.58-13.59V111.44A13.6,13.6,0,0,0,97,97.85Z"/><text class="cls-4" transform="translate(44.87 117.02)">En<tspan class="cls-8" x="13.07" y="0">t</tspan><tspan x="17.12" y="0">erpri</tspan><tspan class="cls-5" x="41.64" y="0">c</tspan><tspan x="47.27" y="0">e</tspan></text><circle class="cls-2" cx="24.01" cy="122.5" r="15.17"/><path class="cls-3" d="M24,107.33A15.17,15.17,0,1,1,8.85,122.5,15.17,15.17,0,0,1,24,107.33m0-1.89A17.06,17.06,0,1,0,41.07,122.5,17.08,17.08,0,0,0,24,105.44Z"/><polygon class="cls-2" points="48.34 124.09 49.61 126.66 52.45 127.07 50.4 129.07 50.88 131.9 48.34 130.57 45.8 131.9 46.29 129.07 44.23 127.07 47.07 126.66 48.34 124.09"/><path class="cls-3" d="M48.34,124.09l1.27,2.57,2.84.41-2.06,2,.49,2.83-2.54-1.33L45.8,131.9l.49-2.83-2.06-2,2.84-.41,1.27-2.57m0-1.27a1.26,1.26,0,0,0-1.13.71l-1,2-2.18.32a1.27,1.27,0,0,0-.7,2.16l1.58,1.53-.37,2.18a1.26,1.26,0,0,0,1.24,1.47,1.22,1.22,0,0,0,.59-.14l2-1,1.95,1a1.28,1.28,0,0,0,1.33-.1,1.24,1.24,0,0,0,.5-1.23l-.37-2.18L53.33,128a1.28,1.28,0,0,0,.32-1.3,1.26,1.26,0,0,0-1-.86l-2.18-.32-1-2a1.26,1.26,0,0,0-1.13-.71Z"/><polygon class="cls-2" points="60.35 124.09 61.62 126.66 64.45 127.07 62.4 129.07 62.89 131.9 60.35 130.57 57.81 131.9 58.29 129.07 56.24 127.07 59.08 126.66 60.35 124.09"/><path class="cls-3" d="M60.35,124.09l1.27,2.57,2.83.41-2.05,2,.49,2.83-2.54-1.33-2.54,1.33.48-2.83-2-2,2.84-.41,1.27-2.57m0-1.27a1.29,1.29,0,0,0-1.14.71l-1,2-2.18.32a1.27,1.27,0,0,0-.7,2.16l1.58,1.53-.38,2.18A1.27,1.27,0,0,0,58.4,133l2-1,1.95,1a1.2,1.2,0,0,0,.59.14,1.26,1.26,0,0,0,1.24-1.47l-.37-2.18L65.34,128a1.27,1.27,0,0,0-.7-2.16l-2.18-.32-1-2a1.26,1.26,0,0,0-1.13-.71Z"/><polygon class="cls-2" points="72.35 124.09 73.62 126.66 76.46 127.07 74.41 129.07 74.89 131.9 72.35 130.57 69.81 131.9 70.3 129.07 68.25 127.07 71.08 126.66 72.35 124.09"/><path class="cls-3" d="M72.35,124.09l1.27,2.57,2.84.41-2,2,.48,2.83-2.54-1.33-2.54,1.33.49-2.83-2-2,2.83-.41,1.27-2.57m0-1.27a1.26,1.26,0,0,0-1.13.71l-1,2-2.18.32a1.27,1.27,0,0,0-1,.86,1.3,1.3,0,0,0,.32,1.3l1.58,1.53-.37,2.18a1.26,1.26,0,0,0,1.24,1.47,1.2,1.2,0,0,0,.59-.14l1.95-1,2,1a1.27,1.27,0,0,0,1.84-1.33l-.38-2.18L77.34,128a1.27,1.27,0,0,0-.7-2.16l-2.18-.32-1-2a1.29,1.29,0,0,0-1.14-.71Z"/><rect class="cls-2" x="165.56" y="78.27" width="106.79" height="44.23" rx="18.5" ry="18.5"/><path class="cls-3" d="M260.66,78.27A11.72,11.72,0,0,1,272.35,90v20.85a11.72,11.72,0,0,1-11.69,11.69H177.25a11.72,11.72,0,0,1-11.69-11.69V90a11.72,11.72,0,0,1,11.69-11.69h83.41m0-1.9H177.25A13.6,13.6,0,0,0,163.66,90v20.85a13.6,13.6,0,0,0,13.59,13.58h83.41a13.6,13.6,0,0,0,13.59-13.58V90a13.6,13.6,0,0,0-13.59-13.59Z"/><text class="cls-4" transform="translate(208.53 95.54)">En<tspan class="cls-9" x="13.07" y="0">t</tspan><tspan x="17.12" y="0">erpri</tspan><tspan class="cls-7" x="41.64" y="0">c</tspan><tspan class="cls-6" x="47.27" y="0">e</tspan></text><circle class="cls-2" cx="187.68" cy="101.01" r="15.17"/><path class="cls-3" d="M187.68,85.85A15.17,15.17,0,1,1,172.51,101a15.16,15.16,0,0,1,15.17-15.16m0-1.9A17.07,17.07,0,1,0,204.74,101,17.09,17.09,0,0,0,187.68,84Z"/><polygon class="cls-2" points="212 102.6 213.27 105.17 216.11 105.59 214.06 107.59 214.54 110.42 212 109.08 209.47 110.42 209.95 107.59 207.9 105.59 210.74 105.17 212 102.6"/><path class="cls-3" d="M212,102.6l1.27,2.57,2.84.42-2.05,2,.48,2.83L212,109.08l-2.53,1.34.48-2.83-2-2,2.84-.42L212,102.6m0-1.26a1.26,1.26,0,0,0-1.13.7l-1,2-2.18.32a1.24,1.24,0,0,0-1,.86,1.26,1.26,0,0,0,.31,1.29l1.58,1.54-.37,2.17a1.26,1.26,0,0,0,1.25,1.48,1.19,1.19,0,0,0,.58-.15l1.95-1,1.95,1a1.26,1.26,0,0,0,.59.15,1.29,1.29,0,0,0,.75-.24,1.26,1.26,0,0,0,.5-1.24l-.37-2.17,1.57-1.54a1.26,1.26,0,0,0-.7-2.15l-2.18-.32-1-2a1.27,1.27,0,0,0-1.14-.7Z"/><polygon class="cls-2" points="224.01 102.6 225.28 105.17 228.12 105.59 226.06 107.59 226.55 110.42 224.01 109.08 221.47 110.42 221.96 107.59 219.9 105.59 222.74 105.17 224.01 102.6"/><path class="cls-3" d="M224,102.6l1.27,2.57,2.84.42-2.06,2,.49,2.83L224,109.08l-2.54,1.34.49-2.83-2.06-2,2.84-.42L224,102.6m0-1.26a1.26,1.26,0,0,0-1.13.7l-1,2-2.18.32a1.26,1.26,0,0,0-.7,2.15L220.6,108l-.37,2.17a1.26,1.26,0,0,0,1.24,1.48,1.23,1.23,0,0,0,.59-.15l1.95-1,2,1a1.25,1.25,0,0,0,1.33-.09,1.24,1.24,0,0,0,.5-1.24l-.37-2.17,1.58-1.54a1.26,1.26,0,0,0-.7-2.15l-2.18-.32-1-2a1.26,1.26,0,0,0-1.13-.7Z"/><polygon class="cls-2" points="236.02 102.6 237.29 105.17 240.12 105.59 238.07 107.59 238.56 110.42 236.02 109.08 233.48 110.42 233.96 107.59 231.91 105.59 234.75 105.17 236.02 102.6"/><path class="cls-3" d="M236,102.6l1.27,2.57,2.83.42-2.05,2,.49,2.83L236,109.08l-2.54,1.34.48-2.83-2.05-2,2.84-.42L236,102.6m0-1.26a1.28,1.28,0,0,0-1.14.7l-1,2-2.18.32a1.26,1.26,0,0,0-1,.86,1.24,1.24,0,0,0,.32,1.29l1.58,1.54-.38,2.17a1.26,1.26,0,0,0,1.84,1.33l2-1,1.95,1a1.2,1.2,0,0,0,.59.15,1.26,1.26,0,0,0,1.24-1.48l-.37-2.17,1.58-1.54a1.26,1.26,0,0,0-.7-2.15l-2.18-.32-1-2a1.26,1.26,0,0,0-1.13-.7Z"/><polygon class="cls-2" points="248.02 102.6 249.29 105.17 252.13 105.59 250.08 107.59 250.56 110.42 248.02 109.08 245.49 110.42 245.97 107.59 243.92 105.59 246.75 105.17 248.02 102.6"/><path class="cls-3" d="M248,102.6l1.27,2.57,2.84.42-2,2,.48,2.83L248,109.08l-2.54,1.34.49-2.83-2.05-2,2.83-.42L248,102.6m0-1.26a1.26,1.26,0,0,0-1.13.7l-1,2-2.18.32a1.26,1.26,0,0,0-.7,2.15l1.58,1.54-.37,2.17a1.26,1.26,0,0,0,1.24,1.48,1.2,1.2,0,0,0,.59-.15l2-1,1.95,1a1.27,1.27,0,0,0,1.84-1.33l-.38-2.17,1.58-1.54a1.24,1.24,0,0,0,.32-1.29,1.26,1.26,0,0,0-1-.86l-2.18-.32-1-2a1.28,1.28,0,0,0-1.14-.7Z"/><rect class="cls-2" x="31.6" y="169.95" width="106.79" height="44.23" rx="18.5" ry="18.5"/><path class="cls-3" d="M126.7,170a11.72,11.72,0,0,1,11.69,11.69V202.5a11.73,11.73,0,0,1-11.69,11.69H43.29A11.73,11.73,0,0,1,31.6,202.5V181.64A11.72,11.72,0,0,1,43.29,170H126.7m0-1.89H43.29A13.59,13.59,0,0,0,29.7,181.64V202.5a13.59,13.59,0,0,0,13.59,13.58H126.7a13.59,13.59,0,0,0,13.58-13.58V181.64a13.59,13.59,0,0,0-13.58-13.58Z"/><text class="cls-4" transform="translate(74.56 187.22)">En<tspan class="cls-8" x="13.07" y="0">t</tspan><tspan x="17.12" y="0">erpri</tspan><tspan class="cls-7" x="41.65" y="0">c</tspan><tspan x="47.27" y="0">e</tspan></text><circle class="cls-2" cx="53.71" cy="192.7" r="15.17"/><path class="cls-3" d="M53.71,177.53A15.17,15.17,0,1,1,38.55,192.7a15.17,15.17,0,0,1,15.16-15.17m0-1.89A17.06,17.06,0,1,0,70.77,192.7a17.08,17.08,0,0,0-17.06-17.06Z"/><polygon class="cls-2" points="78.04 194.29 79.31 196.86 82.15 197.27 80.09 199.28 80.58 202.1 78.04 200.77 75.5 202.1 75.99 199.28 73.93 197.27 76.77 196.86 78.04 194.29"/><path class="cls-3" d="M78,194.29l1.27,2.57,2.84.41-2.06,2,.49,2.82L78,200.77,75.5,202.1l.49-2.82-2.06-2,2.84-.41L78,194.29M78,193a1.26,1.26,0,0,0-1.13.7l-1,2-2.18.31a1.27,1.27,0,0,0-.7,2.16l1.58,1.54-.37,2.17a1.24,1.24,0,0,0,.5,1.23,1.27,1.27,0,0,0,.74.25,1.23,1.23,0,0,0,.59-.15l2-1,1.95,1a1.23,1.23,0,0,0,1.33-.1,1.24,1.24,0,0,0,.5-1.23l-.37-2.17L83,198.18a1.27,1.27,0,0,0-.7-2.16l-2.18-.31-1-2A1.26,1.26,0,0,0,78,193Z"/><polygon class="cls-2" points="90.05 194.29 91.32 196.86 94.15 197.27 92.1 199.28 92.58 202.1 90.05 200.77 87.51 202.1 87.99 199.28 85.94 197.27 88.78 196.86 90.05 194.29"/><path class="cls-3" d="M90.05,194.29l1.27,2.57,2.83.41-2.05,2,.49,2.82-2.54-1.33-2.54,1.33.48-2.82-2-2,2.84-.41,1.27-2.57m0-1.26a1.28,1.28,0,0,0-1.14.7l-1,2-2.18.31a1.27,1.27,0,0,0-1,.86,1.26,1.26,0,0,0,.32,1.3l1.57,1.54-.37,2.17a1.26,1.26,0,0,0,1.84,1.33l2-1,2,1a1.19,1.19,0,0,0,.58.15,1.27,1.27,0,0,0,.75-.25,1.25,1.25,0,0,0,.5-1.23l-.37-2.17L95,198.18a1.27,1.27,0,0,0-.7-2.16l-2.18-.31-1-2a1.26,1.26,0,0,0-1.13-.7Z"/><polygon class="cls-2" points="102.05 194.29 103.32 196.86 106.16 197.27 104.11 199.28 104.59 202.1 102.05 200.77 99.51 202.1 100 199.28 97.94 197.27 100.78 196.86 102.05 194.29"/><path class="cls-3" d="M102.05,194.29l1.27,2.57,2.84.41-2,2,.48,2.82-2.54-1.33-2.54,1.33.49-2.82-2-2,2.83-.41,1.27-2.57m0-1.26a1.26,1.26,0,0,0-1.13.7l-1,2-2.18.31a1.27,1.27,0,0,0-.7,2.16l1.58,1.54-.37,2.17a1.25,1.25,0,0,0,.5,1.23,1.27,1.27,0,0,0,.74.25,1.2,1.2,0,0,0,.59-.15l2-1,2,1a1.27,1.27,0,0,0,1.84-1.33l-.38-2.17,1.58-1.54a1.26,1.26,0,0,0,.32-1.3,1.27,1.27,0,0,0-1-.86l-2.18-.31-1-2a1.28,1.28,0,0,0-1.14-.7Z"/><polygon class="cls-2" points="114.06 194.29 115.33 196.86 118.17 197.27 116.11 199.28 116.6 202.1 114.06 200.77 111.52 202.1 112 199.28 109.95 197.27 112.79 196.86 114.06 194.29"/><path class="cls-3" d="M114.06,194.29l1.27,2.57,2.84.41-2.06,2,.49,2.82-2.54-1.33-2.54,1.33.49-2.82-2.06-2,2.84-.41,1.27-2.57m0-1.26a1.26,1.26,0,0,0-1.13.7l-1,2-2.18.31a1.27,1.27,0,0,0-.7,2.16l1.58,1.54-.38,2.17a1.26,1.26,0,0,0,1.84,1.33l2-1,2,1a1.23,1.23,0,0,0,.59.15,1.27,1.27,0,0,0,.74-.25,1.25,1.25,0,0,0,.5-1.23l-.37-2.17,1.58-1.54a1.27,1.27,0,0,0-.7-2.16l-2.18-.31-1-2a1.26,1.26,0,0,0-1.13-.7Z"/><rect class="cls-2" x="159.87" y="140.43" width="106.79" height="44.23" rx="18.5" ry="18.5"/><path class="cls-3" d="M255,140.43a11.72,11.72,0,0,1,11.69,11.69V173A11.72,11.72,0,0,1,255,184.67H171.56A11.72,11.72,0,0,1,159.87,173V152.12a11.72,11.72,0,0,1,11.69-11.69H255m0-1.89H171.56A13.59,13.59,0,0,0,158,152.12V173a13.59,13.59,0,0,0,13.58,13.58H255A13.59,13.59,0,0,0,268.56,173V152.12A13.59,13.59,0,0,0,255,138.54Z"/><text class="cls-4" transform="translate(202.84 157.7)">En<tspan class="cls-9" x="13.07" y="0">t</tspan><tspan x="17.12" y="0">erpri</tspan><tspan class="cls-7" x="41.64" y="0">c</tspan><tspan class="cls-6" x="47.27" y="0">e</tspan></text><circle class="cls-2" cx="181.99" cy="163.18" r="15.17"/><path class="cls-3" d="M182,148a15.17,15.17,0,1,1-15.17,15.16A15.16,15.16,0,0,1,182,148m0-1.9a17.06,17.06,0,1,0,17.06,17.06A17.08,17.08,0,0,0,182,146.12Z"/><polygon class="cls-2" points="206.32 164.77 207.59 167.34 210.43 167.75 208.37 169.76 208.86 172.58 206.32 171.25 203.78 172.58 204.26 169.76 202.21 167.75 205.05 167.34 206.32 164.77"/><path class="cls-3" d="M206.32,164.77l1.27,2.57,2.83.41-2,2,.49,2.82-2.54-1.33-2.54,1.33.48-2.82-2-2,2.84-.41,1.27-2.57m0-1.26a1.28,1.28,0,0,0-1.14.7l-1,2-2.18.31a1.27,1.27,0,0,0-1,.86,1.26,1.26,0,0,0,.32,1.3l1.58,1.54-.38,2.17a1.29,1.29,0,0,0,.51,1.24,1.25,1.25,0,0,0,1.33.09l1.95-1,2,1a1.2,1.2,0,0,0,.59.15,1.26,1.26,0,0,0,.74-.24,1.28,1.28,0,0,0,.5-1.24l-.37-2.17,1.58-1.54a1.27,1.27,0,0,0-.7-2.16l-2.18-.31-1-2a1.26,1.26,0,0,0-1.13-.7Z"/><polygon class="cls-2" points="218.32 164.77 219.59 167.34 222.43 167.75 220.38 169.76 220.86 172.58 218.32 171.25 215.78 172.58 216.27 169.76 214.22 167.75 217.05 167.34 218.32 164.77"/><path class="cls-3" d="M218.32,164.77l1.27,2.57,2.84.41-2.05,2,.48,2.82-2.54-1.33-2.53,1.33.48-2.82-2.05-2,2.83-.41,1.27-2.57m0-1.26a1.26,1.26,0,0,0-1.13.7l-1,2-2.18.31a1.27,1.27,0,0,0-.7,2.16l1.58,1.54-.37,2.17a1.28,1.28,0,0,0,.5,1.24,1.26,1.26,0,0,0,.75.24,1.19,1.19,0,0,0,.58-.15l1.95-1,2,1a1.25,1.25,0,0,0,1.33-.09,1.29,1.29,0,0,0,.51-1.24l-.37-2.17,1.57-1.54a1.26,1.26,0,0,0,.32-1.3,1.27,1.27,0,0,0-1-.86l-2.18-.31-1-2a1.28,1.28,0,0,0-1.14-.7Z"/><polygon class="cls-2" points="230.33 164.77 231.6 167.34 234.44 167.75 232.38 169.76 232.87 172.58 230.33 171.25 227.79 172.58 228.28 169.76 226.22 167.75 229.06 167.34 230.33 164.77"/><path class="cls-3" d="M230.33,164.77l1.27,2.57,2.84.41-2.06,2,.49,2.82-2.54-1.33-2.54,1.33.49-2.82-2.06-2,2.84-.41,1.27-2.57m0-1.26a1.26,1.26,0,0,0-1.13.7l-1,2-2.18.31a1.27,1.27,0,0,0-.7,2.16l1.58,1.54-.37,2.17a1.26,1.26,0,0,0,1.83,1.33l2-1,1.95,1a1.26,1.26,0,0,0,1.83-1.33l-.37-2.17,1.58-1.54a1.27,1.27,0,0,0-.7-2.16l-2.18-.31-1-2a1.26,1.26,0,0,0-1.13-.7Z"/><polygon class="cls-2" points="242.34 164.77 243.6 167.34 246.44 167.75 244.39 169.76 244.87 172.58 242.34 171.25 239.8 172.58 240.28 169.76 238.23 167.75 241.07 167.34 242.34 164.77"/><path class="cls-3" d="M242.34,164.77l1.27,2.57,2.83.41-2.05,2,.48,2.82-2.53-1.33-2.54,1.33.48-2.82-2.05-2,2.84-.41,1.27-2.57m0-1.26a1.27,1.27,0,0,0-1.14.7l-1,2-2.18.31a1.27,1.27,0,0,0-1,.86,1.26,1.26,0,0,0,.32,1.3l1.57,1.54-.37,2.17a1.26,1.26,0,0,0,1.25,1.48,1.26,1.26,0,0,0,.59-.15l2-1,1.95,1a1.19,1.19,0,0,0,.58.15,1.26,1.26,0,0,0,.75-.24,1.28,1.28,0,0,0,.5-1.24l-.37-2.17,1.58-1.54a1.27,1.27,0,0,0-.7-2.16l-2.19-.31-1-2a1.26,1.26,0,0,0-1.13-.7Z"/><path class="cls-2" d="M147.87,106.13l-10.75-5.69s-5.68,3.79-8.21-1.26-1.26-9.48,1.89-9.48c0,0-10.42-7.27-6.31-10.11,3.69-2.56,7,3.79,13.27,6.32s15.32,14.31,15.32,14.31Z"/><path class="cls-3" d="M148.08,107.32l-10.93-5.79a8.22,8.22,0,0,1-5.68,1,5.33,5.33,0,0,1-3.41-3c-1.69-3.38-1.91-6.81-.59-9a4,4,0,0,1,1.26-1.3c-2.27-1.79-6.16-5.26-6.15-8A2.94,2.94,0,0,1,124,78.81c2.78-1.92,5.32.11,8,2.26a24.55,24.55,0,0,0,6.15,4c6.48,2.59,15.35,14.12,15.72,14.61l.48.62Zm-11-8,.5.26,10.08,5.34,4.2-4.76c-1.93-2.42-9.25-11.31-14.45-13.39a25.87,25.87,0,0,1-6.63-4.24c-2.71-2.17-4.2-3.25-5.75-2.18a1.09,1.09,0,0,0-.55.93c0,2.06,4.22,5.77,6.88,7.62l2.47,1.73h-3a1.9,1.9,0,0,0-1.71,1c-.74,1.19-1,3.77.67,7.11a3.45,3.45,0,0,0,2.19,2c2.11.57,4.62-1.07,4.65-1.09Z"/><path class="cls-10" d="M139,104.23l11.37-10.11s29.7,17.7,46.76,20.86,7.59,16.43-1.89,15.16S151.66,117.5,139,104.23Z"/><path class="cls-3" d="M150.39,94.12s29.7,17.7,46.76,20.86c16.29,3,8.39,15.25-.61,15.25a9.29,9.29,0,0,1-1.28-.09c-9.48-1.26-43.6-12.64-56.24-25.91l11.37-10.11m-.22-2.34-1,.93-11.37,10.11-1.47,1.3,1.36,1.42C150.9,119.46,185.84,130.8,195,132a11.13,11.13,0,0,0,1.53.1c5.89,0,11.46-4.38,11.91-9.38.21-2.25-.44-7.68-10.95-9.63-16.53-3.06-45.84-20.44-46.14-20.62l-1.19-.71Z"/><path class="cls-11" d="M147.92,96.32c11,8.75,33.34,23.68,58.63,25.18-.33-2.73-3-5.34-9.4-6.52-17.06-3.16-46.76-20.86-46.76-20.86Z"/><path class="cls-10" d="M198.73,227.77s.64,5.06-3.16,6.32-13.9,2.53-8.84,5.06h20.85s1.9-7.59-1.26-10.75S198.73,227.77,198.73,227.77Z"/><path class="cls-3" d="M208.32,240.09H186.5l-.2-.1c-.5-.25-2.05-1-1.9-2.35.2-1.73,3-2.48,7.5-3.56,1.29-.31,2.52-.6,3.37-.89,3-1,2.54-5.13,2.52-5.3l-.07-.63.54-.31c1.75-1,5.82-2.12,8.73.78,3.5,3.5,1.59,11.31,1.51,11.65ZM187,238.2h19.86c.46-2.37.87-7.09-1.17-9.13s-4.79-1.2-5.92-.72c.07,2.15-.65,5.57-3.86,6.64-.93.31-2.19.61-3.53.93-1.85.44-5.17,1.24-6,1.9A3.57,3.57,0,0,0,187,238.2Z"/><path class="cls-10" d="M224,227.77s.63,5.06-3.16,6.32-13.9,2.53-8.85,5.06h20.86s1.89-7.59-1.27-10.75S224,227.77,224,227.77Z"/><path class="cls-3" d="M233.6,240.09H211.78l-.2-.1c-.51-.25-2.05-1-1.9-2.35.2-1.73,3-2.48,7.49-3.56,1.3-.31,2.53-.6,3.38-.89,3-1,2.54-5.13,2.52-5.3l-.08-.63.55-.31c1.75-1,5.82-2.12,8.72.78,3.5,3.5,1.6,11.31,1.52,11.65Zm-21.36-1.89h19.85c.46-2.37.87-7.09-1.17-9.13s-4.78-1.2-5.92-.72c.07,2.15-.64,5.57-3.85,6.64-.93.31-2.2.61-3.54.93-1.84.44-5.16,1.24-6,1.9A3.15,3.15,0,0,0,212.24,238.2Z"/><path class="cls-2" d="M189.89,174.06s5.68,51.18,7.58,56.87h11.37l.64-34.75h5.05l6.95,34.12h13.27l-3.16-56.24Z"/><path class="cls-3" d="M231.59,174.06l3.16,56.24H221.48l-6.95-34.12h-5.05l-.64,34.75H197.47c-1.9-5.69-7.58-56.87-7.58-56.87h41.7m1.8-1.9H187.77l.23,2.11c.24,2.1,5.74,51.45,7.67,57.26l.43,1.3h14.61l0-1.86.6-32.9H213l6.65,32.61.3,1.51h16.83l-.11-2L233.49,174l-.1-1.79Z"/><path class="cls-12" d="M189.89,174.06s.38,3.45,1,8.64c5.84,3.13,16.82,6.1,36,2.42l7.53,45.18h.37l-3.16-56.24Z"/><path class="cls-10" d="M188.62,176.59c-8.21-7.59-1.89-39.81-1.89-44.87s2.33-10.73,9.48-13.9a31.28,31.28,0,0,1,11.37-2.53l15.8,1.9s11.37,3.16,10.11,9.48,10.11,41.07-1.26,49.92C224,183,196.84,184.17,188.62,176.59Z"/><path class="cls-3" d="M207.58,115.29l15.8,1.9s11.37,3.16,10.11,9.48,10.11,41.07-1.26,49.92c-4.3,3.34-13.72,5.26-22.91,5.26-8.47,0-16.76-1.63-20.7-5.26-8.21-7.59-1.89-39.81-1.89-44.87s2.33-10.73,9.48-13.9a31.28,31.28,0,0,1,11.37-2.53m.11-1.89h-.11a33,33,0,0,0-12.14,2.69c-6.74,3-10.61,8.69-10.61,15.63,0,.93-.28,3.24-.61,5.92-2,16.29-3.56,34.18,3.12,40.34,5.63,5.2,17.24,5.76,22,5.76,10.2,0,19.65-2.22,24.07-5.66,8.87-6.9,5.64-26,3.28-39.91-.84-4.93-1.63-9.59-1.32-11.13,1.27-6.35-6.61-10.33-11.46-11.68l-.14,0h-.15l-15.79-1.9Z"/><path class="cls-2" d="M204.42,108.34v8.22s.63,3.16,5.06,3.79,7.58-3.16,7.58-3.16v-8.85Z"/><path class="cls-3" d="M210.49,121.37a9,9,0,0,1-1.15-.08c-5-.72-5.82-4.39-5.85-4.55l0-.18v-9.17H218v10.14l-.22.26C217.66,118,214.76,121.37,210.49,121.37Zm-5.12-4.93c.12.41.89,2.49,4.24,3s5.76-1.83,6.5-2.59v-7.53H205.37Z"/><path class="cls-2" d="M202.63,63s-15.27,36.87-.74,43.95,32-4.17,31.67-39.22Z"/><path class="cls-3" d="M202.63,63l30.93,4.73c.25,28.47-11.21,41.23-23.31,41.23a19.09,19.09,0,0,1-8.36-2c-14.53-7.08.74-43.95.74-43.95m-1.18-2.1-.57,1.38A117.27,117.27,0,0,0,195,81.94c-2.84,14.36-.78,23.34,6.11,26.7a21,21,0,0,0,9.19,2.21,19.83,19.83,0,0,0,14.23-6.23c5.11-5.15,11.16-15.74,11-36.92l0-1.61-1.59-.25-30.93-4.72-1.47-.23Z"/><path class="cls-12" d="M216.6,104.43c-5.16,4.64-12,3.11-17.15.79a9.57,9.57,0,0,0,2.44,1.72c14.06,6.85,30.84-3.46,31.64-35.89l-7.44,5S226,96,216.6,104.43Z"/><path class="cls-10" d="M230.4,89.18s-8.51-4.58-3.52-18.8c0,0-15.18,3.51-26.62-4.55s-1.57-21.32-1.57-21.32-2.07,10.46,13.95,10,30,2.31,25.24,11.52c0,0,17.23,13.5-10,31.3Z"/><path class="cls-3" d="M198.69,44.51s-2,10,13,10h1c1.08,0,2.15,0,3.21,0,14.61,0,26.43,3,22,11.56,0,0,17.23,13.5-10,31.3l2.53-8.16s-8.51-4.58-3.52-18.8a39,39,0,0,1-8,.76c-5.37,0-12.55-1-18.66-5.31-11.44-8.06-1.57-21.32-1.57-21.32m3.49-7.87-5,6.74c-.22.3-5.34,7.27-4.16,14.66a14,14,0,0,0,6.16,9.34c6.63,4.67,14.4,5.66,19.75,5.66a46.44,46.44,0,0,0,5.27-.31c-2.56,10.16,1.69,15.27,4,17.19l-2.12,6.86-1.56,5,4.41-2.88c10.46-6.84,15.92-14,16.23-21.22a16.55,16.55,0,0,0-5-12.15,7.06,7.06,0,0,0-.43-6.36c-2.68-4.39-10.72-6.62-23.88-6.62-1.06,0-2.16,0-3.26.05h-.94c-4.7,0-8.1-1.08-9.81-3.12a6.07,6.07,0,0,1-1.29-4.65l1.63-8.23Z"/><path class="cls-11" d="M237.88,66c4.72-9.21-9.22-12-25.24-11.52-10,.28-12.95-3.68-13.76-6.7-.81,2.44-.58,5.79,4.74,8.3,9.43,4.45,26.52-.54,31.36,4.28s1.38,6.07,1.38,6.07,5.21,6.77,6.25,14.71C245.46,72,237.88,66,237.88,66Z"/><ellipse class="cls-3" cx="201.87" cy="83.46" rx="1.9" ry="1.58" transform="translate(80.78 265.27) rotate(-78.8)"/><ellipse class="cls-3" cx="213.65" cy="87.41" rx="1.9" ry="1.58" transform="translate(86.4 280) rotate(-78.8)"/><path class="cls-3" d="M208.29,104.71a7.11,7.11,0,0,1-2.54-.53.63.63,0,0,1,.5-1.16,4.35,4.35,0,0,0,3.23.16,2,2,0,0,0,1-1.58.63.63,0,1,1,1.25.21,3.23,3.23,0,0,1-1.6,2.48A3.68,3.68,0,0,1,208.29,104.71Z"/><path class="cls-3" d="M219.91,83.49a.63.63,0,0,1-.56-.33,5.12,5.12,0,0,0-5.73-2.9.63.63,0,0,1-.77-.45.62.62,0,0,1,.44-.77,6.45,6.45,0,0,1,7.17,3.52.63.63,0,0,1-.25.85A.56.56,0,0,1,219.91,83.49Z"/><path class="cls-3" d="M200.19,78.94a.71.71,0,0,1-.28-.06.64.64,0,0,1-.29-.85,4.1,4.1,0,0,1,2.44-2.24,5.46,5.46,0,0,1,3.88.47.63.63,0,1,1-.6,1.11h0a4.24,4.24,0,0,0-2.9-.37,2.86,2.86,0,0,0-1.68,1.59A.63.63,0,0,1,200.19,78.94Z"/><path class="cls-11" d="M222.11,174.69c-10.65,5.13-25.24,2.87-34.7.45a8.31,8.31,0,0,0,1.21,1.45c8.22,7.58,35.35,6.42,43.61,0,6.29-4.9,5.62-17.73,4-29.29C235,157.56,231.6,170.13,222.11,174.69Z"/><path class="cls-2" d="M237.28,161.07s-3.43,3-3.78,10.05-7.35,16.9-11.6,13.63,1.63-16.78,7.23-22.62S237.28,161.07,237.28,161.07Z"/><path class="cls-3" d="M223.75,186.35a3.93,3.93,0,0,1-2.43-.85,5.11,5.11,0,0,1-1.8-3.86c-.43-5.78,4.36-15.41,8.93-20.16,2.27-2.37,4.42-3.43,6.37-3.15a4.7,4.7,0,0,1,3.3,2.29l.35.67-.56.49c-.07.06-3.14,2.91-3.47,9.39-.28,5.63-4.44,12.76-8.56,14.67A5.06,5.06,0,0,1,223.75,186.35Zm10.47-26.17c-1.24,0-2.75.9-4.4,2.61-4.12,4.28-8.79,13.58-8.41,18.7a3.34,3.34,0,0,0,1.07,2.51,2.38,2.38,0,0,0,2.61.12c3.45-1.6,7.22-8.18,7.46-13.05.28-5.6,2.42-8.8,3.5-10.07a2.58,2.58,0,0,0-1.51-.8Z"/><path class="cls-10" d="M221.17,121.93c7.58-8.22,31.26,10.1,36,20.22,5.05,10.74-8.85,27.17-21.44,30.64l-10.16-11.68s15.8-7.59,13.9-15.17S206.17,138.17,221.17,121.93Z"/><path class="cls-3" d="M226.43,119.87c10,0,26.83,13.93,30.76,22.28,5.05,10.74-8.85,27.17-21.44,30.64l-10.16-11.68s15.8-7.59,13.9-15.17-33.32-7.77-18.32-24a6.82,6.82,0,0,1,5.26-2.06m0-1.9h0a8.68,8.68,0,0,0-6.66,2.67c-3.66,4-5.08,7.44-4.36,10.63,1.17,5.16,7.45,7.66,13.53,10.08,3.68,1.46,8.27,3.29,8.71,5.05,1.24,4.95-9.14,11.2-12.88,13l-2.24,1.07,1.63,1.88L234.32,174l.78.9,1.15-.32c8.68-2.39,17.88-10.42,21.87-19.11,2.41-5.23,2.68-10.13.78-14.16-4.14-8.79-21.4-23.37-32.47-23.37Z"/><path class="cls-11" d="M257.19,142.15c-2.92-6.19-12.91-15.45-22-19.82,8.31,8,18.48,19.35,18.48,26.45,0,8.44-12.28,17.51-19.57,22.15l1.61,1.86C248.34,169.32,262.24,152.89,257.19,142.15Z"/></g></g></svg>