<svg xmlns="http://www.w3.org/2000/svg" xmlns:xlink="http://www.w3.org/1999/xlink" viewBox="0 0 908.75 789.16"><defs><style>.cls-1,.cls-7{fill:none;}.cls-2{fill:#f5f6f7;}.cls-3{clip-path:url(#clip-path);}.cls-4{fill:#dbdbf1;}.cls-5{fill:#7177bf;}.cls-6,.cls-9{fill:#fff;}.cls-7,.cls-9{stroke:#7177bf;}.cls-7{stroke-linecap:round;stroke-miterlimit:10;stroke-width:7px;}.cls-8{fill:#ededf7;}.cls-9{stroke-linejoin:round;stroke-width:4px;}</style><clipPath id="clip-path"><path class="cls-1" d="M333.56,621.24c-141.32,3-215.79-39.51-269-202.12s-38-237.06,110.93-302.41S351.8-9.42,482.49,1.22s287.21,110.93,319.13,228,24.31,211.23-130.69,307S333.56,621.24,333.56,621.24Z"/></clipPath></defs><title>Recurso 3</title><g id="Capa_2" data-name="Capa 2"><g id="Capa_1-2" data-name="Capa 1"><path class="cls-2" d="M333.56,621.24c-141.32,3-215.79-39.51-269-202.12s-38-237.06,110.93-302.41S351.8-9.42,482.49,1.22s287.21,110.93,319.13,228,24.31,211.23-130.69,307S333.56,621.24,333.56,621.24Z"/><g class="cls-3"><rect class="cls-4" x="4.56" y="474.59" width="899.64" height="310.01"/><path class="cls-5" d="M904.19,474.59v310H4.56v-310H904.19m4.56-4.56H0V789.16H908.75V470Z"/></g><path class="cls-4" d="M593.06,442.12s5.51,20.55,21.76,22.48l39.1-42a23.61,23.61,0,0,0-25.06.43c-13.5,8.34-25,6.69-25,6.69Z"/><path class="cls-5" d="M615.7,467l-1.15-.14c-17.58-2.09-23.45-23.25-23.69-24.15l-.32-1.18L603,427.33l1.22.18c.1,0,10.88,1.38,23.43-6.37a25.7,25.7,0,0,1,27.55-.37l2.18,1.49Zm-20.08-24.34c1.36,4,6.71,17.35,18.35,19.51l36.25-38.9A21.32,21.32,0,0,0,630.06,425c-11.57,7.15-21.71,7.33-25.2,7.13Z"/><path class="cls-4" d="M563.79,473.07s0,21.28,15.2,27.35L627.62,470A23.61,23.61,0,0,0,603.3,464c-15.19,4.56-25.83,0-25.83,0Z"/><path class="cls-5" d="M579.22,503l-1.08-.43C561.7,496,561.51,474,561.51,473.07v-1.22l15.72-10.48,1.14.49c.09,0,10.14,4.15,24.28-.09a25.71,25.71,0,0,1,26.7,6.78l1.72,2Zm-13.1-28.71c.28,4.22,2,18.49,12.68,23.59l45.09-28.18A21.33,21.33,0,0,0,604,466.14c-13,3.9-22.87,1.45-26.19.35Z"/><rect class="cls-4" x="461.64" y="42.25" width="373.51" height="258.34" rx="13.5" ry="13.5"/><path class="cls-5" d="M810.55,42.25c13.53,0,24.6,9.23,24.6,20.51V280.07c0,11.29-11.07,20.52-24.6,20.52H486.23c-13.52,0-24.59-9.23-24.59-20.52V62.76c0-11.28,11.07-20.51,24.59-20.51H810.55m0-4.56H486.23c-16.57,0-30.06,11.25-30.06,25.07V280.07c0,13.83,13.49,25.08,30.06,25.08H810.55c16.58,0,30.06-11.25,30.06-25.08V62.76c0-13.82-13.48-25.07-30.06-25.07Z"/><rect class="cls-6" x="476.21" y="55.92" width="344.36" height="230.99" rx="8.17" ry="8.17"/><path class="cls-5" d="M805.69,55.92c8.18,0,14.88,5.59,14.88,12.42V274.5c0,6.83-6.7,12.41-14.88,12.41H491.09c-8.18,0-14.88-5.58-14.88-12.41V68.34c0-6.83,6.7-12.42,14.88-12.42h314.6m0-4.55H491.09c-11.22,0-20.34,7.61-20.34,17V274.5c0,9.36,9.12,17,20.34,17h314.6c11.22,0,20.35-7.61,20.35-17V68.34c0-9.36-9.13-17-20.35-17Z"/><path class="cls-2" d="M805.69,55.92H770.46V186.11c0,31.75-30.86,57.49-68.93,57.49H476.21v30.9c0,6.83,6.7,12.41,14.88,12.41h314.6c8.18,0,14.88-5.58,14.88-12.41V68.34C820.57,61.51,813.87,55.92,805.69,55.92Z"/><path class="cls-7" d="M489.38,267.48l81-50.76a26.5,26.5,0,0,1,10.78-3.84l85-10.62a26.48,26.48,0,0,0,15-7.12L717,160.89a26.51,26.51,0,0,1,7.67-5.11L756.29,142a26.47,26.47,0,0,0,12.31-11l18.14-31.33"/><path class="cls-4" d="M795.19,106.65a6.93,6.93,0,0,1-3.89-1.21l-10.84-7.33a7,7,0,0,1,1.59-12.33L792.89,82a7.07,7.07,0,0,1,2.32-.4,7,7,0,0,1,7,7V99.68a6.86,6.86,0,0,1-2.15,5,7.07,7.07,0,0,1-4.83,1.94Z"/><path class="cls-5" d="M795.21,84.55a4,4,0,0,1,4,4V99.68A4,4,0,0,1,793,103l-10.84-7.33a4,4,0,0,1,.91-7l10.84-3.83a3.83,3.83,0,0,1,1.32-.23m0-6a9.9,9.9,0,0,0-3.32.57L781.05,83a10,10,0,0,0-2.27,17.65l10.84,7.33a10,10,0,0,0,15.55-8.25V88.52a10,10,0,0,0-10-10Z"/><rect class="cls-4" x="436.9" y="455.59" width="24.31" height="80.54"/><path class="cls-5" d="M461.22,455.59v80.55H436.9V455.59h24.32m4.55-4.55H432.34v89.65h33.43V451Z"/><path class="cls-4" d="M300.79,258h108.1a17.37,17.37,0,0,1,17.37,17.37v108.1a17.37,17.37,0,0,1-17.37,17.37H300.79a17.37,17.37,0,0,1-17.37-17.37V275.41A17.38,17.38,0,0,1,300.79,258Z"/><path class="cls-5" d="M399.86,258a26.48,26.48,0,0,1,26.4,26.4v90a26.49,26.49,0,0,1-26.4,26.41h-90a26.49,26.49,0,0,1-26.4-26.41v-90a26.48,26.48,0,0,1,26.4-26.4h90m0-4.56h-90a31,31,0,0,0-31,31v90a31,31,0,0,0,31,31h90a31,31,0,0,0,31-31v-90a31,31,0,0,0-31-31Z"/><rect class="cls-4" x="365.48" y="428.24" width="159.56" height="36.47" rx="12" ry="12"/><path class="cls-5" d="M506.8,428.24a18.24,18.24,0,1,1,0,36.47H383.71a18.24,18.24,0,0,1,0-36.47H506.8m0-4.56H383.71a22.8,22.8,0,0,0,0,45.59H506.8a22.8,22.8,0,1,0,0-45.59Z"/><rect class="cls-4" x="368.52" y="533.86" width="159.56" height="20.52" rx="6.75" ry="6.75"/><path class="cls-5" d="M517.82,533.86a10.26,10.26,0,1,1,0,20.51H378.77a10.26,10.26,0,0,1,0-20.51H517.82m0-4.56H378.77a14.82,14.82,0,0,0,0,29.63H517.82a14.82,14.82,0,1,0,0-29.63Z"/><path class="cls-6" d="M568.93,318.61c-5.26.37-11-.23-15.39-3.28-3.19-2.2-7-6.59-7-15,0-8.08,2.46-14.43,7.29-18.87,7.4-6.81,17.3-6.2,18.41-6.11l-.84,10.6c-.07,0-6.38-.39-10.42,3.39-2.52,2.35-3.8,6-3.8,11,0,4.1,1.35,5.52,2.37,6.23,4.54,3.15,15.5.61,20.09-1.12l3.76,10A55.94,55.94,0,0,1,568.93,318.61Z"/><path class="cls-5" d="M568.88,275.37a23.71,23.71,0,0,1,3.39,0l-.84,10.6a15.55,15.55,0,0,0-1.74,0c-2.18.16-6,.81-8.68,3.36-2.52,2.35-3.8,6-3.8,11,0,4.1,1.35,5.52,2.37,6.23,2,1.35,5.1,1.65,8.41,1.42a45.61,45.61,0,0,0,11.68-2.54l3.76,10a55.94,55.94,0,0,1-14.5,3.19c-5.26.37-11-.23-15.39-3.28-3.19-2.2-7-6.59-7-15,0-8.08,2.46-14.43,7.29-18.87a24.78,24.78,0,0,1,15-6.1m-.22-3a27.66,27.66,0,0,0-16.86,6.89c-5.48,5-8.26,12.14-8.27,21.1,0,9.73,4.5,14.88,8.28,17.5,4.38,3,10.21,4.31,17.33,3.81a58.89,58.89,0,0,0,15.36-3.38l2.84-1.08-1.07-2.84-3.76-9.95-1.07-2.84-2.84,1.07A42.7,42.7,0,0,1,567.78,305c-4.25.3-5.94-.52-6.46-.89-.27-.19-1.08-.75-1.07-3.73,0-4.07,1-7,2.83-8.78,2.09-1.94,5.17-2.43,6.82-2.55a10,10,0,0,1,1.34,0l3,.16.26-3,.84-10.6.24-3-3-.24a25.89,25.89,0,0,0-3.85,0Z"/><path class="cls-6" d="M521.07,294.58s12.38-13.69,31.35-8-2.53,11.4-2.53,11.4,11.35,19-25.2,15.32S521.07,294.58,521.07,294.58Z"/><path class="cls-5" d="M550,286c.8.18,1.62.39,2.44.64,19,5.71-2.53,11.4-2.53,11.4s11.35,19-25.2,15.32a71.9,71.9,0,0,1-8.33-1.26c-22.51-5,4.71-17.48,4.71-17.48S532.4,282.06,550,286m1-4.45h0c-17.56-3.9-29.59,6.37-32.57,9.29-5.49,2.6-16.27,8.73-15.47,16.26.73,6.85,9.55,8.81,12.45,9.45a75.69,75.69,0,0,0,8.86,1.34c16.09,1.61,25.9-.75,30-7.21a13.09,13.09,0,0,0,1.54-9.76c4.73-1.86,8.94-4.74,9-9.1.1-6.18-8-8.62-11.06-9.54-.92-.28-1.85-.52-2.76-.73Z"/><path class="cls-4" d="M397.15,270.77c5.25-8.74,20.11-20.44,37.42-7.25,10.75,8.2,25.2,21.42,34.6,30.26a22.51,22.51,0,0,0,22.33,5l33.23-13.69,7.91,34.45-47.05,15.85c-10,3-20.08-.89-29.35-5.65C431.53,317.08,386.21,289,397.15,270.77Z"/><path class="cls-5" d="M423.5,258.12a28.54,28.54,0,0,1,11.07,5.4c10.75,8.2,25.2,21.42,34.6,30.26a22.5,22.5,0,0,0,22.33,5l33.23-13.69,7.91,34.45-47.05,15.85a27.63,27.63,0,0,1-14.21.27,64.37,64.37,0,0,1-15.14-5.92c-24.71-12.69-70-40.76-59.09-59,4.08-6.8,14-15.4,26.35-12.65m1-4.45h0c-15.59-3.47-27,7.64-31.25,14.76A16.63,16.63,0,0,0,391.68,282c6.11,21.41,49.36,45,62.47,51.78a69.21,69.21,0,0,0,16.24,6.32,31.82,31.82,0,0,0,16.52-.36l.07,0,.06,0,47.05-15.85,3.92-1.32-.93-4-7.91-34.45-1.2-5.25-5,2-33.05,13.62a17.95,17.95,0,0,1-17.65-4.06c-10-9.43-24.23-22.39-35-30.56a33.05,33.05,0,0,0-12.84-6.23Z"/><path class="cls-6" d="M403,409.39s23.57,35.72,73.12,20.54c24.46-7.5,38.65-12.4,46.75-15.44a21,21,0,0,1,19.89,2.81l50,29.52,21.9-22.29-59.79-43.37a34.75,34.75,0,0,0-22.54-8.74l-63.45-.75Z"/><path class="cls-5" d="M468.92,371.67l63.45.75a34.75,34.75,0,0,1,22.54,8.74l59.79,43.37-21.9,22.29-50-29.52a21.14,21.14,0,0,0-12.54-4.15,20.85,20.85,0,0,0-7.35,1.34c-8.1,3-22.29,7.94-46.75,15.44a80.62,80.62,0,0,1-23.67,3.76c-33.41,0-49.45-24.3-49.45-24.3l65.88-37.72m-1.19-4.57-1.08.61-65.88,37.72-4.21,2.41,2.67,4.06c.71,1.07,17.8,26.35,53.26,26.35a85.83,85.83,0,0,0,25-4c20.43-6.26,36.25-11.49,47-15.53a16.25,16.25,0,0,1,5.75-1.05,16.57,16.57,0,0,1,9.85,3.27l.18.13.19.11,50,29.52,3.07,1.82,2.5-2.55L618,427.72l3.71-3.77-4.28-3.11-59.62-43.25a39.49,39.49,0,0,0-25.34-9.73L469,367.11Z"/><path class="cls-2" d="M599.54,440l-63.86-48.19S492,380.85,464.62,374.13L420.3,399.51l-11.95,16.08c9.47,9.49,31.76,25.39,67.81,14.34,24.46-7.5,38.65-12.4,46.75-15.44a21,21,0,0,1,19.89,2.81l50,29.52Z"/><path class="cls-8" d="M441.08,293.77l-10.56,21.11c9.05,5.89,18.31,11.08,25.72,14.89,9.27,4.76,19.37,8.68,29.35,5.65l47.05-15.85-1.91-8.3c-13.32,6.08-33.78,13.84-50.14,13.08C454,323.11,441.08,293.77,441.08,293.77Z"/><path class="cls-6" d="M384.47,402.72s16.25,40,67.68,35.74c25.39-2.12,40.23-3.89,48.74-5.14a21.32,21.32,0,0,1,18.94,7l43.31,39.59,25.72-17.15-50.24-55.25a35.75,35.75,0,0,0-20.41-13.37l-62-14.29Z"/><path class="cls-5" d="M456.21,379.85l62,14.29a35.75,35.75,0,0,1,20.41,13.37l50.24,55.25-25.72,17.15-43.31-39.59a21.44,21.44,0,0,0-15.92-7.22,22,22,0,0,0-3,.22c-8.51,1.25-23.35,3-48.74,5.14-2.62.22-5.14.32-7.57.32-45.47,0-60.11-36.06-60.11-36.06l71.74-22.87m-.19-4.72-1.19.38-71.74,22.87-4.69,1.5,1.85,4.56A63.19,63.19,0,0,0,394.31,424c9.13,8.81,25.26,19.31,50.27,19.31,2.59,0,5.26-.12,7.95-.34,21.21-1.77,37.7-3.51,49-5.17a16.6,16.6,0,0,1,14.9,5.54l.14.17.17.14,43.31,39.59,2.63,2.41,3-2,25.72-17.15,4.41-2.94-3.57-3.92-50.11-55.1a40.4,40.4,0,0,0-22.89-14.89l-62-14.29-1.21-.28Z"/><path class="cls-4" d="M488.84,382.61S417.53,413.8,399.7,413.8s-26.74-7.42-35.65-37.14-40.11-84.68-25.26-101,45.89-16.31,65.2-22.25,34.27,11.88,56.56,43.08S518.55,366.26,488.84,382.61Z"/><path class="cls-5" d="M411.25,252.25c16,0,29.88,17,49.3,44.22,22.28,31.2,58,69.79,28.29,86.14,0,0-71.31,31.19-89.14,31.19s-26.74-7.42-35.65-37.14-40.11-84.68-25.26-101,45.89-16.31,65.2-22.25a24.71,24.71,0,0,1,7.26-1.14m0-4.55h0a29.49,29.49,0,0,0-8.6,1.33,176.74,176.74,0,0,1-19,4.16c-17.23,3.16-36.76,6.74-48.26,19.38-12.6,13.86.44,45.47,13.06,76,4.5,10.89,8.75,21.19,11.2,29.36,9.06,30.2,19.16,40.39,40,40.39,18.26,0,83.58-28.35,91-31.58l.19-.08.18-.1c7.23-4,11.64-9.47,13.12-16.32,3.86-17.87-13.4-40.89-30.08-63.15-3.47-4.63-6.75-9-9.82-13.31-19.3-27-34.39-46.12-53-46.12Z"/><path class="cls-6" d="M351.33,239.26,361.76,263s18.08,8.56,31-6.92L383,234.48Z"/><path class="cls-5" d="M383,234.48l9.84,21.57a24.51,24.51,0,0,1-19.43,9.28,29.82,29.82,0,0,1-11.6-2.36l-10.43-23.71L383,234.48m2.72-5-3.4.52-31.62,4.77-5.89.89,2.4,5.46,10.43,23.7.68,1.56,1.54.73a34.59,34.59,0,0,0,13.55,2.8A29.15,29.15,0,0,0,396.29,259l1.84-2.2-1.19-2.62-9.84-21.56-1.43-3.13Z"/><path class="cls-6" d="M388.27,134.4s41.25,86.65,7.23,105.45-77.29-6-80.93-90.26Z"/><path class="cls-5" d="M388.27,134.4s41.25,86.65,7.23,105.45a45.25,45.25,0,0,1-21.95,5.93c-28.33,0-56.1-29.45-59-96.19l73.7-15.19m2.58-5.19-3.5.73-73.7,15.19-3.8.78.17,3.88c1.37,31.72,8.54,57.84,20.74,75.51,11.15,16.15,26.35,25,42.79,25a49.6,49.6,0,0,0,24.16-6.5c16.15-8.92,20-30.75,11.35-64.88a282.29,282.29,0,0,0-16.67-46.52l-1.54-3.23Z"/><path class="cls-2" d="M359.87,235.65c13,10.5,29.24,6,41.28-.22a22.38,22.38,0,0,1-5.65,4.42c-32.92,18.2-74.5-4.48-80.45-82.26l18.51,11S336.24,216.54,359.87,235.65Z"/><path class="cls-4" d="M324.84,200.75s19.86-12.06,6.11-45.6c0,0,36.9,6.55,63.37-14.23s1.13-51.38,1.13-51.38,6.27,24.84-32.26,25.76-71.67,9.27-59.19,30.79c0,0-39.72,34.56,27.92,73.95Z"/><path class="cls-5" d="M395.45,89.54s25.35,30.6-1.13,51.38c-16.24,12.75-36.4,15.21-49.56,15.21a87.2,87.2,0,0,1-13.81-1c13.75,33.54-6.11,45.6-6.11,45.6L331.92,220C264.28,180.65,304,146.09,304,146.09c-12.48-21.52,20.65-29.88,59.19-30.79s32.26-25.76,32.26-25.76m-9.36-18.45L391,90.62a14.55,14.55,0,0,1-2.64,11.47c-4.16,5.37-12.9,8.36-25.3,8.65-24.81.59-56.09,4.36-64.27,19-1.88,3.35-3.28,8.61-.34,15.54C294.3,149.89,286.65,160.59,288,175c1.65,17.37,15.65,33.84,41.62,49l10.93,6.36-4.36-11.87-5.95-16.22c5.29-4.91,14.86-17.69,7.45-41.79,2,.13,4.42.23,7.06.23,14.49,0,35.34-2.81,52.38-16.18,8.06-6.33,12.64-14.13,13.62-23.19,1.92-17.9-11.24-34-11.8-34.69L386.09,71.09Z"/><path class="cls-8" d="M304,146.09c-12.48-21.52,20.65-29.88,59.19-30.79,24-.57,30.63-10.45,32.2-17.8,2.25,5.76,2.13,13.83-10.35,20.52-22.08,11.85-63.76,2-74.79,14.17s-2.54,14.75-2.54,14.75-11.67,16.91-13.2,36.11C286.53,161.31,304,146.09,304,146.09Z"/><ellipse class="cls-5" cx="392.56" cy="181.95" rx="3.8" ry="4.56" transform="translate(-32.59 101.59) rotate(-14.16)"/><ellipse class="cls-5" cx="364.75" cy="192.89" rx="3.8" ry="4.56" transform="translate(-36.11 95.12) rotate(-14.16)"/><path class="cls-8" d="M418.05,253.3C442,288.19,480.84,352,459.7,372c-18.76,17.79-57.89,26.76-84.1,30.94,6.15,8.26,13.57,10.85,24.1,10.85,17.83,0,89.14-31.19,89.14-31.19,29.71-16.35-6-54.94-28.29-86.14C443.92,273.2,431.37,257.37,418.05,253.3Z"/><path class="cls-2" d="M563.14,479.91l13.24-8.83c-18.17-14.21-45.52-35.41-54.38-41.32-13.68-9.12-19.75-4.56-66.48-1.52s-58.13-28.87-58.13-28.87l-5.91,1.12-7,2.23s16.25,40,67.68,35.74c25.39-2.12,40.23-3.89,48.74-5.14a21.32,21.32,0,0,1,18.94,7Z"/><path class="cls-8" d="M528.08,544.11a10.29,10.29,0,0,0-10.26-10.25H378.77a10.28,10.28,0,0,0-10.25,10.25c0,.13,0,.26,0,.38H528.06C528.07,544.37,528.08,544.24,528.08,544.11Z"/><path class="cls-5" d="M375.34,233.4a8,8,0,0,1-1.93-.23,7.85,7.85,0,0,1-5.18-4.85A1.52,1.52,0,1,1,371,227.1a4.87,4.87,0,0,0,3.16,3.12c2.73.71,6.28-1.4,7.42-2.28a1.52,1.52,0,0,1,1.85,2.42C383.26,230.5,379.41,233.4,375.34,233.4Z"/><path class="cls-5" d="M349.25,185.78a1.52,1.52,0,0,1-1.36-2.18c5.59-11.65,16.67-9.36,16.78-9.33a1.51,1.51,0,1,1-.64,3c-.39-.07-8.88-1.74-13.41,7.69A1.52,1.52,0,0,1,349.25,185.78Z"/><path class="cls-5" d="M396,172.41a1.52,1.52,0,0,1-1.33-.78,6.91,6.91,0,0,0-4.23-3.62c-3.32-.87-6.88,1.23-6.92,1.25a1.52,1.52,0,0,1-1.59-2.59c.19-.11,4.66-2.81,9.28-1.6a9.82,9.82,0,0,1,6.12,5.08,1.52,1.52,0,0,1-1.33,2.26Z"/><rect class="cls-6" x="567.38" y="261.98" width="44.07" height="60.79" rx="5.37" ry="5.37" transform="matrix(1, -0.07, 0.07, 1, -19.08, 42.12)"/><path class="cls-5" d="M601.11,261.08a8.18,8.18,0,0,1,8.72,7.57L613,313a8.18,8.18,0,0,1-7.57,8.72l-27.67,2a8.19,8.19,0,0,1-8.72-7.57l-3.12-44.34a8.18,8.18,0,0,1,7.57-8.72l27.67-1.95m-.32-4.55-27.67,2a12.74,12.74,0,0,0-11.8,13.59l3.12,44.34A12.75,12.75,0,0,0,578,328.21l27.67-1.95a12.74,12.74,0,0,0,11.8-13.59l-3.12-44.34a12.74,12.74,0,0,0-13.59-11.8Z"/><path class="cls-2" d="M308.23,200.15l16.43-5.48a5.59,5.59,0,0,1,6.43,2.23L358.74,239a5.58,5.58,0,0,1-4,8.61L336,249.88a5.57,5.57,0,0,1-5.35-2.5l-25.31-38.89A5.58,5.58,0,0,1,308.23,200.15Z"/><path class="cls-5" d="M326.42,194.39a5.6,5.6,0,0,1,4.67,2.51L358.74,239a5.58,5.58,0,0,1-4,8.61L336,249.88a5,5,0,0,1-.67,0,5.57,5.57,0,0,1-4.68-2.54l-25.31-38.89a5.58,5.58,0,0,1,2.91-8.34l16.43-5.48a5.63,5.63,0,0,1,1.76-.28m0-4.56h0a10,10,0,0,0-3.21.52l-16.42,5.47A10.14,10.14,0,0,0,301.5,211l25.31,38.89a10.21,10.21,0,0,0,9.73,4.54l18.76-2.29a10.14,10.14,0,0,0,7.25-15.64L334.9,194.4a10.12,10.12,0,0,0-8.48-4.57Z"/><path class="cls-9" d="M349.37,244.24s-13.17-43.17-26.91-31.82-1.72,30.64-1.72,30.64-8.41-8.67-9.61,3.87,29.21,18.24,29.21,18.24Z"/><path class="cls-4" d="M288.73,381.89,278.1,354.54l24.64-24.64A36,36,0,0,0,313,308.82c1.9-15.68,5.09-41.29,6.13-45.46,1.52-6.08,7.6-16.72,28.87-10.64,15.24,4.35,7.09,46.93,1.23,70.72A45.23,45.23,0,0,1,332.6,348.7Z"/><path class="cls-5" d="M336.52,250.91A41.88,41.88,0,0,1,348,252.72c15.24,4.35,7.09,46.93,1.23,70.72A45.23,45.23,0,0,1,332.6,348.7l-43.87,33.19L278.1,354.54l24.64-24.64A36,36,0,0,0,313,308.82c1.9-15.68,5.09-41.29,6.13-45.46,1.2-4.81,5.25-12.45,17.39-12.45m0-4.56c-16.55,0-20.88,12.17-21.82,15.9-.84,3.39-2.94,18.87-6.23,46a31.49,31.49,0,0,1-9,18.4l-24.64,24.64-2.1,2.11,1.08,2.77,10.64,27.35,2.18,5.63,4.82-3.64,43.86-33.2a49.94,49.94,0,0,0,18.31-27.8c2.89-11.75,6.52-28.83,7.42-43.46.43-7.14,1.76-28.85-11.83-32.73a46.88,46.88,0,0,0-12.73-2Z"/><rect class="cls-6" x="164.88" y="397.85" width="27.35" height="174.76" rx="3.75" ry="3.75"/><path class="cls-5" d="M186.54,397.85a5.72,5.72,0,0,1,5.7,5.7V566.91a5.72,5.72,0,0,1-5.7,5.7h-16a5.72,5.72,0,0,1-5.7-5.7V403.55a5.72,5.72,0,0,1,5.7-5.7h16m0-4.56h-16a10.27,10.27,0,0,0-10.26,10.26V566.91a10.28,10.28,0,0,0,10.26,10.26h16a10.28,10.28,0,0,0,10.26-10.26V403.55a10.27,10.27,0,0,0-10.26-10.26Z"/><path class="cls-2" d="M170.58,572.61h16a5.72,5.72,0,0,0,5.7-5.7V403.55a5.72,5.72,0,0,0-5.7-5.7h-16a5.72,5.72,0,0,0-5.7,5.7v27.73H169a9.55,9.55,0,0,1,9.55,9.55V552.42A9.55,9.55,0,0,1,169,562h-4.13v4.94A5.72,5.72,0,0,0,170.58,572.61Z"/><rect class="cls-6" x="446.02" y="397.85" width="27.35" height="174.76" rx="3.75" ry="3.75"/><path class="cls-5" d="M467.67,397.85a5.71,5.71,0,0,1,5.7,5.7V566.91a5.72,5.72,0,0,1-5.7,5.7H451.72a5.72,5.72,0,0,1-5.7-5.7V403.55a5.71,5.71,0,0,1,5.7-5.7h15.95m0-4.56H451.72a10.27,10.27,0,0,0-10.26,10.26V566.91a10.27,10.27,0,0,0,10.26,10.26h15.95a10.27,10.27,0,0,0,10.26-10.26V403.55a10.27,10.27,0,0,0-10.26-10.26Z"/><path class="cls-2" d="M451.72,572.61h15.95a5.72,5.72,0,0,0,5.7-5.7V403.55a5.71,5.71,0,0,0-5.7-5.7H451.72a5.71,5.71,0,0,0-5.7,5.7v27.73h4.13a9.55,9.55,0,0,1,9.55,9.55V552.42a9.55,9.55,0,0,1-9.55,9.55H446v4.94A5.72,5.72,0,0,0,451.72,572.61Z"/><path class="cls-8" d="M348,252.72c-1.44-.41-2.81-.74-4.12-1,2.31,8.09,3.5,19.34,1.08,34.44-5.21,32.6-28.11,69.48-34.51,79.31L332.6,348.7a45.23,45.23,0,0,0,16.63-25.26C355.09,299.65,363.24,257.07,348,252.72Z"/><rect class="cls-4" x="148.17" y="372.01" width="334.32" height="41.03" rx="6.25" ry="6.25"/><path class="cls-5" d="M473,372a9.53,9.53,0,0,1,9.5,9.5v22A9.52,9.52,0,0,1,473,413H157.66a9.52,9.52,0,0,1-9.49-9.49v-22a9.53,9.53,0,0,1,9.49-9.5H473m0-4.56H157.66a14.07,14.07,0,0,0-14,14.06v22a14.06,14.06,0,0,0,14,14.05H473a14.07,14.07,0,0,0,14.06-14.05v-22A14.08,14.08,0,0,0,473,367.45Z"/><rect class="cls-6" x="219.59" y="350.74" width="129.17" height="18.24" rx="6" ry="6"/><path class="cls-5" d="M339.64,350.74a9.12,9.12,0,1,1,0,18.23H228.71a9.12,9.12,0,1,1,0-18.23H339.64m0-4.56H228.71a13.68,13.68,0,1,0,0,27.35H339.64a13.68,13.68,0,1,0,0-27.35Z"/><rect class="cls-6" x="184.64" y="280.83" width="129.17" height="88.14" rx="6" ry="6"/><path class="cls-5" d="M304.69,280.83a9.15,9.15,0,0,1,9.12,9.12v69.91a9.14,9.14,0,0,1-9.12,9.11H193.76a9.14,9.14,0,0,1-9.12-9.11V290a9.15,9.15,0,0,1,9.12-9.12H304.69m0-4.56H193.76A13.69,13.69,0,0,0,180.08,290v69.91a13.68,13.68,0,0,0,13.68,13.67H304.69a13.69,13.69,0,0,0,13.68-13.67V290a13.7,13.7,0,0,0-13.68-13.68Z"/><circle class="cls-6" cx="249.22" cy="327.18" r="15.96"/><path class="cls-5" d="M249.22,311.23a16,16,0,1,1-15.95,15.95,16,16,0,0,1,15.95-15.95m0-4.56a20.52,20.52,0,1,0,20.52,20.51,20.53,20.53,0,0,0-20.52-20.51Z"/><path class="cls-8" d="M473,372h-4.94v16a12.16,12.16,0,0,1-12.15,12.16H148.17v3.42a9.52,9.52,0,0,0,9.49,9.49H473a9.52,9.52,0,0,0,9.5-9.49v-22A9.53,9.53,0,0,0,473,372Z"/><path class="cls-2" d="M304.69,280.83h-8.36v55.28a18.43,18.43,0,0,1-18.42,18.43H184.64v5.32a9.14,9.14,0,0,0,9.12,9.11H304.69a9.14,9.14,0,0,0,9.12-9.11V290A9.15,9.15,0,0,0,304.69,280.83Z"/></g></g></svg>