<svg xmlns="http://www.w3.org/2000/svg" xmlns:xlink="http://www.w3.org/1999/xlink" viewBox="0 0 883.74 622.84"><defs><style>.cls-1{fill:none;}.cls-2{fill:#f9fafc;}.cls-3{fill:#f4f4f4;}.cls-4{fill:#dbdbf1;}.cls-5,.cls-9{fill:#7177bf;}.cls-6{fill:#fff;}.cls-7{fill:#f5f6f7;}.cls-8{fill:#ededf7;}.cls-9{font-size:15.54px;font-family:GothamRounded-Bold, Gotham Rounded;font-weight:700;}.cls-10{letter-spacing:-0.04em;}.cls-11{clip-path:url(#clip-path);}</style><clipPath id="clip-path"><path class="cls-1" d="M464.21,610.63C279,625.77,212.91,477.84,137.52,415.26s-55.85-198.43,9.77-242.69S333,1.62,444.66.09,616.38,15.36,705.74,88.62,874.67,195.46,855.12,340.47C838.63,462.79,613.59,598.42,464.21,610.63Z"/></clipPath></defs><title>Recurso 22</title><g id="Capa_2" data-name="Capa 2"><g id="Capa_1-2" data-name="Capa 1"><path class="cls-2" d="M464.21,610.63C279,625.77,212.91,477.84,137.52,415.26s-55.85-198.43,9.77-242.69S333,1.62,444.66.09,616.38,15.36,705.74,88.62,874.67,195.46,855.12,340.47C838.63,462.79,613.59,598.42,464.21,610.63Z"/><path class="cls-3" d="M464.21,610.63C279,625.77,212.91,477.84,137.52,415.26s-55.85-198.43,9.77-242.69S333,1.62,444.66.09,616.38,15.36,705.74,88.62,874.67,195.46,855.12,340.47C838.63,462.79,613.59,598.42,464.21,610.63Z"/><path class="cls-4" d="M233.15,322.18s-3.49-46.5,52.7-28.84S233.15,322.18,233.15,322.18Z"/><path class="cls-5" d="M231.22,324.48l-.16-2.15c-.05-.76-1.25-18.69,11.4-28.72,9.65-7.65,24.46-8.42,44-2.27,12.61,4,18,7.83,17.55,12.53-.42,4.1-4.95,9.55-36.54,15.45-16.94,3.16-34,4.92-34.12,4.94Zm32-33.06c-7.47,0-13.54,1.82-18.14,5.46-8.52,6.74-9.74,18.2-9.86,23,5.17-.59,18.38-2.19,31.52-4.64,31-5.78,33-10.81,33.12-11.75,0-.35-.08-3.53-14.64-8.11Q272.74,291.41,263.22,291.42Z"/><path class="cls-4" d="M162,308.21s-5.59-23.73,26.53-32.11,44.67,44.68,44.67,44.68L168.93,325Z"/><path class="cls-5" d="M195.21,275.21c27.15,0,37.94,45.57,37.94,45.57L168.93,325l-7-16.76s-5.59-23.73,26.53-32.11a26.64,26.64,0,0,1,6.73-.89m0-4.19h0a31.13,31.13,0,0,0-7.79,1c-35.66,9.3-29.61,36.85-29.55,37.12l.08.34.13.32,7,16.75,1.16,2.76,3-.19L233.42,325l5-.32-1.14-4.83c-.47-2-11.9-48.79-42-48.79Z"/><path class="cls-4" d="M314.82,289.37c-40.36,3.51-50.26,7-67,41.88-13.63,28.4-53.05,127.05-25.13,152.18s157.76,9.77,182.89,0,11.91-71.79,5.59-90.75C402.78,367.55,411.16,281,314.82,289.37Z"/><path class="cls-5" d="M327.43,288.8c83,0,75.73,79.9,83.73,103.88,6.32,19,19.54,81-5.59,90.75-15,5.84-67.4,13.67-113.11,13.67-30.78,0-58.54-3.56-69.78-13.67-27.92-25.13,11.5-123.78,25.13-152.18,16.75-34.9,26.65-38.37,67-41.88,4.43-.39,8.61-.57,12.61-.57m0-4.19c-4.15,0-8.51.2-13,.58-21.95,1.91-34.15,3.86-44.12,9.74C259,301.6,251.89,313.08,244,329.44c-6.67,13.9-20.16,46-28.42,78.08-10.43,40.5-9,67.09,4.27,79,10.87,9.78,35.29,14.75,72.58,14.75,44.35,0,98-7.51,114.63-14,12.73-4.95,18.53-20.44,17.25-46a212.17,212.17,0,0,0-9.21-49.94c-1.38-4.14-2.33-10.46-3.42-17.78C409.29,357.3,406,335,394.49,317c-13.69-21.49-36.26-32.39-67.06-32.39Z"/><path class="cls-6" d="M360.92,155.37s32.48-6.69,43.87,9.88,6.08,47.22-23.61,51.35S360.92,155.37,360.92,155.37Z"/><path class="cls-5" d="M378.54,218.88a15.84,15.84,0,0,1-11.61-4.79c-14.33-14.41-8.34-57.2-8.08-59l.21-1.45,1.44-.3c1.38-.28,34-6.77,46,10.75,6.62,9.63,7.78,23.57,2.88,34.68s-14.78,18.09-27.92,19.92A21.16,21.16,0,0,1,378.54,218.88ZM362.8,157.17c-.92,7.65-4.38,42.43,7.1,54,2.89,2.91,6.49,4,11,3.39,11.65-1.62,20.41-7.82,24.66-17.46,4.34-9.83,3.34-22.14-2.49-30.62C393.9,153.1,369.08,156.15,362.8,157.17Z"/><path class="cls-6" d="M367,297.2c-12.66-6.51-29.53-9.81-52.22-7.83-12,1-21.36,2.09-29,4C266.1,352.09,289,389.19,289,389.19,309.25,347,343.29,315.5,367,297.2Z"/><path class="cls-5" d="M289.23,393.55l-2-3.26c-.95-1.55-23.18-38.61-3.34-97.62l.36-1.09,1.12-.27c7.73-1.91,16.94-3,29.29-4,21.4-1.86,39.35.85,53.35,8.06l2.94,1.51-2.61,2c-24.36,18.76-57.56,49.83-77.44,91.23Zm-1.76-98.44c-15.25,46.41-3.38,79,1.48,89.44,19.64-38.8,50.47-68.3,74.13-86.93-12.84-5.75-29-7.83-48.07-6.17C303.45,292.46,294.72,293.43,287.47,295.11Z"/><path class="cls-6" d="M297.37,267.73v33.06s15.43,15.43,41.89,2.21V267.73Z"/><path class="cls-5" d="M318.68,310.4c-14.43,0-22.67-8-22.79-8.13l-.61-.61v-36h46.07v38.66l-1.16.58C332,309,324.79,310.4,318.68,310.4Zm-19.21-10.54c3,2.51,16.23,12,37.69,1.83V269.82H299.47Z"/><path class="cls-6" d="M346,143.35s62.68,9.32,38.4,76.74c0,0,20.09,33-20.93,51.45s-90.7-5.62-95.72-21.43c-4.74-15-10.49-38,11.06-72S317.86,142.17,346,143.35Z"/><path class="cls-5" d="M336.26,143.11c3.11,0,6.34.09,9.73.24,0,0,62.68,9.32,38.4,76.74,0,0,20.09,33-20.93,51.45a78.5,78.5,0,0,1-32.31,6.65c-31.22,0-59.68-16.32-63.41-28.08-4.74-15-10.49-38,11.06-72,18.94-29.89,34.78-35,57.46-35m0-4.19h0c-24.37,0-41.31,5.89-61,37-23.63,37.28-15.44,63.1-11.51,75.51,4.55,14.33,35,31,67.4,31a82.36,82.36,0,0,0,34-7C379.49,268.94,388.5,260,392,248.91c4-12.89-.8-24.74-3-29.18,7.48-21.77,6.93-40.07-1.64-54.41-13-21.77-39.58-25.95-40.7-26.12l-.22,0h-.22c-3.94-.16-7.09-.24-9.91-.24Z"/><path class="cls-6" d="M259,224.8S240.83,207,248.64,180.65s41.75-44.16,55.49-31.54c0,0,1.23,19.39,9,25.65s-12.5,29.92-23.28,31S259,224.8,259,224.8Z"/><path class="cls-5" d="M258.94,227.67l-1.41-1.37c-.78-.76-19-19-10.9-46.24,5.44-18.39,22.66-32,36.84-35.91,9.09-2.52,16.93-1.3,22.08,3.42l.61.57.06.84c.33,5.14,2.45,19.5,8.24,24.15,1.74,1.39,3.48,4.15,1.92,9.36-2.89,9.69-17,24.41-26.31,25.31-8.27.79-24.22,13.67-29.67,18.56Zm33.32-80.62a29.13,29.13,0,0,0-7.67,1.13c-13.08,3.62-28.93,16.14-33.95,33.06-6.14,20.74,4.67,36,8.53,40.63,5.05-4.34,20.87-17.32,30.5-18.24,7.09-.68,20-13.42,22.7-22.34.72-2.39.54-4-.53-4.9-7.5-6-9.38-22.22-9.73-26.25A15.36,15.36,0,0,0,292.26,147.05Z"/><path class="cls-6" d="M283.51,210s-9.9-21.57-18.78-6.25,2.83,37.49,14,32.48"/><path class="cls-5" d="M275.44,239.05c-3.26,0-6.52-1.63-9.34-4.76-6.42-7.13-9.37-20.9-3.18-31.59,2.61-4.5,5.7-6.69,9.15-6.53,7.35.34,12.75,11.66,13.35,13l-3.81,1.75c-1.83-4-6.1-10.35-9.74-10.52-1.75-.07-3.57,1.41-5.32,4.45-5.17,8.92-2.64,20.8,2.66,26.69,1.61,1.79,4.88,4.53,8.69,2.82l1.71,3.83A10.16,10.16,0,0,1,275.44,239.05Z"/><path class="cls-7" d="M384.39,220.09C395,190.71,389,172.36,379,161c4.25,28.17-7.28,57.88-7.28,57.88,24.52,50.3-41.69,53.38-78.55,51.47,19.26,8.18,46.27,12,70.32,1.18C404.48,253.13,384.39,220.09,384.39,220.09Z"/><path class="cls-4" d="M314.82,289.37c-2,.17-3.92.35-5.78.53l-7.48,8.54V313.8l-22.15,46.14c3.09,18.72,9.59,29.25,9.59,29.25a213.71,213.71,0,0,1,20.64-34.11l4.49-38.49,13.57-15.4-5.1-12.3C320.08,289,317.5,289.13,314.82,289.37Z"/><path class="cls-5" d="M289.23,393.55l-2-3.26c-.27-.45-6.75-11.1-9.86-30l-.11-.65,22.23-46.31V297.65l8.54-9.76.83-.08,5.8-.53h0c2.61-.23,5.26-.39,7.88-.48l1.45-.05,6.17,14.84-14,15.89-4.48,38.39-.33.45a214.31,214.31,0,0,0-20.44,33.77Zm-7.64-33.3a95.67,95.67,0,0,0,7.36,24.3,219.65,219.65,0,0,1,18.67-30.26l4.5-38.59,13.15-14.92-4-9.74c-2.08.1-4.16.23-6.21.41h0l-4.95.45-6.41,7.33v15Z"/><path class="cls-6" d="M333.67,315.19,322.43,288.8l19.62-7.11s19.54,2.79,25.13,14C367.18,295.65,350.42,309.61,333.67,315.19Z"/><path class="cls-5" d="M332.5,317.79l-12.87-30.21,22.2-8,.51.07c.85.12,20.71,3.09,26.71,15.1l.74,1.49-1.27,1.06c-.7.58-17.25,14.28-34.19,19.92ZM325.22,290l9.61,22.56c12.86-4.76,25.53-14.21,29.63-17.43-5.38-8-19.39-10.81-22.21-11.3Z"/><path class="cls-6" d="M291.79,313.8l19.54-26.53-18.15-4.19-11,11.26S280.62,309.61,291.79,313.8Z"/><path class="cls-5" d="M292.54,316.32l-1.49-.56c-12.54-4.7-11-20.94-10.93-21.63l.07-.73,12.32-12.62,22.4,5.17Zm-8.3-21.07c-.1,2.65,0,12.22,6.87,15.94l16.65-22.59-13.9-3.21Z"/><rect class="cls-6" x="113.78" y="307.52" width="164.74" height="156.36" rx="8.17" ry="8.17"/><path class="cls-5" d="M267.12,307.52a11.39,11.39,0,0,1,11.4,11.4V452.48a11.39,11.39,0,0,1-11.4,11.4H125.18a11.4,11.4,0,0,1-11.4-11.4V318.92a11.4,11.4,0,0,1,11.4-11.4H267.12m0-4.19H125.18a15.6,15.6,0,0,0-15.58,15.59V452.48a15.6,15.6,0,0,0,15.58,15.59H267.12a15.6,15.6,0,0,0,15.59-15.59V318.92a15.6,15.6,0,0,0-15.59-15.59Z"/><path class="cls-6" d="M191.27,313.8c-9.17,3.66-37.7,1.39-34.91-15.36s39.1-19.54,46.08-7c0,0,23.73,8.38,15.35,15.36s-18.15,0-18.15,0S198.25,311,191.27,313.8Z"/><path class="cls-5" d="M181.1,317.4c-7.57,0-16.36-1.81-21.73-6.13a13.32,13.32,0,0,1-5.07-13.17c1.32-7.91,9.14-13.84,20.92-15.88,10.77-1.86,23.83.16,28.63,7.52,4,1.48,16.61,6.6,17.74,12.9.27,1.48.06,3.69-2.46,5.79-6.51,5.42-14.24,3.64-18.73,1.29a18.51,18.51,0,0,1-8.36,6h0A31,31,0,0,1,181.1,317.4Zm2-31.67a41.94,41.94,0,0,0-7.14.62c-7.69,1.32-16.32,5.29-17.51,12.44A9.11,9.11,0,0,0,162,308c7.43,6,22.93,6.07,28.49,3.84,5.82-2.32,7.16-5.66,7.17-5.69l.89-2.69,2.31,1.64c.34.25,8.59,5.94,15.59.1,1.17-1,1.06-1.59,1-1.83-.58-3.2-9.73-7.83-15.73-9.94l-.75-.27-.38-.69C198.26,288.26,191.29,285.73,183.08,285.73Z"/><rect class="cls-6" x="127.74" y="350.8" width="19.55" height="100.52" rx="3.5" ry="3.5"/><path class="cls-5" d="M142.4,350.8a4.88,4.88,0,0,1,4.89,4.88v90.75a4.89,4.89,0,0,1-4.89,4.89h-9.77a4.89,4.89,0,0,1-4.89-4.89V355.68a4.88,4.88,0,0,1,4.89-4.88h9.77m0-4.19h-9.77a9.08,9.08,0,0,0-9.07,9.07v90.75a9.08,9.08,0,0,0,9.07,9.07h9.77a9.08,9.08,0,0,0,9.08-9.07V355.68a9.08,9.08,0,0,0-9.08-9.07Z"/><rect class="cls-4" x="164.51" y="381.51" width="19.55" height="69.81" rx="3.46" ry="3.46"/><path class="cls-5" d="M179.23,381.51a4.82,4.82,0,0,1,4.82,4.83v60.15a4.83,4.83,0,0,1-4.82,4.83h-9.89a4.83,4.83,0,0,1-4.83-4.83V386.34a4.83,4.83,0,0,1,4.83-4.83h9.89m0-4.19h-9.89a9,9,0,0,0-9,9v60.15a9,9,0,0,0,9,9h9.89a9,9,0,0,0,9-9V386.34a9,9,0,0,0-9-9Z"/><rect class="cls-6" x="201.27" y="401.06" width="19.55" height="50.26" rx="3.79" ry="3.79"/><path class="cls-5" d="M215.53,401.06a5.29,5.29,0,0,1,5.29,5.29V446a5.29,5.29,0,0,1-5.29,5.3h-9a5.3,5.3,0,0,1-5.3-5.3V406.35a5.29,5.29,0,0,1,5.3-5.29h9m0-4.19h-9a9.5,9.5,0,0,0-9.49,9.48V446a9.5,9.5,0,0,0,9.49,9.48h9A9.49,9.49,0,0,0,225,446V406.35a9.49,9.49,0,0,0-9.48-9.48Z"/><rect class="cls-4" x="238.04" y="392.68" width="19.55" height="58.64" rx="4.13" ry="4.13"/><path class="cls-5" d="M251.82,392.68a5.76,5.76,0,0,1,5.76,5.76v47.12a5.76,5.76,0,0,1-5.76,5.76h-8a5.76,5.76,0,0,1-5.76-5.76V398.44a5.76,5.76,0,0,1,5.76-5.76h8m0-4.19h-8a10,10,0,0,0-10,9.95v47.12a10,10,0,0,0,10,9.94h8a10,10,0,0,0,9.95-9.94V398.44a10,10,0,0,0-9.95-9.95Z"/><path class="cls-6" d="M305.75,415.71s-26.53-15.35-37.7-8.37,2.8,12.56,2.8,12.56-37.7,0-33.51,7,14,8.38,14,8.38-4.19,15.36,14,16.75,40.49-9.77,40.49-9.77Z"/><path class="cls-5" d="M275.57,405.52c12.57,0,30.18,10.19,30.18,10.19v26.53s-19.79,9.89-37.25,9.89c-1.09,0-2.17,0-3.24-.12-18.15-1.39-14-16.75-14-16.75s-9.77-1.4-14-8.38,33.51-7,33.51-7-14-5.58-2.8-12.56a14.13,14.13,0,0,1,7.52-1.82m0-4.19a18.15,18.15,0,0,0-9.74,2.46c-4.48,2.8-6.59,6.1-6.26,9.79a8.16,8.16,0,0,0,.6,2.44c-1.71.09-3.53.2-5.37.35-16.08,1.28-19.7,3.93-21.21,6.6a5.89,5.89,0,0,0,.16,6.07c3.28,5.46,9.05,8.14,12.94,9.39a17.14,17.14,0,0,0,2.93,10.34c3.09,4.38,8.24,6.88,15.32,7.42,1.15.09,2.35.13,3.56.13,18.24,0,38.28-9.91,39.12-10.33l2.32-1.16V413.3l-2.09-1.21c-.76-.44-18.74-10.76-32.28-10.76Z"/><path class="cls-8" d="M268.52,496.26c49.41,3.74,119.31-5.94,137.05-12.83,20.29-7.89,15.58-49.81,9.69-75.66-3,23.15-8.91,48.35-20.86,60.3C377.87,484.6,311.8,492.67,268.52,496.26Z"/><path class="cls-4" d="M694.53,386.64c-13.92-31.41-46-32.67-56.33-31.19-20.42-7.2-21.82-8.6-41.74-11.39l-12.19-4.19-15,5.59s-21.44,2-36.7,10.29c-9.81-2.32-44.3,3.68-57.92,32.29-14,29.32-40.53,85.57-25.13,106.1,5,6.7,19.4,10.27,34.86,12.15-.42,6-.66,9.49-.66,9.49h201s-.24-3.64-.67-9.76c14.64-1.94,28-5.49,32.75-11.88C732.27,473.61,707.69,416.33,694.53,386.64Z"/><path class="cls-5" d="M584.27,339.87l12.19,4.19c19.92,2.79,21.32,4.19,41.74,11.39a43.47,43.47,0,0,1,6.12-.39c13.58,0,38.42,5,50.21,31.58,13.16,29.69,37.74,87,22.34,107.5-4.79,6.39-18.11,9.94-32.75,11.88.43,6.12.67,9.76.67,9.76h-201s.24-3.53.66-9.49c-15.46-1.88-29.84-5.45-34.86-12.15-15.4-20.53,11.17-76.78,25.13-106.1,11.91-25,39.78-32.74,53.15-32.74a21.48,21.48,0,0,1,4.77.45c15.26-8.34,36.7-10.29,36.7-10.29l15-5.59m0-4.45-1.41.53-14.47,5.39c-3.54.38-22,2.61-36.42,10a29.83,29.83,0,0,0-4.09-.26c-16.16,0-44.66,9.35-56.93,35.13-14.59,30.64-41.75,87.68-24.7,110.42C451,503,462,507.37,480,509.93c-.25,3.56-.39,5.57-.39,5.57l-.29,4.47h210l-.3-4.47s-.14-2.13-.4-5.89c16.69-2.59,27.07-6.84,31.65-12.95,15.32-20.43-2.45-67.94-21.86-111.71-14-31.62-44.91-34.08-54-34.08a52.18,52.18,0,0,0-5.66.3c-3-1.07-5.61-2-7.9-2.83-12.4-4.49-16.64-6-33.32-8.37l-11.8-4.06-1.42-.49Z"/><path class="cls-4" d="M367.88,308.21c-30.81,10.27-2.8,60-7,76.79-3.07,12.27-27.93,26.53-71.21,19.55V452s57.24,7,96.34-15.35,32.11-61.43,23.73-90.75S388.82,301.23,367.88,308.21Z"/><path class="cls-5" d="M377.36,306.54c15.4,0,25.37,14.77,32.4,39.37,8.38,29.32,15.36,68.41-23.73,90.75-24.06,13.74-55,16.39-75.22,16.39a191.63,191.63,0,0,1-21.12-1V404.55a137.89,137.89,0,0,0,21.84,1.84c29.79,0,46.86-11.36,49.37-21.39,4.18-16.75-23.83-66.52,7-76.79a30.11,30.11,0,0,1,9.48-1.67m0-4.18a34.33,34.33,0,0,0-10.81,1.88c-24.24,8.08-17.66,36.29-12.85,56.89,2.1,9,4.27,18.3,3.13,22.85-1.89,7.57-17.19,18.22-45.3,18.22a133.25,133.25,0,0,1-21.17-1.79l-4.85-.78v56.09l3.68.45a195.37,195.37,0,0,0,21.62,1.07c21.73,0,52.79-2.94,77.29-16.95,18.5-10.57,29.18-26,31.75-45.85,2.24-17.39-2.06-35.68-6.06-49.68-8.16-28.53-20.07-42.4-36.43-42.4Z"/><path class="cls-8" d="M363,399c8.91-26.74.26-64-5.52-83.42-12.51,17.54,7,55.3,3.43,69.46-3.07,12.27-27.93,26.53-71.21,19.55v19.83C309.84,426.55,353.41,427.71,363,399Z"/><ellipse class="cls-5" cx="325.99" cy="214.67" rx="7.68" ry="4.19" transform="translate(37.36 477.44) rotate(-75.68)"/><ellipse class="cls-5" cx="372.06" cy="220.26" rx="7.68" ry="4.19" transform="translate(66.63 526.29) rotate(-75.68)"/><path class="cls-5" d="M317.62,263.54a2.1,2.1,0,0,1-2.1-2.1,7,7,0,0,0-2.12-5.56c-2.92-2.62-8.07-2.13-8.12-2.13a2.09,2.09,0,1,1-.46-4.16c.29,0,7-.73,11.38,3.16a11.13,11.13,0,0,1,3.51,8.69A2.1,2.1,0,0,1,317.62,263.54Z"/><path class="cls-5" d="M322.9,193.26a44.25,44.25,0,0,1-4.85-.24,2.1,2.1,0,0,1,.52-4.16c.11,0,10.75,1.27,19.86-2.64a2.09,2.09,0,1,1,1.65,3.85A44.65,44.65,0,0,1,322.9,193.26Z"/><path class="cls-5" d="M382.53,200a2.11,2.11,0,0,1-2-1.55c-1.23-4.54-3.2-7.44-5.82-8.62a8.61,8.61,0,0,0-6.58.17,2.1,2.1,0,1,1-1.87-3.75A12.82,12.82,0,0,1,376.4,186c3.83,1.71,6.57,5.53,8.16,11.34a2.1,2.1,0,0,1-1.47,2.57A2.16,2.16,0,0,1,382.53,200Z"/><path class="cls-6" d="M561.94,319.16v33.07s15.43,15.43,41.88,2.2V319.16Z"/><path class="cls-5" d="M583.24,361.84c-14.42,0-22.67-8-22.78-8.13l-.62-.62v-36h46.07v38.66l-1.15.58C596.57,360.4,589.35,361.84,583.24,361.84ZM564,351.3c3,2.51,16.24,12,37.7,1.82V321.26H564Z"/><path class="cls-6" d="M623.85,269.53s11.24-22,19.81-5.69-4.57,38.89-16,33.19"/><path class="cls-5" d="M631.41,300a10.41,10.41,0,0,1-4.69-1.13l1.87-3.75c3.94,2,7.49-.77,9.27-2.58,5.79-5.91,8.95-18.21,3.94-27.75-1.71-3.26-3.53-4.91-5.41-4.91h0c-4.3,0-9.26,7.84-10.66,10.57l-3.73-1.9c.67-1.31,6.76-12.82,14.37-12.86h0c3.56,0,6.63,2.41,9.12,7.15,6,11.36,2.31,25.52-4.66,32.63C637.92,298.49,634.64,300,631.41,300Z"/><path class="cls-6" d="M592.92,339.44c22.11-1.17,40.87-3.41,39.16-34.06s5.11-64.71,3.41-73.22,3.41-34.06-57.9-34.06-52.78,64.71-51.08,73.22S528.21,342.84,592.92,339.44Z"/><path class="cls-5" d="M577.59,198.1c61.31,0,56.2,25.54,57.9,34.06s-5.11,42.57-3.41,73.22S615,338.27,592.92,339.44c-1.7.09-3.35.13-5,.13-59.73,0-59.78-60-61.44-68.25-1.7-8.51-10.22-73.22,51.08-73.22m0-4.19c-19.14,0-33.78,6-43.51,17.89-18.87,23-12,58.83-11.68,60.34.13.65.28,2,.46,3.56.89,8.07,2.76,24.85,11.51,39.73,11,18.8,29.07,28.33,53.58,28.33,1.69,0,3.44-.05,5.19-.14,14.89-.79,27.87-2.16,35.91-11.12,5.54-6.17,7.9-15.12,7.22-27.35-1-17.36.82-35.59,2.27-50.24,1.1-11.24,1.9-19.36,1.06-23.57-.15-.71-.24-1.73-.35-2.9-.5-5.45-1.35-14.59-10.06-22.07-9.76-8.38-26.63-12.46-51.6-12.46Z"/><path class="cls-7" d="M592.92,339.44c22.11-1.17,40.87-3.41,39.16-34.06s5.11-64.71,3.41-73.22c-1.27-6.33,1.22-22.07-22.6-29.73,0,0,19.55,89.28,0,113-9,10.93-31,16.23-52.14,18.77C569.14,338,579.67,340.13,592.92,339.44Z"/><path class="cls-4" d="M634.85,226.54s30.4-29.32,30.4-41.61-107.1-12.29-129.92-7S493.19,174.4,502,218.29s13.32,75.63,24.76,78.2l-.14-37.82s12.69-21.07,18-35.11C544.55,223.56,613.23,217.24,634.85,226.54Z"/><path class="cls-5" d="M590.14,174.57c36,0,75.11,2.94,75.11,10.36,0,12.29-30.4,41.61-30.4,41.61-9.17-3.94-26.79-5.08-44.05-5.08-23.46,0-46.25,2.1-46.25,2.1-5.27,14-18,35.11-18,35.11l.14,37.82c-11.44-2.57-16-34.31-24.76-78.2s10.54-35.11,33.36-40.38c9-2.08,31.25-3.34,54.81-3.34m0-4.19v0c-24.78,0-46.67,1.35-55.75,3.45a108,108,0,0,1-12.38,1.9c-8.92,1-17.34,2-22.31,8.79-4.75,6.51-5.32,17.18-1.84,34.59,1.14,5.7,2.21,11.19,3.23,16.43,7.54,38.79,12.1,62.2,24.72,65l5.12,1.15,0-5.25-.12-36.65c2.46-4.16,11.66-19.94,16.71-32.31,6.58-.53,24.83-1.86,43.3-1.86,25.93,0,37.37,2.58,42.39,4.74l2.56,1.1,2-1.93c5.29-5.11,31.68-31.24,31.68-44.63,0-6.4-7.79-9.8-27.76-12.12-13.43-1.57-31.74-2.43-51.54-2.43Z"/><path class="cls-4" d="M614.74,299.05s10.53,15.8,8.77,19.31c-.61,1.24-33.3,1.09-46.76,1.56a1.86,1.86,0,0,1-1.17-3.35l16.33-12.25Z"/><path class="cls-5" d="M614.74,299.05s10.53,15.8,8.77,19.31c-.61,1.24-33.3,1.09-46.76,1.56h-.07a1.86,1.86,0,0,1-1.1-3.35l16.33-12.25,22.83-5.27m1.87-4.73-2.82.65L591,300.24l-.86.2-.71.53-16.34,12.25a6.05,6.05,0,0,0,3.62,10.89h.21c4.31-.15,10.61-.23,17.27-.32,7-.09,14.24-.19,19.84-.37,9.6-.31,11.92-.49,13.26-3.17.78-1.56,2.84-5.69-9-23.51l-1.61-2.41Z"/><path class="cls-6" d="M598.93,271c10.54,7,35.12,21.07,35.12,28.09s-52.67,7-52.67,7"/><path class="cls-5" d="M581.38,308.17V304c22.38,0,47.85-2,50.56-5.12-.49-4.73-18.55-16.19-27.28-21.73-2.61-1.65-5-3.15-6.89-4.43l2.33-3.48c1.88,1.26,4.23,2.74,6.8,4.37,16.57,10.51,29.24,19.06,29.24,25.46,0,3.07-2.18,6.5-28.29,8.24C594.77,308.16,581.51,308.17,581.38,308.17Z"/><path class="cls-5" d="M573.41,331.78c-2.9,0-8-.49-11.13-3.67-2-2.11-2.82-5-2.32-8.55a1.4,1.4,0,0,1,2.77.4c-.39,2.7.12,4.73,1.55,6.2,3.41,3.53,10.88,2.75,11,2.75a1.39,1.39,0,1,1,.31,2.77A21.27,21.27,0,0,1,573.41,331.78Z"/><path class="cls-5" d="M558.71,252.17A1.35,1.35,0,0,1,558,252a1.4,1.4,0,0,1-.55-1.9c2.6-4.67,6.17-7.64,10.64-8.83,8.57-2.3,17.27,2.83,17.64,3.05a1.4,1.4,0,1,1-1.44,2.39c-.08,0-8.06-4.74-15.49-2.74-3.7,1-6.7,3.51-8.91,7.49A1.39,1.39,0,0,1,558.71,252.17Z"/><path class="cls-5" d="M612.94,249.53a1.39,1.39,0,0,1-1.16-2.17c3.48-5.23,7.3-7.8,11.19-7.63,6.27.25,10.33,7.42,10.5,7.73a1.4,1.4,0,1,1-2.44,1.36c0-.06-3.48-6.12-8.19-6.31-2.84-.1-5.84,2-8.74,6.4A1.37,1.37,0,0,1,612.94,249.53Z"/><path class="cls-8" d="M502,218.29c-8.78-43.89,10.54-35.11,33.36-40.38s129.92-5.27,129.92,7a15.19,15.19,0,0,1-1.59,5.94l-125.3,2.41A21.73,21.73,0,0,0,517.08,216L520.36,285C513.7,271.6,507.85,247.68,502,218.29Z"/><path class="cls-6" d="M534.72,269.53s-11.24-22-19.81-5.69,4.56,38.89,16,33.19"/><path class="cls-5" d="M527.15,300c-3.23,0-6.51-1.54-9.43-4.53-7-7.11-10.62-21.27-4.66-32.63,2.49-4.74,5.55-7.15,9.11-7.15h.05c7.6,0,13.7,11.55,14.37,12.86l-3.73,1.9c-1.41-2.73-6.37-10.55-10.67-10.57h0c-1.89,0-3.71,1.65-5.42,4.91-5,9.54-1.85,21.84,4,27.75,1.77,1.81,5.33,4.55,9.27,2.58l1.87,3.75A10.42,10.42,0,0,1,527.15,300Z"/><path class="cls-5" d="M573.11,273.56c-5.72,0-8.4-4.69-9-7.17a2.09,2.09,0,0,1,4.06-1c.11.41,1.18,4,5,4s4.84-3.6,4.95-4a2.09,2.09,0,0,1,4.06,1C581.5,268.87,578.82,273.56,573.11,273.56Z"/><path class="cls-5" d="M620.57,273.56c-5.71,0-8.39-4.69-9-7.17a2.09,2.09,0,0,1,4.06-1c.11.41,1.18,4,5,4s4.85-3.6,5-4a2.09,2.09,0,0,1,4.06,1C629,268.87,626.28,273.56,620.57,273.56Z"/><path class="cls-8" d="M673.63,461.34c1.79-12.54-22.27-45.18-39.75-67,7.94,20.44,26.24,43,28.54,53.7,4.19,19.55-32.11,11.17-32.11,11.17l.51,8.92C645.67,471.49,671.64,475.23,673.63,461.34Z"/><path class="cls-6" d="M722.49,201.19V320.56l-23.67,25.25a9.33,9.33,0,0,0,6.81,15.7h16.86v9.54a12.1,12.1,0,0,0,12.1,12.1h135a12.1,12.1,0,0,0,12.1-12.1V201.19a12.1,12.1,0,0,0-12.1-12.1h-135A12.1,12.1,0,0,0,722.49,201.19Z"/><path class="cls-5" d="M869.55,385.25h-135a14.21,14.21,0,0,1-14.19-14.2v-7.44H705.63a11.42,11.42,0,0,1-8.33-19.24l23.1-24.64V201.19A14.21,14.21,0,0,1,734.59,187h135a14.21,14.21,0,0,1,14.19,14.19V371.05A14.21,14.21,0,0,1,869.55,385.25Zm-135-194.06a10,10,0,0,0-10,10v120.2l-24.23,25.85a7.23,7.23,0,0,0,5.28,12.18h19v11.63a10,10,0,0,0,10,10h135a10,10,0,0,0,10-10V201.19a10,10,0,0,0-10-10Z"/><rect class="cls-4" x="740.64" y="247.73" width="19.55" height="115.88" rx="3.88" ry="3.88"/><path class="cls-5" d="M754.77,247.73a5.41,5.41,0,0,1,5.41,5.41V358.2a5.41,5.41,0,0,1-5.41,5.41h-8.72a5.41,5.41,0,0,1-5.41-5.41V253.14a5.41,5.41,0,0,1,5.41-5.41h8.72m0-4.19h-8.72a9.62,9.62,0,0,0-9.6,9.6V358.2a9.62,9.62,0,0,0,9.6,9.6h8.72a9.61,9.61,0,0,0,9.6-9.6V253.14a9.61,9.61,0,0,0-9.6-9.6Z"/><rect class="cls-6" x="775.54" y="314.74" width="19.55" height="48.86" rx="4.5" ry="4.5"/><path class="cls-5" d="M788.8,314.74a6.29,6.29,0,0,1,6.29,6.29v36.29a6.29,6.29,0,0,1-6.29,6.29h-7a6.29,6.29,0,0,1-6.28-6.29V321a6.29,6.29,0,0,1,6.28-6.29h7m0-4.19h-7A10.49,10.49,0,0,0,771.35,321v36.29a10.49,10.49,0,0,0,10.47,10.48h7a10.49,10.49,0,0,0,10.48-10.48V321a10.49,10.49,0,0,0-10.48-10.48Z"/><polygon class="cls-4" points="829.99 363.61 810.45 363.61 810.45 363.61 829.99 363.61 829.99 363.61"/><path class="cls-5" d="M830,363.61h0m0-4.19H810.44v8.38H830v-8.38Z"/><polygon class="cls-4" points="864.89 363.61 845.35 363.61 845.35 363.61 864.89 363.61 864.89 363.61"/><path class="cls-5" d="M864.89,363.61h0m0-4.19H845.35v8.38h19.54v-8.38Z"/><circle class="cls-6" cx="804.86" cy="191.89" r="29.32"/><path class="cls-5" d="M804.86,223.3a31.42,31.42,0,1,1,31.41-31.41A31.44,31.44,0,0,1,804.86,223.3Zm0-58.64a27.23,27.23,0,1,0,27.22,27.23A27.25,27.25,0,0,0,804.86,164.66Z"/><text class="cls-9" transform="translate(781.94 198.32)"><tspan class="cls-10">L</tspan><tspan x="9" y="0">OGO</tspan></text><path class="cls-5" d="M554.9,470.17c-17.53,0-32.71-2.06-40.93-7.82-26-18.16-43.84,5.49-44.59,6.51a2.09,2.09,0,0,1-3.37-2.48c.21-.29,21.1-27.94,50.36-7.46,26.15,18.31,133.73-4.4,140.43-5.84,3-1.71,24.84-13.2,41.4,4.74a2.09,2.09,0,0,1-3.08,2.84c-15.4-16.68-36.23-4-36.44-3.83l-.31.19-.35.08C654.68,457.83,597.77,470.17,554.9,470.17Z"/><g class="cls-11"><rect class="cls-4" x="4.19" y="481.65" width="853.03" height="43.5"/><path class="cls-5" d="M857.21,481.65v43.5H4.19v-43.5h853m4.19-4.58H0v52.66H861.4V477.07Z"/><rect class="cls-4" x="4.19" y="525.92" width="853.03" height="92.34"/><path class="cls-5" d="M857.21,525.92v92.34H4.19V525.92h853m4.19-4.58H0v101.5H861.4V521.34Z"/><rect class="cls-7" x="497.71" y="473.26" width="174.51" height="22.39" rx="7.33" ry="7.33"/><path class="cls-5" d="M662,473.26c5.66,0,10.24,5,10.24,11.19s-4.58,11.19-10.24,11.19H508c-5.65,0-10.24-5-10.24-11.19s4.59-11.19,10.24-11.19H662m0-4.58H508c-7.95,0-14.42,7.07-14.42,15.77S500,500.22,508,500.22H662c8,0,14.43-7.07,14.43-15.77S670,468.68,662,468.68Z"/><rect class="cls-6" x="497.71" y="349.62" width="174.51" height="132.79" rx="7.33" ry="7.33"/><path class="cls-5" d="M662,349.62c5.66,0,10.24,5,10.24,11.2v110.4c0,6.18-4.58,11.2-10.24,11.2H508c-5.65,0-10.24-5-10.24-11.2V360.82c0-6.18,4.59-11.2,10.24-11.2H662m0-4.58H508c-7.95,0-14.42,7.08-14.42,15.78v110.4c0,8.7,6.47,15.77,14.42,15.77H662c8,0,14.43-7.07,14.43-15.77V360.82c0-8.7-6.47-15.78-14.43-15.78Z"/><path class="cls-7" d="M672.23,471.22V360.82c0-6.18-4.58-11.2-10.24-11.2h-12.8v96.93c0,10.95-8.12,19.84-18.15,19.84H497.71v4.83c0,6.18,4.59,11.2,10.24,11.2H662C667.65,482.42,672.23,477.4,672.23,471.22Z"/><ellipse class="cls-6" cx="584.97" cy="417.55" rx="18.85" ry="20.61"/><path class="cls-5" d="M585,396.94c10.41,0,18.85,9.23,18.85,20.61s-8.44,20.6-18.85,20.6-18.85-9.22-18.85-20.6,8.44-20.61,18.85-20.61m0-4.58c-12.7,0-23,11.3-23,25.19s10.33,25.18,23,25.18,23-11.3,23-25.18-10.34-25.19-23-25.19Z"/></g><path class="cls-5" d="M828.2,344h-1.79l-.26-.68a4.21,4.21,0,0,0-3.92-2.72h-4a4.15,4.15,0,0,0-2.39.75,4.28,4.28,0,0,0-1.54,2L814,344h-1.8a.4.4,0,0,0-.37.52l.26.79a.41.41,0,0,0,.38.27h.94a2.1,2.1,0,0,0-1.08,1.83V349a2.06,2.06,0,0,0,.53,1.38v2a.79.79,0,0,0,.78.79h1.57a.79.79,0,0,0,.79-.79V351h8.38v1.31a.79.79,0,0,0,.78.79h1.57a.79.79,0,0,0,.79-.79v-2a2.1,2.1,0,0,0,.52-1.38v-1.57a2.09,2.09,0,0,0-1.07-1.83h.94a.39.39,0,0,0,.37-.27l.26-.79A.39.39,0,0,0,828.2,344Zm-12,0a2.09,2.09,0,0,1,2-1.35h4a2.1,2.1,0,0,1,2,1.35l.47,1.26h-8.89Zm-1.53,5.19a1,1,0,1,1,0-2.09,2.16,2.16,0,0,1,1.57,1.57C816.29,349.26,815.3,349.21,814.72,349.21Zm11,0c-.57,0-1.57.05-1.57-.52a2.17,2.17,0,0,1,1.57-1.57,1,1,0,1,1,0,2.09Z"/><path class="cls-5" d="M218.1,382.82h-1.79l-.26-.69a4.18,4.18,0,0,0-3.92-2.71h-4a4.18,4.18,0,0,0-3.92,2.71l-.25.69h-1.8a.39.39,0,0,0-.37.52l.26.78a.39.39,0,0,0,.37.27h.94a2.1,2.1,0,0,0-1.07,1.83v1.57a2.09,2.09,0,0,0,.53,1.39v2a.78.78,0,0,0,.78.78h1.57a.78.78,0,0,0,.79-.78v-1.31h8.37v1.31a.79.79,0,0,0,.79.78h1.57a.78.78,0,0,0,.78-.78v-2a2.09,2.09,0,0,0,.53-1.39v-1.57a2.1,2.1,0,0,0-1.07-1.83h.94a.39.39,0,0,0,.37-.27l.26-.78A.39.39,0,0,0,218.1,382.82Zm-12,.05a2.12,2.12,0,0,1,2-1.36h4a2.12,2.12,0,0,1,2,1.36l.47,1.26h-8.89Zm-1.52,5.18a1,1,0,1,1,0-2.09,2.16,2.16,0,0,1,1.57,1.57C206.19,388.11,205.2,388.05,204.62,388.05Zm11,0c-.58,0-1.57.06-1.57-.52a2.16,2.16,0,0,1,1.57-1.57,1,1,0,1,1,0,2.09Z"/><rect class="cls-5" x="739.99" y="217.02" width="20.14" height="20.14" rx="3.9" ry="3.9"/><path class="cls-6" d="M748.15,228.11l3.15.9a.55.55,0,0,1,.39.52.53.53,0,0,1-.53.53h-2.07a1.58,1.58,0,0,1-.65-.14.79.79,0,0,0-.89.12l-1.11,1.11a.76.76,0,0,0,.1,1.16,4.47,4.47,0,0,0,2,.72v1.12a1,1,0,0,0,1,1h1a1,1,0,0,0,1-1V233a3.55,3.55,0,0,0,3.12-4,3.73,3.73,0,0,0-2.71-3l-3.16-.9a.53.53,0,0,1,.15-1H751a1.58,1.58,0,0,1,.65.14.77.77,0,0,0,.89-.13l1.1-1.1a.75.75,0,0,0-.09-1.16,4.6,4.6,0,0,0-2-.73V220a1,1,0,0,0-1-1h-1a1,1,0,0,0-1,1v1.11a3.54,3.54,0,0,0-3.11,4A3.7,3.7,0,0,0,748.15,228.11Z"/><rect class="cls-5" x="127.1" y="321.48" width="20.14" height="20.14" rx="3.9" ry="3.9"/><path class="cls-6" d="M135.25,332.57l3.16.91a.52.52,0,0,1,.38.51.53.53,0,0,1-.53.53h-2.07a1.65,1.65,0,0,1-.65-.14.77.77,0,0,0-.89.13l-1.1,1.1a.75.75,0,0,0,.09,1.16,4.65,4.65,0,0,0,2,.73v1.11a1,1,0,0,0,1,1h1a1,1,0,0,0,1-1V337.5a3.54,3.54,0,0,0,3.11-4,3.69,3.69,0,0,0-2.71-3l-3.15-.91a.53.53,0,0,1-.39-.51.53.53,0,0,1,.53-.53h2.07a1.58,1.58,0,0,1,.65.14.78.78,0,0,0,.89-.12l1.11-1.11a.76.76,0,0,0-.1-1.16,4.61,4.61,0,0,0-2-.73v-1.11a1,1,0,0,0-1-1h-1a1,1,0,0,0-1,1v1.11a3.54,3.54,0,0,0-3.11,4A3.68,3.68,0,0,0,135.25,332.57Z"/><rect class="cls-5" x="775.07" y="285.42" width="20.14" height="20.14" rx="3.9" ry="3.9"/><path class="cls-6" d="M782.73,292.78a1.86,1.86,0,1,0-2.63,0A1.85,1.85,0,0,0,782.73,292.78Zm7.45,4.82a1.86,1.86,0,1,0,0,2.63A1.85,1.85,0,0,0,790.18,297.6Zm-.06-6.74-.65-.65a.92.92,0,0,0-1.32,0l-8,8a.92.92,0,0,0,0,1.32l.65.66a.94.94,0,0,0,1.32,0l8-8A.92.92,0,0,0,790.12,290.86Z"/><rect class="cls-5" x="163.57" y="353.59" width="20.14" height="20.14" rx="3.9" ry="3.9"/><path class="cls-6" d="M171.23,361a1.86,1.86,0,1,0-2.63,0A1.86,1.86,0,0,0,171.23,361Zm7.45,4.81a1.86,1.86,0,1,0,0,2.63A1.85,1.85,0,0,0,178.68,365.76Zm-.05-6.73-.66-.66a.94.94,0,0,0-1.32,0l-8,8a.92.92,0,0,0,0,1.32l.66.66a.93.93,0,0,0,1.31,0l8-8A.93.93,0,0,0,178.63,359Z"/><path class="cls-5" d="M856,348h-.5v-2.73a.25.25,0,0,0-.25-.25h-.42a.74.74,0,0,0-.41.13l-.48.31a.26.26,0,0,0-.07.35h0l.28.41a.24.24,0,0,0,.34.07h0V348H854a.25.25,0,0,0-.25.25v.49a.25.25,0,0,0,.25.25h2a.25.25,0,0,0,.24-.25v-.49A.25.25,0,0,0,856,348ZM863.9,341H846.05a1,1,0,0,0-1,1v9.92a1,1,0,0,0,1,1H863.9a1,1,0,0,0,1-1V342A1,1,0,0,0,863.9,341Zm-17.36,10.42v-2a2,2,0,0,1,2,2Zm0-6.94v-2h2A2,2,0,0,1,846.54,344.48Zm8.43,5.95a3.52,3.52,0,1,1,3-3.47A3.25,3.25,0,0,1,855,350.43Zm8.44,1h-2a2,2,0,0,1,2-2Zm0-6.94a2,2,0,0,1-2-2h2Z"/><path class="cls-5" d="M248.66,378.42h-.5v-2.73a.25.25,0,0,0-.25-.25h-.42a.67.67,0,0,0-.41.13l-.48.31a.26.26,0,0,0-.07.35h0l.28.41a.25.25,0,0,0,.34.07h0v1.72h-.5a.25.25,0,0,0-.25.24v.5a.25.25,0,0,0,.25.25h2a.25.25,0,0,0,.24-.25v-.5a.24.24,0,0,0-.24-.24Zm7.93-6.95H238.74a1,1,0,0,0-1,1v9.92a1,1,0,0,0,1,1h17.85a1,1,0,0,0,1-1v-9.92A1,1,0,0,0,256.59,371.47Zm-17.36,10.42v-2a2,2,0,0,1,2,2Zm0-6.95v-2h2A2,2,0,0,1,239.23,374.94Zm8.43,6a3.52,3.52,0,1,1,3-3.48A3.26,3.26,0,0,1,247.66,380.9Zm8.44,1h-2a2,2,0,0,1,2-2Zm0-6.95a2,2,0,0,1-2-2h2Z"/></g></g></svg>