<svg xmlns="http://www.w3.org/2000/svg" viewBox="0 0 26 26"><defs><style>.cls-1{fill:#fff;}</style></defs><title>Recurso 30</title><g id="Capa_2" data-name="Capa 2"><g id="Capa_1-2" data-name="Capa 1"><path class="cls-1" d="M17.93,13l7.39-7.39a2.32,2.32,0,0,0,0-3.29L23.68.68a2.32,2.32,0,0,0-3.29,0L13,8.07,5.61.68a2.32,2.32,0,0,0-3.29,0L.68,2.32a2.32,2.32,0,0,0,0,3.29L8.07,13,.68,20.39a2.32,2.32,0,0,0,0,3.29l1.64,1.64a2.32,2.32,0,0,0,3.29,0L13,17.93l7.39,7.39a2.32,2.32,0,0,0,3.29,0l1.64-1.64a2.32,2.32,0,0,0,0-3.29Z"/></g></g></svg>