<svg xmlns="http://www.w3.org/2000/svg" viewBox="0 0 812.49 624.69"><defs><style>.cls-1{fill:#f4f4f4;}.cls-2{fill:#fff;}.cls-3{fill:#7177bf;}.cls-4{fill:#dbdbf1;}.cls-5{fill:#f5f6f7;}.cls-6{fill:#ededf7;}</style></defs><title>Recurso 21</title><g id="Capa_2" data-name="Capa 2"><g id="Capa_1-2" data-name="Capa 1"><path class="cls-1" d="M457.33,618.56C275.44,645.19,160,584.93,40.39,440.15S90.49,109.64,240.78,62.84,446-43.92,610.86,48.21,821,201.77,811.25,334.85,567.23,602.48,457.33,618.56Z"/><rect class="cls-2" x="162.22" y="79.66" width="345.13" height="90.67" rx="13" ry="13"/><path class="cls-3" d="M488.34,79.66a19,19,0,0,1,19,19v52.65a19,19,0,0,1-19,19H181.23a19,19,0,0,1-19-19V98.67a19,19,0,0,1,19-19H488.34m0-4.39H181.23a23.42,23.42,0,0,0-23.39,23.4v52.65a23.41,23.41,0,0,0,23.39,23.39H488.34a23.42,23.42,0,0,0,23.4-23.39V98.67a23.42,23.42,0,0,0-23.4-23.4Z"/><path class="cls-4" d="M317.3,125.42,320,130.8a.75.75,0,0,0,.58.42l5.93.87a.77.77,0,0,1,.43,1.32l-4.29,4.18a.77.77,0,0,0-.22.69l1,5.91a.78.78,0,0,1-1.12.82l-5.31-2.8a.83.83,0,0,0-.72,0l-5.31,2.8a.78.78,0,0,1-1.12-.82l1-5.91a.8.8,0,0,0-.22-.69l-4.3-4.18a.77.77,0,0,1,.43-1.32l5.94-.87a.75.75,0,0,0,.58-.42l2.65-5.38A.78.78,0,0,1,317.3,125.42Z"/><path class="cls-3" d="M316.61,125a.78.78,0,0,1,.69.43L320,130.8a.75.75,0,0,0,.58.42l5.93.87a.77.77,0,0,1,.43,1.32l-4.29,4.18a.77.77,0,0,0-.22.69l1,5.91a.78.78,0,0,1-.76.91.8.8,0,0,1-.36-.09l-5.31-2.8a.9.9,0,0,0-.36-.08.86.86,0,0,0-.36.08l-5.31,2.8a.8.8,0,0,1-.36.09.78.78,0,0,1-.76-.91l1-5.91a.8.8,0,0,0-.22-.69l-4.3-4.18a.77.77,0,0,1,.43-1.32l5.94-.87a.75.75,0,0,0,.58-.42l2.65-5.38a.79.79,0,0,1,.7-.43m0-2.92a3.68,3.68,0,0,0-3.32,2.06l-2.15,4.36-4.82.7a3.7,3.7,0,0,0-2.05,6.31l3.49,3.4-.83,4.8a3.69,3.69,0,0,0,5.37,3.89l4.31-2.26,4.31,2.26a3.69,3.69,0,0,0,5.36-3.9l-.82-4.79,3.49-3.4a3.7,3.7,0,0,0-2.06-6.31l-4.81-.7-2.15-4.36a3.68,3.68,0,0,0-3.32-2.06Z"/><path class="cls-4" d="M346.82,125.42l2.65,5.38a.76.76,0,0,0,.59.42l5.93.87a.77.77,0,0,1,.43,1.32l-4.3,4.18a.8.8,0,0,0-.22.69l1,5.91a.78.78,0,0,1-1.13.82l-5.31-2.8a.83.83,0,0,0-.72,0l-5.3,2.8a.78.78,0,0,1-1.13-.82l1-5.91a.78.78,0,0,0-.23-.69l-4.29-4.18a.77.77,0,0,1,.43-1.32l5.93-.87a.76.76,0,0,0,.59-.42l2.65-5.38A.78.78,0,0,1,346.82,125.42Z"/><path class="cls-3" d="M346.12,125a.78.78,0,0,1,.7.43l2.65,5.38a.76.76,0,0,0,.59.42l5.93.87a.77.77,0,0,1,.43,1.32l-4.3,4.18a.8.8,0,0,0-.22.69l1,5.91a.79.79,0,0,1-.77.91.8.8,0,0,1-.36-.09l-5.31-2.8a.86.86,0,0,0-.36-.08.94.94,0,0,0-.36.08l-5.3,2.8a.83.83,0,0,1-.36.09.79.79,0,0,1-.77-.91l1-5.91a.78.78,0,0,0-.23-.69l-4.29-4.18a.77.77,0,0,1,.43-1.32l5.93-.87a.76.76,0,0,0,.59-.42l2.65-5.38a.78.78,0,0,1,.69-.43m0-2.92a3.67,3.67,0,0,0-3.31,2.06l-2.16,4.36-4.81.7a3.7,3.7,0,0,0-2,6.31l3.48,3.4-.82,4.8A3.71,3.71,0,0,0,340.1,148a3.71,3.71,0,0,0,1.72-.43l4.3-2.26,4.31,2.26a3.71,3.71,0,0,0,1.72.43,3.71,3.71,0,0,0,3.65-4.33L355,138.9l3.48-3.4a3.66,3.66,0,0,0,.94-3.79,3.7,3.7,0,0,0-3-2.52l-4.81-.7-2.16-4.36a3.68,3.68,0,0,0-3.32-2.06Z"/><path class="cls-4" d="M376.33,125.42,379,130.8a.75.75,0,0,0,.58.42l5.94.87a.77.77,0,0,1,.43,1.32l-4.3,4.18a.8.8,0,0,0-.22.69l1,5.91a.78.78,0,0,1-1.12.82l-5.31-2.8a.83.83,0,0,0-.72,0L370,145a.78.78,0,0,1-1.12-.82l1-5.91a.77.77,0,0,0-.22-.69l-4.29-4.18a.77.77,0,0,1,.42-1.32l5.94-.87a.75.75,0,0,0,.58-.42l2.66-5.38A.77.77,0,0,1,376.33,125.42Z"/><path class="cls-3" d="M375.64,125a.76.76,0,0,1,.69.43L379,130.8a.75.75,0,0,0,.58.42l5.94.87a.78.78,0,0,1,.43,1.32l-4.3,4.18a.8.8,0,0,0-.22.69l1,5.91a.78.78,0,0,1-.76.91.8.8,0,0,1-.36-.09l-5.31-2.8a.85.85,0,0,0-.72,0L370,145a.8.8,0,0,1-.36.09.78.78,0,0,1-.76-.91l1-5.91a.77.77,0,0,0-.22-.69l-4.29-4.18a.77.77,0,0,1,.42-1.32l5.94-.87a.75.75,0,0,0,.58-.42l2.66-5.38a.78.78,0,0,1,.69-.43m0-2.92a3.68,3.68,0,0,0-3.32,2.06l-2.15,4.36-4.82.7a3.7,3.7,0,0,0-2.05,6.31l3.49,3.4-.82,4.8a3.66,3.66,0,0,0,.81,3,3.68,3.68,0,0,0,4.55.89l4.31-2.26,4.31,2.26a3.7,3.7,0,0,0,5.37-3.89l-.83-4.8,3.49-3.4a3.7,3.7,0,0,0-2.05-6.31l-4.82-.7L379,124.13a3.68,3.68,0,0,0-3.32-2.06Z"/><path class="cls-4" d="M405.85,125.42l2.66,5.38a.75.75,0,0,0,.58.42l5.93.87a.77.77,0,0,1,.43,1.32l-4.29,4.18a.78.78,0,0,0-.23.69l1,5.91a.78.78,0,0,1-1.12.82l-5.31-2.8a.83.83,0,0,0-.72,0l-5.31,2.8a.78.78,0,0,1-1.12-.82l1-5.91a.8.8,0,0,0-.22-.69l-4.3-4.18a.77.77,0,0,1,.43-1.32l5.94-.87a.75.75,0,0,0,.58-.42l2.65-5.38A.78.78,0,0,1,405.85,125.42Z"/><path class="cls-3" d="M405.16,125a.78.78,0,0,1,.69.43l2.66,5.38a.75.75,0,0,0,.58.42l5.93.87a.77.77,0,0,1,.43,1.32l-4.29,4.18a.78.78,0,0,0-.23.69l1,5.91a.78.78,0,0,1-.76.91.77.77,0,0,1-.36-.09l-5.31-2.8a.94.94,0,0,0-.36-.08.86.86,0,0,0-.36.08l-5.31,2.8a.8.8,0,0,1-.36.09.78.78,0,0,1-.76-.91l1-5.91a.8.8,0,0,0-.22-.69l-4.3-4.18a.77.77,0,0,1,.43-1.32l5.94-.87a.75.75,0,0,0,.58-.42l2.65-5.38a.79.79,0,0,1,.7-.43m0-2.92a3.68,3.68,0,0,0-3.32,2.06l-2.15,4.36-4.82.7a3.7,3.7,0,0,0-2.05,6.31l3.49,3.4-.83,4.8a3.69,3.69,0,0,0,5.37,3.89l4.31-2.26,4.31,2.26a3.69,3.69,0,0,0,5.36-3.9L414,138.9l3.48-3.4a3.7,3.7,0,0,0-2.05-6.31l-4.81-.7-2.16-4.36a3.66,3.66,0,0,0-3.31-2.06Z"/><path class="cls-4" d="M435.37,125.42,438,130.8a.75.75,0,0,0,.58.42l5.94.87a.77.77,0,0,1,.43,1.32l-4.3,4.18a.8.8,0,0,0-.22.69l1,5.91a.78.78,0,0,1-1.12.82l-5.31-2.8a.83.83,0,0,0-.72,0L429,145a.78.78,0,0,1-1.12-.82l1-5.91a.78.78,0,0,0-.23-.69l-4.29-4.18a.77.77,0,0,1,.43-1.32l5.93-.87a.78.78,0,0,0,.59-.42l2.65-5.38A.78.78,0,0,1,435.37,125.42Z"/><path class="cls-3" d="M434.67,125a.79.79,0,0,1,.7.43L438,130.8a.75.75,0,0,0,.58.42l5.94.87a.77.77,0,0,1,.43,1.32l-4.3,4.18a.8.8,0,0,0-.22.69l1,5.91a.78.78,0,0,1-.76.91.8.8,0,0,1-.36-.09l-5.31-2.8a.86.86,0,0,0-.36-.08.94.94,0,0,0-.36.08L429,145a.77.77,0,0,1-.36.09.78.78,0,0,1-.76-.91l1-5.91a.78.78,0,0,0-.23-.69l-4.29-4.18a.77.77,0,0,1,.43-1.32l5.93-.87a.78.78,0,0,0,.59-.42l2.65-5.38a.78.78,0,0,1,.69-.43m0-2.92a3.66,3.66,0,0,0-3.31,2.06l-2.16,4.36-4.81.7a3.7,3.7,0,0,0-2.05,6.31l3.48,3.4-.82,4.8a3.69,3.69,0,0,0,3.64,4.32,3.72,3.72,0,0,0,1.73-.43l4.3-2.26,4.31,2.26a3.7,3.7,0,0,0,5.37-3.9l-.83-4.79,3.49-3.4a3.7,3.7,0,0,0-2.05-6.31l-4.82-.7L438,124.13a3.68,3.68,0,0,0-3.32-2.06Z"/><circle class="cls-2" cx="225.11" cy="125.72" r="38.02"/><path class="cls-3" d="M225.11,87.7a38,38,0,1,1-38,38,38,38,0,0,1,38-38m0-4.39a42.41,42.41,0,1,0,42.41,42.41,42.46,42.46,0,0,0-42.41-42.41Z"/><line class="cls-4" x1="310.66" y1="103.06" x2="414.49" y2="103.06"/><path class="cls-3" d="M414.49,106H310.66a2.93,2.93,0,1,1,0-5.85H414.49a2.93,2.93,0,1,1,0,5.85Z"/><path class="cls-4" d="M204.57,108.43s-8.78,26.09,3.81,33.34l2.64-29Z"/><path class="cls-3" d="M204.57,108.43l6.45,4.35-2.64,29c-12.59-7.25-3.81-33.34-3.81-33.34m-1.15-3.4-.91,2.71c-.38,1.13-9.19,27.87,4.79,35.92l2.94,1.69.31-3.38,2.63-29,.12-1.28-1.07-.72-6.44-4.35-2.37-1.6Z"/><path class="cls-2" d="M209.62,111s-9,44.88,9,49.61,35-11.82,26.89-51.19Z"/><path class="cls-3" d="M245.48,109.37c7.25,35-5.49,52-21,52a23.15,23.15,0,0,1-5.89-.78c-17.93-4.73-9-49.61-9-49.61l35.86-1.58m1.75-2.25-1.85.08-35.85,1.57-1.71.08-.33,1.67A135.11,135.11,0,0,0,205.21,134c0,16.79,4.31,26.44,12.82,28.68a25.32,25.32,0,0,0,6.45.86,22.2,22.2,0,0,0,17.43-8.46c7.84-9.63,9.86-26,5.7-46.13l-.38-1.81Z"/><path class="cls-5" d="M234.57,154.46c-4.77,6.36-12.82,6.17-19.11,4.71a10.94,10.94,0,0,0,3.13,1.39c17.34,4.57,33.93-10.77,27.6-47.44l-7.27,7.27S243.27,142.86,234.57,154.46Z"/><path class="cls-4" d="M246.7,134.22s-10.59-3.25-8.15-20.37c0,0-16.3,7.34-31,.82S201.07,91,201.07,91s0,12.23,17.92,8.15,34.23-4.07,31,7.34c0,0,22.4,11.34-4.28,37.45Z"/><path class="cls-3" d="M201.07,91s0,9,11.29,9a29.67,29.67,0,0,0,6.63-.84,87.77,87.77,0,0,1,18.5-2.47c8.89,0,14.51,2.67,12.47,9.81,0,0,22.4,11.34-4.28,37.45l1-9.75s-10.59-3.25-8.15-20.37a47.18,47.18,0,0,1-17.48,3.52,33.14,33.14,0,0,1-13.48-2.7C192.92,108.15,201.07,91,201.07,91m2.17-9.64L199.1,90.1c-.18.38-4.38,9.37-1.4,17.42a16,16,0,0,0,9,9.13,35.1,35.1,0,0,0,14.37,2.89,49.9,49.9,0,0,0,15-2.44c-.61,12,5.31,16.8,8.33,18.45l-.86,8.2-.63,6,4.31-4.22c10.24-10,14.8-19.28,13.53-27.5a19,19,0,0,0-8.31-12.56A8.21,8.21,0,0,0,251,99c-2.23-3-6.78-4.46-13.52-4.46a90,90,0,0,0-19,2.53,28,28,0,0,1-6.15.78c-8.74,0-9.11-6.13-9.12-6.82V81.39Z"/><path class="cls-6" d="M250,106.52c3.26-11.41-13-11.41-31-7.34-11.17,2.54-15.38-1.25-17-4.47-.37,2.93.63,6.65,7.18,8.28,11.6,2.9,29.72-6.52,36.25-2.17s2.89,6.52,2.89,6.52,7.38,6.46,10.32,15.16C259.82,111.52,250,106.52,250,106.52Z"/><ellipse class="cls-3" cx="213.92" cy="134.16" rx="1.81" ry="2.17"/><ellipse class="cls-3" cx="230.95" cy="135.17" rx="1.81" ry="2.17"/><path class="cls-3" d="M227.42,155.36a8.4,8.4,0,0,1-2.92-.6.74.74,0,0,1-.38-.95.72.72,0,0,1,.95-.38c.64.27,2.54.83,3.71.18a2.34,2.34,0,0,0,1.09-1.81.74.74,0,0,1,.84-.6.73.73,0,0,1,.59.84,3.72,3.72,0,0,1-1.83,2.85A4.25,4.25,0,0,1,227.42,155.36Z"/><path class="cls-3" d="M235.66,128.64a.71.71,0,0,1-.56-.26,5.93,5.93,0,0,0-7.09-2,.72.72,0,0,1-.65-1.29,7.39,7.39,0,0,1,8.86,2.36.73.73,0,0,1-.1,1A.72.72,0,0,1,235.66,128.64Z"/><path class="cls-3" d="M210.37,128.08l-.18,0a.73.73,0,0,1-.52-.89,4.74,4.74,0,0,1,2.24-3.07,6.3,6.3,0,0,1,4.48-.33.72.72,0,0,1-.43,1.38,4.92,4.92,0,0,0-3.36.23,3.33,3.33,0,0,0-1.53,2.16A.72.72,0,0,1,210.37,128.08Z"/><rect class="cls-2" x="210.48" y="202.01" width="345.13" height="90.67" rx="13" ry="13"/><path class="cls-3" d="M536.6,202a19,19,0,0,1,19,19v52.64a19,19,0,0,1-19,19H229.49a19,19,0,0,1-19-19V221a19,19,0,0,1,19-19H536.6m0-4.38H229.49A23.42,23.42,0,0,0,206.1,221v52.64a23.42,23.42,0,0,0,23.39,23.4H536.6a23.42,23.42,0,0,0,23.4-23.4V221a23.42,23.42,0,0,0-23.4-23.4Z"/><path class="cls-4" d="M365.56,247.78l2.66,5.38a.75.75,0,0,0,.58.42l5.94.86a.77.77,0,0,1,.42,1.32L370.87,260a.75.75,0,0,0-.22.68l1,5.92a.77.77,0,0,1-1.12.81l-5.31-2.79a.76.76,0,0,0-.72,0l-5.31,2.79a.77.77,0,0,1-1.12-.81l1-5.92a.78.78,0,0,0-.22-.68l-4.3-4.19a.78.78,0,0,1,.43-1.32l5.94-.86a.75.75,0,0,0,.58-.42l2.66-5.38A.76.76,0,0,1,365.56,247.78Z"/><path class="cls-3" d="M364.87,247.35a.76.76,0,0,1,.69.43l2.66,5.38a.75.75,0,0,0,.58.42l5.93.86a.77.77,0,0,1,.43,1.32L370.87,260a.75.75,0,0,0-.22.68l1,5.92a.77.77,0,0,1-.76.9.8.8,0,0,1-.36-.09l-5.31-2.79a.77.77,0,0,0-.36-.09.74.74,0,0,0-.36.09l-5.31,2.79a.8.8,0,0,1-.36.09.77.77,0,0,1-.76-.9l1-5.92a.78.78,0,0,0-.22-.68l-4.3-4.19a.78.78,0,0,1,.43-1.32l5.94-.86a.75.75,0,0,0,.58-.42l2.66-5.38a.75.75,0,0,1,.69-.43m0-2.93a3.67,3.67,0,0,0-3.32,2.07l-2.15,4.36-4.82.7a3.7,3.7,0,0,0-2.05,6.31l3.49,3.4-.83,4.79a3.69,3.69,0,0,0,5.37,3.9l4.31-2.26,4.31,2.26a3.69,3.69,0,0,0,5.36-3.9l-.82-4.79,3.49-3.4a3.7,3.7,0,0,0-2.06-6.31l-4.81-.7-2.15-4.36a3.67,3.67,0,0,0-3.32-2.07Z"/><path class="cls-4" d="M395.08,247.78l2.65,5.38a.76.76,0,0,0,.59.42l5.93.86a.77.77,0,0,1,.43,1.32l-4.3,4.19a.78.78,0,0,0-.22.68l1,5.92a.78.78,0,0,1-1.13.81l-5.31-2.79a.76.76,0,0,0-.72,0l-5.3,2.79a.78.78,0,0,1-1.13-.81l1-5.92a.78.78,0,0,0-.22-.68l-4.3-4.19a.77.77,0,0,1,.43-1.32l5.93-.86a.76.76,0,0,0,.59-.42l2.65-5.38A.77.77,0,0,1,395.08,247.78Z"/><path class="cls-3" d="M394.38,247.35a.76.76,0,0,1,.7.43l2.65,5.38a.76.76,0,0,0,.59.42l5.93.86a.77.77,0,0,1,.43,1.32L400.39,260a.76.76,0,0,0-.23.68l1,5.92a.77.77,0,0,1-.77.9.83.83,0,0,1-.36-.09l-5.31-2.79a.74.74,0,0,0-.36-.09.8.8,0,0,0-.36.09l-5.3,2.79a.8.8,0,0,1-.36.09.78.78,0,0,1-.77-.9l1-5.92a.78.78,0,0,0-.22-.68l-4.3-4.19a.77.77,0,0,1,.43-1.32l5.93-.86a.76.76,0,0,0,.59-.42l2.65-5.38a.76.76,0,0,1,.69-.43m0-2.93a3.67,3.67,0,0,0-3.31,2.07l-2.16,4.36-4.81.7a3.7,3.7,0,0,0-2.05,6.31l3.48,3.4-.82,4.79a3.69,3.69,0,0,0,5.37,3.9l4.3-2.26,4.31,2.26a3.7,3.7,0,0,0,5.37-3.9l-.82-4.79,3.48-3.4a3.7,3.7,0,0,0-2.05-6.31l-4.81-.7-2.16-4.36a3.67,3.67,0,0,0-3.32-2.07Z"/><path class="cls-4" d="M424.59,247.78l2.66,5.38a.75.75,0,0,0,.58.42l5.94.86a.78.78,0,0,1,.43,1.32L429.9,260a.78.78,0,0,0-.22.68l1,5.92a.77.77,0,0,1-1.12.81l-5.31-2.79a.76.76,0,0,0-.72,0l-5.31,2.79a.77.77,0,0,1-1.12-.81l1-5.92a.75.75,0,0,0-.22-.68l-4.29-4.19a.77.77,0,0,1,.42-1.32l5.94-.86a.75.75,0,0,0,.58-.42l2.66-5.38A.76.76,0,0,1,424.59,247.78Z"/><path class="cls-3" d="M423.9,247.35a.75.75,0,0,1,.69.43l2.66,5.38a.75.75,0,0,0,.58.42l5.94.86a.78.78,0,0,1,.43,1.32L429.9,260a.78.78,0,0,0-.22.68l1,5.92a.77.77,0,0,1-.76.9.8.8,0,0,1-.36-.09l-5.31-2.79a.76.76,0,0,0-.72,0l-5.31,2.79a.8.8,0,0,1-.36.09.77.77,0,0,1-.76-.9l1-5.92a.75.75,0,0,0-.22-.68l-4.29-4.19a.77.77,0,0,1,.42-1.32l5.94-.86a.75.75,0,0,0,.58-.42l2.66-5.38a.76.76,0,0,1,.69-.43m0-2.93a3.67,3.67,0,0,0-3.32,2.07l-2.15,4.36-4.82.7a3.7,3.7,0,0,0-2,6.31l3.48,3.39-.82,4.8a3.69,3.69,0,0,0,5.36,3.9l4.31-2.26,4.31,2.26a3.7,3.7,0,0,0,5.37-3.9l-.83-4.8,3.49-3.39a3.7,3.7,0,0,0-2.05-6.31l-4.82-.7-2.15-4.36a3.67,3.67,0,0,0-3.32-2.07Z"/><path class="cls-4" d="M454.11,247.78l2.66,5.38a.75.75,0,0,0,.58.42l5.93.86a.77.77,0,0,1,.43,1.32L459.42,260a.76.76,0,0,0-.23.68l1,5.92a.77.77,0,0,1-1.12.81l-5.31-2.79a.76.76,0,0,0-.72,0l-5.31,2.79a.77.77,0,0,1-1.12-.81l1-5.92a.78.78,0,0,0-.22-.68l-4.3-4.19a.78.78,0,0,1,.43-1.32l5.94-.86a.75.75,0,0,0,.58-.42l2.65-5.38A.77.77,0,0,1,454.11,247.78Z"/><path class="cls-3" d="M453.42,247.35a.76.76,0,0,1,.69.43l2.66,5.38a.75.75,0,0,0,.58.42l5.93.86a.77.77,0,0,1,.43,1.32L459.42,260a.75.75,0,0,0-.22.68l1,5.92a.77.77,0,0,1-.76.9.8.8,0,0,1-.36-.09l-5.31-2.79a.8.8,0,0,0-.36-.09.74.74,0,0,0-.36.09l-5.31,2.79a.8.8,0,0,1-.36.09.77.77,0,0,1-.76-.9l1-5.92a.78.78,0,0,0-.22-.68l-4.3-4.19a.78.78,0,0,1,.43-1.32l5.94-.86a.75.75,0,0,0,.58-.42l2.65-5.38a.77.77,0,0,1,.7-.43m0-2.93a3.68,3.68,0,0,0-3.32,2.06L448,250.85l-4.82.7a3.7,3.7,0,0,0-2.05,6.31l3.49,3.4-.83,4.79a3.69,3.69,0,0,0,5.37,3.9l4.31-2.26,4.31,2.26a3.69,3.69,0,0,0,5.36-3.9l-.82-4.79,3.48-3.4a3.7,3.7,0,0,0-2.05-6.31l-4.81-.7-2.16-4.36a3.65,3.65,0,0,0-3.31-2.07Z"/><circle class="cls-2" cx="273.37" cy="248.08" r="38.02"/><path class="cls-3" d="M273.37,210.06a38,38,0,1,1-38,38,38,38,0,0,1,38-38m0-4.39a42.41,42.41,0,1,0,42.41,42.41,42.45,42.45,0,0,0-42.41-42.41Z"/><line class="cls-4" x1="358.92" y1="225.41" x2="462.75" y2="225.41"/><path class="cls-3" d="M462.75,228.34H358.92a2.93,2.93,0,1,1,0-5.85H462.75a2.93,2.93,0,1,1,0,5.85Z"/><path class="cls-4" d="M252.83,230.79s-8.78,26.09,3.81,33.34l2.64-29Z"/><path class="cls-3" d="M252.83,230.79l6.45,4.35-2.64,29c-12.59-7.25-3.81-33.34-3.81-33.34m-1.15-3.4-.91,2.7c-.38,1.14-9.19,27.88,4.79,35.92l2.94,1.7.31-3.38,2.63-29,.12-1.28-1.07-.72L254.05,229l-2.37-1.59Z"/><path class="cls-2" d="M257.88,233.3s-9,44.89,9,49.61,35-11.81,26.89-51.18Z"/><path class="cls-3" d="M293.74,231.73c7.25,35-5.49,52-21,52a22.73,22.73,0,0,1-5.89-.79c-17.93-4.72-9-49.61-9-49.61l35.86-1.57m1.75-2.26-1.85.08-35.85,1.58-1.71.07-.33,1.68a135,135,0,0,0-2.28,23.46c0,16.78,4.31,26.43,12.82,28.68a25.75,25.75,0,0,0,6.45.85,22.19,22.19,0,0,0,17.43-8.45c7.84-9.63,9.86-26,5.7-46.13l-.38-1.82Z"/><path class="cls-5" d="M282.83,276.81c-4.77,6.37-12.82,6.18-19.11,4.72a10.66,10.66,0,0,0,3.13,1.38c17.34,4.58,33.93-10.76,27.6-47.43l-7.27,7.27S291.53,265.22,282.83,276.81Z"/><path class="cls-4" d="M295,256.58s-10.59-3.26-8.15-20.37c0,0-16.3,7.33-31,.81s-6.52-23.63-6.52-23.63,0,12.23,17.92,8.15,34.23-4.07,31,7.33c0,0,22.4,11.35-4.28,37.46Z"/><path class="cls-3" d="M249.33,213.39s0,9,11.29,9a30.19,30.19,0,0,0,6.63-.83,87.84,87.84,0,0,1,18.5-2.48c8.89,0,14.51,2.67,12.47,9.81,0,0,22.4,11.35-4.28,37.46l1-9.75s-10.59-3.26-8.15-20.37a47.3,47.3,0,0,1-17.48,3.51,33,33,0,0,1-13.48-2.7c-14.67-6.52-6.52-23.63-6.52-23.63m2.17-9.64-4.14,8.71c-.18.38-4.38,9.36-1.4,17.42a16,16,0,0,0,9,9.13,35.1,35.1,0,0,0,14.37,2.89,49.9,49.9,0,0,0,15-2.44c-.61,12,5.31,16.8,8.33,18.45l-.86,8.19-.63,6,4.31-4.22c10.24-10,14.8-19.27,13.53-27.49a19,19,0,0,0-8.31-12.56,8.21,8.21,0,0,0-1.41-6.48c-2.23-3-6.78-4.46-13.52-4.46a89.35,89.35,0,0,0-19,2.53,28,28,0,0,1-6.15.78c-8.74,0-9.11-6.13-9.12-6.83v-9.62Z"/><path class="cls-6" d="M298.22,228.87c3.26-11.4-13-11.4-31-7.33-11.17,2.54-15.38-1.25-17-4.47-.37,2.92.63,6.64,7.18,8.28,11.6,2.9,29.72-6.52,36.25-2.17s2.89,6.52,2.89,6.52,7.38,6.46,10.32,15.16C308.08,233.87,298.22,228.87,298.22,228.87Z"/><ellipse class="cls-3" cx="262.18" cy="256.52" rx="1.81" ry="2.17"/><ellipse class="cls-3" cx="279.21" cy="257.52" rx="1.81" ry="2.17"/><path class="cls-3" d="M275.68,277.72a8.4,8.4,0,0,1-2.92-.6.74.74,0,0,1-.38-.95.73.73,0,0,1,.95-.39c.64.27,2.54.83,3.71.19a2.35,2.35,0,0,0,1.09-1.81.73.73,0,1,1,1.43.24,3.71,3.71,0,0,1-1.83,2.84A4.15,4.15,0,0,1,275.68,277.72Z"/><path class="cls-3" d="M283.92,251a.74.74,0,0,1-.56-.26,5.93,5.93,0,0,0-7.09-2,.73.73,0,0,1-1-.32.74.74,0,0,1,.32-1,7.42,7.42,0,0,1,8.86,2.36.73.73,0,0,1-.1,1A.67.67,0,0,1,283.92,251Z"/><path class="cls-3" d="M258.63,250.44a.57.57,0,0,1-.18,0,.72.72,0,0,1-.52-.88,4.71,4.71,0,0,1,2.24-3.07,6.39,6.39,0,0,1,4.48-.34.73.73,0,0,1-.43,1.39,4.85,4.85,0,0,0-3.36.23,3.33,3.33,0,0,0-1.53,2.16A.73.73,0,0,1,258.63,250.44Z"/><rect class="cls-2" x="108.11" y="324.37" width="345.13" height="90.67" rx="13" ry="13"/><path class="cls-3" d="M434.23,324.37a19,19,0,0,1,19,19V396a19,19,0,0,1-19,19H127.12a19,19,0,0,1-19-19V343.38a19,19,0,0,1,19-19H434.23m0-4.39H127.12a23.42,23.42,0,0,0-23.39,23.4V396a23.42,23.42,0,0,0,23.39,23.4H434.23a23.42,23.42,0,0,0,23.4-23.4V343.38a23.42,23.42,0,0,0-23.4-23.4Z"/><path class="cls-4" d="M263.19,370.14l2.66,5.38a.79.79,0,0,0,.58.42l5.93.86a.77.77,0,0,1,.43,1.32l-4.29,4.19a.74.74,0,0,0-.22.68l1,5.91a.77.77,0,0,1-1.12.82l-5.31-2.79a.76.76,0,0,0-.72,0l-5.31,2.79a.77.77,0,0,1-1.12-.82l1-5.91a.77.77,0,0,0-.22-.68l-4.3-4.19a.77.77,0,0,1,.43-1.32l5.94-.86a.79.79,0,0,0,.58-.42l2.65-5.38A.77.77,0,0,1,263.19,370.14Z"/><path class="cls-3" d="M262.5,369.71a.76.76,0,0,1,.69.43l2.66,5.38a.79.79,0,0,0,.58.42l5.93.86a.77.77,0,0,1,.43,1.32l-4.29,4.19a.74.74,0,0,0-.22.68l1,5.91a.78.78,0,0,1-.76.91.8.8,0,0,1-.36-.09l-5.31-2.79a.77.77,0,0,0-.36-.09.74.74,0,0,0-.36.09l-5.31,2.79a.8.8,0,0,1-.36.09.78.78,0,0,1-.76-.91l1-5.91a.77.77,0,0,0-.22-.68l-4.3-4.19a.77.77,0,0,1,.43-1.32l5.94-.86a.79.79,0,0,0,.58-.42l2.65-5.38a.77.77,0,0,1,.7-.43m0-2.93a3.68,3.68,0,0,0-3.32,2.06L257,373.21l-4.82.7a3.7,3.7,0,0,0-2.05,6.3l3.49,3.4-.83,4.8a3.71,3.71,0,0,0,5.37,3.9L262.5,390l4.31,2.27a3.7,3.7,0,0,0,5.36-3.9l-.82-4.8,3.49-3.4a3.7,3.7,0,0,0-2-6.3l-4.82-.7-2.15-4.37a3.68,3.68,0,0,0-3.32-2.06Z"/><path class="cls-4" d="M292.71,370.14l2.65,5.38a.81.81,0,0,0,.59.42l5.93.86a.77.77,0,0,1,.43,1.32l-4.3,4.19a.77.77,0,0,0-.22.68l1,5.91a.78.78,0,0,1-1.13.82l-5.31-2.79a.76.76,0,0,0-.72,0l-5.3,2.79a.78.78,0,0,1-1.13-.82l1-5.91a.75.75,0,0,0-.23-.68l-4.29-4.19a.77.77,0,0,1,.43-1.32l5.93-.86a.81.81,0,0,0,.59-.42l2.65-5.38A.77.77,0,0,1,292.71,370.14Z"/><path class="cls-3" d="M292,369.71a.76.76,0,0,1,.7.43l2.65,5.38a.81.81,0,0,0,.59.42l5.93.86a.77.77,0,0,1,.43,1.32L298,382.31a.75.75,0,0,0-.23.68l1,5.91a.79.79,0,0,1-.77.91.83.83,0,0,1-.36-.09l-5.31-2.79a.74.74,0,0,0-.36-.09.8.8,0,0,0-.36.09l-5.3,2.79a.83.83,0,0,1-.36.09.79.79,0,0,1-.77-.91l1-5.91a.75.75,0,0,0-.23-.68l-4.29-4.19a.77.77,0,0,1,.43-1.32l5.93-.86a.81.81,0,0,0,.59-.42l2.65-5.38a.76.76,0,0,1,.69-.43m0-2.93a3.68,3.68,0,0,0-3.31,2.06l-2.16,4.37-4.81.7a3.69,3.69,0,0,0-2.05,6.3l3.48,3.4-.82,4.8a3.71,3.71,0,0,0,3.65,4.32,3.7,3.7,0,0,0,1.72-.42L292,390l4.31,2.27a3.71,3.71,0,0,0,4.55-.9,3.66,3.66,0,0,0,.82-3l-.82-4.8,3.48-3.4a3.69,3.69,0,0,0-2.05-6.3l-4.81-.7-2.16-4.37a3.68,3.68,0,0,0-3.32-2.06Z"/><path class="cls-4" d="M322.22,370.14l2.66,5.38a.79.79,0,0,0,.58.42l5.94.86a.77.77,0,0,1,.43,1.32l-4.3,4.19a.77.77,0,0,0-.22.68l1,5.91a.77.77,0,0,1-1.12.82l-5.31-2.79a.76.76,0,0,0-.72,0l-5.31,2.79a.77.77,0,0,1-1.12-.82l1-5.91a.74.74,0,0,0-.22-.68l-4.29-4.19a.77.77,0,0,1,.42-1.32l5.94-.86a.79.79,0,0,0,.58-.42l2.66-5.38A.76.76,0,0,1,322.22,370.14Z"/><path class="cls-3" d="M321.53,369.71a.75.75,0,0,1,.69.43l2.66,5.38a.79.79,0,0,0,.58.42l5.94.86a.77.77,0,0,1,.43,1.32l-4.3,4.19a.77.77,0,0,0-.22.68l1,5.91a.78.78,0,0,1-.76.91.8.8,0,0,1-.36-.09l-5.31-2.79a.77.77,0,0,0-.72,0l-5.31,2.79a.8.8,0,0,1-.36.09.78.78,0,0,1-.76-.91l1-5.91a.74.74,0,0,0-.22-.68l-4.29-4.19a.77.77,0,0,1,.42-1.32l5.94-.86a.79.79,0,0,0,.58-.42l2.66-5.38a.76.76,0,0,1,.69-.43m0-2.93a3.68,3.68,0,0,0-3.32,2.06l-2.15,4.37-4.82.7a3.69,3.69,0,0,0-2,6.3l3.48,3.4-.82,4.8a3.7,3.7,0,0,0,5.36,3.9l4.31-2.27,4.31,2.27a3.7,3.7,0,0,0,5.37-3.9l-.83-4.8,3.49-3.4a3.7,3.7,0,0,0-2.05-6.3l-4.82-.7-2.15-4.37a3.68,3.68,0,0,0-3.32-2.06Z"/><path class="cls-4" d="M351.74,370.14l2.66,5.38a.79.79,0,0,0,.58.42l5.93.86a.77.77,0,0,1,.43,1.32l-4.29,4.19a.75.75,0,0,0-.23.68l1,5.91a.77.77,0,0,1-1.12.82l-5.31-2.79a.76.76,0,0,0-.72,0l-5.31,2.79a.77.77,0,0,1-1.12-.82l1-5.91a.77.77,0,0,0-.22-.68l-4.3-4.19a.77.77,0,0,1,.43-1.32l5.94-.86a.79.79,0,0,0,.58-.42l2.65-5.38A.77.77,0,0,1,351.74,370.14Z"/><path class="cls-3" d="M351.05,369.71a.76.76,0,0,1,.69.43l2.66,5.38a.79.79,0,0,0,.58.42l5.93.86a.77.77,0,0,1,.43,1.32l-4.29,4.19a.74.74,0,0,0-.22.68l1,5.91a.78.78,0,0,1-.76.91.8.8,0,0,1-.36-.09l-5.31-2.79a.8.8,0,0,0-.36-.09.74.74,0,0,0-.36.09l-5.31,2.79a.8.8,0,0,1-.36.09.78.78,0,0,1-.76-.91l1-5.91a.77.77,0,0,0-.22-.68l-4.3-4.19a.77.77,0,0,1,.43-1.32l5.94-.86a.79.79,0,0,0,.58-.42l2.65-5.38a.77.77,0,0,1,.7-.43m0-2.93a3.68,3.68,0,0,0-3.32,2.06l-2.15,4.37-4.82.7a3.69,3.69,0,0,0-2.05,6.3l3.49,3.4-.83,4.8a3.71,3.71,0,0,0,5.37,3.9l4.31-2.27,4.31,2.27a3.7,3.7,0,0,0,5.36-3.9l-.82-4.8,3.48-3.4a3.69,3.69,0,0,0-2-6.3l-4.82-.7-2.16-4.37a3.66,3.66,0,0,0-3.31-2.06Z"/><circle class="cls-2" cx="171" cy="370.44" r="38.02"/><path class="cls-3" d="M171,332.41a38,38,0,1,1-38,38,38,38,0,0,1,38-38m0-4.38a42.41,42.41,0,1,0,42.41,42.41A42.45,42.45,0,0,0,171,328Z"/><line class="cls-4" x1="256.55" y1="347.77" x2="360.38" y2="347.77"/><path class="cls-3" d="M360.38,350.69H256.55a2.93,2.93,0,1,1,0-5.85H360.38a2.93,2.93,0,1,1,0,5.85Z"/><path class="cls-4" d="M150.46,353.14s-8.78,26.1,3.81,33.35l2.64-29Z"/><path class="cls-3" d="M150.46,353.14l6.45,4.35-2.64,29c-12.59-7.25-3.81-33.35-3.81-33.35m-1.15-3.4-.91,2.71c-.38,1.13-9.19,27.88,4.79,35.92l2.94,1.69.31-3.38,2.63-29,.12-1.28-1.07-.72-6.44-4.35-2.37-1.6Z"/><path class="cls-2" d="M155.51,355.66s-9,44.89,9,49.61,35-11.81,26.89-51.19Z"/><path class="cls-3" d="M191.37,354.08c7.25,35-5.49,52-21,52a23.17,23.17,0,0,1-5.89-.79c-17.93-4.72-9-49.61-9-49.61l35.86-1.58m1.75-2.25-1.85.08-35.85,1.58-1.71.07-.33,1.67a135.11,135.11,0,0,0-2.28,23.46c0,16.79,4.31,26.44,12.82,28.68a25.32,25.32,0,0,0,6.45.86,22.17,22.17,0,0,0,17.43-8.46c7.84-9.63,9.86-26,5.7-46.13l-.38-1.81Z"/><path class="cls-5" d="M180.46,399.17c-4.77,6.37-12.82,6.18-19.11,4.71a10.68,10.68,0,0,0,3.13,1.39c17.34,4.57,33.93-10.77,27.6-47.43l-7.27,7.26S189.16,387.57,180.46,399.17Z"/><path class="cls-4" d="M192.59,378.94s-10.59-3.26-8.15-20.37c0,0-16.3,7.33-31,.81S147,335.75,147,335.75s0,12.22,17.92,8.15,34.23-4.08,31,7.33c0,0,22.4,11.35-4.28,37.46Z"/><path class="cls-3" d="M147,335.75s0,9,11.29,9a30.19,30.19,0,0,0,6.63-.83,87.19,87.19,0,0,1,18.5-2.48c8.89,0,14.51,2.67,12.47,9.81,0,0,22.4,11.35-4.28,37.46l1-9.75s-10.59-3.26-8.15-20.37A47.3,47.3,0,0,1,167,362.08a33,33,0,0,1-13.48-2.7c-14.67-6.52-6.52-23.63-6.52-23.63m2.17-9.64-4.14,8.7c-.18.38-4.38,9.37-1.4,17.42a16,16,0,0,0,9,9.14A35.26,35.26,0,0,0,167,364.26a49.54,49.54,0,0,0,15-2.45c-.61,12,5.31,16.8,8.33,18.46l-.86,8.19-.63,6,4.31-4.22c10.24-10,14.8-19.27,13.53-27.5a19,19,0,0,0-8.31-12.55,8.2,8.2,0,0,0-1.41-6.48c-2.23-3-6.78-4.47-13.52-4.47a89.44,89.44,0,0,0-19,2.54,28.5,28.5,0,0,1-6.15.77c-8.74,0-9.11-6.12-9.12-6.82v-9.62Z"/><path class="cls-6" d="M195.85,351.23c3.26-11.41-13-11.41-31-7.33-11.17,2.54-15.38-1.26-17-4.48-.37,2.93.63,6.65,7.18,8.29,11.6,2.9,29.72-6.53,36.25-2.18s2.89,6.53,2.89,6.53,7.38,6.45,10.32,15.16C205.71,356.23,195.85,351.23,195.85,351.23Z"/><ellipse class="cls-3" cx="159.81" cy="378.87" rx="1.81" ry="2.17"/><ellipse class="cls-3" cx="176.84" cy="379.88" rx="1.81" ry="2.17"/><path class="cls-3" d="M173.31,400.07a8.15,8.15,0,0,1-2.92-.6.72.72,0,1,1,.57-1.33c.64.27,2.54.83,3.71.19a2.37,2.37,0,0,0,1.09-1.82.73.73,0,0,1,.84-.59.72.72,0,0,1,.59.83,3.72,3.72,0,0,1-1.83,2.85A4.25,4.25,0,0,1,173.31,400.07Z"/><path class="cls-3" d="M181.55,373.36a.74.74,0,0,1-.56-.26,5.91,5.91,0,0,0-7.09-2,.73.73,0,0,1-.65-1.3,7.41,7.41,0,0,1,8.86,2.36.73.73,0,0,1-.56,1.19Z"/><path class="cls-3" d="M156.26,372.79a.55.55,0,0,1-.18,0,.73.73,0,0,1-.52-.89,4.72,4.72,0,0,1,2.24-3.06,6.33,6.33,0,0,1,4.48-.34.72.72,0,0,1-.43,1.38,5,5,0,0,0-3.36.23,3.33,3.33,0,0,0-1.53,2.17A.72.72,0,0,1,156.26,372.79Z"/><rect class="cls-2" x="192.93" y="446.73" width="345.13" height="90.67" rx="13" ry="13"/><path class="cls-3" d="M519.06,446.73a19,19,0,0,1,19,19v52.65a19,19,0,0,1-19,19H212a19,19,0,0,1-19-19V465.74a19,19,0,0,1,19-19H519.06m0-4.39H212a23.42,23.42,0,0,0-23.4,23.4v52.65A23.42,23.42,0,0,0,212,541.78H519.06a23.41,23.41,0,0,0,23.39-23.39V465.74a23.42,23.42,0,0,0-23.39-23.4Z"/><path class="cls-4" d="M348,492.49l2.66,5.38a.75.75,0,0,0,.58.42l5.94.87a.77.77,0,0,1,.42,1.32l-4.29,4.18a.77.77,0,0,0-.22.69l1,5.91a.78.78,0,0,1-1.12.82l-5.31-2.8a.83.83,0,0,0-.72,0l-5.31,2.8a.78.78,0,0,1-1.12-.82l1-5.91a.77.77,0,0,0-.22-.69l-4.3-4.18a.78.78,0,0,1,.43-1.32l5.94-.87a.75.75,0,0,0,.58-.42l2.66-5.38A.77.77,0,0,1,348,492.49Z"/><path class="cls-3" d="M347.32,492.06a.76.76,0,0,1,.69.43l2.66,5.38a.75.75,0,0,0,.58.42l5.94.87a.77.77,0,0,1,.42,1.32l-4.29,4.18a.77.77,0,0,0-.22.69l1,5.91a.78.78,0,0,1-.76.91.8.8,0,0,1-.36-.09l-5.31-2.8a.85.85,0,0,0-.72,0l-5.31,2.8a.8.8,0,0,1-.36.09.78.78,0,0,1-.76-.91l1-5.91a.77.77,0,0,0-.22-.69l-4.3-4.18a.78.78,0,0,1,.43-1.32l5.94-.87a.75.75,0,0,0,.58-.42l2.66-5.38a.76.76,0,0,1,.69-.43m0-2.92A3.68,3.68,0,0,0,344,491.2l-2.15,4.36-4.82.7a3.7,3.7,0,0,0-2,6.31l3.49,3.4-.82,4.8a3.69,3.69,0,0,0,5.36,3.89l4.31-2.26,4.31,2.26a3.69,3.69,0,0,0,5.36-3.9l-.82-4.79,3.49-3.4a3.7,3.7,0,0,0-2.05-6.31l-4.82-.7-2.15-4.36a3.68,3.68,0,0,0-3.32-2.06Z"/><path class="cls-4" d="M377.53,492.49l2.65,5.38a.76.76,0,0,0,.59.42l5.93.87a.77.77,0,0,1,.43,1.32l-4.29,4.18a.78.78,0,0,0-.23.69l1,5.91a.78.78,0,0,1-1.13.82l-5.3-2.8a.83.83,0,0,0-.72,0l-5.31,2.8a.78.78,0,0,1-1.13-.82l1-5.91a.8.8,0,0,0-.22-.69l-4.3-4.18a.77.77,0,0,1,.43-1.32l5.94-.87a.76.76,0,0,0,.58-.42l2.65-5.38A.78.78,0,0,1,377.53,492.49Z"/><path class="cls-3" d="M376.84,492.06a.78.78,0,0,1,.69.43l2.65,5.38a.76.76,0,0,0,.59.42l5.93.87a.77.77,0,0,1,.43,1.32l-4.29,4.18a.78.78,0,0,0-.23.69l1,5.91a.78.78,0,0,1-.76.91.84.84,0,0,1-.37-.09l-5.3-2.8a.94.94,0,0,0-.36-.08.86.86,0,0,0-.36.08l-5.31,2.8a.8.8,0,0,1-.36.09.79.79,0,0,1-.77-.91l1-5.91a.8.8,0,0,0-.22-.69l-4.3-4.18a.77.77,0,0,1,.43-1.32l5.94-.87a.75.75,0,0,0,.58-.42l2.65-5.38a.78.78,0,0,1,.7-.43m0-2.92a3.68,3.68,0,0,0-3.32,2.06l-2.15,4.36-4.82.7a3.7,3.7,0,0,0-2.05,6.31L368,506l-.82,4.8a3.71,3.71,0,0,0,3.65,4.32,3.71,3.71,0,0,0,1.72-.43l4.31-2.26,4.3,2.26a3.7,3.7,0,0,0,5.37-3.9l-.82-4.79,3.48-3.4a3.7,3.7,0,0,0-2.05-6.31l-4.81-.7-2.16-4.36a3.68,3.68,0,0,0-3.31-2.06Z"/><path class="cls-4" d="M407.05,492.49l2.65,5.38a.75.75,0,0,0,.58.42l5.94.87a.77.77,0,0,1,.43,1.32l-4.3,4.18a.8.8,0,0,0-.22.69l1,5.91a.78.78,0,0,1-1.12.82l-5.31-2.8a.83.83,0,0,0-.72,0l-5.31,2.8a.78.78,0,0,1-1.12-.82l1-5.91a.77.77,0,0,0-.22-.69l-4.29-4.18a.77.77,0,0,1,.43-1.32l5.93-.87a.75.75,0,0,0,.58-.42l2.66-5.38A.78.78,0,0,1,407.05,492.49Z"/><path class="cls-3" d="M406.35,492.06a.79.79,0,0,1,.7.43l2.65,5.38a.75.75,0,0,0,.58.42l5.94.87a.77.77,0,0,1,.43,1.32l-4.3,4.18a.8.8,0,0,0-.22.69l1,5.91a.78.78,0,0,1-.76.91.8.8,0,0,1-.36-.09l-5.31-2.8a.86.86,0,0,0-.36-.08.9.9,0,0,0-.36.08l-5.31,2.8a.8.8,0,0,1-.36.09.78.78,0,0,1-.76-.91l1-5.91a.77.77,0,0,0-.22-.69l-4.29-4.18a.77.77,0,0,1,.43-1.32l5.93-.87a.75.75,0,0,0,.58-.42l2.66-5.38a.78.78,0,0,1,.69-.43m0-2.92A3.66,3.66,0,0,0,403,491.2l-2.16,4.36-4.82.7a3.7,3.7,0,0,0-2.05,6.31l3.49,3.4-.82,4.8a3.66,3.66,0,0,0,.81,3,3.68,3.68,0,0,0,4.55.89l4.31-2.26,4.31,2.26a3.7,3.7,0,0,0,5.37-3.89l-.83-4.8,3.49-3.4a3.7,3.7,0,0,0-2.05-6.31l-4.82-.7-2.15-4.36a3.68,3.68,0,0,0-3.32-2.06Z"/><circle class="cls-2" cx="255.82" cy="492.79" r="38.02"/><path class="cls-3" d="M255.82,454.77a38,38,0,1,1-38,38,38,38,0,0,1,38-38m0-4.39a42.41,42.41,0,1,0,42.41,42.41,42.46,42.46,0,0,0-42.41-42.41Z"/><line class="cls-4" x1="341.37" y1="470.13" x2="445.2" y2="470.13"/><path class="cls-3" d="M445.2,473.05H341.37a2.93,2.93,0,0,1,0-5.85H445.2a2.93,2.93,0,1,1,0,5.85Z"/><path class="cls-4" d="M235.28,475.5s-8.78,26.09,3.81,33.34l2.64-29Z"/><path class="cls-3" d="M235.28,475.5l6.45,4.35-2.64,29c-12.59-7.25-3.81-33.34-3.81-33.34m-1.15-3.4-.91,2.71c-.38,1.13-9.19,27.87,4.79,35.92l2.94,1.69.31-3.38,2.63-29,.12-1.28-1.07-.72-6.44-4.35-2.37-1.6Z"/><path class="cls-2" d="M240.33,478s-9,44.88,9,49.61,35-11.82,26.89-51.19Z"/><path class="cls-3" d="M276.19,476.44c7.25,35-5.49,52-21,52a23.21,23.21,0,0,1-5.89-.78c-17.93-4.73-9-49.61-9-49.61l35.86-1.58m1.75-2.25-1.85.08-35.85,1.57-1.7.08-.34,1.67a135.11,135.11,0,0,0-2.28,23.46c0,16.79,4.31,26.44,12.82,28.68a25.32,25.32,0,0,0,6.45.86,22.2,22.2,0,0,0,17.43-8.46c7.84-9.63,9.86-26,5.7-46.13l-.38-1.81Z"/><path class="cls-5" d="M265.28,521.53c-4.77,6.36-12.82,6.17-19.11,4.71a10.94,10.94,0,0,0,3.13,1.39c17.35,4.57,33.93-10.77,27.6-47.44l-7.27,7.27S274,509.93,265.28,521.53Z"/><path class="cls-4" d="M277.41,501.29s-10.59-3.25-8.15-20.37c0,0-16.29,7.34-31,.82s-6.52-23.64-6.52-23.64,0,12.23,17.93,8.15,34.22-4.07,31,7.34c0,0,22.4,11.34-4.28,37.45Z"/><path class="cls-3" d="M231.78,458.1s0,9,11.29,9a29.82,29.82,0,0,0,6.64-.84,87.6,87.6,0,0,1,18.49-2.47c8.89,0,14.51,2.67,12.47,9.81,0,0,22.4,11.34-4.28,37.45l1-9.75s-10.59-3.25-8.15-20.37a47.18,47.18,0,0,1-17.48,3.52,33.14,33.14,0,0,1-13.48-2.7c-14.67-6.52-6.52-23.64-6.52-23.64m2.17-9.64-4.14,8.71c-.18.38-4.38,9.37-1.4,17.42a16,16,0,0,0,9,9.13,35.1,35.1,0,0,0,14.37,2.89,49.84,49.84,0,0,0,15-2.44c-.61,12,5.31,16.8,8.33,18.45l-.86,8.2-.63,6,4.31-4.22c10.24-10,14.8-19.28,13.53-27.5a19,19,0,0,0-8.31-12.56,8.21,8.21,0,0,0-1.41-6.48c-2.23-3-6.78-4.46-13.52-4.46a90.09,90.09,0,0,0-19,2.53,28,28,0,0,1-6.15.78c-8.74,0-9.11-6.13-9.12-6.82v-9.63Z"/><path class="cls-6" d="M280.67,473.59c3.26-11.41-13-11.41-31-7.34-11.18,2.54-15.39-1.25-17-4.47-.37,2.93.62,6.65,7.18,8.28,11.59,2.9,29.71-6.52,36.24-2.17s2.9,6.52,2.9,6.52,7.37,6.46,10.31,15.16C290.53,478.59,280.67,473.59,280.67,473.59Z"/><ellipse class="cls-3" cx="244.63" cy="501.23" rx="1.81" ry="2.17"/><ellipse class="cls-3" cx="261.66" cy="502.24" rx="1.81" ry="2.17"/><path class="cls-3" d="M258.13,522.43a8.4,8.4,0,0,1-2.92-.6.74.74,0,0,1-.38-1,.72.72,0,0,1,.95-.38c.64.27,2.54.83,3.71.18a2.31,2.31,0,0,0,1.09-1.81.74.74,0,0,1,.84-.6.73.73,0,0,1,.59.84,3.72,3.72,0,0,1-1.83,2.85A4.25,4.25,0,0,1,258.13,522.43Z"/><path class="cls-3" d="M266.37,495.71a.71.71,0,0,1-.56-.26,5.93,5.93,0,0,0-7.09-2,.72.72,0,0,1-1-.32.73.73,0,0,1,.32-1,7.39,7.39,0,0,1,8.86,2.36.71.71,0,0,1-.56,1.18Z"/><path class="cls-3" d="M241.08,495.15l-.18,0a.73.73,0,0,1-.52-.89,4.74,4.74,0,0,1,2.24-3.07,6.3,6.3,0,0,1,4.48-.33.72.72,0,0,1-.43,1.38,4.89,4.89,0,0,0-3.35.23,3.31,3.31,0,0,0-1.54,2.16A.72.72,0,0,1,241.08,495.15Z"/><path class="cls-2" d="M473.8,243.45,462.61,231s-16.17-1.24-17.42-11.19,8.71-7.46,8.71-7.46-18.66-14.93-17.41-23.64,9.95-2.48,13.68,3.74,26.12,14.92,32.34,27.36a38.73,38.73,0,0,1,3.73,23.63Z"/><path class="cls-3" d="M440.07,184.43c3.21,0,7.69,4,10.1,8,3.73,6.21,26.12,14.92,32.34,27.36a38.73,38.73,0,0,1,3.73,23.63H473.8L462.61,231s-16.17-1.24-17.42-11.19c-.82-6.64,3.32-7.74,6.18-7.74a11.48,11.48,0,0,1,2.53.28s-18.66-14.93-17.41-23.64c.44-3.08,1.82-4.29,3.58-4.29m0-4.39h0c-3.27,0-7.08,2.12-7.93,8.06-1,7.18,6.15,15.81,12.27,21.73a8.77,8.77,0,0,0-1.26,1.18c-2,2.29-2.8,5.44-2.31,9.35,1.23,9.83,12.18,13.83,19.63,14.83l10.07,11.19,1.31,1.46h17.91l.76-3.44a42.94,42.94,0,0,0-4.09-26.54c-4.26-8.52-14.43-15.05-22.6-20.3-4-2.56-8.93-5.74-9.9-7.36C451,185.31,445.4,180,440.07,180Z"/><path class="cls-4" d="M457.72,239.15l25.15-29.34s30.73,53.09,78.23,69.85,12,46.46-15.37,37.72C512.9,306.9,464.71,264.29,457.72,239.15Z"/><path class="cls-3" d="M482.87,209.81s30.73,53.09,78.23,69.85c41.6,14.68,19.55,39.29-5,39.29a34.33,34.33,0,0,1-10.39-1.57c-32.83-10.48-81-53.09-88-78.23l25.15-29.34m.69-7.55-4,4.7-25.15,29.33-1.52,1.78.63,2.25C457,253.07,470,270.1,489.12,287c18.6,16.5,39.26,29.41,55.28,34.51a38.3,38.3,0,0,0,11.72,1.79c15.94,0,30.49-9.21,32.43-20.53,1.09-6.38-.83-18.41-26-27.29-45.45-16-75.6-67.39-75.9-67.91l-3.1-5.35Z"/><path class="cls-6" d="M581,308.71c-67.4-5.64-102.2-53.07-116-78l-7.28,8.49c7,25.14,55.18,67.75,88,78.23C559.09,321.64,574.35,316.77,581,308.71Z"/><path class="cls-4" d="M577.55,539.59s-1.46,14.63-13.16,17.55-43.87,11.7-4.39,13.16,43.88-1.46,43.88-1.46,0-24.86-4.39-27.79S577.55,539.59,577.55,539.59Z"/><path class="cls-3" d="M586.88,539.23c4.93,0,10.42.36,12.61,1.82,4.39,2.93,4.39,27.79,4.39,27.79s-2.81,1.87-24.15,1.87c-5.34,0-11.83-.12-19.73-.41-39.48-1.46-7.31-10.24,4.39-13.16s13.16-17.55,13.16-17.55,4.39-.36,9.33-.36m0-4.39c-5.06,0-9.51.36-9.69.38l-3.64.3-.36,3.63c0,.1-1.35,11.61-9.86,13.73-6.08,1.52-11.16,3-15.09,4.36-6.2,2.17-12.21,4.71-11.68,9.84s6.19,7,23.28,7.61c7.39.27,14.08.41,19.89.41,15,0,24-.88,26.58-2.61l2-1.3v-2.35c0-.26,0-6.47-.56-13.16-1.12-13.42-3.44-16.72-5.78-18.28-1.79-1.19-5.12-2.56-15-2.56Z"/><path class="cls-4" d="M656.45,539.59s1.47,14.63,13.16,17.55,43.88,11.7,4.39,13.16-43.87-1.46-43.87-1.46,0-24.86,4.39-27.79S656.45,539.59,656.45,539.59Z"/><path class="cls-3" d="M647.13,539.23c4.94,0,9.32.36,9.32.36s1.47,14.63,13.17,17.55,43.87,11.7,4.38,13.16c-7.89.29-14.39.41-19.72.41-21.35,0-24.15-1.87-24.15-1.87s0-24.86,4.39-27.79c2.19-1.46,7.67-1.82,12.61-1.82m0-4.39c-9.93,0-13.26,1.37-15,2.56-2.34,1.56-4.66,4.86-5.77,18.28-.56,6.69-.57,12.9-.57,13.16v2.35l2,1.3c2.6,1.73,11.54,2.61,26.59,2.61,5.8,0,12.5-.14,19.88-.41,17.09-.64,22.75-2.48,23.28-7.61s-5.47-7.67-11.67-9.84c-3.94-1.37-9-2.84-15.09-4.36-8.51-2.12-9.85-13.63-9.86-13.74l-.39-3.6-3.61-.32c-.19,0-4.63-.38-9.69-.38Z"/><path class="cls-2" d="M546.84,408s20.48,125.77,27.79,138.93h27.78l-5.85-84.82h16.09L630.2,546.9h29.25s-5.85-74.58-5.85-86.28,7.31-49.72,2.92-60S546.84,408,546.84,408Z"/><path class="cls-3" d="M640.49,397.45c8.91,0,15,.9,16,3.21,4.39,10.24-2.92,48.26-2.92,60s5.85,86.28,5.85,86.28H630.2l-17.55-84.82H596.56l5.85,84.82H574.63C567.32,533.74,546.84,408,546.84,408s63.11-10.52,93.65-10.52m0-4.38c-30.55,0-91.78,10.14-94.37,10.57l-4.31.72.7,4.32c2.11,12.95,20.81,126.91,28.28,140.35l1.26,2.26h35.06l-.32-4.69-5.53-80.13h7.82l16.82,81.32.73,3.5h37.56l-.37-4.73c-.06-.74-5.83-74.54-5.83-85.94,0-3.63.82-10.56,1.69-17.9,2.42-20.32,4-36.46.88-43.79-1.81-4.22-7.44-5.86-20.07-5.86Z"/><path class="cls-5" d="M653.6,460.62c0-11.7,7.31-49.72,2.92-60S546.84,408,546.84,408s1.17,8.24,3,20.95a124,124,0,0,0,72.7,15.13,8.2,8.2,0,0,1,8.88,6.89l18.34,96h9.65S653.6,472.32,653.6,460.62Z"/><path class="cls-4" d="M596.56,280.12c-23.43.75-41.45,5-45.33,35.71-5.85,46.32-49.67,113.51,38,117.53,81.9,3.75,79.81-16.9,81.9-34.21,2.92-24.27-16.09-59.63-21.94-80.95C641.41,289.77,637.51,278.79,596.56,280.12Z"/><path class="cls-3" d="M602.79,280c35.15,0,39,11.28,46.42,38.19,5.85,21.32,24.86,56.68,21.94,80.95-1.92,15.92-.31,34.65-63.7,34.65-5.55,0-11.6-.14-18.2-.44-87.69-4-43.87-71.21-38-117.53,3.88-30.72,21.9-35,45.33-35.71,2.18-.08,4.25-.11,6.23-.11m0-4.39c-2,0-4.15,0-6.37.11-22.63.73-45.1,4.39-49.54,39.55-1.25,9.88-4.26,20.67-7.45,32.1-7.18,25.73-14.61,52.35-1.44,70.54,8.8,12.17,25.51,18.65,51.06,19.82,6.53.3,12.72.45,18.4.45,28.17,0,46-3.55,56.2-11.16,9.68-7.25,10.73-17,11.57-24.8.09-.86.18-1.71.28-2.55,2.17-17.95-6.51-40.47-14.16-60.34-3.17-8.23-6.17-16-7.9-22.3-4.07-14.86-7-24.37-14-31.16-7.32-7.19-18.3-10.26-36.7-10.26Z"/><path class="cls-6" d="M671.1,399.61,667.49,397s-41,21.94-71.66,23.4c-19.1.91-42.72-6.1-57.85-11.53,5.54,13.64,20.08,23.06,51.27,24.49C670.44,437.08,669.09,416.82,671.1,399.61Z"/><path class="cls-2" d="M581.94,264.65v21.94s10.24,10.24,27.79,1.46v-23.4Z"/><path class="cls-3" d="M595.94,293.83a22.75,22.75,0,0,1-15.55-5.69l-.64-.64v-25h32.17v27l-1.21.61A32.94,32.94,0,0,1,595.94,293.83Zm-11.81-8.24c2.29,1.81,10.46,7,23.4,1.08V266.85h-23.4Z"/><path class="cls-2" d="M583,268.23c-18-3.92-33.15-8.27-27.64-33.25s4.46-53.88,7-60.65,1.76-28.46,52.16-20.25,34.74,60.26,32.2,67S635.76,279.68,583,268.23Z"/><path class="cls-3" d="M594.55,152.25a124.9,124.9,0,0,1,20,1.83c50.4,8.2,34.74,60.26,32.2,67-2.28,6.1-9.36,48.76-49.32,48.76A68,68,0,0,1,583,268.23c-18-3.92-33.15-8.27-27.64-33.25s4.46-53.88,7-60.65c2.15-5.72,1.93-22.08,32.18-22.08m0-4.39h0c-29.75,0-33.73,15.32-35.64,22.69-.23.88-.45,1.72-.64,2.24-1.25,3.32-1.66,9.07-2.34,19.78-.78,12.21-1.74,27.4-4.84,41.47-2.25,10.22-1.47,18.11,2.4,24.13,5.59,8.73,16.26,11.66,28.6,14.34a72.54,72.54,0,0,0,15.32,1.75c39,0,49.24-36.74,52.61-48.82.33-1.18.64-2.31.82-2.79.46-1.22,11.06-30.13-1.59-51.94-6.55-11.3-18-18.36-34-21a131.11,131.11,0,0,0-20.69-1.89Z"/><path class="cls-5" d="M555.38,235c-5.51,25,9.62,29.33,27.64,33.25,15.74,3.42,27.51,1.18,36.38-3.79-18.76.85-41.58-3.33-49.72-16.17-9.44-14.87,8.55-89,8.55-89l4.91-6.06c-18.82,3.59-18.93,16.22-20.77,21.11C559.84,181.1,560.88,210,555.38,235Z"/><path class="cls-4" d="M563.65,169.8s-21.07-28.18-19.42-38.28,89.69,4.23,107.75,11.61,35.11,2.75,22,37.67-24.51,59.84-34.26,60.41l2.88-31.44s-14.5-20.14-17-32.4C625.67,177.37,582.68,165,563.65,169.8Z"/><path class="cls-3" d="M558.74,128c26.14,0,79.61,9.53,93.24,15.1,18.06,7.39,35.11,2.75,22,37.67s-24.51,59.84-34.26,60.41l2.88-31.44s-14.5-20.14-17-32.4c0,0-30.22-8.66-51.19-8.66a45.74,45.74,0,0,0-10.83,1.09s-21.07-28.18-19.42-38.28c.4-2.48,6-3.49,14.51-3.49m0-4.38c-9.18,0-17.82.86-18.84,7.17-1.85,11.36,16.54,36.65,20.24,41.61l1.75,2.33,2.83-.71a41.79,41.79,0,0,1,9.76-1c16.74,0,40.06,5.84,47.55,7.84,3.25,11.06,13,25.56,16.07,30l-2.72,29.84-.47,5.08,5.09-.3c10.87-.64,20.84-17.19,38.11-63.25,5.29-14.11,6.24-23.18,3.08-29.41-3.35-6.63-10.33-8.59-17.72-10.67a88.94,88.94,0,0,1-9.83-3.19c-14.55-5.95-68.94-15.42-94.9-15.42Z"/><path class="cls-2" d="M632.28,209.56s8.94-18.54,16.39-5.11-3.06,32.47-12.7,27.94"/><path class="cls-3" d="M639,235.28a9.23,9.23,0,0,1-3.93-.9l1.87-4c3.06,1.44,5.79-.78,7.15-2.23,4.6-4.92,6.94-15,2.69-22.66-1-1.72-2.44-3.76-4.15-3.76h-.06c-3.11.09-6.93,5.94-8.28,8.76l-4-1.91c.55-1.13,5.52-11,12.12-11.23,3.12-.1,5.91,1.93,8.17,6,5.28,9.53,2.45,21.61-3.33,27.79C644.73,233.88,641.85,235.28,639,235.28Z"/><ellipse class="cls-3" cx="567.83" cy="205" rx="4.39" ry="2.92" transform="translate(274.27 732.52) rotate(-80.76)"/><ellipse class="cls-3" cx="600.19" cy="211.01" rx="4.39" ry="2.92" transform="translate(295.5 769.5) rotate(-80.76)"/><path class="cls-4" d="M563.6,231s-10.78,11.58-9.8,14.71c.34,1.1,27.23,5.35,38.24,7.53a1.55,1.55,0,0,0,1.41-2.59l-11.79-12.26Z"/><path class="cls-3" d="M563.6,231l18.06,7.39,11.79,12.26a1.55,1.55,0,0,1-1.09,2.62,1.73,1.73,0,0,1-.32,0c-11-2.18-37.9-6.43-38.24-7.53-1-3.13,9.8-14.71,9.8-14.71m-1.15-5.21L560.39,228c-12.51,13.45-11.3,17.34-10.78,19,.93,3,3.3,3.46,11.16,5,4.59.9,10.53,1.95,16.28,3,5.46,1,10.62,1.88,14.13,2.57a5.93,5.93,0,0,0,5.43-9.93l-11.79-12.26-.64-.67-.86-.35-18.06-7.39-2.81-1.15Z"/><path class="cls-2" d="M580.35,210c-9.6,4.37-31.69,12.62-32.63,18.4s42.36,12.82,42.36,12.82"/><path class="cls-3" d="M589.73,243.39c-45.47-7.4-44.49-13.38-44.17-15.34.89-5.49,12.55-10.88,27.7-17.36,2.34-1,4.46-1.9,6.18-2.69l1.82,4c-1.75.79-3.9,1.71-6.27,2.73-7.12,3-23.5,10-25,13.69,2.67,2.94,22.78,7.76,40.46,10.64Z"/><path class="cls-3" d="M598.87,263.21a20.72,20.72,0,0,1-5-.64,1.46,1.46,0,0,1,.78-2.82c.06,0,6,1.61,9.12-.74,1.29-1,1.94-2.49,2-4.66a1.46,1.46,0,0,1,1.46-1.43h0a1.46,1.46,0,0,1,1.44,1.49c-.06,3.09-1.13,5.43-3.17,7A11.08,11.08,0,0,1,598.87,263.21Z"/><path class="cls-3" d="M618.42,200.62a1.46,1.46,0,0,1-1.38-1,11.81,11.81,0,0,0-6.16-7.17c-5.72-2.59-12.8.16-12.87.18a1.46,1.46,0,1,1-1.08-2.71c.33-.14,8.28-3.24,15.14-.15a14.6,14.6,0,0,1,7.72,8.86,1.46,1.46,0,0,1-.88,1.87A1.41,1.41,0,0,1,618.42,200.62Z"/><path class="cls-3" d="M577.63,191.76a1.45,1.45,0,0,1-1.33-.86c-1.76-3.87-3.82-6-6.11-6.25-3.72-.44-7.26,3.92-7.29,4a1.46,1.46,0,0,1-2.3-1.81c.19-.24,4.61-5.72,9.95-5.07,3.37.41,6.2,3.09,8.41,7.95a1.46,1.46,0,0,1-.72,1.94A1.49,1.49,0,0,1,577.63,191.76Z"/><path class="cls-5" d="M596.62,463a3.66,3.66,0,0,0-.79-.2c-8.9-1-6.43,42.59-3.89,84.09h10.47Z"/><path class="cls-6" d="M674,180.8c13.09-34.92-4-30.28-22-37.67s-106.11-21.71-107.75-11.61a12.72,12.72,0,0,0,.51,5.1l102.69,18.74a18.1,18.1,0,0,1,14.45,21.56L650,233.16C657.22,223.05,665.24,204.17,674,180.8Z"/><path class="cls-2" d="M656.52,399.2s-16.08,5.85-17.55,10.23,4.39,5.85,4.39,5.85-14.86,10.08-6,21.13,35.22-23.68,35.22-23.68Z"/><path class="cls-3" d="M641.93,440.77a7.77,7.77,0,0,1-6.24-3,13.39,13.39,0,0,1-3.18-10.65c.74-4.95,4.23-9,6.8-11.38a7.06,7.06,0,0,1-2.07-2.26,5.82,5.82,0,0,1-.35-4.76c1.67-5,14.88-10.15,18.88-11.6l1.2-.44,18.65,15.69-1.26,1.66c-2.06,2.72-20.46,26.55-32.3,26.72Zm14.16-39.07c-7.59,2.89-14.46,6.72-15,8.43a1.48,1.48,0,0,0,0,1.25,5.19,5.19,0,0,0,2.82,1.78l4.69,1.22-4,2.72c-.06,0-6.86,4.75-7.75,10.71A9.07,9.07,0,0,0,639.1,435a3.36,3.36,0,0,0,2.82,1.35H642c7.64-.12,21.45-15.6,27.58-23.34Z"/><path class="cls-4" d="M631.66,289.52c4.13-5.08,14.63-10.24,29.25,1.46s39.79,30.64,43.87,49.72c4.39,20.47-11.7,52.65-23.39,67.27-4.57,5.71-7.36,8.78-7.36,8.78l-24.82-23.4s27.19-30.51,16.09-48.26C658,333.39,612.65,312.91,631.66,289.52Z"/><path class="cls-3" d="M644,283.88c4.69,0,10.41,1.86,17,7.1,14.63,11.7,39.79,30.64,43.87,49.72,4.39,20.47-11.7,52.65-23.39,67.27-4.57,5.71-7.36,8.78-7.36,8.78l-24.82-23.4s27.19-30.51,16.09-48.26c-7.31-11.7-52.65-32.18-33.64-55.57A15.77,15.77,0,0,1,644,283.88m0-4.39h0a20.06,20.06,0,0,0-15.69,7.26c-4.29,5.28-6.13,10.92-5.48,16.77,1.49,13.25,15.52,24.27,26.8,33.12,5.31,4.17,10.34,8.12,12,10.77,7.67,12.28-8.69,35.22-15.64,43l-2.84,3.18,3.1,2.93L671,419.94l3.25,3.06,3-3.3c.12-.13,2.93-3.24,7.53-9,12.55-15.69,29-49.08,24.26-70.93-4.16-19.42-27.26-37.79-42.56-49.95l-2.86-2.28c-6.68-5.34-13.31-8.06-19.7-8.06Z"/><path class="cls-6" d="M704.78,340.7c-4.08-19.08-29.24-38-43.87-49.72-4.7-3.77-9-5.78-12.76-6.62,15.72,12.59,38.75,34.7,43.47,59.27,5.17,26.85-15.19,51.5-27.6,63.67l10,9.45s2.79-3.07,7.36-8.78C693.08,393.35,709.17,361.17,704.78,340.7Z"/></g></g></svg>