<svg xmlns="http://www.w3.org/2000/svg" viewBox="0 0 269.52 246.46"><defs><style>.cls-1{fill:#f4f4f4;}.cls-2,.cls-9{fill:#fff;}.cls-3,.cls-6,.cls-7{fill:#7177bf;}.cls-4{fill:#f5f6f7;}.cls-5{fill:#dbdbf1;}.cls-6,.cls-7,.cls-9{font-size:10.14px;font-family:GothamRounded-Bold, Gotham Rounded;font-weight:700;}.cls-7{letter-spacing:-0.01em;}.cls-8{letter-spacing:0em;}.cls-10{letter-spacing:0em;}.cls-11{fill:#ededf7;}</style></defs><title>Recurso 20</title><g id="Capa_2" data-name="Capa 2"><g id="Capa_1-2" data-name="Capa 1"><path class="cls-1" d="M132.75,246.45c-66.38.91-69.6-38.42-109.44-82.63C-14.37,122-4.5,59.29,39.46,39.38S181.19-24.34,219.77,17.47s69.07,76.66,35,146.35C227.19,220.17,205.41,245.45,132.75,246.45Z"/><rect class="cls-2" x="49.14" y="19.32" width="138.15" height="204.05" rx="20.33" ry="20.33"/><path class="cls-3" d="M174.4,19.32A12.88,12.88,0,0,1,187.28,32.2V210.48a12.88,12.88,0,0,1-12.88,12.89H62a12.89,12.89,0,0,1-12.88-12.89V32.2A12.88,12.88,0,0,1,62,19.32H174.4m0-1.9H62A14.8,14.8,0,0,0,47.24,32.2V210.48A14.8,14.8,0,0,0,62,225.27H174.4a14.81,14.81,0,0,0,14.79-14.79V32.2A14.8,14.8,0,0,0,174.4,17.42Z"/><path class="cls-4" d="M174.4,19.32h-5.49V196.75a12.68,12.68,0,0,1-12.68,12.68H49.14v1A12.89,12.89,0,0,0,62,223.37H174.4a12.88,12.88,0,0,0,12.88-12.89V32.2A12.88,12.88,0,0,0,174.4,19.32Z"/><rect class="cls-2" x="66.88" y="47.2" width="107.09" height="23.45" rx="7.85" ry="7.85"/><path class="cls-3" d="M162.25,47.2a11.73,11.73,0,1,1,0,23.45H78.61a11.73,11.73,0,1,1,0-23.45h83.64m0-1.9H78.61a13.63,13.63,0,1,0,0,27.25h83.64a13.63,13.63,0,1,0,0-27.25Z"/><rect class="cls-2" x="66.88" y="89.66" width="107.09" height="23.45" rx="7.85" ry="7.85"/><path class="cls-3" d="M162.25,89.66a11.73,11.73,0,1,1,0,23.45H78.61a11.73,11.73,0,1,1,0-23.45h83.64m0-1.9H78.61a13.63,13.63,0,1,0,0,27.25h83.64a13.63,13.63,0,1,0,0-27.25Z"/><rect class="cls-2" x="66.88" y="136.55" width="107.09" height="23.45" rx="7.85" ry="7.85"/><path class="cls-3" d="M162.25,136.55a11.73,11.73,0,1,1,0,23.45H78.61a11.73,11.73,0,1,1,0-23.45h83.64m0-1.9H78.61a13.63,13.63,0,1,0,0,27.25h83.64a13.63,13.63,0,1,0,0-27.25Z"/><rect class="cls-5" x="89.7" y="179.64" width="61.47" height="16.48" rx="5.52" ry="5.52"/><path class="cls-3" d="M142.93,179.64a8.24,8.24,0,0,1,0,16.48h-45a8.24,8.24,0,0,1,0-16.48h45m0-1.9h-45a10.14,10.14,0,0,0,0,20.28h45a10.14,10.14,0,0,0,0-20.28Z"/><text class="cls-6" transform="translate(77.66 62.62)">Name</text><text class="cls-6" transform="translate(77.66 105.08)">Email</text><text class="cls-7" transform="translate(77.66 151.34)">C<tspan class="cls-8" x="7.38" y="0">ountry</tspan></text><text class="cls-9" transform="translate(106.8 191.26)"><tspan class="cls-10">S</tspan><tspan x="6.44" y="0">tart</tspan></text><path class="cls-5" d="M147.66,143s5-9.2,10.19-11.8c0,0,6,12.63,11.64,10.8s3.15-20.12,10.08-24.25,11.68.35,10.57,9.88-5.62,24.72-14.55,29S147.66,143,147.66,143Z"/><path class="cls-3" d="M172.47,158.24c-9.91,0-24.75-13.86-25.46-14.52l-.53-.5.35-.65c.2-.38,5.15-9.5,10.6-12.2l.86-.43.42.88c1.56,3.3,6.48,11.58,10.49,10.3,2.2-.71,3-5.41,3.83-10,1-5.83,2.08-11.85,6.05-14.21,3.26-1.94,6.31-2.2,8.59-.72,2.81,1.81,4.05,6,3.41,11.52-1,8.86-5.37,25.09-15.08,29.74A8.13,8.13,0,0,1,172.47,158.24Zm-23.61-15.4c5.59,5.12,19.71,16.11,26.32,12.95,7.8-3.74,12.73-17.26,14-28.25.55-4.69-.41-8.32-2.55-9.71-1.64-1.06-4-.79-6.59.76-3.21,1.92-4.24,7.76-5.15,12.91-1,5.57-1.83,10.37-5.12,11.43a4.64,4.64,0,0,1-1.46.23c-5,0-9.41-7.75-10.88-10.61C153.61,135,150,140.89,148.86,142.84Z"/><path class="cls-2" d="M174.93,140.67s-2.54-3.8-9.51-5.07-15.84-9.5-12-13.31,16.48,3.81,21.55,10.14S174.93,140.67,174.93,140.67Z"/><path class="cls-3" d="M174.55,141.83l-.41-.63c-.06-.08-2.49-3.5-8.89-4.66-5.57-1-12.11-6.08-13.47-10.43a4.23,4.23,0,0,1,.93-4.49,5.1,5.1,0,0,1,4.08-1.28c5.79.32,14.75,6.33,18.88,11.5,2.05,2.57,2.83,4.84,2.3,6.75a4.7,4.7,0,0,1-2.71,3Zm-18.24-19.61a3.07,3.07,0,0,0-2.26.75,2.38,2.38,0,0,0-.45,2.58c1.13,3.64,7.19,8.24,12,9.12,5.54,1,8.44,3.55,9.57,4.78a2.47,2.47,0,0,0,1-1.39c.34-1.27-.34-3-2-5-3.72-4.66-12.36-10.51-17.5-10.79Z"/><path class="cls-2" d="M147.05,99.65l11.81,7.26a2.79,2.79,0,0,1,1.29,1.88l5.54,30.76a2.79,2.79,0,0,1-4.07,2.95L149.51,136a2.79,2.79,0,0,1-1.43-2l-5.24-31.51A2.78,2.78,0,0,1,147.05,99.65Z"/><path class="cls-3" d="M145.59,99.23a2.76,2.76,0,0,1,1.46.42l11.81,7.26a2.79,2.79,0,0,1,1.29,1.88l5.54,30.76a2.79,2.79,0,0,1-2.75,3.29,2.68,2.68,0,0,1-1.32-.34L149.51,136a2.79,2.79,0,0,1-1.43-2l-5.24-31.51a2.79,2.79,0,0,1,2.75-3.25m0-1.91h0A4.72,4.72,0,0,0,142,99a4.65,4.65,0,0,0-1,3.79l5.25,31.51a4.71,4.71,0,0,0,2.4,3.37l12.11,6.51a4.68,4.68,0,0,0,5.83-1.14,4.64,4.64,0,0,0,1-3.83L162,108.46a4.69,4.69,0,0,0-2.16-3.17L148.05,98a4.71,4.71,0,0,0-2.46-.71Z"/><path class="cls-4" d="M156.06,134l-8.62-3.85.64,3.83a2.79,2.79,0,0,0,1.43,2l12.11,6.51a2.79,2.79,0,0,0,4.07-2.95l-5.54-30.76a2.79,2.79,0,0,0-1.29-1.88l-3.16-2,4,26.32A2.57,2.57,0,0,1,156.06,134Z"/><path class="cls-2" d="M151.05,142.57c-4.61-2.47-8.89-8.79-8.41-13.24s3.88-10.13,8.31-4.43,5.28,7.55,3.61,11.54A24.48,24.48,0,0,1,151.05,142.57Z"/><path class="cls-3" d="M151.27,143.77l-.67-.36c-4.65-2.5-9.45-9.1-8.91-14.18.35-3.19,2-6.81,4.61-7.54,1.26-.36,3.21-.19,5.4,2.63,4.32,5.54,5.66,7.89,3.74,12.49a25.62,25.62,0,0,1-3.67,6.39Zm-4-20.32a1.82,1.82,0,0,0-.46.06c-1.66.48-3,3.44-3.24,5.92-.39,3.71,3,9.28,7.22,11.9a26.26,26.26,0,0,0,2.89-5.26c1.44-3.46,1-4.84-3.49-10.59C149.45,124.52,148.37,123.45,147.28,123.45Z"/><path class="cls-5" d="M188.4,219s-.59,5.87-5.29,7-17.61,4.69-1.76,5.28S199,230.7,199,230.7s0-10-1.76-11.15S188.4,219,188.4,219Z"/><path class="cls-3" d="M192.14,218.82c2,0,4.18.14,5.06.73C199,220.72,199,230.7,199,230.7s-1.12.75-9.69.75c-2.14,0-4.75,0-7.92-.16-15.85-.59-2.93-4.11,1.76-5.28s5.29-7,5.29-7,1.76-.14,3.74-.14m0-1.77c-2,0-3.81.15-3.89.16l-1.46.12-.14,1.46s-.55,4.65-4,5.51c-2.44.61-4.48,1.2-6.06,1.75-2.49.87-4.9,1.89-4.69,3.95s2.49,2.8,9.35,3.05c3,.11,5.65.17,8,.17,6,0,9.63-.36,10.67-1.05l.79-.53v-.94c0-.1,0-2.6-.23-5.28-.45-5.39-1.38-6.71-2.32-7.34-.72-.48-2.05-1-6-1Z"/><path class="cls-5" d="M220.07,219s.59,5.87,5.28,7,17.61,4.69,1.76,5.28-17.61-.59-17.61-.59,0-10,1.76-11.15S220.07,219,220.07,219Z"/><path class="cls-3" d="M216.33,218.82c2,0,3.74.14,3.74.14s.59,5.87,5.28,7,17.61,4.69,1.76,5.28c-3.17.12-5.77.16-7.91.16-8.57,0-9.7-.75-9.7-.75s0-10,1.76-11.15c.88-.59,3.09-.73,5.07-.73m0-1.77c-4,0-5.32.55-6,1-.94.63-1.87,1.95-2.32,7.34-.23,2.68-.23,5.18-.23,5.28v.94l.78.53c1,.69,4.64,1.05,10.68,1.05,2.33,0,5-.06,8-.17,6.86-.25,9.13-1,9.34-3.05s-2.19-3.08-4.68-3.95c-1.58-.55-3.62-1.14-6.06-1.75-3.42-.86-3.95-5.47-4-5.52l-.16-1.44-1.44-.13c-.08,0-1.86-.16-3.89-.16Z"/><path class="cls-2" d="M176.07,166.13s8.22,50.48,11.15,55.77h11.16L196,187.85h6.46l7,34.05h11.74s-2.35-29.94-2.35-34.64,2.94-20,1.18-24.07S176.07,166.13,176.07,166.13Z"/><path class="cls-3" d="M213.66,161.91c3.58,0,6,.36,6.44,1.28,1.76,4.11-1.18,19.38-1.18,24.07s2.35,34.64,2.35,34.64H209.53l-7-34.05H196l2.35,34.05H187.22c-2.93-5.29-11.15-55.77-11.15-55.77s25.33-4.22,37.59-4.22m0-1.76c-12.26,0-36.84,4.07-37.88,4.24l-1.73.29.28,1.73c.85,5.2,8.36,51,11.35,56.34l.51.91h14.07l-.13-1.88-2.21-32.17h3.13l6.76,32.64.29,1.41h15.08l-.15-1.9c0-.3-2.35-29.92-2.35-34.5,0-1.45.34-4.24.69-7.18,1-8.16,1.61-14.64.35-17.58-.73-1.69-3-2.35-8.06-2.35Z"/><path class="cls-4" d="M218.92,187.26c0-4.69,2.94-20,1.18-24.07s-44,2.94-44,2.94.47,3.31,1.22,8.41a49.78,49.78,0,0,0,29.18,6.07,3.3,3.3,0,0,1,3.57,2.77l7.36,38.52h3.87S218.92,192,218.92,187.26Z"/><path class="cls-5" d="M196,114.81c-9.41.3-16.64,2-18.2,14.33-2.35,18.6-19.93,45.57,15.26,47.18,32.88,1.51,32-6.78,32.88-13.73,1.17-9.74-6.46-23.94-8.81-32.5C214,118.68,212.47,114.28,196,114.81Z"/><path class="cls-3" d="M198.53,114.77c14.11,0,15.67,4.52,18.63,15.32,2.35,8.56,10,22.76,8.81,32.5-.77,6.39-.12,13.91-25.57,13.91-2.23,0-4.66-.06-7.31-.18-35.19-1.61-17.61-28.58-15.26-47.18,1.56-12.33,8.79-14,18.2-14.33.87,0,1.7,0,2.5,0m0-1.77c-.81,0-1.67,0-2.56,0-9.08.29-18.1,1.76-19.89,15.87a94.11,94.11,0,0,1-3,12.89c-2.88,10.33-5.86,21-.57,28.31,3.53,4.89,10.24,7.49,20.49,8,2.62.12,5.11.18,7.39.18,11.3,0,18.47-1.42,22.56-4.48,3.88-2.91,4.3-6.82,4.64-10l.12-1c.86-7.21-2.62-16.24-5.69-24.22-1.27-3.3-2.48-6.43-3.17-9-1.63-6-2.83-9.78-5.6-12.51-2.94-2.88-7.34-4.12-14.73-4.12Z"/><path class="cls-11" d="M226,162.77l-1.45-1s-16.44,8.8-28.76,9.39c-7.67.36-17.15-2.45-23.23-4.63,2.23,5.47,8.06,9.26,20.58,9.83C225.68,177.81,225.14,169.68,226,162.77Z"/><path class="cls-2" d="M190.16,108.6v8.81s4.11,4.11,11.15.58V108.6Z"/><path class="cls-3" d="M195.78,120.31a9.13,9.13,0,0,1-6.24-2.28l-.26-.26v-10h12.91v10.82l-.48.24A13.27,13.27,0,0,1,195.78,120.31ZM191,117c.92.72,4.2,2.8,9.39.43v-8H191Z"/><path class="cls-2" d="M190.59,110c-7.23-1.58-13.3-3.32-11.09-13.35s1.79-21.63,2.81-24.35.7-11.42,20.93-8.12,13.95,24.19,12.93,26.9S211.76,114.63,190.59,110Z"/><path class="cls-3" d="M195.22,63.48a49.49,49.49,0,0,1,8,.74c20.23,3.29,13.95,24.19,12.93,26.9-.92,2.45-3.76,19.58-19.8,19.58a27.62,27.62,0,0,1-5.78-.66c-7.23-1.58-13.3-3.32-11.09-13.35s1.79-21.63,2.81-24.35c.86-2.29.77-8.86,12.91-8.86m0-1.76h0c-11.94,0-13.54,6.15-14.31,9.11-.09.35-.18.69-.25.9-.5,1.33-.67,3.64-.94,7.94a111.78,111.78,0,0,1-1.94,16.64c-.91,4.1-.59,7.27,1,9.69,2.24,3.5,6.53,4.68,11.48,5.76a29.45,29.45,0,0,0,6.15.7c15.64,0,19.76-14.75,21.12-19.6.13-.47.25-.93.33-1.12.18-.49,4.43-12.09-.64-20.85-2.63-4.53-7.23-7.37-13.66-8.41a52.67,52.67,0,0,0-8.3-.76Z"/><path class="cls-4" d="M179.5,96.69c-2.21,10,3.86,11.77,11.09,13.35,6.32,1.37,11,.47,14.61-1.53-7.54.35-16.69-1.33-20-6.49-3.79-6,3.43-35.72,3.43-35.72l2-2.43c-7.55,1.44-7.6,6.51-8.33,8.47C181.29,75.06,181.7,86.67,179.5,96.69Z"/><path class="cls-5" d="M182.82,70.53s-8.46-11.31-7.8-15.37,36,1.7,43.25,4.66,14.1,1.11,8.84,15.12-9.84,24-13.75,24.25l1.16-12.62s-5.83-8.09-6.81-13C207.71,73.57,190.45,68.62,182.82,70.53Z"/><path class="cls-3" d="M180.85,53.76c10.49,0,32,3.83,37.42,6.06,7.25,3,14.1,1.11,8.84,15.12s-9.84,24-13.75,24.25l1.16-12.62s-5.83-8.09-6.81-13c0,0-12.13-3.48-20.55-3.48a18.24,18.24,0,0,0-4.34.44s-8.46-11.31-7.8-15.37c.16-1,2.41-1.4,5.83-1.4m0-1.76c-3.69,0-7.16.35-7.57,2.88-.74,4.56,6.64,14.71,8.13,16.7l.7.94,1.14-.29a16.92,16.92,0,0,1,3.91-.38c6.73,0,16.08,2.34,19.09,3.14,1.31,4.44,5.2,10.26,6.45,12.06l-1.09,12-.19,2,2.05-.12c4.36-.26,8.36-6.9,15.29-25.39,2.13-5.66,2.51-9.3,1.24-11.81s-4.15-3.44-7.11-4.28a34.14,34.14,0,0,1-3.95-1.28C213.1,55.8,191.27,52,180.85,52Z"/><path class="cls-2" d="M210.37,86.49s3.59-7.45,6.57-2-1.22,13-5.09,11.21"/><path class="cls-3" d="M213.05,96.81a3.75,3.75,0,0,1-1.58-.36l.75-1.6a2.53,2.53,0,0,0,2.87-.89,8.31,8.31,0,0,0,1.08-9.1c-.38-.69-1-1.5-1.66-1.5h0c-1.25,0-2.78,2.38-3.32,3.51l-1.59-.76c.22-.46,2.22-4.44,4.86-4.51,1.26,0,2.38.77,3.29,2.41a10.06,10.06,0,0,1-1.34,11.15A4.61,4.61,0,0,1,213.05,96.81Z"/><ellipse class="cls-3" cx="184.49" cy="84.66" rx="1.76" ry="1.17" transform="translate(71.3 253.15) rotate(-80.76)"/><ellipse class="cls-3" cx="197.48" cy="87.07" rx="1.76" ry="1.17" transform="translate(79.82 268) rotate(-80.76)"/><path class="cls-5" d="M182.8,95.09s-4.33,4.64-3.94,5.9c.14.44,10.93,2.15,15.35,3a.62.62,0,0,0,.57-1l-4.73-4.92Z"/><path class="cls-3" d="M182.8,95.09l7.25,3,4.73,4.92a.62.62,0,0,1-.44,1h-.13c-4.42-.87-15.21-2.58-15.35-3-.39-1.26,3.94-5.9,3.94-5.9m-.46-2.1-.83.9c-5,5.39-4.54,7-4.33,7.62.38,1.2,1.33,1.39,4.48,2,1.84.36,4.23.78,6.53,1.19s4.27.75,5.68,1a2.5,2.5,0,0,0,.47.05,2.39,2.39,0,0,0,1.71-4l-4.73-4.92-.26-.27-.35-.14-7.25-3L182.34,93Z"/><path class="cls-2" d="M189.52,86.66c-3.85,1.76-12.72,5.07-13.1,7.39s17,5.15,17,5.15"/><path class="cls-3" d="M193.29,100.06c-18.25-3-17.86-5.37-17.74-6.15.36-2.21,5-4.37,11.13-7,.93-.4,1.79-.76,2.48-1.08l.73,1.61-2.52,1.09c-2.86,1.22-9.43,4-10,5.5,1.07,1.18,9.15,3.11,16.24,4.27Z"/><path class="cls-3" d="M197,108a8.14,8.14,0,0,1-2-.26.59.59,0,0,1-.41-.72.6.6,0,0,1,.73-.41s2.39.65,3.66-.29a2.2,2.2,0,0,0,.79-1.87.6.6,0,0,1,.59-.58h0a.59.59,0,0,1,.58.6,3.37,3.37,0,0,1-1.27,2.79A4.48,4.48,0,0,1,197,108Z"/><path class="cls-3" d="M204.8,82.9a.58.58,0,0,1-.55-.39,4.75,4.75,0,0,0-2.47-2.88c-2.3-1-5.14.06-5.17.07a.59.59,0,1,1-.43-1.09,8.69,8.69,0,0,1,6.07,0,5.81,5.81,0,0,1,3.1,3.55.59.59,0,0,1-.35.75A.48.48,0,0,1,204.8,82.9Z"/><path class="cls-3" d="M188.43,79.34a.61.61,0,0,1-.54-.34c-.7-1.56-1.53-2.4-2.45-2.51-1.49-.18-2.91,1.57-2.92,1.59a.59.59,0,0,1-.83.1.6.6,0,0,1-.1-.83c.08-.09,1.86-2.29,4-2,1.35.16,2.49,1.24,3.37,3.19a.58.58,0,0,1-.29.78A.69.69,0,0,1,188.43,79.34Z"/><path class="cls-4" d="M196.05,188.22l-.31-.08c-3.58-.39-2.59,17.1-1.57,33.76h4.21Z"/><path class="cls-11" d="M227.11,74.94c5.26-14-1.59-12.15-8.84-15.12S175.68,51.11,175,55.16a5.15,5.15,0,0,0,.21,2.05l41.22,7.52a7.27,7.27,0,0,1,5.8,8.66L217.46,96C220.38,91.9,223.6,84.32,227.11,74.94Z"/><path class="cls-5" d="M221.53,118.55c7.73,4.18-3.27,29.42-20.93,33.34s-31.38-11.77-31.38-11.77l5.89-12.42s11.77,11.11,21.57,9.15S205.84,110.05,221.53,118.55Z"/><path class="cls-3" d="M215.64,116.78a12.49,12.49,0,0,1,5.89,1.77c7.73,4.18-3.27,29.42-20.93,33.34a26.64,26.64,0,0,1-5.72.63c-14.81,0-25.66-12.4-25.66-12.4l5.89-12.42s9.94,9.38,19.16,9.38a12.15,12.15,0,0,0,2.41-.23c8.38-1.68,9.13-20.07,19-20.07m0-1.9h0c-6.41,0-9.49,6.06-12.21,11.41-2.11,4.16-4.11,8.1-7.12,8.7a10.46,10.46,0,0,1-2,.19c-8.35,0-17.76-8.78-17.86-8.86l-1.9-1.8-1.12,2.36-5.88,12.43-.54,1.12.82.94c.47.53,11.6,13,27.09,13a28.25,28.25,0,0,0,6.14-.68c6.15-1.36,12.19-5.35,17-11.22,4.14-5.07,7-11.13,7.75-16.23.64-4.56-.55-7.9-3.34-9.42a14.32,14.32,0,0,0-6.79-2Z"/><path class="cls-11" d="M224,123.05c-10.41,15.28-17.41,24-30.69,24.59-10.14.42-18-6.76-22.15-11.59l-1.93,4.07S183,155.81,200.6,151.89C214.84,148.73,224.74,131.72,224,123.05Z"/></g></g></svg>