<svg xmlns="http://www.w3.org/2000/svg" xmlns:xlink="http://www.w3.org/1999/xlink" viewBox="0 0 748.18 503.64"><defs><style>.cls-1{fill:none;}.cls-2{opacity:0.3;}.cls-3{clip-path:url(#clip-path);}.cls-4{fill:#fff;}.cls-5{fill:#7177bf;}.cls-6{fill:#dbdbf1;}.cls-7{fill:#f5f6f7;}.cls-8{fill:#ededf7;}</style><clipPath id="clip-path" transform="translate(-940.71 -80.07)"><rect class="cls-1" width="1920" height="366"/></clipPath></defs><title>Recurso 16</title><g id="Capa_2" data-name="Capa 2"><g id="Capa_1-2" data-name="Capa 1"><g class="cls-2"><g class="cls-3"><path class="cls-4" d="M1103.06,284.33c-1.34-1.45-57-15.33-53-27.88s41.39-14.11,53.53-1S1120,280.21,1120,280.21Z" transform="translate(-940.71 -80.07)"/><path class="cls-5" d="M1075.39,246.3c10.89,0,22.38,2.92,28.15,9.14,12.13,13.11,16.45,24.77,16.45,24.77l-16.93,4.12c-1.34-1.45-57-15.33-53-27.88,2.06-6.59,13.36-10.15,25.38-10.15m0-4.77v0h0c-12.43,0-26.82,3.55-29.93,13.49-4.16,13.29,21.89,22.77,48.93,31.35,2.31.73,4.68,1.48,5.81,1.89l1.27,1.37,2.72-.66,16.93-4.13,5.2-1.27-1.86-5c-.19-.51-4.79-12.71-17.42-26.35-6.19-6.68-18-10.67-31.64-10.67Z" transform="translate(-940.71 -80.07)"/><path class="cls-4" d="M1446.69,284.33c1.34-1.45,57-15.33,53-27.88s-41.39-14.11-53.53-1-16.45,24.77-16.45,24.77Z" transform="translate(-940.71 -80.07)"/><path class="cls-5" d="M1474.36,246.3c12,0,23.32,3.56,25.38,10.15,3.93,12.55-51.71,26.43-53,27.88l-16.93-4.12s4.32-11.66,16.45-24.77c5.77-6.22,17.26-9.14,28.15-9.14m0-4.77c-13.63,0-25.46,4-31.65,10.67-12.63,13.64-17.23,25.84-17.42,26.35l-1.86,5,5.2,1.27,16.93,4.13,2.72.66,1.27-1.37c1.13-.41,3.5-1.16,5.81-1.89,27-8.58,53.09-18.06,48.93-31.35-3.11-9.94-17.5-13.49-29.93-13.49Z" transform="translate(-940.71 -80.07)"/><path class="cls-6" d="M1245.54,551.91s1.58,12.72-8,15.9-35,6.36-22.26,12.72h52.46s4.77-19.08-3.18-27S1245.54,551.91,1245.54,551.91Z" transform="translate(-940.71 -80.07)"/><path class="cls-5" d="M1269.65,582.92h-54.88l-.51-.26c-1.27-.64-5.16-2.58-4.78-5.92.5-4.35,7.49-6.24,18.85-9,3.26-.78,6.35-1.52,8.5-2.24,7.55-2.52,6.39-12.9,6.34-13.34l-.19-1.58,1.37-.79c4.4-2.51,14.64-5.33,22,2,8.8,8.8,4,28.46,3.8,29.29Zm-53.74-4.77h50c1.16-6,2.19-17.83-2.94-23s-12-3-14.9-1.83c.17,5.41-1.62,14-9.69,16.71-2.35.79-5.53,1.55-8.9,2.35-4.63,1.11-13,3.11-15,4.77A7.79,7.79,0,0,0,1215.91,578.15Z" transform="translate(-940.71 -80.07)"/><path class="cls-4" d="M1223.28,416.79s14.31,128.77,19.08,143.07H1271l1.59-87.43h12.72l17.49,85.84h33.38l-8-141.48Z" transform="translate(-940.71 -80.07)"/><path class="cls-5" d="M1328.2,416.79l8,141.48h-33.38l-17.49-85.84h-12.72L1271,559.86h-28.61c-4.77-14.3-19.08-143.07-19.08-143.07H1328.2m4.51-4.77H1218l.59,5.29c.58,5.28,14.42,129.44,19.29,144.06l1.09,3.26h36.73l.09-4.68,1.5-82.75h4.14l16.71,82,.78,3.81h42.33l-.29-5-8-141.49-.25-4.5Z" transform="translate(-940.71 -80.07)"/><path class="cls-7" d="M1223.28,416.79s1,8.67,2.47,21.75c14.69,7.85,42.33,15.34,90.53,6.07l18.94,113.66h.93l-8-141.48Z" transform="translate(-940.71 -80.07)"/><path class="cls-6" d="M1441.54,256.17s-21.73,31.57-49.42,38.93c-19.95,5.3-60.94-27.85-82.14-20.61-1.51-.52-2.44-.78-2.44-.78l-39.75-4.77a79.48,79.48,0,0,0-27.3,5.81c-21-8.28-62.69,25.71-82.87,20.35-27.7-7.36-49.42-38.93-49.42-38.93l-21,24.11s32,46,64.22,55.67c20.41,6.13,45-2,62.34-10.23-3.43,28.07-10.07,82.28,6.34,97.42,20.67,19.08,88.92,16.16,109.69,0,20.4-15.86,11.72-64.83,6.2-97.41,17.32,8.19,41.93,16.35,62.33,10.22,32.18-9.66,64.21-55.67,64.21-55.67Z" transform="translate(-940.71 -80.07)"/><path class="cls-5" d="M1441.54,256.17l21,24.11s-32,46-64.21,55.67a53.75,53.75,0,0,1-15.53,2.15c-16.46,0-33.71-6.18-46.8-12.37,5.52,32.58,14.2,81.55-6.2,97.41-10.81,8.42-34.5,13.24-57.64,13.24-21.3,0-42.14-4.09-52.05-13.24-16.41-15.14-9.77-69.35-6.34-97.42-13.09,6.2-30.35,12.38-46.81,12.38a53.75,53.75,0,0,1-15.53-2.15c-32.18-9.66-64.22-55.67-64.22-55.67l21-24.11s21.72,31.57,49.42,38.93a18.91,18.91,0,0,0,4.8.58c18.89,0,50.07-22.24,70.49-22.24a20.43,20.43,0,0,1,7.58,1.31,79.48,79.48,0,0,1,27.3-5.81l39.75,4.77s.93.26,2.44.78a21.06,21.06,0,0,1,6.85-1c20.43,0,51.6,22.23,70.49,22.23a19,19,0,0,0,4.8-.58c27.69-7.36,49.42-38.93,49.42-38.93m-.45-7.77-3.48,5.07c-.3.43-21.15,30.23-46.72,37a13.83,13.83,0,0,1-3.57.42c-8.27,0-20.34-5.28-32-10.39-13.31-5.82-27.07-11.84-38.48-11.84a27.07,27.07,0,0,0-6.77.81l-1.24-.38-.35-.09-.37,0-39.74-4.77-.29,0h-.28a84,84,0,0,0-27.44,5.49,27,27,0,0,0-7.44-1c-11.41,0-25.17,6-38.48,11.84-11.68,5.11-23.75,10.4-32,10.4a13.83,13.83,0,0,1-3.57-.42c-25.63-6.81-46.51-36.72-46.72-37l-3.49-5.06-4,4.63-21,24.11-2.45,2.81,2.13,3.05c1.35,1.93,33.37,47.48,66.75,57.51a58.67,58.67,0,0,0,16.91,2.34c14.51,0,29.38-4.55,41.08-9.39-4.45,38.6-6.83,78.72,8.83,93.18,14.18,13.09,43.39,14.5,55.29,14.5,25.68,0,49.45-5.59,60.57-14.24,20.83-16.21,15.13-59.1,9.45-93.24,11.62,4.76,26.29,9.19,40.62,9.19a58.56,58.56,0,0,0,16.9-2.34c33.39-10,65.41-55.58,66.76-57.51l2.12-3.05-2.44-2.81-21-24.11-4-4.64Z" transform="translate(-940.71 -80.07)"/><path class="cls-6" d="M1222.66,139.37S1203.4,196.6,1231,212.5l5.78-63.59Z" transform="translate(-940.71 -80.07)"/><path class="cls-5" d="M1222.66,139.37l14.13,9.54L1231,212.5c-27.61-15.9-8.35-73.13-8.35-73.13m-2.52-7.45-2,5.93c-.84,2.49-20.16,61.14,10.5,78.79l6.45,3.71.67-7.42,5.78-63.59.26-2.8-2.34-1.58-14.13-9.54-5.19-3.5Z" transform="translate(-940.71 -80.07)"/><path class="cls-4" d="M1259.84,251.45v20.67s1.59,7.95,12.72,9.54,19.08-8,19.08-8V251.45Z" transform="translate(-940.71 -80.07)"/><path class="cls-5" d="M1275.1,284.22a20.42,20.42,0,0,1-2.88-.2c-12.65-1.81-14.64-11-14.72-11.43l0-.47V249.07H1294v25.5l-.55.66C1293.14,275.63,1285.84,284.22,1275.1,284.22Zm-12.87-12.4c.3,1.05,2.24,6.27,10.67,7.48,8.16,1.16,14.5-4.6,16.35-6.52V253.84h-27Z" transform="translate(-940.71 -80.07)"/><path class="cls-4" d="M1233.73,144.89s-19.66,98.45,19.67,108.81,76.85-25.91,59-112.27Z" transform="translate(-940.71 -80.07)"/><path class="cls-5" d="M1312.38,141.43c15.89,76.81-12,114-46.07,114a50.52,50.52,0,0,1-12.91-1.73c-39.33-10.36-19.67-108.81-19.67-108.81l78.65-3.46m3.85-4.94-4.06.18-78.64,3.45-3.74.17-.73,3.66a294.5,294.5,0,0,0-5,51.46c0,36.82,9.46,58,28.13,62.9a55.41,55.41,0,0,0,14.13,1.88c14.92,0,28.5-6.58,38.23-18.54,17.2-21.12,21.64-57.05,12.51-101.18l-.82-4Z" transform="translate(-940.71 -80.07)"/><path class="cls-7" d="M1288.46,240.32c-10.48,14-28.13,13.55-41.93,10.34a23.31,23.31,0,0,0,6.87,3c38,10,74.41-23.61,60.54-104L1298,165.6S1307.54,214.89,1288.46,240.32Z" transform="translate(-940.71 -80.07)"/><path class="cls-6" d="M1315.06,196s-23.24-7.15-17.87-44.68c0,0-35.75,16.08-67.92,1.78s-14.3-51.83-14.3-51.83,0,26.81,39.32,17.87,75.07-8.93,67.92,16.09c0,0,49.13,24.89-9.39,82.15Z" transform="translate(-940.71 -80.07)"/><path class="cls-5" d="M1215,101.22s0,19.7,24.76,19.7a66,66,0,0,0,14.56-1.83c14.71-3.34,28.92-5.43,40.57-5.43,19.49,0,31.82,5.85,27.35,21.52,0,0,49.13,24.89-9.39,82.15l2.24-21.38s-23.24-7.15-17.87-44.68a103.83,103.83,0,0,1-38.36,7.7,72.47,72.47,0,0,1-29.56-5.92c-32.18-14.3-14.3-51.83-14.3-51.83m4.76-21.15-9.07,19.1c-.39.83-9.61,20.54-3.08,38.21,3.3,8.93,10,15.67,19.75,20a77.13,77.13,0,0,0,31.5,6.33,109.34,109.34,0,0,0,32.87-5.35c-1.34,26.33,11.64,36.85,18.26,40.47l-1.89,18L1306.69,230l9.46-9.25c22.47-22,32.46-42.28,29.68-60.31-2.31-15-12.81-23.88-18.23-27.55.88-5.55-.15-10.32-3.09-14.21-4.89-6.49-14.87-9.78-29.65-9.78-11.25,0-25.64,1.92-41.63,5.55a62,62,0,0,1-13.5,1.71c-19.17,0-20-13.44-20-15V80.07Z" transform="translate(-940.71 -80.07)"/><path class="cls-8" d="M1322.21,135.18c7.15-25-28.6-25-67.92-16.09-24.52,5.57-33.75-2.75-37.22-9.81-.81,6.42,1.38,14.58,15.75,18.17,25.43,6.36,65.18-14.31,79.48-4.77s6.36,14.31,6.36,14.31,16.17,14.16,22.63,33.25C1343.83,146.14,1322.21,135.18,1322.21,135.18Z" transform="translate(-940.71 -80.07)"/><ellipse class="cls-5" cx="302.44" cy="115.74" rx="3.97" ry="4.77"/><ellipse class="cls-5" cx="339.8" cy="114.94" rx="3.97" ry="4.77"/><path class="cls-5" d="M1272.76,242.3a18,18,0,0,1-6.39-1.31,1.59,1.59,0,0,1,1.25-2.92c1.39.59,5.56,1.81,8.13.4a5.12,5.12,0,0,0,2.4-4,1.59,1.59,0,1,1,3.13.52,8.18,8.18,0,0,1-4,6.25A9.37,9.37,0,0,1,1272.76,242.3Z" transform="translate(-940.71 -80.07)"/><path class="cls-5" d="M1290.84,180.71a1.6,1.6,0,0,1-1.22-.58c-7.06-8.47-15.47-4.4-15.55-4.36a1.59,1.59,0,1,1-1.43-2.84c.11-.06,10.77-5.22,19.42,5.17a1.59,1.59,0,0,1-1.22,2.61Z" transform="translate(-940.71 -80.07)"/><path class="cls-5" d="M1238.38,185.48a1.51,1.51,0,0,1-.41-.06,1.59,1.59,0,0,1-1.13-1.94,10.32,10.32,0,0,1,4.92-6.73c4.36-2.4,9.59-.81,9.81-.74a1.59,1.59,0,0,1-.94,3c-.09,0-4.21-1.25-7.35.5a7.24,7.24,0,0,0-3.36,4.75A1.6,1.6,0,0,1,1238.38,185.48Z" transform="translate(-940.71 -80.07)"/><path class="cls-8" d="M1398.32,336c32.18-9.66,64.21-55.67,64.21-55.67l-6.74-7.74c-53.83,91-127.59,37.73-127.59,37.73a345.75,345.75,0,0,1,1.59,70c-3.18,36.57,4.77,31.8-50.87,42.92-22.43,4.49-45.38-1.1-64.78-9.37a24.91,24.91,0,0,0,6,9.37c20.67,19.08,88.92,16.16,109.69,0,20.4-15.86,11.72-64.83,6.2-97.41C1353.31,333.92,1377.92,342.08,1398.32,336Z" transform="translate(-940.71 -80.07)"/><path class="cls-8" d="M1151.42,336c19.91,6,43.8-1.64,61-9.63l10.82-12.87s-22.26,17.49-66.77,7.95c-30.49-6.53-55-29.47-67.43-43.27l-1.88,2.15S1119.24,326.29,1151.42,336Z" transform="translate(-940.71 -80.07)"/><path class="cls-6" d="M1005.34,543.23S1007,556.63,997,560s-36.85,6.7-23.45,13.4h55.27s5-20.1-3.35-28.48S1005.34,543.23,1005.34,543.23Z" transform="translate(-940.71 -80.07)"/><path class="cls-5" d="M1030.65,575.76H973l-.51-.25c-1.32-.66-5.36-2.68-5-6.11.51-4.5,7.84-6.47,19.76-9.33,3.44-.82,6.69-1.6,9-2.35,8-2.69,6.81-13.73,6.76-14.2l-.19-1.57,1.37-.79c4.6-2.63,15.32-5.59,23,2.06,9.22,9.22,4.19,29.86,4,30.73ZM974.1,571h52.77c1.23-6.27,2.36-18.93-3.11-24.4s-12.93-3.22-15.92-1.93c.21,5.66-1.63,14.75-10.12,17.58-2.47.82-5.82,1.62-9.36,2.47-5,1.2-14.05,3.36-15.94,5.15A8.33,8.33,0,0,0,974.1,571Z" transform="translate(-940.71 -80.07)"/><path class="cls-6" d="M1080.21,543.23s-1.68,13.4,8.37,16.75,36.85,6.7,23.45,13.4h-55.27s-5-20.1,3.35-28.48S1080.21,543.23,1080.21,543.23Z" transform="translate(-940.71 -80.07)"/><path class="cls-5" d="M1112.59,575.76H1054.9l-.45-1.81c-.22-.87-5.25-21.51,4-30.73,7.64-7.65,18.37-4.69,23-2.06l1.38.79-.2,1.57c-.06.5-1.27,11.52,6.76,14.2,2.28.75,5.53,1.53,9,2.35,11.92,2.86,19.25,4.83,19.76,9.33.4,3.43-3.64,5.45-5,6.11ZM1058.67,571h52.78a8.33,8.33,0,0,0,1.68-1.13c-1.89-1.79-11-4-15.94-5.15-3.54-.85-6.89-1.65-9.36-2.47-8.49-2.83-10.33-11.92-10.13-17.58-3-1.29-10.36-3.61-15.91,1.93S1057.44,564.73,1058.67,571Z" transform="translate(-940.71 -80.07)"/><path class="cls-6" d="M976.87,400.87S997,536.53,1002,551.6h30.15l-3.35-92.11h23.45l1.67,90.44h28.48l15.07-149.06Z" transform="translate(-940.71 -80.07)"/><path class="cls-5" d="M1097.46,400.87l-15.07,149.06h-28.48l-1.67-90.44h-23.45l3.35,92.11H1002c-5-15.07-25.12-150.73-25.12-150.73h120.59m5.28-4.77H971.34l.81,5.47c.83,5.55,20.22,136.25,25.32,151.54l1.09,3.26h38.53l-.18-4.94-3.17-87.17h13.82l1.59,85.76.08,4.68h37.47l.43-4.29,15.08-149.06.53-5.25Z" transform="translate(-940.71 -80.07)"/><path class="cls-4" d="M1114.66,396c-3.24-28.61-19.89-81.18-21-91.27s2.57-31.62-49.76-33.67h-.45c-52.34-1.79-50.51,19.59-52.1,29.93-1.54,10-22.25,61.2-27.58,89.49s21.8,29.29,21.8,29.29l52.35,1.93h.46l52.35,1.92S1117.9,424.57,1114.66,396Z" transform="translate(-940.71 -80.07)"/><path class="cls-5" d="M1037.49,270.9q2.88,0,6,.1h.45c52.33,2.05,48.71,23.6,49.76,33.67s17.71,62.66,21,91.27c3,26.75-20.48,27.62-23.55,27.62h-.33l-52.35-1.92H1038l-52.35-1.93s-27.12-1-21.8-29.29,26-79.45,27.58-89.49-.1-30,46.09-30m1.4-4.83v.06h-1.4c-46.73,0-49.18,20.61-50.49,31.68-.1.85-.2,1.65-.31,2.4-.55,3.55-4.42,14.7-8.51,26.5-7,20.23-15.76,45.41-19,62.83-1.9,10.06-.34,18.32,4.63,24.54,7.82,9.78,21.11,10.38,21.67,10.4l52.35,1.92.46,0,52.35,1.92h.51c2.34,0,14.41-.44,22.16-9.11,5.2-5.82,7.26-13.84,6.13-23.82-2.05-18.12-9.38-45.69-14.74-65.81-3.13-11.79-5.84-22-6.2-25.42-.08-.76-.14-1.66-.19-2.61-.34-5.77-.86-14.49-8.52-21.91s-21.19-11.88-40.84-13.17v-.08l-4.8-.17h-.46l-4.77-.16Z" transform="translate(-940.71 -80.07)"/><path class="cls-4" d="M1035.34,249.62l.76,21.75s1.91,9.46,13.75,9.57c20.17.2,19.79-9.07,19.79-9.07l-.83-23.44Z" transform="translate(-940.71 -80.07)"/><path class="cls-5" d="M1050.46,283.33h-.63c-10.9-.1-15.27-7.56-16.06-11.48l0-.39-.85-24.14,38.24-1.35.91,25.81a8.69,8.69,0,0,1-2.71,6.07C1065.79,281.49,1059.45,283.33,1050.46,283.33Zm-12-12.28c.29,1.09,2.37,7.42,11.39,7.51,13.61.15,17.33-4.3,17.39-6.67l-.75-21-28.71,1Z" transform="translate(-940.71 -80.07)"/><path class="cls-4" d="M1012.74,144.4s-42,115.29,45.14,113.24c88.81-2.08,28.6-115.56,28.6-115.56Z" transform="translate(-940.71 -80.07)"/><path class="cls-5" d="M1086.48,142.08s60.21,113.48-28.6,115.56c-.77,0-1.51,0-2.27,0-84.11,0-42.87-113.27-42.87-113.27l73.74-2.32m2.82-4.86-3,.09-73.74,2.32-3.23.11-1.1,3c-1,2.64-23.24,65,.45,98.82,9.69,13.83,25.47,20.85,46.9,20.85l2.39,0c22.53-.53,38.17-8,46.49-22.21,20.46-34.95-12.39-97.7-13.8-100.35l-1.39-2.63Z" transform="translate(-940.71 -80.07)"/><path class="cls-7" d="M1092.26,154.45l-9.87,8.59s23.44,35.17,8.37,68.67c-9.23,20.51-41.06,21.55-64.74,19.28,7.94,4.46,18.35,7,31.86,6.65C1128.49,256,1104.9,183.92,1092.26,154.45Z" transform="translate(-940.71 -80.07)"/><path class="cls-6" d="M1008.69,194.86s30.15-15.07,30.15-43.55c0,0,16.75,35.18,67,38.53,0,0,15.08-40.2-21.77-62s-50.24,6.7-50.24,6.7-45.23-11.73-45.23,38.52,17.76,57.84,17.76,57.84S1003.67,209.93,1008.69,194.86Z" transform="translate(-940.71 -80.07)"/><path class="cls-5" d="M1058.66,119.67c6.81,0,15.21,2.18,25.4,8.2,36.85,21.77,21.77,62,21.77,62-50.24-3.35-67-38.53-67-38.53,0,28.48-30.15,43.55-30.15,43.55-5,15.07-2.34,36.07-2.34,36.07s-17.76-7.6-17.76-57.84c0-34.26,21-39.71,34.4-39.71a47.55,47.55,0,0,1,10.83,1.19s7-14.91,24.84-14.9m0-4.77h0a32.34,32.34,0,0,0-27.2,14.36,55.92,55.92,0,0,0-8.46-.65c-10,0-18.74,2.79-25.22,8.08-9.25,7.54-13.94,19.78-13.94,36.4,0,51.89,18.53,61.32,20.64,62.22l7.66,3.28-1-8.26c0-.19-2.28-18.51,1.6-32.21,5.81-3.33,23.3-14.72,29.06-34,9.43,11.44,29,28.16,63.78,30.47l3.54.24,1.24-3.32a64.94,64.94,0,0,0,3.22-24.81c-.83-12.79-6.21-30.63-27-42.94-10-5.88-19.32-8.86-27.83-8.86Z" transform="translate(-940.71 -80.07)"/><path class="cls-4" d="M1011.66,216.25s-12.86,6.28-14.77-13.73,15.4-14.93,19.69-5.24" transform="translate(-940.71 -80.07)"/><path class="cls-5" d="M1007.27,219.57a10.6,10.6,0,0,1-5.26-1.34c-4.22-2.36-6.74-7.57-7.49-15.48-1.19-12.43,4.76-15.37,7.37-16.05,6-1.58,13.91,2.91,16.87,9.61l-4.36,1.93c-2-4.47-7.57-7.9-11.31-6.93-4.14,1.09-4.17,7.35-3.83,11,.59,6.15,2.33,10.22,5,11.76,2.88,1.64,6.28.07,6.32,0l2.08,4.3A13.52,13.52,0,0,1,1007.27,219.57Z" transform="translate(-940.71 -80.07)"/><path class="cls-7" d="M1076.49,276.83c10,26.34,23.56,88.46,22.66,110.46-1.11,27-49.8,27.68-95.42,24.76-20.05-1.29-32.68-7.08-40.54-13.18,1,20,22.43,20.84,22.43,20.84l52.35,1.92.46,0,52.35,1.92s27.12,1,23.88-27.61-19.89-81.18-21-91.27C1093,297.49,1094.58,284.44,1076.49,276.83Z" transform="translate(-940.71 -80.07)"/><path class="cls-4" d="M1055.19,279.58s13.8,92.81,4.44,137.47" transform="translate(-940.71 -80.07)"/><path class="cls-5" d="M1059.63,419.44a2.72,2.72,0,0,1-.49-.05,2.39,2.39,0,0,1-1.85-2.82c9.17-43.74-4.32-135.71-4.46-136.64a2.39,2.39,0,1,1,4.72-.7c.56,3.81,13.75,93.75,4.41,138.31A2.37,2.37,0,0,1,1059.63,419.44Z" transform="translate(-940.71 -80.07)"/><path class="cls-8" d="M1102,145.08a50.48,50.48,0,0,0-18-17.21c-36.85-21.78-50.24,6.7-50.24,6.7s-45.23-11.73-45.23,38.52c0,.62,0,1.21,0,1.83,4.12-16.8,15.73-35.33,46.87-35.33C1035.49,139.59,1049.69,118.79,1102,145.08Z" transform="translate(-940.71 -80.07)"/><ellipse class="cls-5" cx="105.67" cy="119.81" rx="4.19" ry="5.02"/><ellipse class="cls-5" cx="145.02" cy="118.97" rx="4.19" ry="5.02"/><path class="cls-5" d="M1062.56,242.26c-10.9,0-15.59-6.8-15.83-7.16a1.59,1.59,0,0,1,2.64-1.77c.26.38,6.36,9,21.67,4.39a1.59,1.59,0,0,1,.92,3.05A32.85,32.85,0,0,1,1062.56,242.26Z" transform="translate(-940.71 -80.07)"/><path class="cls-5" d="M1033,188.91a1.31,1.31,0,0,1-.39,0,1.57,1.57,0,0,1-1.15-1.92c.06-.27,1.68-6.54,7.08-9.37,3.33-1.75,7.29-1.79,11.77-.11a1.59,1.59,0,1,1-1.12,3c-3.58-1.34-6.66-1.37-9.16-.07-4.12,2.16-5.48,7.29-5.49,7.34A1.59,1.59,0,0,1,1033,188.91Z" transform="translate(-940.71 -80.07)"/><path class="cls-8" d="M982.74,439.68c6.34,41.33,16,102.12,19.25,111.92h7.85c-4.25-18-11.87-51.59-15.38-76.2C992.13,459.08,987.27,447.46,982.74,439.68Z" transform="translate(-940.71 -80.07)"/><path class="cls-8" d="M1059.78,478.75c0-10.93-4.13-14.78-7.48-16.11l1.61,87.29h9.17C1061.62,524.45,1059.78,489.91,1059.78,478.75Z" transform="translate(-940.71 -80.07)"/><path class="cls-4" d="M1071.5,336.39c-2.61-18.24,13.4-36.85,30.15-26.8s48.57,26.8,40.19,48.57S1073.17,348.11,1071.5,336.39Z" transform="translate(-940.71 -80.07)"/><path class="cls-5" d="M1092.09,306.76a18.44,18.44,0,0,1,9.56,2.83c16.75,10.05,48.57,26.8,40.19,48.57-2,5.31-7.18,7.43-13.8,7.43-20.51,0-55.27-20.34-56.54-29.2-2.1-14.7,7.88-29.63,20.59-29.63m0-4.77h0c-6.56,0-12.84,3.08-17.68,8.65a33.57,33.57,0,0,0-7.63,26.42c1.21,8.5,16.84,17.83,23.5,21.44,13.68,7.43,27.79,11.86,37.76,11.86,12.37,0,16.75-6.57,18.26-10.49,9.22-24-20.62-41.61-38.44-52.14-1.32-.78-2.58-1.52-3.76-2.23a23.1,23.1,0,0,0-12-3.51Z" transform="translate(-940.71 -80.07)"/><path class="cls-7" d="M1129.63,328.12c-1.22,29.19-35.73,19.06-57.74,9.55,5.39,12.57,61.87,41.51,69.95,20.49C1146.26,346.66,1139.48,336.57,1129.63,328.12Z" transform="translate(-940.71 -80.07)"/><path class="cls-4" d="M1054.81,333l32.62-60a9.22,9.22,0,0,1,10.14-4.6l47.72,10.74a9.23,9.23,0,0,1,5.89,13.76l-35.26,58.77a9.24,9.24,0,0,1-9.82,4.29L1061,346.48A9.24,9.24,0,0,1,1054.81,333Z" transform="translate(-940.71 -80.07)"/><path class="cls-5" d="M1095.54,268.18a9.43,9.43,0,0,1,2,.23l47.72,10.74a9.23,9.23,0,0,1,5.89,13.76l-35.26,58.77a9.23,9.23,0,0,1-7.92,4.48,9.42,9.42,0,0,1-1.9-.19L1061,346.48a9.24,9.24,0,0,1-6.21-13.45l32.62-60a9.23,9.23,0,0,1,8.11-4.83m0-4.76h0a14,14,0,0,0-12.3,7.31l-32.62,60a14,14,0,0,0,9.42,20.39l45.08,9.49a13.94,13.94,0,0,0,2.88.3,14.08,14.08,0,0,0,12-6.79l35.26-58.78a14,14,0,0,0-8.93-20.86l-47.72-10.74a13.91,13.91,0,0,0-3.08-.34Z" transform="translate(-940.71 -80.07)"/><path class="cls-7" d="M1115.92,351.68l35.26-58.77a9.23,9.23,0,0,0-5.89-13.76l-6.91-1.56-31.66,49.49a18.34,18.34,0,0,1-15.47,8.47h-37.36a9.24,9.24,0,0,0,7.13,10.93L1106.1,356A9.24,9.24,0,0,0,1115.92,351.68Z" transform="translate(-940.71 -80.07)"/><path class="cls-4" d="M1025.44,335.55s15.08-23.45,30.15-20.1,3.35,11.72,3.35,13.4,10,3.35,26.8,0,16.74,30.15-38.53,33.5S1025.44,335.55,1025.44,335.55Z" transform="translate(-940.71 -80.07)"/><path class="cls-5" d="M1039.22,365c-14.6,0-23-2.95-25.48-8.94-3.73-8.92,7.65-20,9.87-22.06,1.87-2.82,16.74-24.38,32.5-20.87,5.23,1.17,8.25,3.1,9.23,5.92,1.21,3.48-1.19,6.78-2.91,8.93,3.34.61,11.07.89,22.84-1.46,4.34-.87,8.16.3,10.49,3.21,2.56,3.2,2.84,7.95.74,12.69s-11.72,20-49.14,22.32Q1043,365,1039.22,365Zm13.42-47.47c-10.4,0-21.54,13.63-25.19,19.32a2.37,2.37,0,0,1-.41.48c-3,2.71-11.1,11.64-8.9,16.89,1.15,2.73,6.43,7.12,28.93,5.76,27.6-1.68,41.38-11.17,45.07-19.5,1.37-3.08,1.33-6-.1-7.77-1.2-1.49-3.27-2-5.84-1.51-15,3-25.7,2.28-28.47,0a3,3,0,0,1-1.18-2.34c0-1.21.72-2.09,1.8-3.42s2.92-3.59,2.49-4.82c-.14-.4-1-1.76-5.77-2.83A11,11,0,0,0,1052.64,317.52Z" transform="translate(-940.71 -80.07)"/><path class="cls-4" d="M1009.84,273.48c-29.63,1.44-76.52,55.37-61.44,87.19,11,23.15,78.72,15.07,102.16,3.35l-16.74-35.17s-36.85,18.42-41.88,6.7c-4.8-11.21,29-16.53,38.53-31.82C1038.84,290.33,1042.19,271.9,1009.84,273.48Z" transform="translate(-940.71 -80.07)"/><path class="cls-5" d="M1013.58,273.38c28.33,0,24.92,17.49,16.89,30.35-9.56,15.29-43.33,20.61-38.53,31.82,1.22,2.83,4.28,3.9,8.24,3.9,12.43,0,33.64-10.6,33.64-10.6L1050.56,364c-12.5,6.25-37.58,11.46-59.95,11.46-19.59,0-37.09-4-42.21-14.81-15.08-31.82,31.81-85.75,61.44-87.19,1.31-.07,2.55-.1,3.74-.1m0-4.77c-1.27,0-2.6,0-4,.1-18.48.9-43.44,20-58.05,44.35-11.16,18.63-13.82,36.26-7.47,49.65,6.87,14.5,29.09,17.54,46.52,17.54,22.11,0,48.22-5,62.09-12l4.18-2.1-2-4.22-16.75-35.17-2.09-4.39-4.35,2.17c-5.62,2.81-22.25,10.1-31.5,10.1-2.08,0-3.59-.4-3.85-1-.81-1.89,8.87-6.83,13.52-9.2,9.14-4.67,19.5-10,24.66-18.22,6.64-10.63,8.18-20.31,4.33-27.25s-12.32-10.39-25.26-10.39Z" transform="translate(-940.71 -80.07)"/><path class="cls-7" d="M1050.56,364l-8.43-17.7c-18,7.2-50.1,18.33-72,16-15.69-1.66-20.38-17.56-21.11-33.27-4.16,11.18-5,22.32-.66,31.59C959.37,383.82,1027.12,375.74,1050.56,364Z" transform="translate(-940.71 -80.07)"/><path class="cls-6" d="M1663.64,505.81v-229a25.21,25.21,0,0,1,1.69-9.08l18.14-47.16a9.91,9.91,0,0,0-6.85-13.17h0a9.91,9.91,0,0,0-11.52,5.74l-22.12,52a20.14,20.14,0,0,0-1.6,7.85V515.35Z" transform="translate(-940.71 -80.07)"/><path class="cls-5" d="M1674.22,207.1a9.93,9.93,0,0,1,9.25,13.47l-18.14,47.16a25.21,25.21,0,0,0-1.69,9.08v229l-22.26,9.54V273a20.14,20.14,0,0,1,1.6-7.85l22.12-52a9.91,9.91,0,0,1,9.12-6m0-4.77a14.66,14.66,0,0,0-13.51,8.94l-22.12,52a24.76,24.76,0,0,0-2,9.72V522.58l6.64-2.85,22.26-9.53,2.89-1.24V276.81a20.39,20.39,0,0,1,1.37-7.36l18.14-47.17a14.69,14.69,0,0,0-10.14-19.51,14.83,14.83,0,0,0-3.56-.44Z" transform="translate(-940.71 -80.07)"/><path class="cls-6" d="M1556.33,505.81v-229a25.21,25.21,0,0,1,1.69-9.08l18.14-47.16a9.91,9.91,0,0,0-6.85-13.17h0a9.91,9.91,0,0,0-11.52,5.74l-22.12,52a20.13,20.13,0,0,0-1.59,7.85V515.35Z" transform="translate(-940.71 -80.07)"/><path class="cls-5" d="M1566.91,207.1a9.93,9.93,0,0,1,9.25,13.47L1558,267.73a25.21,25.21,0,0,0-1.69,9.08v229l-22.25,9.54V273a20.13,20.13,0,0,1,1.59-7.85l22.12-52a9.91,9.91,0,0,1,9.12-6m0-4.77a14.66,14.66,0,0,0-13.51,8.94l-22.11,52a24.6,24.6,0,0,0-2,9.72V522.58l6.64-2.85,22.26-9.53,2.89-1.24V276.81a20.39,20.39,0,0,1,1.37-7.36l18.14-47.17a14.69,14.69,0,0,0-10.14-19.51,14.83,14.83,0,0,0-3.56-.44Z" transform="translate(-940.71 -80.07)"/><path class="cls-4" d="M1436.86,383.4s17.48,6.36,19.07,11.13-4.77,6.36-4.77,6.36,16.16,11,6.49,23-38.28-25.74-38.28-25.74Z" transform="translate(-940.71 -80.07)"/><path class="cls-5" d="M1452.72,428.6h-.14c-12.87-.19-32.87-26.1-35.11-29.05l-1.37-1.81,20.28-17.05,1.29.47c4.36,1.58,18.71,7.18,20.53,12.62a6.36,6.36,0,0,1-.38,5.16,7.57,7.57,0,0,1-2.25,2.47c2.79,2.58,6.59,7,7.39,12.37a14.53,14.53,0,0,1-3.45,11.57A8.44,8.44,0,0,1,1452.72,428.6Zm-30.06-30.14c6.66,8.42,21.68,25.25,30,25.37a3.7,3.7,0,0,0,3.14-1.47,9.84,9.84,0,0,0,2.46-7.87c-.81-5.4-6.36-10.23-8.43-11.63l-4.41-3,5.18-1.3a5.58,5.58,0,0,0,3.05-1.93,1.56,1.56,0,0,0,0-1.36c-.68-2-8.89-6.31-16.34-9.16Z" transform="translate(-940.71 -80.07)"/><path class="cls-6" d="M1468.65,268.94c-4.48-5.52-15.9-11.13-31.79,1.59s-43.25,33.31-47.7,54.05c-4.77,22.26,12.72,57.23,25.44,73.13,5,6.21,8,9.54,8,9.54l27-25.44s-29.55-33.16-17.48-52.46C1440,316.63,1489.32,294.37,1468.65,268.94Z" transform="translate(-940.71 -80.07)"/><path class="cls-5" d="M1455.29,262.81a17.13,17.13,0,0,1,13.36,6.13c20.67,25.43-28.61,47.69-36.56,60.41-12.07,19.3,17.48,52.46,17.48,52.46l-27,25.44s-3-3.33-8-9.54c-12.72-15.9-30.21-50.87-25.44-73.13,4.45-20.74,31.8-41.33,47.7-54.05,7.11-5.7,13.33-7.72,18.43-7.72m0-4.76c-6.94,0-14.15,2.94-21.41,8.75l-3.12,2.48c-16.62,13.22-41.74,33.19-46.26,54.3-5.09,23.75,12.73,60.05,26.38,77.11,5,6.25,8.06,9.62,8.18,9.76l3.27,3.6,3.54-3.33,27-25.44,3.37-3.18-3.09-3.46c-7.54-8.49-25.32-33.45-17-46.76,1.81-2.89,7.27-7.18,13-11.72,12.25-9.62,27.51-21.59,29.12-36,.72-6.36-1.29-12.49-6-18.23a21.75,21.75,0,0,0-17.06-7.88Z" transform="translate(-940.71 -80.07)"/><path class="cls-8" d="M1389.16,324.58c4.45-20.74,31.8-41.33,47.7-54.05,5.11-4.09,9.76-6.28,13.87-7.19-17.09,13.68-42.12,37.71-47.26,64.42-5.61,29.19,16.52,56,30,69.22l-10.89,10.27s-3-3.33-8-9.54C1401.88,381.81,1384.39,346.84,1389.16,324.58Z" transform="translate(-940.71 -80.07)"/><path class="cls-6" d="M1482.41,536s-1.59,15.89-14.31,19.07-47.69,12.72-4.77,14.31,47.69-1.59,47.69-1.59,0-27-4.76-30.2S1482.41,536,1482.41,536Z" transform="translate(-940.71 -80.07)"/><path class="cls-5" d="M1492.54,535.62c5.37,0,11.33.4,13.72,2,4.76,3.18,4.76,30.2,4.76,30.2s-3,2-26.25,2c-5.79,0-12.86-.13-21.44-.45-42.92-1.59-7.95-11.13,4.77-14.31S1482.41,536,1482.41,536s4.77-.4,10.13-.4m0-4.77c-5.5,0-10.32.4-10.53.41l-4,.33-.4,3.95c0,.11-1.46,12.61-10.72,14.93-6.6,1.65-12.12,3.24-16.4,4.74-6.74,2.35-13.27,5.11-12.69,10.69s6.73,7.58,25.31,8.27c8,.3,15.3.45,21.61.45,16.36,0,26.08-1,28.9-2.84l2.12-1.42v-2.55c0-.28,0-7-.61-14.3-1.21-14.6-3.74-18.18-6.28-19.87-2-1.3-5.57-2.79-16.36-2.79Z" transform="translate(-940.71 -80.07)"/><path class="cls-6" d="M1568.18,536s1.59,15.89,14.31,19.07,47.69,12.72,4.77,14.31-47.7-1.59-47.7-1.59,0-27,4.77-30.2S1568.18,536,1568.18,536Z" transform="translate(-940.71 -80.07)"/><path class="cls-5" d="M1558,535.62c5.37,0,10.14.4,10.14.4s1.59,15.89,14.31,19.07,47.69,12.72,4.77,14.31c-8.59.32-15.65.45-21.45.45-23.2,0-26.25-2-26.25-2s0-27,4.77-30.2c2.39-1.59,8.35-2,13.71-2m0-4.77c-10.79,0-14.41,1.49-16.35,2.79-2.55,1.69-5.07,5.27-6.28,19.87-.61,7.26-.62,14-.62,14.3v2.55l2.12,1.42c2.83,1.88,12.55,2.84,28.9,2.84,6.32,0,13.59-.15,21.62-.45,18.58-.69,24.73-2.7,25.31-8.27s-6-8.34-12.7-10.69c-4.27-1.5-9.79-3.09-16.4-4.74-9.25-2.32-10.7-14.82-10.72-15l-.42-3.91-3.93-.35c-.2,0-5-.41-10.53-.41Z" transform="translate(-940.71 -80.07)"/><path class="cls-4" d="M1449,392.94s22.26,136.72,30.21,151h30.2l-6.35-92.21h17.48L1539.64,544h31.8s-6.36-81.08-6.36-93.8,7.94-54.05,3.18-65.18S1449,392.94,1449,392.94Z" transform="translate(-940.71 -80.07)"/><path class="cls-5" d="M1550.83,381.5c9.68,0,16.35,1,17.43,3.49,4.76,11.13-3.18,52.46-3.18,65.18s6.36,93.8,6.36,93.8h-31.8l-19.08-92.21h-17.48l6.35,92.21h-30.2c-8-14.31-30.21-151-30.21-151s68.61-11.44,101.81-11.44m0-4.76c-33.21,0-99.77,11-102.59,11.49l-4.69.79.77,4.69c2.29,14.07,22.62,138,30.74,152.57l1.36,2.46h38.12l-.35-5.1-6-87.11h8.49l18.29,88.4.79,3.81h40.83l-.4-5.15c-.06-.81-6.34-81-6.34-93.42,0-3.95.89-11.48,1.84-19.45,2.63-22.1,4.36-39.64,1-47.61-2-4.59-8.08-6.37-21.81-6.37Z" transform="translate(-940.71 -80.07)"/><path class="cls-7" d="M1565.08,450.17c0-12.72,7.94-54.05,3.18-65.18S1449,392.94,1449,392.94s1.27,8.95,3.3,22.77a134.81,134.81,0,0,0,79,16.44,8.94,8.94,0,0,1,9.66,7.5L1561,544h10.49S1565.08,462.89,1565.08,450.17Z" transform="translate(-940.71 -80.07)"/><path class="cls-6" d="M1503.08,254c-25.47.82-45.07,5.43-49.29,38.82-6.36,50.36-54,123.4,41.34,127.77,89,4.07,86.76-18.37,89-37.19,3.18-26.38-17.48-64.82-23.84-88C1551.83,264.45,1547.59,252.51,1503.08,254Z" transform="translate(-940.71 -80.07)"/><path class="cls-5" d="M1509.84,253.84c38.21,0,42.44,12.25,50.47,41.51,6.36,23.18,27,61.62,23.84,88-2.08,17.3-.33,37.67-69.24,37.67-6,0-12.62-.16-19.78-.48-95.33-4.37-47.7-77.41-41.34-127.77,4.22-33.39,23.82-38,49.29-38.82,2.36-.08,4.61-.11,6.76-.11m0-4.77c-2.18,0-4.5,0-6.92.11-24.6.8-49,4.77-53.86,43-1.35,10.74-4.63,22.48-8.1,34.9-7.8,28-15.87,56.91-1.56,76.68C1449,417,1467.13,424,1494.91,425.3c7.09.33,13.82.49,20,.49,30.62,0,50-3.86,61.1-12.14,10.52-7.88,11.66-18.45,12.57-27,.1-.93.2-1.85.31-2.77,2.35-19.51-7.08-44-15.4-65.59-3.45-8.95-6.71-17.4-8.58-24.24-4.43-16.15-7.66-26.49-15.17-33.87-8-7.82-19.89-11.15-39.9-11.15Z" transform="translate(-940.71 -80.07)"/><path class="cls-8" d="M1584.1,383.84l-3.92-2.82s-44.51,23.84-77.9,25.43c-20.76,1-46.44-6.63-62.89-12.53,6,14.82,21.83,25.06,55.74,26.62C1583.38,424.58,1581.92,402.56,1584.1,383.84Z" transform="translate(-940.71 -80.07)"/><path class="cls-4" d="M1487.18,237.14V261s11.13,11.13,30.2,1.59V237.14Z" transform="translate(-940.71 -80.07)"/><path class="cls-5" d="M1502.39,268.86a24.79,24.79,0,0,1-16.9-6.18l-.7-.7V234.76h35v29.29l-1.32.66A35.73,35.73,0,0,1,1502.39,268.86Zm-12.83-8.95c2.48,2,11.37,7.6,25.44,1.17V239.53h-25.44Z" transform="translate(-940.71 -80.07)"/><path class="cls-4" d="M1490.67,243.51c-20-1.06-37-3.09-35.46-30.84s-4.63-58.6-3.09-66.3-3.08-30.84,52.43-30.84,47.8,58.59,46.26,66.3S1549.26,246.59,1490.67,243.51Z" transform="translate(-940.71 -80.07)"/><path class="cls-5" d="M1504.55,115.53c55.51,0,47.8,58.59,46.26,66.3-1.5,7.51-1.55,61.8-55.64,61.8q-2.19,0-4.5-.12c-20-1.06-37-3.09-35.46-30.84s-4.63-58.6-3.09-66.3-3.08-30.84,52.43-30.84m0-4.77c-22.85,0-38.34,3.77-47.36,11.52-8.18,7-9,15.54-9.45,20.63-.09,1-.17,1.93-.29,2.52-.76,3.78-.2,10,.94,21.63,1.31,13.23,2.92,29.7,2.06,45.34-.64,11.36,1.58,19.69,6.78,25.48,7.53,8.39,19.48,9.67,33.19,10.39,1.6.08,3.2.13,4.75.13,22.57,0,39.17-8.8,49.36-26.14,8-13.65,9.73-29,10.56-36.36.14-1.33.28-2.59.39-3.14.28-1.38,6.61-34.25-10.77-55.45-9-11-22.52-16.55-40.16-16.55Z" transform="translate(-940.71 -80.07)"/><path class="cls-7" d="M1455.21,212.67c-1.54,27.75,15.44,29.78,35.46,30.84,17.49.92,29.73-3.54,38.38-10.42-20,4.19-45.2,3.69-56.18-8.66-12.72-14.31-6.36-97-6.36-97l4.21-7.36c-19.57,7.14-17.48,20.71-18.6,26.28C1450.58,154.07,1456.75,184.91,1455.21,212.67Z" transform="translate(-940.71 -80.07)"/><path class="cls-6" d="M1452.7,141.28s-27.52-26.55-27.52-37.68,97-11.12,117.64-6.36,38.15-3.17,30.2,36.57-15.85,68.48-26.2,70.81l-2.41-34.25s-19.08-19.07-23.85-31.79C1520.56,138.58,1472.28,132.85,1452.7,141.28Z" transform="translate(-940.71 -80.07)"/><path class="cls-5" d="M1493.19,94.22c21.33,0,41.45,1.14,49.63,3,20.67,4.77,38.15-3.17,30.2,36.57s-15.85,68.48-26.2,70.81l-2.41-34.25s-19.08-19.07-23.85-31.79a320.64,320.64,0,0,0-33.35-1.9c-12.75,0-26.2,1-34.51,4.6,0,0-27.52-26.55-27.52-37.68,0-6.72,35.42-9.38,68-9.38m0-4.77a429.44,429.44,0,0,0-46.78,2.2c-18.71,2.18-26,5.53-26,11.95,0,12.52,24.14,36.44,29,41.11l2.29,2.2,2.91-1.25c6.4-2.76,17.68-4.21,32.62-4.21,12.73,0,24.84,1.05,30.08,1.58,5.42,11.3,18.36,25.16,22.48,29.43l2.29,32.49.39,5.53,5.41-1.21c11.55-2.59,19.35-22.09,29.84-74.53,3.21-16.06,2.65-25.95-1.83-32.09-4.76-6.52-12.59-7.41-20.88-8.35a99.09,99.09,0,0,1-11.1-1.7c-8.29-1.92-28.19-3.15-50.7-3.15Z" transform="translate(-940.71 -80.07)"/><path class="cls-4" d="M1533.28,172s6.36-21.46,16.69-8.34,2.39,35.37-8.74,32.19" transform="translate(-940.71 -80.07)"/><path class="cls-5" d="M1543.41,198.51a10.43,10.43,0,0,1-2.84-.41l1.31-4.58c3.54,1,6.09-1.85,7.29-3.64,4.08-6.09,4.83-17.29-1.07-24.79-1.34-1.69-3.32-3.64-5.17-3.29-3.31.63-6.39,7.58-7.36,10.84l-4.58-1.35c.39-1.31,4-12.82,11-14.17,3.38-.65,6.68,1,9.82,5,7.32,9.3,6.4,22.76,1.28,30.4C1550.52,196.43,1547.08,198.51,1543.41,198.51Z" transform="translate(-940.71 -80.07)"/><ellipse class="cls-5" cx="522.62" cy="98.25" rx="3.18" ry="4.77"/><ellipse class="cls-5" cx="558.39" cy="99.04" rx="3.18" ry="4.77"/><path class="cls-6" d="M1463.33,206.94s-9.54,14.31-7.95,17.49c.56,1.12,30.16,1,42.35,1.4a1.68,1.68,0,0,0,1.06-3L1484,211.71Z" transform="translate(-940.71 -80.07)"/><path class="cls-5" d="M1463.33,206.94l20.67,4.77,14.79,11.09a1.68,1.68,0,0,1-1,3h-.06c-12.19-.42-41.79-.28-42.35-1.4-1.59-3.18,7.95-17.49,7.95-17.49m-2.14-5.39-1.83,2.74c-11.07,16.61-9.09,20.58-8.24,22.27,1.52,3,4.15,3.13,12.85,3.41,5.08.16,11.64.25,18,.34,6,.08,11.72.15,15.61.29h.23a6.45,6.45,0,0,0,3.86-11.61l-14.79-11.1-.81-.6-1-.23-20.67-4.77-3.21-.74Z" transform="translate(-940.71 -80.07)"/><path class="cls-4" d="M1477.64,181.5c-9.54,6.36-31.8,19.08-31.8,25.44s47.7,6.36,47.7,6.36" transform="translate(-940.71 -80.07)"/><path class="cls-5" d="M1493.54,215.68c-50.08,0-50.08-6.58-50.08-8.74,0-6,11.57-13.87,26.7-23.46,2.33-1.48,4.45-2.82,6.16-4l2.64,4c-1.73,1.15-3.88,2.52-6.24,4-7.11,4.51-23.46,14.89-24.45,19.07,3.38,2.69,25.8,4.34,45.27,4.34Z" transform="translate(-940.71 -80.07)"/><path class="cls-5" d="M1503.26,235.63a19.1,19.1,0,0,1-2-.09,1.59,1.59,0,0,1,.35-3.16c.07,0,6.68.69,9.65-2.38,1.22-1.26,1.65-3,1.32-5.35a1.59,1.59,0,1,1,3.15-.45c.47,3.33-.26,6-2.19,8C1510.72,235.18,1505.94,235.63,1503.26,235.63Z" transform="translate(-940.71 -80.07)"/><path class="cls-5" d="M1516.59,164.81a1.59,1.59,0,0,1-1.39-.82c-2-3.52-4.61-5.75-7.88-6.63-6.61-1.77-13.69,2.41-13.76,2.45a1.59,1.59,0,0,1-1.64-2.72c.34-.2,8.32-4.92,16.23-2.8,4.13,1.11,7.44,3.85,9.83,8.16a1.59,1.59,0,0,1-.62,2.16A1.64,1.64,0,0,1,1516.59,164.81Z" transform="translate(-940.71 -80.07)"/><path class="cls-5" d="M1453.79,162.42a1.55,1.55,0,0,1-.77-.2,1.59,1.59,0,0,1-.62-2.16c.16-.28,3.92-6.93,9.79-7.17,3.69-.13,7.19,2.23,10.41,7.06a1.59,1.59,0,1,1-2.64,1.77c-2.57-3.85-5.13-5.75-7.65-5.65-4,.16-7.1,5.48-7.13,5.54A1.58,1.58,0,0,1,1453.79,162.42Z" transform="translate(-940.71 -80.07)"/><path class="cls-7" d="M1503.13,452.77a3.65,3.65,0,0,0-.85-.21c-9.68-1.08-7,46.29-4.24,91.41h11.39Z" transform="translate(-940.71 -80.07)"/><path class="cls-8" d="M1573,133.81c8-39.74-9.53-31.8-30.2-36.57s-117.64-4.76-117.64,6.36a13.68,13.68,0,0,0,1.44,5.38l113.45,2.18a19.68,19.68,0,0,1,19.27,20.61l-3,62.43C1562.4,182.08,1567.7,160.42,1573,133.81Z" transform="translate(-940.71 -80.07)"/><rect class="cls-7" x="588.33" y="398.89" width="104.64" height="90.43" rx="7.5" ry="7.5"/><path class="cls-5" d="M1621.76,479a11.92,11.92,0,0,1,11.92,11.92v66.59a11.92,11.92,0,0,1-11.92,11.92H1541A11.92,11.92,0,0,1,1529,557.48V490.89A11.92,11.92,0,0,1,1541,479h80.8m0-4.77H1541a16.71,16.71,0,0,0-16.69,16.69v66.59A16.71,16.71,0,0,0,1541,574.17h80.8a16.71,16.71,0,0,0,16.69-16.69V490.89a16.71,16.71,0,0,0-16.69-16.69Z" transform="translate(-940.71 -80.07)"/><rect class="cls-4" x="540.52" y="398.89" width="104.64" height="90.43" rx="6.63" ry="6.63"/><path class="cls-5" d="M1575.35,479a10.52,10.52,0,0,1,10.53,10.53v69.37a10.52,10.52,0,0,1-10.53,10.53h-83.58a10.52,10.52,0,0,1-10.53-10.53V489.5A10.52,10.52,0,0,1,1491.77,479h83.58m0-4.77h-83.58a15.31,15.31,0,0,0-15.3,15.3v69.37a15.31,15.31,0,0,0,15.3,15.3h83.58a15.31,15.31,0,0,0,15.3-15.3V489.5a15.31,15.31,0,0,0-15.3-15.3Z" transform="translate(-940.71 -80.07)"/><path class="cls-5" d="M1484.47,569.12l-3.51-3.23,32.37-35.18a9.39,9.39,0,0,0-.14-12.85L1481,484.37l3.43-3.3,32.2,33.49a14.17,14.17,0,0,1,.21,19.38Z" transform="translate(-940.71 -80.07)"/><path class="cls-5" d="M1584.91,569.12l-32.37-35.18a14.16,14.16,0,0,1,.21-19.38l32.19-33.49,3.44,3.3-32.19,33.49a9.39,9.39,0,0,0-.14,12.85l32.37,35.18Z" transform="translate(-940.71 -80.07)"/><rect class="cls-7" x="588.97" y="213.51" width="104.64" height="90.43" rx="7.5" ry="7.5"/><path class="cls-5" d="M1622.4,293.58a11.93,11.93,0,0,1,11.93,11.92v66.59A11.93,11.93,0,0,1,1622.4,384h-80.79a11.93,11.93,0,0,1-11.93-11.92V305.5a11.93,11.93,0,0,1,11.93-11.92h80.79m0-4.77h-80.79a16.71,16.71,0,0,0-16.7,16.69v66.59a16.71,16.71,0,0,0,16.7,16.69h80.79a16.71,16.71,0,0,0,16.7-16.69V305.5a16.71,16.71,0,0,0-16.7-16.69Z" transform="translate(-940.71 -80.07)"/><rect class="cls-4" x="541.17" y="213.51" width="104.64" height="90.43" rx="6.63" ry="6.63"/><path class="cls-5" d="M1576,293.58a10.53,10.53,0,0,1,10.54,10.53v69.37A10.53,10.53,0,0,1,1576,384h-83.58a10.53,10.53,0,0,1-10.53-10.53V304.11a10.53,10.53,0,0,1,10.53-10.53H1576m0-4.77h-83.58a15.32,15.32,0,0,0-15.3,15.3v69.37a15.32,15.32,0,0,0,15.3,15.3H1576a15.32,15.32,0,0,0,15.31-15.3V304.11a15.32,15.32,0,0,0-15.31-15.3Z" transform="translate(-940.71 -80.07)"/><path class="cls-5" d="M1485.12,383.73l-3.51-3.23L1514,345.32a9.39,9.39,0,0,0-.13-12.85L1481.64,299l3.44-3.3,32.19,33.49a14.16,14.16,0,0,1,.22,19.38Z" transform="translate(-940.71 -80.07)"/><path class="cls-5" d="M1585.55,383.73l-32.37-35.18a14.16,14.16,0,0,1,.22-19.38l32.19-33.49L1589,299l-32.2,33.49a9.4,9.4,0,0,0-.14,12.85l32.37,35.18Z" transform="translate(-940.71 -80.07)"/><rect class="cls-7" x="1496.09" y="385.31" width="104.64" height="90.43" rx="7.5" ry="7.5" transform="translate(2156.12 780.97) rotate(-180)"/><path class="cls-5" d="M1588.81,385.31a11.92,11.92,0,0,1,11.93,11.92v66.59a11.93,11.93,0,0,1-11.93,11.92H1508a11.93,11.93,0,0,1-11.93-11.92V397.23A11.92,11.92,0,0,1,1508,385.31h80.79m0-4.77H1508a16.71,16.71,0,0,0-16.7,16.69v66.59a16.71,16.71,0,0,0,16.7,16.69h80.79a16.71,16.71,0,0,0,16.7-16.69V397.23a16.71,16.71,0,0,0-16.7-16.69Z" transform="translate(-940.71 -80.07)"/><rect class="cls-4" x="1543.89" y="385.31" width="104.64" height="90.43" rx="6.62" ry="6.62" transform="translate(2251.72 780.97) rotate(-180)"/><path class="cls-5" d="M1638,385.31a10.53,10.53,0,0,1,10.53,10.53v69.37A10.54,10.54,0,0,1,1638,475.74h-83.58a10.54,10.54,0,0,1-10.54-10.53V395.84a10.53,10.53,0,0,1,10.54-10.53H1638m0-4.77h-83.58a15.32,15.32,0,0,0-15.31,15.3v69.37a15.33,15.33,0,0,0,15.31,15.3H1638a15.33,15.33,0,0,0,15.3-15.3V395.84a15.32,15.32,0,0,0-15.3-15.3Z" transform="translate(-940.71 -80.07)"/><path class="cls-5" d="M1645.31,475.46l-32.38-35.18a14.18,14.18,0,0,1,.22-19.39l32.19-33.49,3.44,3.31-32.19,33.49a9.38,9.38,0,0,0-.14,12.85l32.37,35.18Z" transform="translate(-940.71 -80.07)"/><path class="cls-5" d="M1544.87,475.46l-3.51-3.23,32.37-35.18a9.4,9.4,0,0,0-.14-12.85l-32.2-33.49,3.44-3.31L1577,420.89a14.17,14.17,0,0,1,.22,19.39Z" transform="translate(-940.71 -80.07)"/><path class="cls-4" d="M1537.8,261.19s-22.13-2.79-31.48,3.45,5,7.48,5,7.48-26.18,17.47-15.88,30.87,27.75-.95,36.15-18.73l16.84-3.12Z" transform="translate(-940.71 -80.07)"/><path class="cls-5" d="M1505.19,310.64c-4.52,0-8.52-2.12-11.65-6.19a13.35,13.35,0,0,1-2.69-10.7c1.36-8.27,9.55-16.1,14.77-20.34-2.2-.75-4.2-2-4.73-4-.87-3.41,2.87-5.91,4.1-6.73,10-6.66,32.17-4,33.11-3.84l1.23.16,12.72,23.91-18.85,3.5c-5.67,11.39-15.84,23-26.42,24.17C1506.24,310.61,1505.71,310.64,1505.19,310.64Zm.51-42.39a15.91,15.91,0,0,0,5.82,1.49l6.74.6-5.62,3.76c-.16.1-15.44,10.43-17.09,20.44a8.64,8.64,0,0,0,1.77,7c2.5,3.26,5.43,4.66,9,4.27,7.61-.81,17.35-10.3,23.15-22.56l.52-1.11,14.83-2.75-8.49-16c-6.75-.7-22-1.22-28.65,3.2A8.46,8.46,0,0,0,1505.7,268.25Z" transform="translate(-940.71 -80.07)"/><path class="cls-6" d="M1644.75,268.92c.61,27.44-44.91,26.79-111,20.51l0-32.42S1644,235,1644.75,268.92Z" transform="translate(-940.71 -80.07)"/><path class="cls-5" d="M1599.7,250c23.68,0,44.73,4.17,45,19,.41,18.26-19.62,24.08-52.53,24.08-16.55,0-36.36-1.47-58.47-3.57l0-32.42s35.18-7,65.93-7m0-4.77v0c-30.87,0-65.41,6.84-66.87,7.13l-3.83.77V257l0,32.43v4.34l4.32.41c26.15,2.48,44.32,3.59,58.92,3.59,27,0,42.71-3.79,51-12.28a22.22,22.22,0,0,0,6.29-16.67c-.34-15.68-17.11-23.62-49.82-23.62Z" transform="translate(-940.71 -80.07)"/><path class="cls-8" d="M1654.1,509.9l9.54-4.09v-229a25.21,25.21,0,0,1,1.69-9.08l18.14-47.16a9.92,9.92,0,0,0-3.39-11.54l-26,63.09Z" transform="translate(-940.71 -80.07)"/><path class="cls-8" d="M1533.76,264.91c24.35-2.85,65.67-7.07,84.81-5.36,15,1.34,21.67,9.85,24.68,17.5a19,19,0,0,0,1.5-8.13c-.75-34-111-11.91-111-11.91Z" transform="translate(-940.71 -80.07)"/><rect class="cls-6" x="670.47" y="406.66" width="62" height="92.21" rx="19.5" ry="19.5"/><path class="cls-5" d="M1642.18,486.73a31.1,31.1,0,0,1,31,31v30.2a31,31,0,0,1-62,0v-30.2a31.1,31.1,0,0,1,31-31m0-4.76a35.81,35.81,0,0,0-35.77,35.77v30.2a35.77,35.77,0,0,0,71.54,0v-30.2A35.81,35.81,0,0,0,1642.18,482Z" transform="translate(-940.71 -80.07)"/><ellipse class="cls-4" cx="716.57" cy="451.17" rx="6.36" ry="22.26"/><path class="cls-5" d="M1657.28,555.89c-6.9,0-8.74-15.49-8.74-24.64s1.84-24.64,8.74-24.64,8.75,15.49,8.75,24.64S1664.18,555.89,1657.28,555.89Zm0-44.44c-1.29,1-4,7.54-4,19.8s2.68,18.77,4,19.8c1.3-1,4-7.54,4-19.8S1658.58,512.47,1657.28,511.45Z" transform="translate(-940.71 -80.07)"/><path class="cls-8" d="M1611.18,517.74v30.2a31.09,31.09,0,0,0,31,31c1,0,2-.06,3-.15-21.51-13.83-16.56-40.22-16.56-66.62,0-18.29,16.69-20.82,31.8-19.38a30.74,30.74,0,0,0-18.29-6.06A31.09,31.09,0,0,0,1611.18,517.74Z" transform="translate(-940.71 -80.07)"/></g></g></g></g></svg>