<svg xmlns="http://www.w3.org/2000/svg" viewBox="0 0 748.18 503.64"><defs><style>.cls-1{fill:#fff;}.cls-2{fill:#7177bf;}.cls-3{fill:#dbdbf1;}.cls-4{fill:#f5f6f7;}.cls-5{fill:#ededf7;}</style></defs><title>Recurso 17</title><g id="Capa_2" data-name="Capa 2"><g id="Capa_1-2" data-name="Capa 1"><path class="cls-1" d="M162.35,204.26c-1.35-1.46-57-15.33-53-27.89s41.39-14.1,53.53-1,16.45,24.76,16.45,24.76Z"/><path class="cls-2" d="M134.68,166.23c10.89,0,22.38,2.91,28.15,9.14,12.13,13.1,16.45,24.76,16.45,24.76l-16.93,4.13c-1.35-1.46-57-15.33-53-27.89,2.06-6.58,13.36-10.14,25.38-10.14m0-4.77v0h0c-12.43,0-26.82,3.54-29.94,13.49-4.15,13.29,21.9,22.77,48.94,31.34,2.31.73,4.68,1.49,5.81,1.89l1.27,1.38,2.72-.67,16.93-4.12,5.2-1.27-1.86-5c-.19-.52-4.79-12.71-17.43-26.35-6.18-6.68-18-10.67-31.63-10.67Z"/><path class="cls-1" d="M506,204.26c1.35-1.46,57-15.33,53.06-27.89s-41.39-14.1-53.53-1-16.45,24.76-16.45,24.76Z"/><path class="cls-2" d="M533.65,166.23c12,0,23.32,3.56,25.38,10.14C563,188.93,507.32,202.8,506,204.26l-16.92-4.13s4.32-11.66,16.45-24.76c5.77-6.23,17.25-9.14,28.15-9.14m0-4.77c-13.63,0-25.46,4-31.65,10.67-12.63,13.64-17.23,25.83-17.42,26.35l-1.86,5,5.2,1.27,16.92,4.12,2.73.67,1.27-1.38c1.12-.4,3.5-1.16,5.81-1.89,27-8.57,53.09-18,48.93-31.34-3.11-9.95-17.5-13.49-29.93-13.49Z"/><path class="cls-3" d="M304.82,471.84s1.59,12.72-7.95,15.9-35,6.36-22.25,12.72h52.46s4.77-19.08-3.18-27S304.82,471.84,304.82,471.84Z"/><path class="cls-2" d="M328.94,502.84H274.06l-.51-.25c-1.28-.64-5.16-2.58-4.78-5.93.5-4.34,7.49-6.23,18.85-9,3.26-.78,6.35-1.52,8.5-2.23,7.55-2.52,6.39-12.91,6.34-13.35l-.19-1.57,1.37-.79c4.4-2.51,14.64-5.33,21.95,2,8.8,8.81,4,28.46,3.8,29.29Zm-53.74-4.77h50c1.16-6,2.19-17.82-3-22.95s-12-3-14.89-1.83c.17,5.41-1.62,14-9.69,16.71-2.35.78-5.53,1.54-8.9,2.35-4.63,1.11-13,3.11-15,4.77A7.9,7.9,0,0,0,275.2,498.07Z"/><path class="cls-3" d="M387,471.84s-1.59,12.72,7.95,15.9,35,6.36,22.26,12.72H364.75s-4.76-19.08,3.18-27S387,471.84,387,471.84Z"/><path class="cls-2" d="M417.78,502.84H362.89l-.45-1.81c-.21-.83-5-20.48,3.81-29.29,7.3-7.3,17.55-4.48,21.94-2l1.38.79-.19,1.57c-.06.49-1.2,10.84,6.33,13.35,2.16.71,5.24,1.45,8.51,2.23,11.36,2.72,18.34,4.61,18.84,9,.39,3.35-3.5,5.29-4.78,5.93Zm-51.11-4.77h50a7.9,7.9,0,0,0,1.45-.95c-2-1.66-10.34-3.66-15-4.77-3.37-.81-6.55-1.57-8.9-2.35-8.08-2.69-9.87-11.31-9.7-16.72-2.85-1.22-9.73-3.33-14.89,1.84S365.52,492.11,366.67,498.07Z"/><path class="cls-1" d="M282.57,336.71s14.3,128.77,19.07,143.08h28.62l1.59-87.44h12.72l17.48,85.85h33.39l-7.95-141.49Z"/><path class="cls-2" d="M387.49,336.71l7.95,141.49H362.05l-17.48-85.85H331.85l-1.59,87.44H301.64c-4.77-14.31-19.07-143.08-19.07-143.08H387.49m4.51-4.77H277.24l.59,5.3c.58,5.28,14.42,129.44,19.29,144.06l1.09,3.26h36.73l.09-4.68,1.5-82.76h4.14l16.71,82,.78,3.82h42.32l-.28-5-7.95-141.49-.25-4.5Z"/><path class="cls-4" d="M282.57,336.71s1,8.67,2.47,21.75c14.69,7.85,42.33,15.34,90.53,6.07L394.51,478.2h.93l-7.95-141.49Z"/><path class="cls-3" d="M500.82,176.1S479.1,207.67,451.4,215c-19.94,5.3-60.93-27.84-82.13-20.61-1.51-.51-2.45-.78-2.45-.78l-39.74-4.77a79.48,79.48,0,0,0-27.3,5.81c-21-8.28-62.69,25.71-82.87,20.35-27.7-7.35-49.42-38.92-49.42-38.92l-21,24.11s32,46,64.21,55.67c20.42,6.13,45-2,62.35-10.23-3.43,28.07-10.07,82.28,6.34,97.42,20.66,19.08,88.92,16.16,109.69,0,20.4-15.86,11.72-64.83,6.2-97.42,17.32,8.2,41.92,16.36,62.33,10.23,32.18-9.66,64.21-55.67,64.21-55.67Z"/><path class="cls-2" d="M500.82,176.1l21,24.11s-32,46-64.21,55.67A53.79,53.79,0,0,1,442.08,258c-16.46,0-33.71-6.17-46.8-12.37,5.52,32.59,14.2,81.56-6.2,97.42-10.81,8.41-34.5,13.24-57.64,13.24-21.3,0-42.15-4.09-52.05-13.24-16.41-15.14-9.77-69.35-6.34-97.42C260,251.84,242.7,258,226.24,258a53.86,53.86,0,0,1-15.54-2.14c-32.17-9.66-64.21-55.67-64.21-55.67l21-24.11s21.72,31.57,49.42,38.92a18.47,18.47,0,0,0,4.8.58c18.89,0,50.06-22.24,70.49-22.23a20.63,20.63,0,0,1,7.58,1.3,79.48,79.48,0,0,1,27.3-5.81l39.74,4.77s.94.27,2.45.78a21.06,21.06,0,0,1,6.85-1c20.43,0,51.6,22.23,70.48,22.23a18.41,18.41,0,0,0,4.8-.58c27.7-7.35,49.42-38.92,49.42-38.92m-.44-7.77-3.49,5.06c-.29.43-21.14,30.23-46.71,37a13.85,13.85,0,0,1-3.58.42c-8.26,0-20.33-5.28-32-10.39-13.31-5.82-27.07-11.83-38.48-11.83a27,27,0,0,0-6.77.81c-.76-.25-1.21-.37-1.24-.38l-.35-.1-.37,0-39.74-4.77-.29,0h-.29a84.44,84.44,0,0,0-27.43,5.5,26.67,26.67,0,0,0-7.44-1c-11.41,0-25.17,6-38.48,11.84-11.68,5.11-23.75,10.39-32,10.39a13.91,13.91,0,0,1-3.58-.42c-25.62-6.8-46.51-36.72-46.71-37l-3.49-5-4,4.63-21,24.11-2.45,2.8,2.13,3.05c1.35,1.94,33.37,47.49,66.75,57.52a59,59,0,0,0,16.91,2.34c14.51,0,29.38-4.55,41.08-9.39-4.46,38.6-6.83,78.72,8.83,93.17,14.18,13.09,43.39,14.5,55.29,14.5,25.67,0,49.45-5.58,60.57-14.24,20.83-16.2,15.13-59.1,9.45-93.24,11.62,4.77,26.29,9.2,40.62,9.2a58.9,58.9,0,0,0,16.9-2.34c33.39-10,65.41-55.58,66.75-57.52l2.13-3.05-2.44-2.8-21-24.11-4-4.64Z"/><path class="cls-3" d="M282,59.3s-19.26,57.23,8.35,73.13l5.78-63.59Z"/><path class="cls-2" d="M282,59.3l14.13,9.54-5.78,63.59C262.69,116.53,282,59.3,282,59.3m-2.53-7.46-2,5.94c-.84,2.49-20.16,61.14,10.49,78.78l6.46,3.72.67-7.42,5.78-63.59.25-2.81-2.33-1.58-14.13-9.53-5.2-3.51Z"/><path class="cls-1" d="M319.13,171.38V192s1.59,8,12.72,9.54,19.08-8,19.08-8V171.38Z"/><path class="cls-2" d="M334.39,204.15a20.46,20.46,0,0,1-2.88-.21c-12.65-1.8-14.64-11-14.72-11.43l0-.47V169h36.56V194.5l-.55.66C352.43,195.56,345.13,204.15,334.39,204.15Zm-12.87-12.4c.3,1,2.24,6.27,10.67,7.47,8.16,1.17,14.5-4.6,16.35-6.51v-19h-27Z"/><path class="cls-1" d="M293,64.81s-19.66,98.46,19.66,108.82,76.86-25.91,59-112.27Z"/><path class="cls-2" d="M371.67,61.36c15.89,76.8-12,114-46.07,114a50.63,50.63,0,0,1-12.92-1.72C273.36,163.27,293,64.81,293,64.81l78.65-3.45m3.84-4.94-4.05.18-78.65,3.45-3.73.16-.73,3.67a294.36,294.36,0,0,0-5,51.46c0,36.82,9.46,58,28.13,62.9a55.41,55.41,0,0,0,14.13,1.88c14.92,0,28.5-6.59,38.23-18.55,17.2-21.12,21.64-57,12.51-101.18l-.83-4Z"/><path class="cls-4" d="M347.75,160.25c-10.48,14-28.13,13.55-41.93,10.33a23.39,23.39,0,0,0,6.86,3c38.05,10,74.42-23.61,60.55-104L357.29,85.53S366.82,134.81,347.75,160.25Z"/><path class="cls-3" d="M374.35,115.87s-23.24-7.14-17.88-44.68c0,0-35.74,16.09-67.92,1.79s-14.29-51.84-14.29-51.84S274.26,48,313.58,39s75.07-8.94,67.92,16.08c0,0,49.13,24.89-9.4,82.15Z"/><path class="cls-2" d="M274.26,21.14s0,19.7,24.76,19.7A65.87,65.87,0,0,0,313.58,39c14.71-3.34,28.92-5.44,40.57-5.44,19.49,0,31.82,5.86,27.35,21.52,0,0,49.13,24.89-9.4,82.15l2.25-21.38s-23.24-7.14-17.88-44.68a103.63,103.63,0,0,1-38.35,7.71A72.55,72.55,0,0,1,288.55,73c-32.17-14.3-14.29-51.84-14.29-51.84M279,0,270,19.09c-.4.83-9.61,20.55-3.08,38.21,3.3,8.94,9.95,15.68,19.75,20a77.06,77.06,0,0,0,31.5,6.33A109,109,0,0,0,351,78.31c-1.34,26.34,11.64,36.85,18.26,40.48l-1.89,18L366,149.92l9.46-9.26c22.47-22,32.45-42.27,29.68-60.3-2.31-15-12.81-23.88-18.23-27.55.88-5.56-.16-10.33-3.09-14.21-4.89-6.49-14.87-9.79-29.65-9.79-11.25,0-25.64,1.92-41.63,5.56a61.89,61.89,0,0,1-13.5,1.7c-19.17,0-20-13.43-20-15V0Z"/><path class="cls-5" d="M381.5,55.1c7.15-25-28.6-25-67.92-16.08-24.52,5.57-33.75-2.75-37.22-9.81-.81,6.42,1.38,14.57,15.75,18.17,25.43,6.35,65.18-14.31,79.48-4.77S378,56.91,378,56.91s16.17,14.16,22.63,33.25C403.12,66.07,381.5,55.1,381.5,55.1Z"/><ellipse class="cls-2" cx="302.44" cy="115.74" rx="3.97" ry="4.77"/><ellipse class="cls-2" cx="339.8" cy="114.94" rx="3.97" ry="4.77"/><path class="cls-2" d="M332.05,162.23a17.93,17.93,0,0,1-6.39-1.32,1.59,1.59,0,1,1,1.25-2.92c1.39.59,5.56,1.82,8.13.41a5.15,5.15,0,0,0,2.4-4,1.59,1.59,0,0,1,3.13.53,8.16,8.16,0,0,1-4,6.24A9.38,9.38,0,0,1,332.05,162.23Z"/><path class="cls-2" d="M350.13,100.63a1.57,1.57,0,0,1-1.22-.57c-7.06-8.47-15.47-4.41-15.55-4.36a1.59,1.59,0,0,1-1.43-2.85c.11,0,10.77-5.21,19.42,5.18a1.59,1.59,0,0,1-1.22,2.6Z"/><path class="cls-2" d="M297.67,105.4a2,2,0,0,1-.41-.05,1.6,1.6,0,0,1-1.13-1.95,10.32,10.32,0,0,1,4.92-6.72c4.36-2.4,9.59-.81,9.81-.74a1.59,1.59,0,1,1-.94,3c-.09,0-4.21-1.24-7.35.5a7.26,7.26,0,0,0-3.36,4.75A1.6,1.6,0,0,1,297.67,105.4Z"/><path class="cls-5" d="M457.61,255.88c32.18-9.66,64.21-55.67,64.21-55.67l-6.74-7.75c-53.83,91-127.59,37.74-127.59,37.74a345.69,345.69,0,0,1,1.59,69.95c-3.18,36.56,4.77,31.79-50.87,42.92-22.43,4.49-45.38-1.11-64.79-9.38a25,25,0,0,0,6,9.38c20.66,19.08,88.92,16.16,109.69,0,20.4-15.86,11.72-64.83,6.2-97.42C412.6,253.85,437.2,262,457.61,255.88Z"/><path class="cls-5" d="M210.7,255.88c19.92,6,43.81-1.65,61.05-9.63l10.82-12.87s-22.26,17.48-66.77,8c-30.49-6.54-55-29.47-67.43-43.28l-1.88,2.16S178.53,246.22,210.7,255.88Z"/><path class="cls-3" d="M64.63,463.15s1.68,13.4-8.37,16.75-36.85,6.7-23.45,13.4H88.08s5-20.1-3.35-28.47S64.63,463.15,64.63,463.15Z"/><path class="cls-2" d="M89.94,495.69H32.25l-.51-.25c-1.32-.67-5.36-2.69-5-6.12.51-4.49,7.84-6.47,19.76-9.32,3.44-.82,6.69-1.6,9-2.36,8-2.68,6.82-13.73,6.77-14.19l-.19-1.57,1.37-.8c4.6-2.63,15.32-5.58,23,2.06,9.22,9.23,4.19,29.87,4,30.74Zm-56.55-4.77H86.16c1.23-6.27,2.36-18.93-3.12-24.4s-12.92-3.23-15.91-1.93c.21,5.65-1.64,14.75-10.12,17.58-2.47.82-5.82,1.62-9.36,2.47-5,1.19-14,3.36-15.95,5.14A8,8,0,0,0,33.39,490.92Z"/><path class="cls-3" d="M139.49,463.15s-1.67,13.4,8.38,16.75,36.85,6.7,23.45,13.4H116.05s-5-20.1,3.35-28.47S139.49,463.15,139.49,463.15Z"/><path class="cls-2" d="M171.88,495.69h-57.7l-.45-1.81c-.22-.87-5.24-21.51,4-30.74,7.64-7.64,18.37-4.69,23-2.06l1.38.79-.2,1.58c-.06.5-1.27,11.51,6.76,14.19,2.28.76,5.53,1.54,9,2.36,11.92,2.85,19.24,4.83,19.76,9.32.4,3.43-3.64,5.45-5,6.12ZM118,490.92h52.78a7.82,7.82,0,0,0,1.68-1.14c-1.89-1.78-10.95-3.95-15.94-5.14-3.55-.85-6.9-1.65-9.37-2.47-8.48-2.83-10.32-11.93-10.12-17.58-3-1.3-10.36-3.61-15.91,1.93S116.73,484.65,118,490.92Z"/><path class="cls-3" d="M36.16,320.79s20.1,135.67,25.12,150.74H91.43l-3.35-92.12h23.45l1.67,90.44h28.48l15.07-149.06Z"/><path class="cls-2" d="M156.75,320.79,141.68,469.85H113.2l-1.67-90.44H88.08l3.35,92.12H61.28c-5-15.07-25.12-150.74-25.12-150.74H156.75M162,316H30.63l.81,5.47c.82,5.56,20.22,136.25,25.32,151.55l1.08,3.26H96.38l-.18-4.94L93,384.18h13.82l1.58,85.76.09,4.68H146l.43-4.29,15.07-149.06L162,316Z"/><path class="cls-1" d="M174,315.88c-3.24-28.61-19.89-81.17-20.95-91.27S155.57,193,103.24,191h-.46c-52.33-1.79-50.5,19.58-52.09,29.93-1.54,10-22.25,61.19-27.58,89.49S44.9,339.64,44.9,339.64l52.36,1.92.46,0,52.35,1.92S177.19,344.49,174,315.88Z"/><path class="cls-2" d="M96.78,190.82q2.88,0,6,.11h.46c52.33,2,48.71,23.6,49.76,33.66s17.71,62.66,20.95,91.27c3,26.75-20.48,27.62-23.55,27.62h-.33l-52.35-1.92-.46,0L44.9,339.64s-27.12-1-21.79-29.29,26-79.46,27.58-89.49-.1-30,46.09-30m1.4-4.83v.07H96.78c-46.73,0-49.18,20.61-50.49,31.68-.1.85-.2,1.66-.31,2.4-.55,3.55-4.42,14.7-8.52,26.51-7,20.23-15.76,45.4-19,62.83-1.89,10.06-.33,18.31,4.64,24.53,7.82,9.79,21.11,10.38,21.67,10.41l52.35,1.92h.46l52.35,1.92h.51c2.34,0,14.41-.44,22.16-9.11,5.2-5.82,7.26-13.83,6.13-23.81-2.05-18.12-9.38-45.69-14.74-65.82-3.13-11.78-5.84-22-6.2-25.42-.08-.75-.14-1.65-.19-2.6-.35-5.78-.86-14.5-8.52-21.92-7.81-7.55-21.2-11.88-40.84-13.16v-.08l-4.79-.17H103L98.18,186Z"/><path class="cls-1" d="M94.63,169.54l.76,21.76s1.91,9.46,13.75,9.57c20.17.19,19.79-9.08,19.79-9.08l-.83-23.43Z"/><path class="cls-2" d="M109.75,203.26h-.63c-10.9-.1-15.27-7.55-16.06-11.48l0-.39-.85-24.14,38.24-1.35.91,25.82a8.71,8.71,0,0,1-2.71,6.06C125.08,201.41,118.73,203.26,109.75,203.26ZM97.77,191c.29,1.09,2.37,7.42,11.39,7.51,13.61.15,17.33-4.31,17.39-6.67l-.75-21-28.71,1Z"/><path class="cls-1" d="M72,64.33S30,179.61,117.17,177.57C206,175.48,145.77,62,145.77,62Z"/><path class="cls-2" d="M145.77,62S206,175.48,117.17,177.57l-2.27,0C30.79,177.6,72,64.33,72,64.33L145.77,62m2.82-4.86-3,.09L71.88,59.56l-3.23.1-1.1,3c-1,2.64-23.25,65,.45,98.83,9.69,13.83,25.47,20.84,46.9,20.84.79,0,1.58,0,2.38,0,22.54-.53,38.18-8,46.5-22.21,20.46-34.95-12.39-97.7-13.8-100.36l-1.39-2.62Z"/><path class="cls-4" d="M151.55,74.37,141.68,83s23.44,35.18,8.37,68.67c-9.23,20.51-41.06,21.56-64.74,19.28,7.94,4.47,18.35,7,31.86,6.66C187.78,175.91,164.19,103.84,151.55,74.37Z"/><path class="cls-3" d="M68,114.79S98.13,99.71,98.13,71.24c0,0,16.75,35.17,67,38.52,0,0,15.08-40.19-21.77-62s-50.25,6.7-50.25,6.7S47.88,42.77,47.88,93s17.76,57.85,17.76,57.85S63,129.86,68,114.79Z"/><path class="cls-2" d="M117.94,39.59c6.82,0,15.22,2.18,25.41,8.2,36.85,21.78,21.77,62,21.77,62-50.24-3.35-67-38.52-67-38.52C98.13,99.71,68,114.79,68,114.79c-5,15.07-2.34,36.07-2.34,36.07S47.88,143.26,47.88,93c0-34.26,21-39.71,34.4-39.71A47.4,47.4,0,0,1,93.1,54.49s7-14.9,24.84-14.9m0-4.77h0a32.35,32.35,0,0,0-27.2,14.36,57.44,57.44,0,0,0-8.46-.64c-10,0-18.74,2.79-25.23,8.07C47.8,64.15,43.11,76.4,43.11,93c0,51.9,18.54,61.33,20.65,62.23l7.66,3.28-1-8.27c0-.19-2.28-18.5,1.6-32.21,5.81-3.32,23.3-14.71,29.06-34,9.43,11.43,29,28.15,63.78,30.47l3.53.24,1.25-3.32a64.94,64.94,0,0,0,3.22-24.81c-.84-12.8-6.21-30.64-27-42.94-10-5.88-19.32-8.87-27.84-8.87Z"/><path class="cls-1" d="M71,136.18s-12.86,6.27-14.77-13.73,15.4-14.93,19.69-5.25"/><path class="cls-2" d="M66.56,139.49a10.6,10.6,0,0,1-5.26-1.34c-4.22-2.36-6.74-7.57-7.49-15.48-1.19-12.43,4.76-15.36,7.37-16,6-1.58,13.9,2.91,16.87,9.61l-4.36,1.93c-2-4.47-7.57-7.9-11.31-6.93-4.14,1.08-4.17,7.34-3.83,11,.59,6.15,2.33,10.21,5.05,11.76,2.88,1.64,6.28.07,6.32.05L72,138.32A13.45,13.45,0,0,1,66.56,139.49Z"/><path class="cls-4" d="M135.78,196.75c9.95,26.34,23.56,88.46,22.66,110.46-1.12,27-49.8,27.68-95.42,24.76C43,330.69,30.34,324.89,22.47,318.8c1,20,22.43,20.84,22.43,20.84l52.36,1.92.46,0,52.35,1.92s27.12,1,23.88-27.62S154.06,234.71,153,224.61C152.25,217.42,153.87,204.37,135.78,196.75Z"/><path class="cls-1" d="M114.48,199.51s13.8,92.81,4.44,137.47"/><path class="cls-2" d="M118.92,339.37a2.05,2.05,0,0,1-.49-.06,2.38,2.38,0,0,1-1.85-2.82c9.17-43.74-4.33-135.71-4.46-136.63a2.38,2.38,0,1,1,4.71-.7c.57,3.8,13.76,93.74,4.42,138.31A2.39,2.39,0,0,1,118.92,339.37Z"/><path class="cls-5" d="M161.31,65a50.5,50.5,0,0,0-18-17.22C106.5,26,93.1,54.49,93.1,54.49S47.88,42.77,47.88,93c0,.63,0,1.22,0,1.83C52,78.05,63.64,59.52,94.78,59.52,94.78,59.52,109,38.71,161.31,65Z"/><ellipse class="cls-2" cx="105.67" cy="119.81" rx="4.19" ry="5.02"/><ellipse class="cls-2" cx="145.02" cy="118.97" rx="4.19" ry="5.02"/><path class="cls-2" d="M121.85,162.18c-10.91,0-15.59-6.79-15.83-7.15a1.59,1.59,0,1,1,2.64-1.77c.26.38,6.36,9,21.67,4.39a1.59,1.59,0,0,1,.92,3A32.85,32.85,0,0,1,121.85,162.18Z"/><path class="cls-2" d="M92.27,108.84a1.74,1.74,0,0,1-.39,0,1.59,1.59,0,0,1-1.15-1.93c.06-.26,1.68-6.53,7.07-9.36,3.34-1.76,7.3-1.79,11.77-.11a1.59,1.59,0,0,1-1.11,3C104.88,99,101.8,99,99.3,100.3c-4.12,2.15-5.48,7.29-5.49,7.34A1.59,1.59,0,0,1,92.27,108.84Z"/><path class="cls-5" d="M42,359.61c6.34,41.32,16,102.12,19.25,111.92h7.85c-4.26-18-11.87-51.59-15.38-76.21C51.42,379,46.56,367.39,42,359.61Z"/><path class="cls-5" d="M119.06,398.67c0-10.92-4.12-14.78-7.47-16.11l1.61,87.29h9.16C120.91,444.37,119.06,409.84,119.06,398.67Z"/><path class="cls-1" d="M130.79,256.31c-2.61-18.24,13.4-36.85,30.15-26.8s48.57,26.8,40.19,48.57S132.46,268,130.79,256.31Z"/><path class="cls-2" d="M151.38,226.69a18.52,18.52,0,0,1,9.56,2.82c16.74,10.05,48.57,26.8,40.19,48.57-2,5.32-7.18,7.44-13.8,7.44-20.51,0-55.28-20.35-56.54-29.21-2.1-14.69,7.88-29.62,20.59-29.62m0-4.77h0c-6.56,0-12.84,3.07-17.68,8.65A33.54,33.54,0,0,0,126.07,257c1.21,8.5,16.84,17.83,23.5,21.44,13.68,7.43,27.79,11.86,37.76,11.86,12.37,0,16.75-6.57,18.25-10.49,9.23-24-20.61-41.62-38.43-52.15-1.32-.77-2.58-1.52-3.76-2.23a23.23,23.23,0,0,0-12-3.5Z"/><path class="cls-4" d="M188.92,248.05c-1.22,29.19-35.73,19.05-57.74,9.55,5.39,12.57,61.87,41.51,69.95,20.48C205.55,266.59,198.77,256.5,188.92,248.05Z"/><path class="cls-1" d="M114.1,253l32.62-60a9.22,9.22,0,0,1,10.14-4.6l47.72,10.73a9.24,9.24,0,0,1,5.89,13.76l-35.26,58.78a9.24,9.24,0,0,1-9.82,4.28l-45.08-9.49A9.23,9.23,0,0,1,114.1,253Z"/><path class="cls-2" d="M154.83,188.11a8.84,8.84,0,0,1,2,.23l47.72,10.73a9.24,9.24,0,0,1,5.89,13.76l-35.26,58.78a9.24,9.24,0,0,1-7.92,4.48,8.76,8.76,0,0,1-1.9-.2l-45.08-9.49A9.23,9.23,0,0,1,114.1,253l32.62-60a9.23,9.23,0,0,1,8.11-4.83m0-4.77h0a14,14,0,0,0-12.3,7.32l-32.62,60a14,14,0,0,0,9.41,20.39l45.08,9.49a14,14,0,0,0,14.9-6.5l35.26-58.77a14,14,0,0,0-8.93-20.87L157.9,183.68a14.44,14.44,0,0,0-3.07-.34Z"/><path class="cls-4" d="M175.21,271.61l35.26-58.78a9.24,9.24,0,0,0-5.89-13.76l-6.91-1.55L166,247a18.36,18.36,0,0,1-15.47,8.46H113.18a9.23,9.23,0,0,0,7.13,10.93l45.08,9.49A9.24,9.24,0,0,0,175.21,271.61Z"/><path class="cls-1" d="M84.73,255.47S99.8,232,114.88,235.38s3.35,11.72,3.35,13.39,10,3.35,26.79,0,16.75,30.15-38.52,33.5S84.73,255.47,84.73,255.47Z"/><path class="cls-2" d="M98.51,284.92c-14.6,0-23-2.95-25.48-8.95-3.73-8.91,7.65-20,9.87-22.05,1.87-2.83,16.74-24.38,32.49-20.87,5.24,1.16,8.26,3.1,9.24,5.92,1.21,3.48-1.19,6.78-2.91,8.93,3.33.6,11.07.89,22.84-1.46,4.33-.87,8.16.3,10.49,3.2,2.56,3.21,2.84,7.95.74,12.69s-11.72,20.05-49.14,22.32C103.75,284.83,101,284.92,98.51,284.92Zm13.42-47.48c-10.4,0-21.54,13.64-25.19,19.32a3.23,3.23,0,0,1-.41.49c-3,2.71-11.1,11.64-8.9,16.88,1.15,2.74,6.43,7.13,28.93,5.76,27.6-1.67,41.38-11.16,45.07-19.49,1.36-3.08,1.33-6-.1-7.77-1.2-1.49-3.27-2-5.84-1.52-15,3-25.7,2.28-28.47,0a3,3,0,0,1-1.18-2.35c0-1.21.72-2.08,1.8-3.41s2.91-3.59,2.49-4.83c-.14-.39-1-1.76-5.77-2.83A11,11,0,0,0,111.93,237.44Z"/><path class="cls-1" d="M69.13,193.4C39.5,194.84-7.39,248.77,7.69,280.6c11,23.15,78.72,15.07,102.16,3.35L93.1,248.77s-36.84,18.43-41.87,6.7c-4.8-11.2,29-16.52,38.52-31.82C98.13,210.25,101.48,191.83,69.13,193.4Z"/><path class="cls-2" d="M72.87,193.31c28.33,0,24.92,17.48,16.88,30.34-9.56,15.3-43.32,20.62-38.52,31.82,1.22,2.83,4.28,3.91,8.24,3.91,12.43,0,33.63-10.61,33.63-10.61L109.85,284c-12.5,6.25-37.58,11.46-59.95,11.46-19.59,0-37.09-4-42.21-14.81-15.08-31.83,31.81-85.76,61.44-87.2,1.31-.06,2.55-.09,3.74-.09m0-4.77c-1.27,0-2.61,0-4,.1-18.48.9-43.44,20-58,44.35C-.31,251.61-3,269.24,3.38,282.64c6.86,14.5,29.09,17.54,46.52,17.54,22.11,0,48.22-5,62.09-12l4.18-2.09-2-4.22L97.41,246.72l-2.09-4.38L91,244.51c-5.62,2.81-22.25,10.1-31.5,10.1-2.08,0-3.59-.4-3.85-1-.81-1.88,8.87-6.82,13.52-9.2,9.14-4.67,19.5-10,24.66-18.21,6.64-10.63,8.18-20.31,4.33-27.26s-12.32-10.38-25.26-10.38Z"/><path class="cls-4" d="M109.85,284l-8.43-17.71c-18,7.2-50.1,18.33-72,16C13.77,280.62,9.08,264.71,8.35,249c-4.16,11.18-5,22.32-.66,31.59C18.65,303.75,86.41,295.67,109.85,284Z"/><path class="cls-3" d="M722.93,425.74v-229a25.21,25.21,0,0,1,1.69-9.08l18.14-47.16a9.92,9.92,0,0,0-6.85-13.17h0a9.9,9.9,0,0,0-11.52,5.73l-22.12,52a20.14,20.14,0,0,0-1.6,7.85V435.28Z"/><path class="cls-2" d="M733.5,127a9.93,9.93,0,0,1,9.26,13.47l-18.14,47.16a25.21,25.21,0,0,0-1.69,9.08v229l-22.26,9.54V193a20.14,20.14,0,0,1,1.6-7.85l22.12-52a9.91,9.91,0,0,1,9.11-6m0-4.77A14.66,14.66,0,0,0,720,131.2l-22.12,52a24.72,24.72,0,0,0-2,9.71V442.51l6.65-2.85,22.26-9.54,2.89-1.24V196.74a20.41,20.41,0,0,1,1.37-7.37l18.14-47.16a14.69,14.69,0,0,0-10.14-19.51,14.85,14.85,0,0,0-3.57-.44Z"/><path class="cls-3" d="M615.62,425.74v-229a25.21,25.21,0,0,1,1.69-9.08l18.14-47.16a9.91,9.91,0,0,0-6.85-13.17h0a9.9,9.9,0,0,0-11.52,5.73L595,185.1a20.14,20.14,0,0,0-1.6,7.85V435.28Z"/><path class="cls-2" d="M626.2,127a9.93,9.93,0,0,1,9.25,13.47l-18.14,47.16a25.21,25.21,0,0,0-1.69,9.08v229l-22.26,9.54V193a20.14,20.14,0,0,1,1.6-7.85l22.12-52a9.91,9.91,0,0,1,9.12-6m0-4.77a14.66,14.66,0,0,0-13.51,8.94l-22.12,52a24.72,24.72,0,0,0-2,9.71V442.51l6.64-2.85,22.26-9.54,2.89-1.24V196.74a20.41,20.41,0,0,1,1.37-7.37l18.14-47.16a14.69,14.69,0,0,0-10.14-19.51,14.83,14.83,0,0,0-3.56-.44Z"/><path class="cls-1" d="M496.14,303.33s17.49,6.36,19.08,11.12-4.77,6.36-4.77,6.36,16.16,11,6.49,23S478.66,318,478.66,318Z"/><path class="cls-2" d="M512,348.52h-.15c-12.86-.19-32.86-26.09-35.1-29l-1.37-1.8,20.27-17.06,1.3.48c4.36,1.58,18.71,7.17,20.52,12.61a6.35,6.35,0,0,1-.37,5.17,7.65,7.65,0,0,1-2.25,2.46c2.79,2.59,6.59,7,7.39,12.38a14.51,14.51,0,0,1-3.45,11.56A8.44,8.44,0,0,1,512,348.52ZM482,318.38c6.66,8.42,21.68,25.25,30,25.37a3.68,3.68,0,0,0,3.15-1.47,9.85,9.85,0,0,0,2.46-7.87c-.81-5.4-6.36-10.22-8.43-11.62l-4.41-3,5.17-1.29c.76-.2,2.52-.93,3.06-1.93a1.57,1.57,0,0,0,0-1.36c-.68-2-8.89-6.32-16.34-9.16Z"/><path class="cls-3" d="M527.94,188.86c-4.48-5.51-15.9-11.12-31.8,1.59s-43.24,33.32-47.69,54.06c-4.77,22.25,12.72,57.23,25.44,73.12,5,6.21,8,9.54,8,9.54l27-25.43s-29.55-33.16-17.48-52.47C499.32,236.56,548.61,214.3,527.94,188.86Z"/><path class="cls-2" d="M514.58,182.74a17.17,17.17,0,0,1,13.36,6.12c20.67,25.44-28.62,47.7-36.56,60.41-12.07,19.31,17.48,52.47,17.48,52.47l-27,25.43s-3-3.33-8-9.54c-12.72-15.89-30.21-50.87-25.44-73.12,4.45-20.74,31.8-41.34,47.69-54.06,7.12-5.69,13.34-7.71,18.44-7.71m0-4.77c-7,0-14.15,2.95-21.41,8.76l-3.12,2.48c-16.62,13.22-41.74,33.19-46.26,54.3-5.09,23.75,12.73,60.05,26.37,77.1,5,6.26,8.07,9.63,8.19,9.77l3.27,3.59,3.53-3.33,27-25.43,3.38-3.18-3.09-3.47c-7.55-8.49-25.32-33.44-17-46.76,1.81-2.89,7.27-7.17,13.05-11.71,12.25-9.62,27.51-21.6,29.12-36,.71-6.36-1.29-12.5-6-18.23A21.75,21.75,0,0,0,514.58,178Z"/><path class="cls-5" d="M448.45,244.51c4.45-20.74,31.8-41.34,47.69-54.06,5.12-4.09,9.77-6.28,13.87-7.19-17.08,13.68-42.11,37.72-47.25,64.42-5.61,29.2,16.52,56,30,69.23l-10.89,10.26s-3-3.33-8-9.54C461.17,301.74,443.68,266.76,448.45,244.51Z"/><path class="cls-3" d="M541.7,455.94s-1.59,15.9-14.31,19.08-47.69,12.72-4.77,14.31,47.69-1.59,47.69-1.59,0-27-4.77-30.21S541.7,455.94,541.7,455.94Z"/><path class="cls-2" d="M551.83,455.55c5.37,0,11.33.39,13.71,2,4.77,3.18,4.77,30.21,4.77,30.21s-3,2-26.25,2c-5.8,0-12.86-.12-21.44-.44-42.92-1.59-8-11.13,4.77-14.31s14.31-19.08,14.31-19.08,4.77-.39,10.13-.39m0-4.77c-5.5,0-10.33.39-10.53.41l-3.95.33-.4,4c0,.11-1.47,12.61-10.72,14.92-6.61,1.66-12.12,3.25-16.4,4.74-6.74,2.35-13.27,5.12-12.69,10.7s6.73,7.58,25.3,8.26c8,.3,15.31.45,21.62.45,16.36,0,26.08-1,28.9-2.84l2.12-1.41v-2.55c0-.29,0-7-.61-14.31-1.22-14.59-3.74-18.17-6.28-19.87-2-1.29-5.57-2.78-16.36-2.78Z"/><path class="cls-3" d="M627.47,455.94s1.59,15.9,14.3,19.08,47.7,12.72,4.77,14.31-47.69-1.59-47.69-1.59,0-27,4.77-30.21S627.47,455.94,627.47,455.94Z"/><path class="cls-2" d="M617.33,455.55c5.37,0,10.14.39,10.14.39s1.59,15.9,14.3,19.08,47.7,12.72,4.77,14.31c-8.58.32-15.64.44-21.44.44-23.2,0-26.25-2-26.25-2s0-27,4.77-30.21c2.39-1.59,8.35-2,13.71-2m0-4.77c-10.79,0-14.41,1.49-16.35,2.78-2.55,1.7-5.07,5.28-6.29,19.87-.6,7.27-.61,14-.61,14.31v2.55l2.12,1.41c2.82,1.89,12.55,2.84,28.9,2.84,6.31,0,13.59-.15,21.62-.45,18.58-.68,24.72-2.69,25.31-8.26s-6-8.35-12.7-10.7c-4.27-1.49-9.79-3.08-16.4-4.74-9.25-2.31-10.71-14.81-10.72-14.94l-.42-3.91-3.93-.35c-.2,0-5-.41-10.53-.41Z"/><path class="cls-1" d="M508.31,312.86s22.26,136.72,30.21,151h30.2l-6.36-92.2h17.49l19.08,92.2h31.79s-6.36-81.08-6.36-93.79,7.95-54.06,3.18-65.18S508.31,312.86,508.31,312.86Z"/><path class="cls-2" d="M610.11,301.43c9.68,0,16.36,1,17.43,3.49,4.77,11.12-3.18,52.46-3.18,65.18s6.36,93.79,6.36,93.79H598.93l-19.08-92.2H562.36l6.36,92.2h-30.2c-7.95-14.31-30.21-151-30.21-151s68.61-11.43,101.8-11.43m0-4.77c-33.2,0-99.76,11-102.58,11.5l-4.69.78.77,4.69c2.29,14.08,22.62,138,30.74,152.58l1.36,2.45h38.12l-.35-5.1-6-87.1H576l18.29,88.4.78,3.8h40.84l-.4-5.14c-.07-.81-6.35-81-6.35-93.42,0-4,.9-11.48,1.85-19.46,2.62-22.1,4.36-39.63.95-47.6-2-4.59-8.08-6.38-21.82-6.38Z"/><path class="cls-4" d="M624.36,370.1c0-12.72,7.95-54.06,3.18-65.18s-119.23,7.94-119.23,7.94,1.27,9,3.3,22.78a134.86,134.86,0,0,0,79,16.44,8.91,8.91,0,0,1,9.65,7.49l20,104.32h10.48S624.36,382.81,624.36,370.1Z"/><path class="cls-3" d="M562.36,173.88c-25.47.82-45.06,5.43-49.28,38.82-6.36,50.35-54,123.4,41.34,127.76,89,4.08,86.75-18.37,89-37.18,3.18-26.39-17.49-64.83-23.84-88C611.12,184.38,606.88,172.44,562.36,173.88Z"/><path class="cls-2" d="M569.13,173.76c38.21,0,42.44,12.26,50.47,41.51,6.35,23.18,27,61.62,23.84,88-2.08,17.3-.33,37.67-69.24,37.67-6,0-12.62-.16-19.78-.49-95.33-4.36-47.7-77.41-41.34-127.76,4.22-33.39,23.81-38,49.28-38.82,2.37-.08,4.62-.12,6.77-.12m0-4.77c-2.18,0-4.51,0-6.92.12-24.61.79-49,4.77-53.86,43-1.36,10.74-4.63,22.47-8.1,34.89-7.8,28-15.88,56.91-1.56,76.69,9.57,13.23,27.73,20.27,55.51,21.55,7.09.32,13.82.49,20,.49,30.62,0,50-3.86,61.09-12.14,10.53-7.88,11.66-18.46,12.58-27,.1-.93.2-1.85.31-2.77,2.35-19.52-7.08-44-15.4-65.59-3.45-8.95-6.71-17.41-8.59-24.25-4.42-16.15-7.66-26.48-15.16-33.86-8-7.82-19.89-11.16-39.9-11.16Z"/><path class="cls-5" d="M643.38,303.77l-3.91-2.83s-44.52,23.85-77.9,25.44c-20.77,1-46.44-6.63-62.9-12.54,6,14.82,21.84,25.07,55.75,26.62C642.67,344.5,641.21,322.48,643.38,303.77Z"/><path class="cls-1" d="M546.47,157.07v23.85s11.12,11.12,30.2,1.58V157.07Z"/><path class="cls-2" d="M561.68,188.79a24.78,24.78,0,0,1-16.9-6.19l-.7-.7V154.68h35V184l-1.32.66A35.89,35.89,0,0,1,561.68,188.79Zm-12.83-9c2.48,2,11.37,7.61,25.44,1.17V159.45H548.85Z"/><path class="cls-1" d="M550,163.43c-20-1.05-37-3.08-35.46-30.84s-4.63-58.59-3.09-66.3-3.08-30.84,52.43-30.84,47.8,58.6,46.26,66.3S608.55,166.52,550,163.43Z"/><path class="cls-2" d="M563.84,35.45c55.51,0,47.8,58.6,46.26,66.3-1.51,7.51-1.55,61.8-55.64,61.8q-2.19,0-4.5-.12c-20-1.05-37-3.08-35.46-30.84s-4.63-58.59-3.09-66.3-3.08-30.84,52.43-30.84m0-4.77c-22.85,0-38.34,3.77-47.36,11.52-8.18,7-9,15.55-9.45,20.64-.09,1-.18,1.92-.29,2.52-.76,3.78-.2,10,.94,21.63,1.3,13.23,2.92,29.7,2.05,45.34-.63,11.35,1.59,19.69,6.79,25.47,7.53,8.39,19.48,9.67,33.19,10.39,1.6.09,3.2.13,4.75.13,22.56,0,39.17-8.79,49.36-26.13,8-13.66,9.73-29,10.55-36.36.15-1.33.29-2.59.4-3.14.28-1.39,6.6-34.26-10.77-55.45-9-11-22.52-16.56-40.16-16.56Z"/><path class="cls-4" d="M514.5,132.59C513,160.35,529.94,162.38,550,163.43c17.49.92,29.73-3.53,38.38-10.42-20,4.19-45.2,3.7-56.18-8.66-12.72-14.31-6.36-97-6.36-97L530,40c-19.57,7.14-17.49,20.72-18.6,26.28C509.87,74,516,104.84,514.5,132.59Z"/><path class="cls-3" d="M512,61.21s-27.52-26.55-27.52-37.68,97-11.13,117.64-6.36,38.15-3.18,30.2,36.56-15.85,68.49-26.2,70.81L603.7,90.3s-19.08-19.08-23.85-31.8C579.85,58.5,531.57,52.78,512,61.21Z"/><path class="cls-2" d="M552.48,14.14c21.33,0,41.45,1.14,49.63,3,20.66,4.77,38.15-3.18,30.2,36.56s-15.85,68.49-26.2,70.81L603.7,90.3s-19.08-19.08-23.85-31.8a320.64,320.64,0,0,0-33.35-1.9c-12.75,0-26.21,1-34.51,4.61,0,0-27.52-26.55-27.52-37.68,0-6.73,35.42-9.39,68-9.39m0-4.77a429.14,429.14,0,0,0-46.78,2.21c-18.71,2.18-26,5.53-26,12,0,12.52,24.14,36.44,29,41.11l2.29,2.2,2.91-1.25c6.4-2.76,17.68-4.22,32.62-4.22,12.73,0,24.84,1.06,30.08,1.58,5.41,11.3,18.36,25.16,22.48,29.43l2.29,32.5.39,5.53,5.41-1.21c11.54-2.59,19.35-22.09,29.84-74.53,3.21-16.06,2.65-26-1.83-32.09-4.76-6.53-12.59-7.41-20.88-8.35a96.91,96.91,0,0,1-11.1-1.71c-8.29-1.91-28.19-3.15-50.7-3.15Z"/><path class="cls-1" d="M592.57,91.89s6.36-21.46,16.69-8.35,2.39,35.37-8.74,32.2"/><path class="cls-2" d="M602.69,118.43a10.39,10.39,0,0,1-2.83-.4l1.31-4.59c3.54,1,6.08-1.84,7.29-3.63,4.08-6.09,4.83-17.3-1.07-24.79-1.34-1.7-3.32-3.65-5.17-3.29-3.31.63-6.39,7.57-7.36,10.84l-4.58-1.36c.39-1.31,4-12.81,11-14.17,3.38-.64,6.68,1,9.82,5,7.32,9.3,6.4,22.75,1.28,30.39C609.81,116.36,606.37,118.43,602.69,118.43Z"/><ellipse class="cls-2" cx="522.62" cy="98.25" rx="3.18" ry="4.77"/><ellipse class="cls-2" cx="558.39" cy="99.04" rx="3.18" ry="4.77"/><path class="cls-3" d="M522.62,126.86s-9.54,14.31-8,17.49c.56,1.12,30.15,1,42.35,1.41a1.68,1.68,0,0,0,1.06-3l-14.79-11.1Z"/><path class="cls-2" d="M522.62,126.86l20.67,4.77,14.79,11.1a1.68,1.68,0,0,1-1,3H557c-12.2-.42-41.79-.29-42.35-1.41-1.59-3.18,8-17.49,8-17.49m-2.14-5.38-1.83,2.74c-11.07,16.61-9.09,20.57-8.24,22.26,1.52,3.05,4.15,3.13,12.85,3.41,5.08.17,11.64.26,18,.34,6,.08,11.72.16,15.61.29h.23a6.46,6.46,0,0,0,3.86-11.62l-14.79-11.09-.81-.61-1-.22-20.67-4.77-3.21-.74Z"/><path class="cls-1" d="M536.93,101.43c-9.54,6.36-31.8,19.07-31.8,25.43s47.7,6.36,47.7,6.36"/><path class="cls-2" d="M552.83,135.61c-50.08,0-50.08-6.58-50.08-8.75,0-6,11.57-13.86,26.7-23.46,2.33-1.47,4.45-2.82,6.16-4l2.64,4c-1.73,1.16-3.88,2.52-6.25,4-7.1,4.51-23.46,14.88-24.44,19.06,3.38,2.69,25.8,4.35,45.27,4.35Z"/><path class="cls-2" d="M562.55,155.56a19.1,19.1,0,0,1-1.95-.09,1.59,1.59,0,0,1,.35-3.16c.07,0,6.68.68,9.65-2.39,1.22-1.26,1.65-3,1.32-5.34a1.59,1.59,0,0,1,3.15-.45c.47,3.33-.26,6-2.19,8C570,155.1,565.23,155.56,562.55,155.56Z"/><path class="cls-2" d="M575.88,84.73a1.58,1.58,0,0,1-1.39-.81c-2-3.53-4.61-5.76-7.88-6.63-6.61-1.77-13.69,2.41-13.76,2.45A1.59,1.59,0,0,1,551.21,77c.34-.2,8.32-4.91,16.22-2.79,4.14,1.1,7.44,3.85,9.84,8.15a1.59,1.59,0,0,1-.62,2.16A1.55,1.55,0,0,1,575.88,84.73Z"/><path class="cls-2" d="M513.08,82.35a1.53,1.53,0,0,1-.77-.2,1.59,1.59,0,0,1-.62-2.16c.16-.28,3.92-6.93,9.79-7.17,3.69-.13,7.19,2.22,10.41,7.06a1.59,1.59,0,1,1-2.64,1.76c-2.57-3.85-5.13-5.75-7.65-5.64-4,.16-7.1,5.48-7.13,5.53A1.57,1.57,0,0,1,513.08,82.35Z"/><path class="cls-4" d="M562.42,372.7a3.23,3.23,0,0,0-.85-.22c-9.68-1.07-7,46.29-4.24,91.41h11.39Z"/><path class="cls-5" d="M632.31,53.73c8-39.74-9.54-31.79-30.2-36.56S484.47,12.4,484.47,23.53a13.72,13.72,0,0,0,1.44,5.38l113.45,2.18a19.66,19.66,0,0,1,19.27,20.6l-3,62.43C621.69,102,627,80.34,632.31,53.73Z"/><rect class="cls-4" x="588.33" y="398.89" width="104.64" height="90.43" rx="7.5" ry="7.5"/><path class="cls-2" d="M681.05,398.89A11.93,11.93,0,0,1,693,410.82V477.4a11.93,11.93,0,0,1-11.92,11.93h-80.8a11.92,11.92,0,0,1-11.92-11.93V410.82a11.92,11.92,0,0,1,11.92-11.93h80.8m0-4.77h-80.8a16.71,16.71,0,0,0-16.69,16.7V477.4a16.71,16.71,0,0,0,16.69,16.7h80.8a16.71,16.71,0,0,0,16.69-16.7V410.82a16.71,16.71,0,0,0-16.69-16.7Z"/><rect class="cls-1" x="540.52" y="398.89" width="104.64" height="90.43" rx="6.63" ry="6.63"/><path class="cls-2" d="M634.64,398.89a10.54,10.54,0,0,1,10.53,10.54V478.8a10.54,10.54,0,0,1-10.53,10.53H551.06a10.54,10.54,0,0,1-10.54-10.53V409.43a10.54,10.54,0,0,1,10.54-10.54h83.58m0-4.77H551.06a15.32,15.32,0,0,0-15.3,15.31V478.8a15.32,15.32,0,0,0,15.3,15.3h83.58a15.33,15.33,0,0,0,15.3-15.3V409.43a15.33,15.33,0,0,0-15.3-15.31Z"/><path class="cls-2" d="M543.76,489.05l-3.51-3.23,32.37-35.18a9.39,9.39,0,0,0-.14-12.85l-32.2-33.49,3.44-3.31,32.2,33.49a14.18,14.18,0,0,1,.21,19.39Z"/><path class="cls-2" d="M644.2,489.05l-32.37-35.18a14.17,14.17,0,0,1,.21-19.39L644.23,401l3.44,3.31-32.19,33.49a9.39,9.39,0,0,0-.14,12.85l32.37,35.18Z"/><rect class="cls-4" x="588.97" y="213.51" width="104.64" height="90.43" rx="7.5" ry="7.5"/><path class="cls-2" d="M681.69,213.51a11.92,11.92,0,0,1,11.93,11.92V292a11.93,11.93,0,0,1-11.93,11.92h-80.8A11.92,11.92,0,0,1,589,292V225.43a11.92,11.92,0,0,1,11.92-11.92h80.8m0-4.77h-80.8a16.71,16.71,0,0,0-16.69,16.69V292a16.71,16.71,0,0,0,16.69,16.69h80.8A16.71,16.71,0,0,0,698.39,292V225.43a16.71,16.71,0,0,0-16.7-16.69Z"/><path class="cls-1" d="M547.8,213.51h91.39a6.63,6.63,0,0,1,6.63,6.63v77.18a6.62,6.62,0,0,1-6.62,6.62H547.8a6.63,6.63,0,0,1-6.63-6.63V220.13A6.63,6.63,0,0,1,547.8,213.51Z"/><path class="cls-2" d="M635.28,213.51A10.53,10.53,0,0,1,645.82,224v69.37a10.54,10.54,0,0,1-10.54,10.53H551.7a10.54,10.54,0,0,1-10.53-10.53V224a10.53,10.53,0,0,1,10.53-10.53h83.58m0-4.77H551.7A15.32,15.32,0,0,0,536.4,224v69.37a15.33,15.33,0,0,0,15.3,15.3h83.58a15.32,15.32,0,0,0,15.3-15.3V224a15.31,15.31,0,0,0-15.3-15.3Z"/><path class="cls-2" d="M544.4,303.66l-3.51-3.23,32.37-35.18a9.39,9.39,0,0,0-.14-12.85l-32.19-33.49,3.44-3.31,32.19,33.49a14.17,14.17,0,0,1,.21,19.39Z"/><path class="cls-2" d="M644.84,303.66l-32.37-35.18a14.17,14.17,0,0,1,.22-19.39l32.19-33.49,3.44,3.31-32.2,33.49a9.39,9.39,0,0,0-.14,12.85l32.37,35.18Z"/><rect class="cls-4" x="555.38" y="305.23" width="104.64" height="90.43" rx="7.5" ry="7.5" transform="translate(1215.41 700.9) rotate(-180)"/><path class="cls-2" d="M648.1,305.23A11.93,11.93,0,0,1,660,317.15v66.59a11.92,11.92,0,0,1-11.93,11.92H567.3a11.92,11.92,0,0,1-11.92-11.92V317.15a11.92,11.92,0,0,1,11.92-11.92h80.8m0-4.77H567.3a16.71,16.71,0,0,0-16.69,16.69v66.59a16.71,16.71,0,0,0,16.69,16.69h80.8a16.71,16.71,0,0,0,16.7-16.69V317.15a16.71,16.71,0,0,0-16.7-16.69Z"/><rect class="cls-1" x="603.18" y="305.23" width="104.64" height="90.43" rx="6.62" ry="6.62" transform="translate(1311.01 700.9) rotate(-180)"/><path class="cls-2" d="M697.29,305.23a10.54,10.54,0,0,1,10.54,10.53v69.37a10.53,10.53,0,0,1-10.54,10.53H613.71a10.53,10.53,0,0,1-10.53-10.53V315.76a10.54,10.54,0,0,1,10.53-10.53h83.58m0-4.77H613.71a15.33,15.33,0,0,0-15.3,15.3v69.37a15.32,15.32,0,0,0,15.3,15.3h83.58a15.32,15.32,0,0,0,15.31-15.3V315.76a15.33,15.33,0,0,0-15.31-15.3Z"/><path class="cls-2" d="M704.59,395.38l-32.37-35.17a14.17,14.17,0,0,1,.22-19.39l32.19-33.49,3.44,3.3-32.2,33.49a9.41,9.41,0,0,0-.14,12.86l32.37,35.17Z"/><path class="cls-2" d="M604.15,395.38l-3.51-3.23L633,357a9.4,9.4,0,0,0-.14-12.86l-32.19-33.49,3.44-3.3,32.19,33.49a14.17,14.17,0,0,1,.21,19.39Z"/><path class="cls-1" d="M597.09,181.11s-22.14-2.79-31.48,3.45,5,7.48,5,7.48-26.18,17.48-15.88,30.88,27.75-.95,36.15-18.73l16.84-3.13Z"/><path class="cls-2" d="M564.47,230.57c-4.51,0-8.51-2.12-11.64-6.2a13.37,13.37,0,0,1-2.7-10.69c1.37-8.27,9.55-16.1,14.78-20.34-2.2-.76-4.21-2-4.73-4-.87-3.41,2.87-5.91,4.1-6.73,10-6.66,32.17-4,33.11-3.83l1.23.15,12.72,23.91-18.85,3.5c-5.67,11.4-15.84,23-26.42,24.17A14.44,14.44,0,0,1,564.47,230.57Zm.52-42.39a16.33,16.33,0,0,0,5.82,1.49l6.74.59L571.92,194c-.15.1-15.44,10.43-17.08,20.43a8.65,8.65,0,0,0,1.77,7c2.5,3.25,5.43,4.65,8.95,4.27,7.62-.82,17.36-10.31,23.16-22.57l.52-1.1,14.83-2.76-8.49-16c-6.75-.69-22-1.21-28.65,3.21A8.2,8.2,0,0,0,565,188.18Z"/><path class="cls-3" d="M704,188.85c.61,27.44-44.91,26.78-111,20.51l0-32.43S703.29,154.87,704,188.85Z"/><path class="cls-2" d="M659,169.89c23.69,0,44.74,4.18,45.06,19,.41,18.26-19.62,24.08-52.53,24.08-16.55,0-36.36-1.47-58.47-3.57l0-32.43s35.18-7,65.92-7m0-4.77v0c-30.87,0-65.41,6.84-66.87,7.13l-3.83.77v3.91l0,32.42v4.34l4.33.41c26.15,2.49,44.32,3.6,58.92,3.6,27,0,42.71-3.79,51-12.28a22.24,22.24,0,0,0,6.29-16.68c-.35-15.67-17.11-23.62-49.82-23.62Z"/><path class="cls-5" d="M713.39,429.83l9.54-4.09v-229a25.21,25.21,0,0,1,1.69-9.08l18.14-47.16A9.93,9.93,0,0,0,739.37,129l-26,63.08Z"/><path class="cls-5" d="M593.05,184.84c24.35-2.86,65.67-7.07,84.81-5.36,14.95,1.34,21.67,9.85,24.67,17.5a19,19,0,0,0,1.51-8.13c-.75-34-111-11.92-111-11.92Z"/><rect class="cls-3" x="670.47" y="406.66" width="62" height="92.21" rx="19.5" ry="19.5"/><path class="cls-2" d="M701.47,406.66a31.09,31.09,0,0,1,31,31v30.21a31,31,0,1,1-62,0V437.66a31.09,31.09,0,0,1,31-31m0-4.77a35.81,35.81,0,0,0-35.77,35.77v30.21a35.77,35.77,0,1,0,71.54,0V437.66a35.82,35.82,0,0,0-35.77-35.77Z"/><ellipse class="cls-1" cx="716.57" cy="451.17" rx="6.36" ry="22.26"/><path class="cls-2" d="M716.57,475.81c-6.9,0-8.74-15.48-8.74-24.64s1.84-24.64,8.74-24.64,8.74,15.49,8.74,24.64S723.47,475.81,716.57,475.81Zm0-44.43c-1.29,1-4,7.53-4,19.79s2.68,18.78,4,19.8c1.29-1,4-7.54,4-19.8S717.86,432.4,716.57,431.38Z"/><path class="cls-5" d="M670.47,437.66v30.21a31.09,31.09,0,0,0,31,31c1,0,2-.06,3-.16C683,484.89,688,458.5,688,432.1c0-18.29,16.7-20.83,31.8-19.39a30.74,30.74,0,0,0-18.28-6A31.09,31.09,0,0,0,670.47,437.66Z"/></g></g></svg>