<svg xmlns="http://www.w3.org/2000/svg" viewBox="0 0 296 246.46"><defs><style>.cls-1{fill:#f4f4f4;}.cls-2{fill:#fff;}.cls-3,.cls-5{fill:#7177bf;}.cls-4{fill:#dbdbf1;}.cls-5{font-size:16.02px;font-family:GothamRounded-Bold, Gotham Rounded;font-weight:700;}.cls-6{fill:#ededf7;}.cls-7{fill:#f5f6f7;}</style></defs><title>Recurso 18</title><g id="Capa_2" data-name="Capa 2"><g id="Capa_1-2" data-name="Capa 1"><path class="cls-1" d="M141.23,246.45c-66.38.91-69.6-38.42-109.44-82.63C-5.89,122,4,59.29,47.94,39.38S189.67-24.34,228.25,17.47s69.07,76.66,35,146.35C235.67,220.17,213.89,245.45,141.23,246.45Z"/><rect class="cls-2" x="52.59" y="92.64" width="40.81" height="85.63" rx="16.17" ry="16.17"/><path class="cls-3" d="M83.44,92.64a10,10,0,0,1,10,10v65.71a10,10,0,0,1-10,10H62.54a10,10,0,0,1-9.95-10V102.6a10,10,0,0,1,9.95-10h20.9m0-1.85H62.54a11.82,11.82,0,0,0-11.8,11.81v65.71a11.82,11.82,0,0,0,11.8,11.81h20.9a11.82,11.82,0,0,0,11.8-11.81V102.6a11.82,11.82,0,0,0-11.8-11.81Z"/><rect class="cls-4" x="104.11" y="63.07" width="40.81" height="115.19" rx="16.17" ry="16.17"/><path class="cls-3" d="M135,63.07a10,10,0,0,1,9.95,10v95.28a10,10,0,0,1-9.95,10H114.07a10,10,0,0,1-10-10V73a10,10,0,0,1,10-10H135m0-1.84H114.07A11.81,11.81,0,0,0,102.26,73v95.28a11.82,11.82,0,0,0,11.81,11.81H135a11.82,11.82,0,0,0,11.8-11.81V73A11.81,11.81,0,0,0,135,61.23Z"/><rect class="cls-4" x="1.85" y="135.15" width="40.81" height="43.12" rx="16.17" ry="16.17"/><path class="cls-3" d="M32.7,135.15a10,10,0,0,1,10,10v23.2a10,10,0,0,1-10,10H11.81a10,10,0,0,1-10-10v-23.2a10,10,0,0,1,10-10H32.7m0-1.85H11.81A11.83,11.83,0,0,0,0,145.11v23.2a11.83,11.83,0,0,0,11.81,11.81H32.7a11.82,11.82,0,0,0,11.8-11.81v-23.2A11.82,11.82,0,0,0,32.7,133.3Z"/><rect class="cls-2" x="155.63" y="32.89" width="40.81" height="145.38" rx="16.17" ry="16.17"/><path class="cls-3" d="M186.48,32.89a10,10,0,0,1,10,10V168.31a10,10,0,0,1-10,10H165.59a10,10,0,0,1-10-10V42.85a10,10,0,0,1,10-10h20.89m0-1.85H165.59a11.83,11.83,0,0,0-11.81,11.81V168.31a11.83,11.83,0,0,0,11.81,11.81h20.89a11.82,11.82,0,0,0,11.8-11.81V42.85A11.82,11.82,0,0,0,186.48,31Z"/><text class="cls-5" transform="translate(15.85 153.63)">$</text><text class="cls-5" transform="translate(66.98 111.74)">$</text><text class="cls-5" transform="translate(118.11 82.17)">$</text><text class="cls-5" transform="translate(169.24 52.6)">$</text><path class="cls-2" d="M196,72.86s1.83-4-.71-10.44-.31-18,4.78-16.78,5.34,15.54,2.72,23S196,72.86,196,72.86Z"/><path class="cls-3" d="M198.15,74.47a4.77,4.77,0,0,1-2.68-.87l-.58-.45.3-.66c0-.08,1.6-3.86-.73-9.73-2-5.11-1.22-13.12,1.66-16.48a4.11,4.11,0,0,1,4.19-1.54,5,5,0,0,1,3.16,2.7c2.71,5,2.36,15.43.23,21.49-1.07,3-2.54,4.82-4.38,5.37A4.14,4.14,0,0,1,198.15,74.47Zm-1-2a2.58,2.58,0,0,0,1.66.1c1.22-.38,2.3-1.83,3.14-4.21,1.93-5.47,2.31-15.6-.1-20a3.23,3.23,0,0,0-2-1.79,2.3,2.3,0,0,0-2.36,1c-2.42,2.81-3.1,10.17-1.35,14.58C198.2,67.16,197.59,70.87,197.15,72.43Z"/><path class="cls-4" d="M219.93,118.15c-4.57,6.79-23.16-3.52-28.28-20.33a63.52,63.52,0,0,1-.84-32.21L207,68s-4.22,15.76-1.58,25.11S229.61,103.75,219.93,118.15Z"/><path class="cls-3" d="M190.81,65.61,207,68s-4.22,15.76-1.58,25.11,24.24,10.61,14.56,25a5.17,5.17,0,0,1-4.55,2.11c-7.31,0-19.7-9.2-23.73-22.44a63.52,63.52,0,0,1-.84-32.21m-1.35-2.07L189,65.12a65,65,0,0,0,.86,33.24,37.72,37.72,0,0,0,11.19,17c4.79,4.2,10.14,6.71,14.31,6.71a6.92,6.92,0,0,0,6.08-2.93c2.35-3.5,3.21-6.6,2.61-9.46-.93-4.5-5.17-7.21-9.27-9.83-3.52-2.25-6.85-4.38-7.66-7.25-2.46-8.75,1.56-24,1.6-24.13l.53-2-2-.3-16.15-2.42-1.62-.25Z"/><path class="cls-6" d="M219,119.17c-8.16-4.27-21.58-12.93-23.4-24.48-1.58-10,.52-20.91,2.45-28l-7.21-1.08a63.52,63.52,0,0,0,.84,32.21C196.47,113.64,213.2,123.69,219,119.17Z"/><path class="cls-4" d="M216.88,210s-.59,5.87-5.28,7-17.61,4.69-1.76,5.28,17.61-.59,17.61-.59,0-10-1.76-11.15S216.88,210,216.88,210Z"/><path class="cls-3" d="M220.62,209.82c2,0,4.18.14,5.07.73,1.76,1.17,1.76,11.15,1.76,11.15s-1.13.75-9.7.75c-2.14,0-4.75,0-7.91-.16-15.85-.59-2.94-4.11,1.76-5.28s5.28-7,5.28-7,1.76-.14,3.74-.14m0-1.77c-2,0-3.81.15-3.89.16l-1.46.12-.14,1.46s-.54,4.65-4,5.51c-2.44.61-4.48,1.2-6.06,1.75-2.49.87-4.9,1.89-4.68,3.95s2.48,2.8,9.34,3.05c3,.11,5.65.17,8,.17,6,0,9.63-.36,10.67-1.05l.79-.53v-.94c0-.1,0-2.6-.23-5.28-.45-5.39-1.38-6.71-2.32-7.34-.72-.48-2-1-6-1Z"/><path class="cls-4" d="M248.55,210s.59,5.87,5.28,7,17.61,4.69,1.77,5.28S238,221.7,238,221.7s0-10,1.77-11.15S248.55,210,248.55,210Z"/><path class="cls-3" d="M244.81,209.82c2,0,3.74.14,3.74.14s.59,5.87,5.28,7,17.62,4.69,1.77,5.28c-3.17.12-5.78.16-7.92.16-8.57,0-9.7-.75-9.7-.75s0-10,1.77-11.15c.88-.59,3.08-.73,5.06-.73m0-1.77c-4,0-5.32.55-6,1-.94.63-1.87,1.95-2.32,7.34-.22,2.68-.23,5.18-.23,5.28v.94l.79.53c1,.69,4.63,1.05,10.67,1.05,2.33,0,5-.06,8-.17,6.86-.25,9.13-1,9.34-3.05s-2.19-3.08-4.68-3.95c-1.58-.55-3.62-1.14-6.06-1.75-3.42-.86-3.95-5.47-4-5.52l-.15-1.44-1.45-.13c-.08,0-1.86-.16-3.89-.16Z"/><path class="cls-2" d="M204.55,157.13s8.22,50.48,11.16,55.77h11.15l-2.35-34.05H231l7,34.05h11.74s-2.34-29.94-2.34-34.64,2.93-20,1.17-24.07S204.55,157.13,204.55,157.13Z"/><path class="cls-3" d="M242.14,152.91c3.58,0,6,.36,6.44,1.28,1.76,4.11-1.17,19.38-1.17,24.07s2.34,34.64,2.34,34.64H238l-7-34.05h-6.46l2.35,34.05H215.71c-2.94-5.29-11.16-55.77-11.16-55.77s25.34-4.22,37.59-4.22m0-1.76c-12.26,0-36.84,4.07-37.88,4.24l-1.73.29.28,1.73c.85,5.2,8.36,51,11.36,56.34l.5.91h14.08l-.13-1.88-2.22-32.17h3.13l6.76,32.64.29,1.41h15.08l-.15-1.9c0-.3-2.34-29.92-2.34-34.5,0-1.45.33-4.24.68-7.18,1-8.16,1.61-14.64.35-17.58-.73-1.69-3-2.35-8.06-2.35Z"/><path class="cls-7" d="M247.41,178.26c0-4.69,2.93-20,1.17-24.07s-44,2.94-44,2.94.47,3.31,1.22,8.41A49.78,49.78,0,0,0,235,171.61a3.3,3.3,0,0,1,3.57,2.77l7.36,38.52h3.87S247.41,183,247.41,178.26Z"/><path class="cls-4" d="M229.56,105.41c-9.39-.62-16.75.37-19.51,12.48-4.15,18.28-24.29,43.4,10.58,48.45,32.57,4.71,32.55-3.62,34.06-10.46,2.12-9.58-4.09-24.45-5.59-33.2C247.1,111,246,106.48,229.56,105.41Z"/><path class="cls-3" d="M232.05,105.61c14,1.38,15.16,6,17,17.07,1.5,8.75,7.71,23.62,5.59,33.2-1.39,6.29-1.48,13.83-26.81,11.35-2.21-.22-4.63-.51-7.25-.89-34.87-5.05-14.73-30.17-10.58-48.45,2.76-12.11,10.12-13.1,19.51-12.48.87,0,1.7.12,2.49.2m.17-1.76c-.8-.07-1.65-.14-2.54-.2-9.07-.6-18.19,0-21.35,13.85A93.49,93.49,0,0,1,204.1,130c-3.88,10-7.89,20.35-3.34,28.13,3,5.21,9.46,8.45,19.62,9.92,2.6.38,5.06.68,7.33.9,11.25,1.11,18.53.39,22.89-2.26,4.15-2.51,5-6.36,5.6-9.45l.21-1c1.57-7.08-1-16.42-3.29-24.66-1-3.41-1.84-6.63-2.28-9.22-1.05-6.09-1.86-10-4.36-13-2.64-3.16-6.9-4.81-14.26-5.54Z"/><path class="cls-6" d="M254.65,156.06l-1.34-1.18s-17.21,7.16-29.54,6.54c-7.67-.39-16.83-4.11-22.66-6.88,1.68,5.67,7.12,10,19.52,11.8C252.92,171,253.18,162.86,254.65,156.06Z"/><path class="cls-2" d="M224.33,98.66l-.86,8.76s3.68,4.49,11,1.67l.92-9.35Z"/><path class="cls-3" d="M228.77,110.86a9.12,9.12,0,0,1-6-2.88l-.24-.28,1-10L236.39,99l-1.06,10.77-.51.19A13.2,13.2,0,0,1,228.77,110.86Zm-4.39-3.75c.84.81,3.91,3.2,9.31,1.34l.77-7.92-9.34-.91Z"/><path class="cls-2" d="M224.62,100.12c-7.05-2.27-12.92-4.6-9.74-14.36s3.89-21.35,5.17-24,1.82-11.29,21.63-6,11.52,25.44,10.24,28S245.24,106.77,224.62,100.12Z"/><path class="cls-3" d="M233.77,54.25a48.85,48.85,0,0,1,7.91,1.51C261.5,61,253.2,81.2,251.92,83.8c-1.16,2.35-5.66,19.11-21.62,17.55a27.62,27.62,0,0,1-5.68-1.23c-7.05-2.27-12.92-4.6-9.74-14.36s3.89-21.35,5.17-24c1.08-2.2,1.64-8.74,13.72-7.55m.17-1.76h0c-11.88-1.16-14.07,4.8-15.12,7.67-.13.34-.25.67-.35.87-.63,1.28-1,3.56-1.71,7.81a111.89,111.89,0,0,1-3.56,16.38c-1.3,4-1.29,7.17,0,9.73,1.9,3.71,6,5.3,10.87,6.85a29.35,29.35,0,0,0,6,1.3c15.57,1.53,21.11-12.75,22.93-17.44.18-.46.35-.9.44-1.08.23-.47,5.6-11.6,1.4-20.81-2.17-4.78-6.47-8-12.77-9.71a52.92,52.92,0,0,0-8.19-1.57Z"/><path class="cls-7" d="M214.88,85.76c-3.18,9.76,2.69,12.09,9.74,14.36,6.15,2,10.94,1.56,14.68-.08-7.53-.4-16.48-3-19.23-8.41C216.88,85.32,227,56.41,227,56.41l2.2-2.23c-7.66.7-8.2,5.75-9.13,7.62C218.77,64.41,218.06,76,214.88,85.76Z"/><path class="cls-4" d="M220.74,60S213.43,48,214.48,44s35.67,5.21,42.59,8.87,13.92,2.47,7.32,15.91-12.14,22.94-16,22.79l2.38-12.45s-5-8.62-5.5-13.61C245.22,65.5,228.53,58.89,220.74,60Z"/><path class="cls-3" d="M220.42,43.17c10.44,1,31.43,6.93,36.65,9.69,6.93,3.65,13.92,2.47,7.32,15.91s-12.14,22.94-16,22.79l2.38-12.45s-5-8.62-5.5-13.61c0,0-11.73-4.64-20.11-5.47a18.67,18.67,0,0,0-4.37,0S213.43,48,214.48,44c.26-1,2.54-1.16,5.94-.82m.17-1.76c-3.67-.36-7.15-.35-7.81,2.13C211.59,48,218,58.83,219.23,61l.61,1,1.16-.17a16.07,16.07,0,0,1,3.94,0c6.69.65,15.77,3.9,18.69,5,.86,4.55,4.17,10.72,5.24,12.63l-2.26,11.82-.39,2,2.05.08c4.37.17,9-6.06,17.7-23.78,2.67-5.43,3.41-9,2.39-11.63s-3.79-3.83-6.66-4.95a37.64,37.64,0,0,1-3.81-1.66c-5.58-2.95-26.93-8.87-37.3-9.89Z"/><path class="cls-2" d="M246.6,78.62s4.3-7.06,6.74-1.4-2.49,12.85-6.16,10.67"/><path class="cls-3" d="M248.26,89.16a3.82,3.82,0,0,1-1.53-.52l.9-1.51a2.53,2.53,0,0,0,2.94-.61,8.33,8.33,0,0,0,2-9c-.32-.72-.83-1.59-1.51-1.66h0c-1.25-.09-3,2.1-3.65,3.17l-1.5-.92c.26-.43,2.63-4.19,5.27-4,1.26.08,2.29,1,3,2.72a10,10,0,0,1-2.42,11A4.62,4.62,0,0,1,248.26,89.16Z"/><ellipse class="cls-3" cx="221.03" cy="74.27" rx="1.76" ry="1.17" transform="translate(92.59 268.88) rotate(-75.15)"/><ellipse class="cls-3" cx="233.72" cy="77.94" rx="1.76" ry="1.17" transform="translate(98.48 283.88) rotate(-75.15)"/><path class="cls-4" d="M218.32,84.48s-4.76,4.21-4.49,5.49c.09.46,10.67,3.21,15,4.51a.62.62,0,0,0,.66-1l-4.22-5.36Z"/><path class="cls-3" d="M218.32,84.48l6.93,3.66,4.22,5.36a.62.62,0,0,1-.53,1,.5.5,0,0,1-.13,0c-4.31-1.3-14.89-4-15-4.51-.27-1.28,4.49-5.49,4.49-5.49m-.25-2.12-.92.81c-5.52,4.88-5.19,6.48-5.05,7.16.26,1.23,1.19,1.51,4.27,2.44,1.8.53,4.13,1.19,6.38,1.82s4.17,1.16,5.55,1.58a1.87,1.87,0,0,0,.46.09,2.38,2.38,0,0,0,2.1-3.85l-4.23-5.36-.23-.29-.33-.17-6.93-3.66-1.07-.57Z"/><path class="cls-2" d="M225.83,76.76c-4,1.37-13.15,3.8-13.75,6.07s16.42,6.78,16.42,6.78"/><path class="cls-3" d="M228.27,90.46c-17.87-4.73-17.25-7.08-17-7.86.57-2.15,5.44-3.85,11.75-5.84l2.57-.83.57,1.66c-.73.25-1.63.54-2.61.85-3,.93-9.78,3.09-10.53,4.49,1,1.28,8.8,4,15.75,5.83Z"/><path class="cls-3" d="M231.15,98.74a8.17,8.17,0,0,1-2-.45.59.59,0,1,1,.42-1.1s2.32.88,3.67.07a2.22,2.22,0,0,0,1-1.79.58.58,0,0,1,.64-.51h0a.6.6,0,0,1,.52.65,3.37,3.37,0,0,1-1.54,2.65A4.45,4.45,0,0,1,231.15,98.74Z"/><path class="cls-3" d="M241.41,74.51a.6.6,0,0,1-.51-.44A4.73,4.73,0,0,0,238.72,71c-2.18-1.26-5.12-.44-5.15-.43a.6.6,0,0,1-.73-.41.58.58,0,0,1,.4-.72,8.7,8.7,0,0,1,6.06.53A5.84,5.84,0,0,1,242,73.78a.59.59,0,0,1-.42.71A.71.71,0,0,1,241.41,74.51Z"/><path class="cls-3" d="M225.46,69.37a.61.61,0,0,1-.5-.4c-.55-1.61-1.28-2.54-2.19-2.74-1.47-.32-3.05,1.29-3.07,1.3a.58.58,0,0,1-.83,0,.59.59,0,0,1,0-.83c.08-.09,2.06-2.1,4.17-1.63,1.33.29,2.35,1.47,3.05,3.5a.6.6,0,0,1-.37.75A.72.72,0,0,1,225.46,69.37Z"/><path class="cls-7" d="M224.53,179.22l-.31-.08c-3.58-.39-2.58,17.1-1.57,33.76h4.21Z"/><path class="cls-6" d="M264.39,68.77c6.6-13.44-.39-12.26-7.32-15.91S215.53,40,214.48,44a5.08,5.08,0,0,0,0,2.06l40.28,11.51a7.26,7.26,0,0,1,4.93,9.18l-7,22C256,85,260,77.76,264.39,68.77Z"/><path class="cls-2" d="M282.14,94.58s.55-4.41,6.05-8.55,9.62-15.16,4.66-16.81-12.66,10.49-14.3,18.2S282.14,94.58,282.14,94.58Z"/><path class="cls-3" d="M281.93,95.51a4.49,4.49,0,0,1-3.34-1.41c-1.29-1.43-1.61-3.74-.94-6.87C279,80.94,284.14,71.81,289,69a5,5,0,0,1,4.1-.66,4.09,4.09,0,0,1,2.77,3.5c.71,4.36-2.77,11.62-7.16,14.92-5.14,3.86-5.69,7.89-5.69,7.93l-.09.72-.73.08Zm10-25.51a4,4,0,0,0-1.93.61c-4.34,2.49-9.3,11.34-10.51,17-.52,2.46-.35,4.27.5,5.23a2.55,2.55,0,0,0,1.46.78c.44-1.57,1.85-5,6.23-8.33,3.79-2.86,7-9.49,6.44-13.16a2.28,2.28,0,0,0-1.52-2A2.09,2.09,0,0,0,291.89,70Z"/><path class="cls-4" d="M238.15,120.78c.36,8.18,21.59,9.07,34.73-2.61a63.52,63.52,0,0,0,17.5-27l-15.05-6.35s-4.6,15.65-11.72,22.26S237.39,103.45,238.15,120.78Z"/><path class="cls-3" d="M275.33,84.77l15.05,6.35a63.52,63.52,0,0,1-17.5,27.05,36,36,0,0,1-23.07,8.76c-6.55,0-11.49-2.24-11.66-6.15-.76-17.33,18.33-7.14,25.46-13.75s11.72-22.26,11.72-22.26m-1.19-2.51-.58,2c-.05.15-4.54,15.24-11.21,21.42-2.19,2-6.13,2.11-10.31,2.2-4.87.1-9.9.21-13,3.56-2,2.13-2.88,5.22-2.7,9.43.21,4.81,5.52,7.92,13.51,7.92a37.58,37.58,0,0,0,24.3-9.23,65,65,0,0,0,18.05-27.93l.44-1.57-1.5-.64-15.05-6.34-1.91-.81Z"/><path class="cls-6" d="M238.43,122.16c9.19.6,25.16.2,32.73-8.71,6.58-7.75,10.46-18.11,12.5-25.17l6.72,2.84a63.52,63.52,0,0,1-17.5,27.05C260.52,129.15,241,129,238.43,122.16Z"/></g></g></svg>