<svg xmlns="http://www.w3.org/2000/svg" viewBox="0 0 274.25 265.66"><defs><style>.cls-1{fill:#f4f4f4;}.cls-2{fill:#fff;}.cls-3,.cls-4{fill:#7177bf;}.cls-4{font-size:10.11px;font-family:GothamRounded-Bold, Gotham Rounded;font-weight:700;}.cls-5{letter-spacing:-0.01em;}.cls-6{letter-spacing:0em;}.cls-7{letter-spacing:-0.02em;}.cls-8{letter-spacing:-0.02em;}.cls-9{letter-spacing:-0.01em;}.cls-10{fill:#dbdbf1;}.cls-11{fill:#ededf7;}.cls-12{fill:#f5f6f7;}</style></defs><title>Recurso 19</title><g id="Capa_2" data-name="Capa 2"><g id="Capa_1-2" data-name="Capa 1"><path class="cls-1" d="M19.81,177.5C-3.43,115.32,32.51,99,60.7,46.61,87.37-3,149.74-14.81,183.31,19.86s107.76,112,81.4,162.37-48.88,90.87-126,82.27C76.38,257.55,45.24,245.57,19.81,177.5Z"/><rect class="cls-2" x="47.93" y="37.34" width="106.79" height="44.23" rx="18.5" ry="18.5"/><path class="cls-3" d="M143,37.34A11.72,11.72,0,0,1,154.73,49V69.89A11.73,11.73,0,0,1,143,81.58H59.62A11.74,11.74,0,0,1,47.93,69.89V49A11.73,11.73,0,0,1,59.62,37.34H143m0-1.89H59.62A13.59,13.59,0,0,0,46,49V69.89A13.59,13.59,0,0,0,59.62,83.47H143a13.59,13.59,0,0,0,13.58-13.58V49A13.59,13.59,0,0,0,143,35.45Z"/><text class="cls-4" transform="translate(90.9 54.61)">En<tspan class="cls-5" x="13.07" y="0">t</tspan><tspan class="cls-6" x="17.12" y="0">erpri</tspan><tspan class="cls-7" x="41.65" y="0">c</tspan><tspan x="47.27" y="0">e</tspan></text><circle class="cls-2" cx="70.05" cy="60.09" r="15.17"/><path class="cls-3" d="M70.05,44.92A15.17,15.17,0,1,1,54.89,60.09,15.17,15.17,0,0,1,70.05,44.92m0-1.89A17.06,17.06,0,1,0,87.11,60.09,17.08,17.08,0,0,0,70.05,43Z"/><polygon class="cls-2" points="94.38 61.68 95.65 64.25 98.49 64.66 96.43 66.67 96.92 69.49 94.38 68.16 91.84 69.49 92.33 66.67 90.27 64.66 93.11 64.25 94.38 61.68"/><path class="cls-3" d="M94.38,61.68l1.27,2.57,2.84.41-2.06,2,.49,2.82-2.54-1.33-2.54,1.33.49-2.82-2.06-2,2.84-.41,1.27-2.57m0-1.26a1.26,1.26,0,0,0-1.13.7l-1,2-2.18.31a1.27,1.27,0,0,0-.7,2.16L91,67.11l-.37,2.17a1.24,1.24,0,0,0,.5,1.23,1.23,1.23,0,0,0,1.33.1l1.95-1,2,1a1.23,1.23,0,0,0,.59.15,1.27,1.27,0,0,0,.74-.25,1.24,1.24,0,0,0,.5-1.23l-.37-2.17,1.58-1.54a1.27,1.27,0,0,0-.7-2.16l-2.18-.31-1-2a1.26,1.26,0,0,0-1.13-.7Z"/><polygon class="cls-2" points="106.39 61.68 107.66 64.25 110.49 64.66 108.44 66.67 108.92 69.49 106.39 68.16 103.85 69.49 104.33 66.67 102.28 64.66 105.12 64.25 106.39 61.68"/><path class="cls-3" d="M106.39,61.68l1.27,2.57,2.83.41-2,2,.48,2.82-2.53-1.33-2.54,1.33.48-2.82-2-2,2.84-.41,1.27-2.57m0-1.26a1.27,1.27,0,0,0-1.14.7l-1,2-2.18.31a1.27,1.27,0,0,0-1,.86,1.26,1.26,0,0,0,.32,1.3L103,67.11l-.37,2.17a1.27,1.27,0,0,0,.5,1.23,1.3,1.3,0,0,0,.75.25,1.26,1.26,0,0,0,.59-.15l2-1,2,1a1.19,1.19,0,0,0,.58.15,1.27,1.27,0,0,0,.75-.25,1.25,1.25,0,0,0,.5-1.23l-.37-2.17,1.58-1.54a1.27,1.27,0,0,0-.7-2.16l-2.19-.31-1-2a1.26,1.26,0,0,0-1.13-.7Z"/><polygon class="cls-2" points="118.39 61.68 119.66 64.25 122.5 64.66 120.45 66.67 120.93 69.49 118.39 68.16 115.85 69.49 116.34 66.67 114.28 64.66 117.12 64.25 118.39 61.68"/><path class="cls-3" d="M118.39,61.68l1.27,2.57,2.84.41-2,2,.48,2.82-2.54-1.33-2.54,1.33.49-2.82-2.06-2,2.84-.41,1.27-2.57m0-1.26a1.26,1.26,0,0,0-1.13.7l-1,2-2.18.31a1.27,1.27,0,0,0-.7,2.16L115,67.11l-.37,2.17a1.25,1.25,0,0,0,.5,1.23,1.27,1.27,0,0,0,.74.25,1.23,1.23,0,0,0,.59-.15l2-1,2,1a1.27,1.27,0,0,0,1.84-1.33l-.38-2.17,1.58-1.54a1.26,1.26,0,0,0,.32-1.3,1.27,1.27,0,0,0-1-.86l-2.18-.31-1-2a1.28,1.28,0,0,0-1.14-.7Z"/><polygon class="cls-2" points="130.4 61.68 131.67 64.25 134.51 64.66 132.45 66.67 132.94 69.49 130.4 68.16 127.86 69.49 128.34 66.67 126.29 64.66 129.13 64.25 130.4 61.68"/><path class="cls-3" d="M130.4,61.68l1.27,2.57,2.84.41-2.06,2,.49,2.82-2.54-1.33-2.54,1.33.48-2.82-2-2,2.84-.41,1.27-2.57m0-1.26a1.26,1.26,0,0,0-1.13.7l-1,2-2.18.31a1.27,1.27,0,0,0-1,.86,1.26,1.26,0,0,0,.32,1.3L127,67.11l-.38,2.17a1.26,1.26,0,0,0,1.84,1.33l2-1,1.95,1a1.23,1.23,0,0,0,.59.15,1.27,1.27,0,0,0,.74-.25,1.25,1.25,0,0,0,.5-1.23l-.37-2.17,1.58-1.54a1.27,1.27,0,0,0-.7-2.16l-2.18-.31-1-2a1.26,1.26,0,0,0-1.13-.7Z"/><polygon class="cls-2" points="142.41 61.68 143.67 64.25 146.51 64.66 144.46 66.67 144.94 69.49 142.41 68.16 139.87 69.49 140.35 66.67 138.3 64.66 141.13 64.25 142.41 61.68"/><path class="cls-3" d="M142.4,61.68l1.27,2.57,2.84.41-2,2,.48,2.82-2.54-1.33-2.53,1.33.48-2.82-2-2,2.84-.41,1.26-2.57m0-1.26a1.26,1.26,0,0,0-1.13.7l-1,2-2.18.31a1.27,1.27,0,0,0-.7,2.16L139,67.11l-.37,2.17a1.25,1.25,0,0,0,.5,1.23,1.27,1.27,0,0,0,.75.25,1.19,1.19,0,0,0,.58-.15l2-1,1.95,1a1.26,1.26,0,0,0,.59.15,1.3,1.3,0,0,0,.75-.25,1.25,1.25,0,0,0,.5-1.23l-.37-2.17,1.57-1.54a1.27,1.27,0,0,0-.7-2.16l-2.18-.31-1-2a1.27,1.27,0,0,0-1.14-.7Z"/><rect class="cls-2" x="1.9" y="99.75" width="106.79" height="44.23" rx="18.5" ry="18.5"/><path class="cls-3" d="M97,99.75a11.72,11.72,0,0,1,11.69,11.69v20.85A11.72,11.72,0,0,1,97,144H13.59A11.72,11.72,0,0,1,1.9,132.29V111.44A11.72,11.72,0,0,1,13.59,99.75H97m0-1.9H13.59A13.6,13.6,0,0,0,0,111.44v20.85a13.6,13.6,0,0,0,13.59,13.59H97a13.6,13.6,0,0,0,13.58-13.59V111.44A13.6,13.6,0,0,0,97,97.85Z"/><text class="cls-4" transform="translate(44.87 117.02)">En<tspan class="cls-8" x="13.07" y="0">t</tspan><tspan x="17.12" y="0">erpri</tspan><tspan class="cls-5" x="41.64" y="0">c</tspan><tspan x="47.27" y="0">e</tspan></text><circle class="cls-2" cx="24.01" cy="122.5" r="15.17"/><path class="cls-3" d="M24,107.33A15.17,15.17,0,1,1,8.85,122.5,15.17,15.17,0,0,1,24,107.33m0-1.89A17.06,17.06,0,1,0,41.07,122.5,17.08,17.08,0,0,0,24,105.44Z"/><polygon class="cls-2" points="48.34 124.09 49.61 126.66 52.45 127.07 50.4 129.07 50.88 131.9 48.34 130.57 45.8 131.9 46.29 129.07 44.23 127.07 47.07 126.66 48.34 124.09"/><path class="cls-3" d="M48.34,124.09l1.27,2.57,2.84.41-2.06,2,.49,2.83-2.54-1.33L45.8,131.9l.49-2.83-2.06-2,2.84-.41,1.27-2.57m0-1.27a1.26,1.26,0,0,0-1.13.71l-1,2-2.18.32a1.27,1.27,0,0,0-.7,2.16l1.58,1.53-.37,2.18a1.26,1.26,0,0,0,1.24,1.47,1.22,1.22,0,0,0,.59-.14l2-1,1.95,1a1.28,1.28,0,0,0,1.33-.1,1.24,1.24,0,0,0,.5-1.23l-.37-2.18L53.33,128a1.28,1.28,0,0,0,.32-1.3,1.26,1.26,0,0,0-1-.86l-2.18-.32-1-2a1.26,1.26,0,0,0-1.13-.71Z"/><polygon class="cls-2" points="60.35 124.09 61.62 126.66 64.45 127.07 62.4 129.07 62.89 131.9 60.35 130.57 57.81 131.9 58.29 129.07 56.24 127.07 59.08 126.66 60.35 124.09"/><path class="cls-3" d="M60.35,124.09l1.27,2.57,2.83.41-2.05,2,.49,2.83-2.54-1.33-2.54,1.33.48-2.83-2-2,2.84-.41,1.27-2.57m0-1.27a1.29,1.29,0,0,0-1.14.71l-1,2-2.18.32a1.27,1.27,0,0,0-.7,2.16l1.58,1.53-.38,2.18A1.27,1.27,0,0,0,58.4,133l2-1,1.95,1a1.2,1.2,0,0,0,.59.14,1.26,1.26,0,0,0,1.24-1.47l-.37-2.18L65.34,128a1.27,1.27,0,0,0-.7-2.16l-2.18-.32-1-2a1.26,1.26,0,0,0-1.13-.71Z"/><polygon class="cls-2" points="72.35 124.09 73.62 126.66 76.46 127.07 74.41 129.07 74.89 131.9 72.35 130.57 69.81 131.9 70.3 129.07 68.25 127.07 71.08 126.66 72.35 124.09"/><path class="cls-3" d="M72.35,124.09l1.27,2.57,2.84.41-2,2,.48,2.83-2.54-1.33-2.54,1.33.49-2.83-2-2,2.83-.41,1.27-2.57m0-1.27a1.26,1.26,0,0,0-1.13.71l-1,2-2.18.32a1.27,1.27,0,0,0-1,.86,1.3,1.3,0,0,0,.32,1.3l1.58,1.53-.37,2.18a1.26,1.26,0,0,0,1.24,1.47,1.2,1.2,0,0,0,.59-.14l1.95-1,2,1a1.27,1.27,0,0,0,1.84-1.33l-.38-2.18L77.34,128a1.27,1.27,0,0,0-.7-2.16l-2.18-.32-1-2a1.29,1.29,0,0,0-1.14-.71Z"/><rect class="cls-2" x="165.56" y="78.27" width="106.79" height="44.23" rx="18.5" ry="18.5"/><path class="cls-3" d="M260.66,78.27A11.72,11.72,0,0,1,272.35,90v20.85a11.72,11.72,0,0,1-11.69,11.69H177.25a11.72,11.72,0,0,1-11.69-11.69V90a11.72,11.72,0,0,1,11.69-11.69h83.41m0-1.9H177.25A13.6,13.6,0,0,0,163.66,90v20.85a13.6,13.6,0,0,0,13.59,13.58h83.41a13.6,13.6,0,0,0,13.59-13.58V90a13.6,13.6,0,0,0-13.59-13.59Z"/><text class="cls-4" transform="translate(208.53 95.54)">En<tspan class="cls-9" x="13.07" y="0">t</tspan><tspan x="17.12" y="0">erpri</tspan><tspan class="cls-7" x="41.64" y="0">c</tspan><tspan class="cls-6" x="47.27" y="0">e</tspan></text><circle class="cls-2" cx="187.68" cy="101.01" r="15.17"/><path class="cls-3" d="M187.68,85.85A15.17,15.17,0,1,1,172.51,101a15.16,15.16,0,0,1,15.17-15.16m0-1.9A17.07,17.07,0,1,0,204.74,101,17.09,17.09,0,0,0,187.68,84Z"/><polygon class="cls-2" points="212 102.6 213.27 105.17 216.11 105.59 214.06 107.59 214.54 110.42 212 109.08 209.47 110.42 209.95 107.59 207.9 105.59 210.74 105.17 212 102.6"/><path class="cls-3" d="M212,102.6l1.27,2.57,2.84.42-2.05,2,.48,2.83L212,109.08l-2.53,1.34.48-2.83-2-2,2.84-.42L212,102.6m0-1.26a1.26,1.26,0,0,0-1.13.7l-1,2-2.18.32a1.24,1.24,0,0,0-1,.86,1.26,1.26,0,0,0,.31,1.29l1.58,1.54-.37,2.17a1.26,1.26,0,0,0,1.25,1.48,1.19,1.19,0,0,0,.58-.15l1.95-1,1.95,1a1.26,1.26,0,0,0,.59.15,1.29,1.29,0,0,0,.75-.24,1.26,1.26,0,0,0,.5-1.24l-.37-2.17,1.57-1.54a1.26,1.26,0,0,0-.7-2.15l-2.18-.32-1-2a1.27,1.27,0,0,0-1.14-.7Z"/><polygon class="cls-2" points="224.01 102.6 225.28 105.17 228.12 105.59 226.06 107.59 226.55 110.42 224.01 109.08 221.47 110.42 221.96 107.59 219.9 105.59 222.74 105.17 224.01 102.6"/><path class="cls-3" d="M224,102.6l1.27,2.57,2.84.42-2.06,2,.49,2.83L224,109.08l-2.54,1.34.49-2.83-2.06-2,2.84-.42L224,102.6m0-1.26a1.26,1.26,0,0,0-1.13.7l-1,2-2.18.32a1.26,1.26,0,0,0-.7,2.15L220.6,108l-.37,2.17a1.26,1.26,0,0,0,1.24,1.48,1.23,1.23,0,0,0,.59-.15l1.95-1,2,1a1.25,1.25,0,0,0,1.33-.09,1.24,1.24,0,0,0,.5-1.24l-.37-2.17,1.58-1.54a1.26,1.26,0,0,0-.7-2.15l-2.18-.32-1-2a1.26,1.26,0,0,0-1.13-.7Z"/><polygon class="cls-2" points="236.02 102.6 237.29 105.17 240.12 105.59 238.07 107.59 238.56 110.42 236.02 109.08 233.48 110.42 233.96 107.59 231.91 105.59 234.75 105.17 236.02 102.6"/><path class="cls-3" d="M236,102.6l1.27,2.57,2.83.42-2.05,2,.49,2.83L236,109.08l-2.54,1.34.48-2.83-2.05-2,2.84-.42L236,102.6m0-1.26a1.28,1.28,0,0,0-1.14.7l-1,2-2.18.32a1.26,1.26,0,0,0-1,.86,1.24,1.24,0,0,0,.32,1.29l1.58,1.54-.38,2.17a1.26,1.26,0,0,0,1.84,1.33l2-1,1.95,1a1.2,1.2,0,0,0,.59.15,1.26,1.26,0,0,0,1.24-1.48l-.37-2.17,1.58-1.54a1.26,1.26,0,0,0-.7-2.15l-2.18-.32-1-2a1.26,1.26,0,0,0-1.13-.7Z"/><polygon class="cls-2" points="248.02 102.6 249.29 105.17 252.13 105.59 250.08 107.59 250.56 110.42 248.02 109.08 245.49 110.42 245.97 107.59 243.92 105.59 246.75 105.17 248.02 102.6"/><path class="cls-3" d="M248,102.6l1.27,2.57,2.84.42-2,2,.48,2.83L248,109.08l-2.54,1.34.49-2.83-2.05-2,2.83-.42L248,102.6m0-1.26a1.26,1.26,0,0,0-1.13.7l-1,2-2.18.32a1.26,1.26,0,0,0-.7,2.15l1.58,1.54-.37,2.17a1.26,1.26,0,0,0,1.24,1.48,1.2,1.2,0,0,0,.59-.15l2-1,1.95,1a1.27,1.27,0,0,0,1.84-1.33l-.38-2.17,1.58-1.54a1.24,1.24,0,0,0,.32-1.29,1.26,1.26,0,0,0-1-.86l-2.18-.32-1-2a1.28,1.28,0,0,0-1.14-.7Z"/><rect class="cls-2" x="31.6" y="169.95" width="106.79" height="44.23" rx="18.5" ry="18.5"/><path class="cls-3" d="M126.7,170a11.72,11.72,0,0,1,11.69,11.69V202.5a11.73,11.73,0,0,1-11.69,11.69H43.29A11.73,11.73,0,0,1,31.6,202.5V181.64A11.72,11.72,0,0,1,43.29,170H126.7m0-1.89H43.29A13.59,13.59,0,0,0,29.7,181.64V202.5a13.59,13.59,0,0,0,13.59,13.58H126.7a13.59,13.59,0,0,0,13.58-13.58V181.64a13.59,13.59,0,0,0-13.58-13.58Z"/><text class="cls-4" transform="translate(74.56 187.22)">En<tspan class="cls-8" x="13.07" y="0">t</tspan><tspan x="17.12" y="0">erpri</tspan><tspan class="cls-7" x="41.65" y="0">c</tspan><tspan x="47.27" y="0">e</tspan></text><circle class="cls-2" cx="53.71" cy="192.7" r="15.17"/><path class="cls-3" d="M53.71,177.53A15.17,15.17,0,1,1,38.55,192.7a15.17,15.17,0,0,1,15.16-15.17m0-1.89A17.06,17.06,0,1,0,70.77,192.7a17.08,17.08,0,0,0-17.06-17.06Z"/><polygon class="cls-2" points="78.04 194.29 79.31 196.86 82.15 197.27 80.09 199.28 80.58 202.1 78.04 200.77 75.5 202.1 75.99 199.28 73.93 197.27 76.77 196.86 78.04 194.29"/><path class="cls-3" d="M78,194.29l1.27,2.57,2.84.41-2.06,2,.49,2.82L78,200.77,75.5,202.1l.49-2.82-2.06-2,2.84-.41L78,194.29M78,193a1.26,1.26,0,0,0-1.13.7l-1,2-2.18.31a1.27,1.27,0,0,0-.7,2.16l1.58,1.54-.37,2.17a1.24,1.24,0,0,0,.5,1.23,1.27,1.27,0,0,0,.74.25,1.23,1.23,0,0,0,.59-.15l2-1,1.95,1a1.23,1.23,0,0,0,1.33-.1,1.24,1.24,0,0,0,.5-1.23l-.37-2.17L83,198.18a1.27,1.27,0,0,0-.7-2.16l-2.18-.31-1-2A1.26,1.26,0,0,0,78,193Z"/><polygon class="cls-2" points="90.05 194.29 91.32 196.86 94.15 197.27 92.1 199.28 92.58 202.1 90.05 200.77 87.51 202.1 87.99 199.28 85.94 197.27 88.78 196.86 90.05 194.29"/><path class="cls-3" d="M90.05,194.29l1.27,2.57,2.83.41-2.05,2,.49,2.82-2.54-1.33-2.54,1.33.48-2.82-2-2,2.84-.41,1.27-2.57m0-1.26a1.28,1.28,0,0,0-1.14.7l-1,2-2.18.31a1.27,1.27,0,0,0-1,.86,1.26,1.26,0,0,0,.32,1.3l1.57,1.54-.37,2.17a1.26,1.26,0,0,0,1.84,1.33l2-1,2,1a1.19,1.19,0,0,0,.58.15,1.27,1.27,0,0,0,.75-.25,1.25,1.25,0,0,0,.5-1.23l-.37-2.17L95,198.18a1.27,1.27,0,0,0-.7-2.16l-2.18-.31-1-2a1.26,1.26,0,0,0-1.13-.7Z"/><polygon class="cls-2" points="102.05 194.29 103.32 196.86 106.16 197.27 104.11 199.28 104.59 202.1 102.05 200.77 99.51 202.1 100 199.28 97.94 197.27 100.78 196.86 102.05 194.29"/><path class="cls-3" d="M102.05,194.29l1.27,2.57,2.84.41-2,2,.48,2.82-2.54-1.33-2.54,1.33.49-2.82-2-2,2.83-.41,1.27-2.57m0-1.26a1.26,1.26,0,0,0-1.13.7l-1,2-2.18.31a1.27,1.27,0,0,0-.7,2.16l1.58,1.54-.37,2.17a1.25,1.25,0,0,0,.5,1.23,1.27,1.27,0,0,0,.74.25,1.2,1.2,0,0,0,.59-.15l2-1,2,1a1.27,1.27,0,0,0,1.84-1.33l-.38-2.17,1.58-1.54a1.26,1.26,0,0,0,.32-1.3,1.27,1.27,0,0,0-1-.86l-2.18-.31-1-2a1.28,1.28,0,0,0-1.14-.7Z"/><polygon class="cls-2" points="114.06 194.29 115.33 196.86 118.17 197.27 116.11 199.28 116.6 202.1 114.06 200.77 111.52 202.1 112 199.28 109.95 197.27 112.79 196.86 114.06 194.29"/><path class="cls-3" d="M114.06,194.29l1.27,2.57,2.84.41-2.06,2,.49,2.82-2.54-1.33-2.54,1.33.49-2.82-2.06-2,2.84-.41,1.27-2.57m0-1.26a1.26,1.26,0,0,0-1.13.7l-1,2-2.18.31a1.27,1.27,0,0,0-.7,2.16l1.58,1.54-.38,2.17a1.26,1.26,0,0,0,1.84,1.33l2-1,2,1a1.23,1.23,0,0,0,.59.15,1.27,1.27,0,0,0,.74-.25,1.25,1.25,0,0,0,.5-1.23l-.37-2.17,1.58-1.54a1.27,1.27,0,0,0-.7-2.16l-2.18-.31-1-2a1.26,1.26,0,0,0-1.13-.7Z"/><rect class="cls-2" x="159.87" y="140.43" width="106.79" height="44.23" rx="18.5" ry="18.5"/><path class="cls-3" d="M255,140.43a11.72,11.72,0,0,1,11.69,11.69V173A11.72,11.72,0,0,1,255,184.67H171.56A11.72,11.72,0,0,1,159.87,173V152.12a11.72,11.72,0,0,1,11.69-11.69H255m0-1.89H171.56A13.59,13.59,0,0,0,158,152.12V173a13.59,13.59,0,0,0,13.58,13.58H255A13.59,13.59,0,0,0,268.56,173V152.12A13.59,13.59,0,0,0,255,138.54Z"/><text class="cls-4" transform="translate(202.84 157.7)">En<tspan class="cls-9" x="13.07" y="0">t</tspan><tspan x="17.12" y="0">erpri</tspan><tspan class="cls-7" x="41.64" y="0">c</tspan><tspan class="cls-6" x="47.27" y="0">e</tspan></text><circle class="cls-2" cx="181.99" cy="163.18" r="15.17"/><path class="cls-3" d="M182,148a15.17,15.17,0,1,1-15.17,15.16A15.16,15.16,0,0,1,182,148m0-1.9a17.06,17.06,0,1,0,17.06,17.06A17.08,17.08,0,0,0,182,146.12Z"/><polygon class="cls-2" points="206.32 164.77 207.59 167.34 210.43 167.75 208.37 169.76 208.86 172.58 206.32 171.25 203.78 172.58 204.26 169.76 202.21 167.75 205.05 167.34 206.32 164.77"/><path class="cls-3" d="M206.32,164.77l1.27,2.57,2.83.41-2,2,.49,2.82-2.54-1.33-2.54,1.33.48-2.82-2-2,2.84-.41,1.27-2.57m0-1.26a1.28,1.28,0,0,0-1.14.7l-1,2-2.18.31a1.27,1.27,0,0,0-1,.86,1.26,1.26,0,0,0,.32,1.3l1.58,1.54-.38,2.17a1.29,1.29,0,0,0,.51,1.24,1.25,1.25,0,0,0,1.33.09l1.95-1,2,1a1.2,1.2,0,0,0,.59.15,1.26,1.26,0,0,0,.74-.24,1.28,1.28,0,0,0,.5-1.24l-.37-2.17,1.58-1.54a1.27,1.27,0,0,0-.7-2.16l-2.18-.31-1-2a1.26,1.26,0,0,0-1.13-.7Z"/><polygon class="cls-2" points="218.32 164.77 219.59 167.34 222.43 167.75 220.38 169.76 220.86 172.58 218.32 171.25 215.78 172.58 216.27 169.76 214.22 167.75 217.05 167.34 218.32 164.77"/><path class="cls-3" d="M218.32,164.77l1.27,2.57,2.84.41-2.05,2,.48,2.82-2.54-1.33-2.53,1.33.48-2.82-2.05-2,2.83-.41,1.27-2.57m0-1.26a1.26,1.26,0,0,0-1.13.7l-1,2-2.18.31a1.27,1.27,0,0,0-.7,2.16l1.58,1.54-.37,2.17a1.28,1.28,0,0,0,.5,1.24,1.26,1.26,0,0,0,.75.24,1.19,1.19,0,0,0,.58-.15l1.95-1,2,1a1.25,1.25,0,0,0,1.33-.09,1.29,1.29,0,0,0,.51-1.24l-.37-2.17,1.57-1.54a1.26,1.26,0,0,0,.32-1.3,1.27,1.27,0,0,0-1-.86l-2.18-.31-1-2a1.28,1.28,0,0,0-1.14-.7Z"/><polygon class="cls-2" points="230.33 164.77 231.6 167.34 234.44 167.75 232.38 169.76 232.87 172.58 230.33 171.25 227.79 172.58 228.28 169.76 226.22 167.75 229.06 167.34 230.33 164.77"/><path class="cls-3" d="M230.33,164.77l1.27,2.57,2.84.41-2.06,2,.49,2.82-2.54-1.33-2.54,1.33.49-2.82-2.06-2,2.84-.41,1.27-2.57m0-1.26a1.26,1.26,0,0,0-1.13.7l-1,2-2.18.31a1.27,1.27,0,0,0-.7,2.16l1.58,1.54-.37,2.17a1.26,1.26,0,0,0,1.83,1.33l2-1,1.95,1a1.26,1.26,0,0,0,1.83-1.33l-.37-2.17,1.58-1.54a1.27,1.27,0,0,0-.7-2.16l-2.18-.31-1-2a1.26,1.26,0,0,0-1.13-.7Z"/><polygon class="cls-2" points="242.34 164.77 243.6 167.34 246.44 167.75 244.39 169.76 244.87 172.58 242.34 171.25 239.8 172.58 240.28 169.76 238.23 167.75 241.07 167.34 242.34 164.77"/><path class="cls-3" d="M242.34,164.77l1.27,2.57,2.83.41-2.05,2,.48,2.82-2.53-1.33-2.54,1.33.48-2.82-2.05-2,2.84-.41,1.27-2.57m0-1.26a1.27,1.27,0,0,0-1.14.7l-1,2-2.18.31a1.27,1.27,0,0,0-1,.86,1.26,1.26,0,0,0,.32,1.3l1.57,1.54-.37,2.17a1.26,1.26,0,0,0,1.25,1.48,1.26,1.26,0,0,0,.59-.15l2-1,1.95,1a1.19,1.19,0,0,0,.58.15,1.26,1.26,0,0,0,.75-.24,1.28,1.28,0,0,0,.5-1.24l-.37-2.17,1.58-1.54a1.27,1.27,0,0,0-.7-2.16l-2.19-.31-1-2a1.26,1.26,0,0,0-1.13-.7Z"/><path class="cls-2" d="M147.48,100.71l-4.49-5s-6.49-.5-7-4.49,3.49-3,3.49-3-7.49-6-7-9.49,4-1,5.49,1.5,10.49,6,13,11a15.48,15.48,0,0,1,1.5,9.48Z"/><path class="cls-3" d="M133.94,77c1.29,0,3.09,1.61,4.05,3.22,1.5,2.5,10.49,6,13,11a15.48,15.48,0,0,1,1.5,9.48h-5l-4.49-5s-6.49-.5-7-4.49c-.34-2.67,1.33-3.11,2.47-3.11a4.66,4.66,0,0,1,1,.11s-7.49-6-7-9.49c.18-1.23.73-1.72,1.44-1.72m0-1.76h0c-1.32,0-2.84.85-3.18,3.24-.41,2.88,2.46,6.34,4.92,8.72a3.71,3.71,0,0,0-.5.47,4.53,4.53,0,0,0-.93,3.75c.49,4,4.89,5.55,7.88,6l4,4.49.52.58h7.19l.31-1.38a17.25,17.25,0,0,0-1.64-10.65c-1.71-3.42-5.79-6-9.07-8.15-1.6-1-3.59-2.3-4-3-1.18-2-3.42-4.08-5.56-4.08Z"/><path class="cls-10" d="M141,99l10.09-11.78s12.33,21.31,31.4,28,4.83,18.65-6.17,15.14C163.17,126.18,143.83,109.08,141,99Z"/><path class="cls-3" d="M151.12,87.21s12.33,21.31,31.4,28c16.7,5.89,7.85,15.77-2,15.77a13.93,13.93,0,0,1-4.17-.63C163.17,126.18,143.83,109.08,141,99l10.09-11.78m.28-3-1.62,1.88L139.69,97.84l-.61.71.25.91c1.42,5.11,6.63,12,14.3,18.75,7.47,6.62,15.76,11.8,22.19,13.85a15.3,15.3,0,0,0,4.7.72c6.4,0,12.24-3.7,13-8.24.44-2.56-.34-7.39-10.43-11-18.25-6.44-30.35-27.06-30.47-27.26l-1.24-2.15Z"/><path class="cls-11" d="M190.51,126.91c-27-2.26-41-21.31-46.56-31.33L141,99c2.8,10.09,22.14,27.19,35.32,31.4C181.71,132.1,187.84,130.14,190.51,126.91Z"/><path class="cls-10" d="M189.13,219.58s-.59,5.87-5.29,7-17.61,4.69-1.76,5.28,17.61-.59,17.61-.59,0-10-1.76-11.15S189.13,219.58,189.13,219.58Z"/><path class="cls-3" d="M192.87,219.44c2,0,4.18.14,5.06.73,1.76,1.18,1.76,11.15,1.76,11.15s-1.12.76-9.69.76c-2.14,0-4.75-.05-7.92-.17-15.85-.59-2.93-4.11,1.76-5.28s5.29-7,5.29-7,1.76-.14,3.74-.14m0-1.76c-2,0-3.82.14-3.89.15l-1.46.12-.15,1.46s-.54,4.66-4,5.51c-2.45.61-4.48,1.2-6.06,1.75-2.49.87-4.9,1.89-4.69,4s2.49,2.8,9.35,3c3,.11,5.65.17,8,.17,6,0,9.63-.36,10.67-1.05l.78-.52v-1c0-.1,0-2.59-.22-5.28-.45-5.39-1.38-6.71-2.32-7.33-.72-.48-2.06-1-6-1Z"/><path class="cls-10" d="M220.8,219.58s.58,5.87,5.28,7,17.61,4.69,1.76,5.28-17.61-.59-17.61-.59,0-10,1.76-11.15S220.8,219.58,220.8,219.58Z"/><path class="cls-3" d="M217.05,219.44c2,0,3.75.14,3.75.14s.58,5.87,5.28,7,17.61,4.69,1.76,5.28c-3.17.12-5.78.17-7.92.17-8.56,0-9.69-.76-9.69-.76s0-10,1.76-11.15c.88-.59,3.08-.73,5.06-.73m0-1.76c-4,0-5.32.55-6,1-.93.62-1.87,1.94-2.31,7.33-.23,2.69-.23,5.18-.23,5.28v1l.78.52c1,.69,4.63,1.05,10.67,1.05,2.33,0,5-.06,8-.17,6.86-.25,9.13-1,9.34-3s-2.2-3.08-4.69-4c-1.58-.55-3.61-1.14-6.05-1.75-3.42-.85-4-5.47-4-5.52l-.16-1.44-1.45-.13c-.07,0-1.85-.15-3.89-.15Z"/><path class="cls-2" d="M176.8,166.75S185,217.24,188,222.52H199.1l-2.34-34.05h6.45l7,34.05H222s-2.35-29.94-2.35-34.64,2.94-19.95,1.17-24.06S176.8,166.75,176.8,166.75Z"/><path class="cls-3" d="M214.39,162.53c3.57,0,6,.36,6.43,1.29,1.77,4.11-1.17,19.37-1.17,24.06S222,222.52,222,222.52H210.26l-7-34.05h-6.45l2.34,34.05H188c-2.93-5.28-11.15-55.77-11.15-55.77s25.33-4.22,37.59-4.22m0-1.76c-12.26,0-36.84,4.07-37.88,4.24l-1.73.29.28,1.73c.85,5.2,8.35,50.95,11.35,56.34l.51.91H201l-.13-1.88-2.22-32.17h3.14l6.75,32.65.29,1.4H223.9l-.15-1.9c0-.3-2.34-29.92-2.34-34.5,0-1.45.33-4.23.68-7.18,1-8.16,1.61-14.63.35-17.58-.72-1.69-3-2.35-8.05-2.35Z"/><path class="cls-12" d="M219.65,187.88c0-4.69,2.94-19.95,1.17-24.06s-44,2.93-44,2.93.47,3.31,1.22,8.41a49.74,49.74,0,0,0,29.18,6.07,3.29,3.29,0,0,1,3.56,2.77l7.37,38.52H222S219.65,192.58,219.65,187.88Z"/><path class="cls-10" d="M196.76,115.43c-9.41.3-16.64,2-18.2,14.33-2.35,18.6-19.94,45.57,15.26,47.18,32.88,1.51,32-6.78,32.88-13.73,1.17-9.74-6.46-23.93-8.81-32.49C214.76,119.31,213.19,114.9,196.76,115.43Z"/><path class="cls-3" d="M199.25,115.39c14.11,0,15.68,4.52,18.64,15.33,2.35,8.56,10,22.75,8.81,32.49-.77,6.39-.13,13.91-25.57,13.91-2.23,0-4.66-.06-7.31-.18-35.2-1.61-17.61-28.58-15.26-47.18,1.56-12.32,8.79-14,18.2-14.33.87,0,1.7,0,2.49,0m0-1.76c-.8,0-1.66,0-2.55,0-9.09.29-18.11,1.76-19.89,15.87a94.11,94.11,0,0,1-3,12.89c-2.88,10.33-5.86,21-.58,28.31,3.54,4.89,10.24,7.49,20.5,8,2.62.12,5.11.18,7.39.18,11.3,0,18.47-1.42,22.56-4.48,3.88-2.91,4.3-6.82,4.64-10,0-.35.07-.69.11-1,.87-7.2-2.61-16.24-5.68-24.22-1.28-3.3-2.48-6.42-3.17-8.95-1.64-6-2.83-9.78-5.6-12.51-2.94-2.88-7.35-4.11-14.74-4.11Z"/><path class="cls-11" d="M226.67,163.39l-1.44-1s-16.44,8.8-28.77,9.39c-7.66.37-17.15-2.45-23.22-4.63,2.22,5.48,8.06,9.26,20.58,9.83C226.41,178.43,225.87,170.3,226.67,163.39Z"/><path class="cls-2" d="M190.89,109.22V118s4.11,4.11,11.15.59v-9.4Z"/><path class="cls-3" d="M196.5,120.94a9.14,9.14,0,0,1-6.24-2.29l-.25-.26v-10h12.91v10.82l-.49.24A13.11,13.11,0,0,1,196.5,120.94Zm-4.73-3.31c.91.72,4.19,2.81,9.39.43v-8h-9.39Z"/><path class="cls-2" d="M191.32,110.66c-7.23-1.57-13.3-3.32-11.1-13.35S182,75.68,183,73s.71-11.43,20.94-8.13S217.91,89,216.89,91.75,212.49,115.26,191.32,110.66Z"/><path class="cls-3" d="M196,64.1a50.65,50.65,0,0,1,8,.74C224.2,68.13,217.91,89,216.89,91.75c-.91,2.44-3.75,19.57-19.79,19.57a27.55,27.55,0,0,1-5.78-.66c-7.23-1.57-13.3-3.32-11.1-13.35S182,75.68,183,73c.86-2.3.77-8.87,12.92-8.87m0-1.76h0c-11.94,0-13.54,6.15-14.31,9.11-.09.35-.18.69-.26.9-.5,1.33-.66,3.64-.93,7.94a111.71,111.71,0,0,1-1.95,16.64c-.9,4.11-.59,7.27,1,9.69,2.25,3.51,6.53,4.68,11.49,5.76a29.45,29.45,0,0,0,6.15.7c15.64,0,19.76-14.75,21.11-19.6.14-.47.26-.92.33-1.12.19-.49,4.44-12.09-.63-20.84-2.63-4.54-7.23-7.37-13.66-8.42a52.77,52.77,0,0,0-8.3-.76Z"/><path class="cls-12" d="M180.22,97.31c-2.2,10,3.87,11.78,11.1,13.35,6.32,1.37,11,.47,14.6-1.52-7.53.34-16.69-1.34-20-6.49-3.78-6,3.44-35.72,3.44-35.72l2-2.44C183.81,65.93,183.77,71,183,73,182,75.68,182.43,87.29,180.22,97.31Z"/><path class="cls-10" d="M183.55,71.15s-8.46-11.31-7.8-15.37,36,1.7,43.25,4.66,14.1,1.11,8.84,15.12-9.84,24-13.75,24.25l1.15-12.62s-5.82-8.08-6.8-13C208.44,74.19,191.18,69.24,183.55,71.15Z"/><path class="cls-3" d="M181.57,54.38c10.5,0,32,3.83,37.43,6.06,7.25,3,14.1,1.11,8.84,15.12s-9.84,24-13.75,24.25l1.15-12.62s-5.82-8.08-6.8-13c0,0-12.13-3.48-20.55-3.48a18.24,18.24,0,0,0-4.34.44s-8.46-11.31-7.8-15.37c.16-1,2.41-1.4,5.82-1.4m0-1.76c-3.68,0-7.15.35-7.56,2.88-.74,4.56,6.64,14.71,8.13,16.7l.7.94,1.13-.28a16.41,16.41,0,0,1,3.92-.39c6.72,0,16.08,2.34,19.09,3.15,1.3,4.44,5.2,10.25,6.45,12.06l-1.09,12-.19,2,2-.12c4.36-.26,8.37-6.9,15.3-25.39,2.12-5.66,2.51-9.3,1.24-11.81s-4.15-3.44-7.12-4.28a34.64,34.64,0,0,1-3.94-1.28c-5.84-2.38-27.68-6.19-38.1-6.19Z"/><path class="cls-2" d="M211.09,87.11s3.59-7.44,6.58-2-1.23,13-5.09,11.21"/><path class="cls-3" d="M213.78,97.43a3.75,3.75,0,0,1-1.58-.36l.75-1.59a2.55,2.55,0,0,0,2.87-.9,8.29,8.29,0,0,0,1.08-9.09c-.38-.69-1-1.51-1.66-1.51h0c-1.25,0-2.78,2.38-3.32,3.51l-1.59-.76c.22-.46,2.21-4.44,4.86-4.51,1.26,0,2.38.77,3.28,2.41a10.05,10.05,0,0,1-1.33,11.16A4.65,4.65,0,0,1,213.78,97.43Z"/><ellipse class="cls-3" cx="185.22" cy="85.28" rx="1.76" ry="1.17" transform="translate(71.29 254.39) rotate(-80.76)"/><ellipse class="cls-3" cx="198.21" cy="87.69" rx="1.76" ry="1.17" transform="translate(79.82 269.24) rotate(-80.76)"/><path class="cls-10" d="M183.52,95.71s-4.32,4.65-3.93,5.9c.14.44,10.93,2.15,15.35,3a.62.62,0,0,0,.57-1l-4.74-4.92Z"/><path class="cls-3" d="M183.52,95.71l7.25,3,4.74,4.92a.63.63,0,0,1-.44,1.06l-.13,0c-4.42-.87-15.21-2.58-15.35-3-.39-1.25,3.93-5.9,3.93-5.9m-.46-2.09-.82.89c-5,5.39-4.54,7-4.33,7.62.37,1.2,1.32,1.39,4.48,2,1.84.36,4.23.78,6.53,1.19s4.27.75,5.68,1a2.42,2.42,0,0,0,.47,0,2.39,2.39,0,0,0,1.71-4L192,97.45l-.26-.27-.34-.14-7.25-3-1.13-.46Z"/><path class="cls-2" d="M190.25,87.29c-3.86,1.75-12.72,5.06-13.1,7.38s17,5.15,17,5.15"/><path class="cls-3" d="M194,100.69c-18.25-3-17.86-5.37-17.73-6.16.36-2.2,5-4.37,11.12-7,.94-.4,1.79-.76,2.48-1.08l.73,1.61c-.7.32-1.56.69-2.51,1.09-2.86,1.22-9.44,4-10,5.5,1.07,1.18,9.14,3.11,16.24,4.27Z"/><path class="cls-3" d="M197.68,108.64a8.8,8.8,0,0,1-2-.25.6.6,0,0,1-.41-.73.58.58,0,0,1,.72-.4s2.4.64,3.66-.3a2.23,2.23,0,0,0,.8-1.87.6.6,0,0,1,.59-.58h0a.59.59,0,0,1,.57.6,3.34,3.34,0,0,1-1.27,2.79A4.45,4.45,0,0,1,197.68,108.64Z"/><path class="cls-3" d="M205.53,83.52a.58.58,0,0,1-.55-.39,4.74,4.74,0,0,0-2.48-2.88c-2.29-1-5.14.07-5.16.08a.6.6,0,0,1-.77-.33.6.6,0,0,1,.33-.76,8.65,8.65,0,0,1,6.08-.06,5.87,5.87,0,0,1,3.1,3.55.6.6,0,0,1-.35.76Z"/><path class="cls-3" d="M189.16,80a.58.58,0,0,1-.54-.34c-.7-1.56-1.53-2.4-2.45-2.51-1.49-.18-2.91,1.57-2.93,1.59a.58.58,0,1,1-.92-.72c.08-.1,1.85-2.3,4-2,1.36.17,2.49,1.24,3.38,3.19a.59.59,0,0,1-.29.78A.52.52,0,0,1,189.16,80Z"/><path class="cls-12" d="M196.78,188.85a1.25,1.25,0,0,0-.32-.08c-3.57-.4-2.58,17.09-1.56,33.75h4.2Z"/><path class="cls-11" d="M227.84,75.56c5.26-14-1.59-12.15-8.84-15.12s-42.59-8.71-43.25-4.66a5.13,5.13,0,0,0,.2,2l41.22,7.52A7.27,7.27,0,0,1,223,74l-4.79,22.57C221.11,92.52,224.32,84.94,227.84,75.56Z"/><path class="cls-2" d="M220.82,163.23s-6.45,2.35-7,4.11,1.76,2.35,1.76,2.35-6,4-2.39,8.48,14.13-9.51,14.13-9.51Z"/><path class="cls-3" d="M215,179.92a3.14,3.14,0,0,1-2.51-1.2,5.39,5.39,0,0,1-1.28-4.27,8.27,8.27,0,0,1,2.74-4.57,3,3,0,0,1-.84-.91,2.34,2.34,0,0,1-.13-1.91c.66-2,6-4.07,7.57-4.66l.48-.17,7.49,6.29-.51.67c-.82,1.09-8.21,10.66-13,10.73Zm5.68-15.69c-3,1.16-5.81,2.7-6,3.39a.58.58,0,0,0,0,.5,2.05,2.05,0,0,0,1.13.71l1.88.49-1.6,1.1s-2.76,1.9-3.11,4.29a3.64,3.64,0,0,0,.9,2.91,1.35,1.35,0,0,0,1.13.54h0c3.07,0,8.62-6.26,11.08-9.37Z"/><path class="cls-10" d="M210.85,119.2c1.65-2,5.87-4.11,11.74.59s16,12.3,17.61,20c1.76,8.22-4.7,21.13-9.4,27-1.83,2.29-3,3.52-3,3.52l-10-9.39s10.91-12.24,6.46-19.37C221.41,136.81,203.21,128.6,210.85,119.2Z"/><path class="cls-3" d="M215.78,116.94c1.88,0,4.18.75,6.81,2.85,5.87,4.7,16,12.3,17.61,20,1.76,8.22-4.7,21.13-9.4,27-1.83,2.29-3,3.52-3,3.52l-10-9.39s10.91-12.24,6.46-19.37c-2.94-4.7-21.14-12.91-13.5-22.31a6.34,6.34,0,0,1,4.93-2.26m0-1.76h0a8.05,8.05,0,0,0-6.3,2.91,8.92,8.92,0,0,0-2.2,6.73c.6,5.32,6.23,9.75,10.76,13.3,2.13,1.67,4.15,3.26,4.81,4.32,3.08,4.93-3.48,14.14-6.28,17.27L215.44,161l1.24,1.17,10,9.4,1.31,1.23,1.21-1.33c0-.05,1.17-1.3,3-3.61,5-6.3,11.62-19.7,9.74-28.47-1.67-7.79-10.95-15.17-17.08-20-.4-.32-.79-.62-1.15-.92-2.69-2.14-5.35-3.23-7.91-3.23Z"/><path class="cls-11" d="M240.2,139.75c-1.64-7.66-11.74-15.26-17.61-20a12.82,12.82,0,0,0-5.13-2.66c6.31,5.06,15.56,13.93,17.45,23.79,2.08,10.78-6.1,20.68-11.08,25.56l4,3.79s1.12-1.23,3-3.52C235.5,160.88,242,148,240.2,139.75Z"/></g></g></svg>