<svg xmlns="http://www.w3.org/2000/svg" viewBox="0 0 1740 1184"><defs><style>.cls-1{fill:#fff;}.cls-2{fill:#524aa0;}.cls-3{fill:#7177bf;opacity:0.2;}</style></defs><title>Recurso 28</title><g id="Capa_2" data-name="Capa 2"><g id="Capa_1-2" data-name="Capa 1"><rect class="cls-1" width="1739" height="1184" rx="35.37" ry="35.37"/><path class="cls-2" d="M1703.73,0H656.5V1184H1703.73c20,0,36.27-15.83,36.27-35.37V35.37C1740,15.83,1723.76,0,1703.73,0Z"/><path class="cls-3" d="M1740,178.66C1617.81,424.13,1320.65,528.34,1049.29,448c-145-42.92-276.57-16-392.79,44.3V881.47C799.46,826,927.7,835.94,945.71,982c10.59,86-72.88,153-174.48,202h590c41.08-62,87.2-136.77,150.6-224,66.89-92,148.41-129.5,228.19-137.49Z"/></g></g></svg>