<svg xmlns="http://www.w3.org/2000/svg" viewBox="0 0 30 30"><defs><style>.cls-1{fill:#bbc1c5;}</style></defs><title>Recurso 27</title><g id="Capa_2" data-name="Capa 2"><g id="Capa_1-2" data-name="Capa 1"><path class="cls-1" d="M20.69,15l8.53-8.53a2.69,2.69,0,0,0,0-3.79L27.32.78a2.69,2.69,0,0,0-3.79,0L15,9.31,6.47.78a2.69,2.69,0,0,0-3.79,0L.78,2.68a2.69,2.69,0,0,0,0,3.79L9.31,15,.78,23.53a2.69,2.69,0,0,0,0,3.79l1.9,1.9a2.69,2.69,0,0,0,3.79,0L15,20.69l8.53,8.53a2.69,2.69,0,0,0,3.79,0l1.9-1.9a2.69,2.69,0,0,0,0-3.79Z"/></g></g></svg>